M48
INCH,TZ
T1C0.001
T2C0.024
T3C0.032
T4C0.032
T5C0.040
T6C0.047
T7C0.055
%
G90
G05
T1
X10500Y-9750
X10500Y-13000
X17500Y-16500
X17500Y-18000
X18500Y-16500
X18500Y-17500
T3
X20500Y-9500
X20500Y-15500
X21500Y-9500
X21500Y-15500
X22500Y-9500
X22500Y-15500
X23500Y-9500
X23500Y-15500
X24500Y-9500
X24500Y-15500
X25500Y-9500
X25500Y-15500
X26500Y-9500
X26500Y-15500
X27500Y-9500
X27500Y-15500
X28500Y-9500
X28500Y-15500
X29500Y-9500
X29500Y-15500
X30500Y-9500
X30500Y-15500
X31500Y-9500
X31500Y-15500
X32500Y-9500
X32500Y-15500
X33500Y-9500
X33500Y-15500
X34500Y-9500
X34500Y-15500
T5
X8500Y-9000
X8500Y-10000
X8500Y-11000
X8500Y-12000
X8500Y-14000
X8500Y-15000
T6
X17531Y-26000
X19500Y-26000
X21469Y-26000
X27031Y-26000
X29000Y-26000
X30969Y-26000
X36531Y-26000
X38500Y-26000
X40469Y-26000
T7
X9000Y-17500
X9000Y-19500
X9000Y-23500
X9000Y-25500
T2
X20417Y-19594G85X20732Y-19594
G05
X21417Y-19594G85X21732Y-19594
G05
X22417Y-19594G85X22732Y-19594
G05
X26417Y-19594G85X26732Y-19594
G05
X27417Y-19594G85X27732Y-19594
G05
X28417Y-19594G85X28732Y-19594
G05
X32417Y-19594G85X32732Y-19594
G05
X33417Y-19594G85X33732Y-19594
G05
X34417Y-19594G85X34732Y-19594
G05
T4
X11807Y-16736G85X14327Y-16736
G05
X11807Y-20949G85X14327Y-20949
G05
X11807Y-25161G85X14327Y-25161
G05
T0
M30
