G04 (created by PCBNEW (2013-jul-07)-stable) date Mon 01 Dez 2014 22:00:58 CET*
%MOIN*%
G04 Gerber Fmt 3.4, Leading zero omitted, Abs format*
%FSLAX34Y34*%
G01*
G70*
G90*
G04 APERTURE LIST*
%ADD10C,0.00590551*%
%ADD11C,0.0787402*%
%ADD12R,0.06X0.06*%
%ADD13C,0.06*%
%ADD14O,0.343307X0.0716535*%
%ADD15O,0.062X0.09*%
%ADD16R,0.062X0.09*%
%ADD17C,0.15*%
%ADD18O,0.0787402X0.0472441*%
%ADD19C,0.00116142*%
%ADD20C,0.019685*%
%ADD21C,0.0543307*%
G04 APERTURE END LIST*
G54D10*
G54D11*
X17531Y-26000D03*
X19500Y-26000D03*
X21468Y-26000D03*
X27031Y-26000D03*
X29000Y-26000D03*
X30968Y-26000D03*
X36531Y-26000D03*
X38500Y-26000D03*
X40468Y-26000D03*
G54D12*
X8500Y-12000D03*
G54D13*
X8500Y-11000D03*
X8500Y-10000D03*
X8500Y-9000D03*
G54D12*
X8500Y-15000D03*
G54D13*
X8500Y-14000D03*
G54D14*
X13066Y-25161D03*
X13066Y-20948D03*
X13066Y-16736D03*
G54D15*
X34500Y-9500D03*
X33500Y-9500D03*
X32500Y-9500D03*
X31500Y-9500D03*
X30500Y-9500D03*
X29500Y-9500D03*
X28500Y-9500D03*
X27500Y-9500D03*
X26500Y-9500D03*
X25500Y-9500D03*
X24500Y-9500D03*
X23500Y-9500D03*
X22500Y-9500D03*
X21500Y-9500D03*
X20500Y-9500D03*
G54D16*
X20500Y-15500D03*
G54D15*
X21500Y-15500D03*
X22500Y-15500D03*
X23500Y-15500D03*
X24500Y-15500D03*
X25500Y-15500D03*
X26500Y-15500D03*
X27500Y-15500D03*
X28500Y-15500D03*
X29500Y-15500D03*
X30500Y-15500D03*
X31500Y-15500D03*
X32500Y-15500D03*
X33500Y-15500D03*
X34500Y-15500D03*
G54D17*
X9000Y-17500D03*
X9000Y-19500D03*
X9000Y-23500D03*
X9000Y-25500D03*
G54D18*
X20574Y-19594D03*
X21574Y-19594D03*
X22574Y-19594D03*
X26574Y-19594D03*
X27574Y-19594D03*
X28574Y-19594D03*
X32574Y-19594D03*
X33574Y-19594D03*
X34574Y-19594D03*
G54D19*
X17500Y-18000D03*
X17500Y-16500D03*
X18500Y-17500D03*
X18500Y-16500D03*
X10500Y-9750D03*
X10500Y-13000D03*
G54D20*
X27031Y-23500D02*
X20000Y-23500D01*
X17531Y-25968D02*
X20000Y-23500D01*
X17531Y-25968D02*
X17531Y-26000D01*
X27031Y-26000D02*
X27031Y-23500D01*
X27031Y-23500D02*
X27000Y-23500D01*
X34000Y-23500D02*
X36531Y-23500D01*
X36531Y-23500D02*
X36500Y-23500D01*
X36500Y-23500D02*
X36531Y-23500D01*
X23500Y-9500D02*
X23500Y-9250D01*
X23500Y-9250D02*
X24250Y-8500D01*
X24250Y-8500D02*
X35750Y-8500D01*
X35750Y-8500D02*
X36500Y-9250D01*
X36500Y-9250D02*
X36531Y-23500D01*
X36531Y-23500D02*
X36531Y-26000D01*
X27000Y-23500D02*
X34000Y-23500D01*
X34000Y-23500D02*
X34031Y-23500D01*
X8500Y-11000D02*
X11000Y-11000D01*
X11000Y-11000D02*
X17000Y-17000D01*
X17000Y-17000D02*
X31000Y-17000D01*
X31000Y-17000D02*
X33574Y-19574D01*
X33574Y-19574D02*
X33574Y-19594D01*
X8500Y-10000D02*
X11000Y-10000D01*
X21574Y-19574D02*
X21574Y-19594D01*
X20000Y-18000D02*
X21574Y-19574D01*
X17500Y-18000D02*
X20000Y-18000D01*
X11000Y-10000D02*
X17500Y-16500D01*
X27574Y-19574D02*
X27574Y-19594D01*
X25500Y-17500D02*
X27574Y-19574D01*
X18500Y-17500D02*
X25500Y-17500D01*
X11000Y-9000D02*
X18500Y-16500D01*
X8500Y-9000D02*
X11000Y-9000D01*
G54D21*
X9000Y-25500D02*
X9338Y-25161D01*
X9338Y-25161D02*
X13066Y-25161D01*
X9000Y-23500D02*
X9000Y-25500D01*
X8500Y-12000D02*
X9500Y-12000D01*
X9500Y-12000D02*
X10500Y-13000D01*
X10500Y-13000D02*
X10500Y-14000D01*
X13066Y-20948D02*
X13066Y-20566D01*
X10500Y-18000D02*
X10500Y-14000D01*
X13066Y-20566D02*
X10500Y-18000D01*
X8500Y-15000D02*
X8500Y-17000D01*
X8500Y-17000D02*
X9000Y-17500D01*
X9000Y-17500D02*
X9000Y-19500D01*
M02*
