G04 (created by PCBNEW (2013-jul-07)-stable) date Mon 01 Dez 2014 22:22:30 CET*
%MOIN*%
G04 Gerber Fmt 3.4, Leading zero omitted, Abs format*
%FSLAX34Y34*%
G01*
G70*
G90*
G04 APERTURE LIST*
%ADD10C,0.00590551*%
%ADD11C,0.00787402*%
%ADD12C,0.011811*%
%ADD13C,0.01*%
%ADD14C,0.006*%
%ADD15C,0.015*%
%ADD16C,0.012*%
G04 APERTURE END LIST*
G54D10*
X39265Y-25159D02*
X39134Y-24971D01*
X39040Y-25159D02*
X39040Y-24765D01*
X39190Y-24765D01*
X39228Y-24784D01*
X39246Y-24803D01*
X39265Y-24840D01*
X39265Y-24896D01*
X39246Y-24934D01*
X39228Y-24953D01*
X39190Y-24971D01*
X39040Y-24971D01*
X39378Y-24765D02*
X39509Y-25159D01*
X39640Y-24765D01*
X39734Y-24765D02*
X39978Y-24765D01*
X39846Y-24915D01*
X39903Y-24915D01*
X39940Y-24934D01*
X39959Y-24953D01*
X39978Y-24990D01*
X39978Y-25084D01*
X39959Y-25121D01*
X39940Y-25140D01*
X39903Y-25159D01*
X39790Y-25159D01*
X39753Y-25140D01*
X39734Y-25121D01*
X29765Y-25159D02*
X29634Y-24971D01*
X29540Y-25159D02*
X29540Y-24765D01*
X29690Y-24765D01*
X29728Y-24784D01*
X29746Y-24803D01*
X29765Y-24840D01*
X29765Y-24896D01*
X29746Y-24934D01*
X29728Y-24953D01*
X29690Y-24971D01*
X29540Y-24971D01*
X29878Y-24765D02*
X30009Y-25159D01*
X30140Y-24765D01*
X30253Y-24803D02*
X30271Y-24784D01*
X30309Y-24765D01*
X30403Y-24765D01*
X30440Y-24784D01*
X30459Y-24803D01*
X30478Y-24840D01*
X30478Y-24878D01*
X30459Y-24934D01*
X30234Y-25159D01*
X30478Y-25159D01*
X20265Y-25159D02*
X20134Y-24971D01*
X20040Y-25159D02*
X20040Y-24765D01*
X20190Y-24765D01*
X20228Y-24784D01*
X20246Y-24803D01*
X20265Y-24840D01*
X20265Y-24896D01*
X20246Y-24934D01*
X20228Y-24953D01*
X20190Y-24971D01*
X20040Y-24971D01*
X20378Y-24765D02*
X20509Y-25159D01*
X20640Y-24765D01*
X20978Y-25159D02*
X20753Y-25159D01*
X20865Y-25159D02*
X20865Y-24765D01*
X20828Y-24821D01*
X20790Y-24859D01*
X20753Y-24878D01*
X33265Y-18359D02*
X33265Y-17965D01*
X33678Y-18359D02*
X33546Y-18171D01*
X33453Y-18359D02*
X33453Y-17965D01*
X33603Y-17965D01*
X33640Y-17984D01*
X33659Y-18003D01*
X33678Y-18040D01*
X33678Y-18096D01*
X33659Y-18134D01*
X33640Y-18153D01*
X33603Y-18171D01*
X33453Y-18171D01*
X33978Y-18153D02*
X33846Y-18153D01*
X33846Y-18359D02*
X33846Y-17965D01*
X34034Y-17965D01*
X34371Y-17965D02*
X34184Y-17965D01*
X34165Y-18153D01*
X34184Y-18134D01*
X34221Y-18115D01*
X34315Y-18115D01*
X34353Y-18134D01*
X34371Y-18153D01*
X34390Y-18190D01*
X34390Y-18284D01*
X34371Y-18321D01*
X34353Y-18340D01*
X34315Y-18359D01*
X34221Y-18359D01*
X34184Y-18340D01*
X34165Y-18321D01*
X34540Y-18003D02*
X34559Y-17984D01*
X34596Y-17965D01*
X34690Y-17965D01*
X34728Y-17984D01*
X34746Y-18003D01*
X34765Y-18040D01*
X34765Y-18078D01*
X34746Y-18134D01*
X34521Y-18359D01*
X34765Y-18359D01*
X35009Y-17965D02*
X35046Y-17965D01*
X35084Y-17984D01*
X35103Y-18003D01*
X35121Y-18040D01*
X35140Y-18115D01*
X35140Y-18209D01*
X35121Y-18284D01*
X35103Y-18321D01*
X35084Y-18340D01*
X35046Y-18359D01*
X35009Y-18359D01*
X34971Y-18340D01*
X34953Y-18321D01*
X34934Y-18284D01*
X34915Y-18209D01*
X34915Y-18115D01*
X34934Y-18040D01*
X34953Y-18003D01*
X34971Y-17984D01*
X35009Y-17965D01*
X35309Y-18359D02*
X35309Y-17965D01*
X35534Y-18359D01*
X35534Y-17965D01*
X27265Y-18359D02*
X27265Y-17965D01*
X27678Y-18359D02*
X27546Y-18171D01*
X27453Y-18359D02*
X27453Y-17965D01*
X27603Y-17965D01*
X27640Y-17984D01*
X27659Y-18003D01*
X27678Y-18040D01*
X27678Y-18096D01*
X27659Y-18134D01*
X27640Y-18153D01*
X27603Y-18171D01*
X27453Y-18171D01*
X27978Y-18153D02*
X27846Y-18153D01*
X27846Y-18359D02*
X27846Y-17965D01*
X28034Y-17965D01*
X28371Y-17965D02*
X28184Y-17965D01*
X28165Y-18153D01*
X28184Y-18134D01*
X28221Y-18115D01*
X28315Y-18115D01*
X28353Y-18134D01*
X28371Y-18153D01*
X28390Y-18190D01*
X28390Y-18284D01*
X28371Y-18321D01*
X28353Y-18340D01*
X28315Y-18359D01*
X28221Y-18359D01*
X28184Y-18340D01*
X28165Y-18321D01*
X28540Y-18003D02*
X28559Y-17984D01*
X28596Y-17965D01*
X28690Y-17965D01*
X28728Y-17984D01*
X28746Y-18003D01*
X28765Y-18040D01*
X28765Y-18078D01*
X28746Y-18134D01*
X28521Y-18359D01*
X28765Y-18359D01*
X29009Y-17965D02*
X29046Y-17965D01*
X29084Y-17984D01*
X29103Y-18003D01*
X29121Y-18040D01*
X29140Y-18115D01*
X29140Y-18209D01*
X29121Y-18284D01*
X29103Y-18321D01*
X29084Y-18340D01*
X29046Y-18359D01*
X29009Y-18359D01*
X28971Y-18340D01*
X28953Y-18321D01*
X28934Y-18284D01*
X28915Y-18209D01*
X28915Y-18115D01*
X28934Y-18040D01*
X28953Y-18003D01*
X28971Y-17984D01*
X29009Y-17965D01*
X29309Y-18359D02*
X29309Y-17965D01*
X29534Y-18359D01*
X29534Y-17965D01*
X21265Y-18359D02*
X21265Y-17965D01*
X21678Y-18359D02*
X21546Y-18171D01*
X21453Y-18359D02*
X21453Y-17965D01*
X21603Y-17965D01*
X21640Y-17984D01*
X21659Y-18003D01*
X21678Y-18040D01*
X21678Y-18096D01*
X21659Y-18134D01*
X21640Y-18153D01*
X21603Y-18171D01*
X21453Y-18171D01*
X21978Y-18153D02*
X21846Y-18153D01*
X21846Y-18359D02*
X21846Y-17965D01*
X22034Y-17965D01*
X22371Y-17965D02*
X22184Y-17965D01*
X22165Y-18153D01*
X22184Y-18134D01*
X22221Y-18115D01*
X22315Y-18115D01*
X22353Y-18134D01*
X22371Y-18153D01*
X22390Y-18190D01*
X22390Y-18284D01*
X22371Y-18321D01*
X22353Y-18340D01*
X22315Y-18359D01*
X22221Y-18359D01*
X22184Y-18340D01*
X22165Y-18321D01*
X22540Y-18003D02*
X22559Y-17984D01*
X22596Y-17965D01*
X22690Y-17965D01*
X22728Y-17984D01*
X22746Y-18003D01*
X22765Y-18040D01*
X22765Y-18078D01*
X22746Y-18134D01*
X22521Y-18359D01*
X22765Y-18359D01*
X23009Y-17965D02*
X23046Y-17965D01*
X23084Y-17984D01*
X23103Y-18003D01*
X23121Y-18040D01*
X23140Y-18115D01*
X23140Y-18209D01*
X23121Y-18284D01*
X23103Y-18321D01*
X23084Y-18340D01*
X23046Y-18359D01*
X23009Y-18359D01*
X22971Y-18340D01*
X22953Y-18321D01*
X22934Y-18284D01*
X22915Y-18209D01*
X22915Y-18115D01*
X22934Y-18040D01*
X22953Y-18003D01*
X22971Y-17984D01*
X23009Y-17965D01*
X23309Y-18359D02*
X23309Y-17965D01*
X23534Y-18359D01*
X23534Y-17965D01*
G54D11*
X31500Y-18500D02*
X35650Y-18500D01*
X25500Y-18500D02*
X29650Y-18500D01*
X19500Y-18500D02*
X23650Y-18500D01*
X13050Y-24500D02*
X13050Y-24600D01*
X13050Y-21600D02*
X13050Y-21500D01*
X13050Y-23400D02*
X13550Y-22900D01*
X13050Y-21600D02*
X13050Y-22700D01*
X13050Y-24500D02*
X13050Y-23400D01*
X9000Y-22100D02*
X9000Y-22500D01*
X9000Y-20500D02*
X9000Y-20900D01*
G54D10*
X8550Y-21153D02*
X8418Y-21153D01*
X8418Y-21359D02*
X8418Y-20965D01*
X8606Y-20965D01*
X8925Y-21096D02*
X8925Y-21359D01*
X8756Y-21096D02*
X8756Y-21303D01*
X8775Y-21340D01*
X8812Y-21359D01*
X8868Y-21359D01*
X8906Y-21340D01*
X8925Y-21321D01*
X9093Y-21340D02*
X9131Y-21359D01*
X9206Y-21359D01*
X9243Y-21340D01*
X9262Y-21303D01*
X9262Y-21284D01*
X9243Y-21246D01*
X9206Y-21228D01*
X9149Y-21228D01*
X9112Y-21209D01*
X9093Y-21171D01*
X9093Y-21153D01*
X9112Y-21115D01*
X9149Y-21096D01*
X9206Y-21096D01*
X9243Y-21115D01*
X9581Y-21340D02*
X9543Y-21359D01*
X9468Y-21359D01*
X9431Y-21340D01*
X9412Y-21303D01*
X9412Y-21153D01*
X9431Y-21115D01*
X9468Y-21096D01*
X9543Y-21096D01*
X9581Y-21115D01*
X9599Y-21153D01*
X9599Y-21190D01*
X9412Y-21228D01*
X8700Y-21575D02*
X8943Y-21575D01*
X8812Y-21725D01*
X8868Y-21725D01*
X8906Y-21744D01*
X8925Y-21763D01*
X8943Y-21800D01*
X8943Y-21894D01*
X8925Y-21932D01*
X8906Y-21950D01*
X8868Y-21969D01*
X8756Y-21969D01*
X8718Y-21950D01*
X8700Y-21932D01*
X9093Y-21857D02*
X9281Y-21857D01*
X9056Y-21969D02*
X9187Y-21575D01*
X9318Y-21969D01*
X9474Y-8953D02*
X9531Y-8971D01*
X9549Y-8990D01*
X9568Y-9028D01*
X9568Y-9084D01*
X9549Y-9121D01*
X9531Y-9140D01*
X9493Y-9159D01*
X9343Y-9159D01*
X9343Y-8765D01*
X9474Y-8765D01*
X9512Y-8784D01*
X9531Y-8803D01*
X9549Y-8840D01*
X9549Y-8878D01*
X9531Y-8915D01*
X9512Y-8934D01*
X9474Y-8953D01*
X9343Y-8953D01*
X9568Y-10159D02*
X9437Y-9971D01*
X9343Y-10159D02*
X9343Y-9765D01*
X9493Y-9765D01*
X9531Y-9784D01*
X9549Y-9803D01*
X9568Y-9840D01*
X9568Y-9896D01*
X9549Y-9934D01*
X9531Y-9953D01*
X9493Y-9971D01*
X9343Y-9971D01*
X9549Y-10784D02*
X9512Y-10765D01*
X9456Y-10765D01*
X9399Y-10784D01*
X9362Y-10821D01*
X9343Y-10859D01*
X9324Y-10934D01*
X9324Y-10990D01*
X9343Y-11065D01*
X9362Y-11103D01*
X9399Y-11140D01*
X9456Y-11159D01*
X9493Y-11159D01*
X9549Y-11140D01*
X9568Y-11121D01*
X9568Y-10990D01*
X9493Y-10990D01*
X9343Y-12009D02*
X9643Y-12009D01*
X9493Y-12159D02*
X9493Y-11859D01*
X9450Y-13784D02*
X9412Y-13765D01*
X9356Y-13765D01*
X9300Y-13784D01*
X9262Y-13821D01*
X9243Y-13859D01*
X9225Y-13934D01*
X9225Y-13990D01*
X9243Y-14065D01*
X9262Y-14103D01*
X9300Y-14140D01*
X9356Y-14159D01*
X9393Y-14159D01*
X9450Y-14140D01*
X9468Y-14121D01*
X9468Y-13990D01*
X9393Y-13990D01*
X9637Y-14159D02*
X9637Y-13765D01*
X9862Y-14159D01*
X9862Y-13765D01*
X10049Y-14159D02*
X10049Y-13765D01*
X10143Y-13765D01*
X10199Y-13784D01*
X10237Y-13821D01*
X10256Y-13859D01*
X10274Y-13934D01*
X10274Y-13990D01*
X10256Y-14065D01*
X10237Y-14103D01*
X10199Y-14140D01*
X10143Y-14159D01*
X10049Y-14159D01*
X9506Y-15159D02*
X9281Y-15159D01*
X9393Y-15159D02*
X9393Y-14765D01*
X9356Y-14821D01*
X9318Y-14859D01*
X9281Y-14878D01*
X9656Y-14803D02*
X9675Y-14784D01*
X9712Y-14765D01*
X9806Y-14765D01*
X9843Y-14784D01*
X9862Y-14803D01*
X9881Y-14840D01*
X9881Y-14878D01*
X9862Y-14934D01*
X9637Y-15159D01*
X9881Y-15159D01*
X9993Y-14765D02*
X10124Y-15159D01*
X10256Y-14765D01*
X35234Y-12003D02*
X34915Y-12003D01*
X34878Y-12021D01*
X34859Y-12040D01*
X34840Y-12078D01*
X34840Y-12153D01*
X34859Y-12190D01*
X34878Y-12209D01*
X34915Y-12228D01*
X35234Y-12228D01*
X34859Y-12396D02*
X34840Y-12453D01*
X34840Y-12546D01*
X34859Y-12584D01*
X34878Y-12603D01*
X34915Y-12621D01*
X34953Y-12621D01*
X34990Y-12603D01*
X35009Y-12584D01*
X35028Y-12546D01*
X35046Y-12471D01*
X35065Y-12434D01*
X35084Y-12415D01*
X35121Y-12396D01*
X35159Y-12396D01*
X35196Y-12415D01*
X35215Y-12434D01*
X35234Y-12471D01*
X35234Y-12565D01*
X35215Y-12621D01*
X35046Y-12921D02*
X35028Y-12978D01*
X35009Y-12996D01*
X34971Y-13015D01*
X34915Y-13015D01*
X34878Y-12996D01*
X34859Y-12978D01*
X34840Y-12940D01*
X34840Y-12790D01*
X35234Y-12790D01*
X35234Y-12921D01*
X35215Y-12959D01*
X35196Y-12978D01*
X35159Y-12996D01*
X35121Y-12996D01*
X35084Y-12978D01*
X35065Y-12959D01*
X35046Y-12921D01*
X35046Y-12790D01*
X20612Y-14409D02*
X20387Y-14409D01*
X20500Y-14409D02*
X20500Y-14015D01*
X20462Y-14071D01*
X20425Y-14109D01*
X20387Y-14128D01*
X20181Y-10515D02*
X20425Y-10515D01*
X20293Y-10665D01*
X20350Y-10665D01*
X20387Y-10684D01*
X20406Y-10703D01*
X20425Y-10740D01*
X20425Y-10834D01*
X20406Y-10871D01*
X20387Y-10890D01*
X20350Y-10909D01*
X20237Y-10909D01*
X20200Y-10890D01*
X20181Y-10871D01*
X20668Y-10515D02*
X20706Y-10515D01*
X20743Y-10534D01*
X20762Y-10553D01*
X20781Y-10590D01*
X20799Y-10665D01*
X20799Y-10759D01*
X20781Y-10834D01*
X20762Y-10871D01*
X20743Y-10890D01*
X20706Y-10909D01*
X20668Y-10909D01*
X20631Y-10890D01*
X20612Y-10871D01*
X20593Y-10834D01*
X20574Y-10759D01*
X20574Y-10665D01*
X20593Y-10590D01*
X20612Y-10553D01*
X20631Y-10534D01*
X20668Y-10515D01*
G54D12*
X23900Y-12570D02*
X24181Y-12570D01*
X23844Y-12739D02*
X24041Y-12148D01*
X24237Y-12739D01*
X24434Y-12739D02*
X24434Y-12345D01*
X24434Y-12457D02*
X24462Y-12401D01*
X24491Y-12373D01*
X24547Y-12345D01*
X24603Y-12345D01*
X25053Y-12739D02*
X25053Y-12148D01*
X25053Y-12710D02*
X24997Y-12739D01*
X24884Y-12739D01*
X24828Y-12710D01*
X24800Y-12682D01*
X24772Y-12626D01*
X24772Y-12457D01*
X24800Y-12401D01*
X24828Y-12373D01*
X24884Y-12345D01*
X24997Y-12345D01*
X25053Y-12373D01*
X25587Y-12345D02*
X25587Y-12739D01*
X25334Y-12345D02*
X25334Y-12654D01*
X25362Y-12710D01*
X25419Y-12739D01*
X25503Y-12739D01*
X25559Y-12710D01*
X25587Y-12682D01*
X25868Y-12739D02*
X25868Y-12345D01*
X25868Y-12148D02*
X25840Y-12176D01*
X25868Y-12204D01*
X25897Y-12176D01*
X25868Y-12148D01*
X25868Y-12204D01*
X26150Y-12345D02*
X26150Y-12739D01*
X26150Y-12401D02*
X26178Y-12373D01*
X26234Y-12345D01*
X26318Y-12345D01*
X26375Y-12373D01*
X26403Y-12429D01*
X26403Y-12739D01*
X26768Y-12739D02*
X26712Y-12710D01*
X26684Y-12682D01*
X26656Y-12626D01*
X26656Y-12457D01*
X26684Y-12401D01*
X26712Y-12373D01*
X26768Y-12345D01*
X26853Y-12345D01*
X26909Y-12373D01*
X26937Y-12401D01*
X26965Y-12457D01*
X26965Y-12626D01*
X26937Y-12682D01*
X26909Y-12710D01*
X26853Y-12739D01*
X26768Y-12739D01*
X27668Y-12739D02*
X27668Y-12148D01*
X28006Y-12739D01*
X28006Y-12148D01*
X28540Y-12739D02*
X28540Y-12429D01*
X28512Y-12373D01*
X28456Y-12345D01*
X28343Y-12345D01*
X28287Y-12373D01*
X28540Y-12710D02*
X28484Y-12739D01*
X28343Y-12739D01*
X28287Y-12710D01*
X28259Y-12654D01*
X28259Y-12598D01*
X28287Y-12542D01*
X28343Y-12514D01*
X28484Y-12514D01*
X28540Y-12485D01*
X28821Y-12345D02*
X28821Y-12739D01*
X28821Y-12401D02*
X28849Y-12373D01*
X28906Y-12345D01*
X28990Y-12345D01*
X29046Y-12373D01*
X29074Y-12429D01*
X29074Y-12739D01*
X29440Y-12739D02*
X29384Y-12710D01*
X29356Y-12682D01*
X29327Y-12626D01*
X29327Y-12457D01*
X29356Y-12401D01*
X29384Y-12373D01*
X29440Y-12345D01*
X29524Y-12345D01*
X29580Y-12373D01*
X29609Y-12401D01*
X29637Y-12457D01*
X29637Y-12626D01*
X29609Y-12682D01*
X29580Y-12710D01*
X29524Y-12739D01*
X29440Y-12739D01*
X30284Y-12345D02*
X30424Y-12739D01*
X30565Y-12345D01*
X30733Y-12148D02*
X31099Y-12148D01*
X30902Y-12373D01*
X30987Y-12373D01*
X31043Y-12401D01*
X31071Y-12429D01*
X31099Y-12485D01*
X31099Y-12626D01*
X31071Y-12682D01*
X31043Y-12710D01*
X30987Y-12739D01*
X30818Y-12739D01*
X30762Y-12710D01*
X30733Y-12682D01*
G54D10*
X34425Y-14409D02*
X34200Y-14409D01*
X34312Y-14409D02*
X34312Y-14015D01*
X34275Y-14071D01*
X34237Y-14109D01*
X34200Y-14128D01*
X34781Y-14015D02*
X34593Y-14015D01*
X34574Y-14203D01*
X34593Y-14184D01*
X34631Y-14165D01*
X34724Y-14165D01*
X34762Y-14184D01*
X34781Y-14203D01*
X34799Y-14240D01*
X34799Y-14334D01*
X34781Y-14371D01*
X34762Y-14390D01*
X34724Y-14409D01*
X34631Y-14409D01*
X34593Y-14390D01*
X34574Y-14371D01*
X34425Y-10909D02*
X34200Y-10909D01*
X34312Y-10909D02*
X34312Y-10515D01*
X34275Y-10571D01*
X34237Y-10609D01*
X34200Y-10628D01*
X34762Y-10515D02*
X34687Y-10515D01*
X34649Y-10534D01*
X34631Y-10553D01*
X34593Y-10609D01*
X34574Y-10684D01*
X34574Y-10834D01*
X34593Y-10871D01*
X34612Y-10890D01*
X34649Y-10909D01*
X34724Y-10909D01*
X34762Y-10890D01*
X34781Y-10871D01*
X34799Y-10834D01*
X34799Y-10740D01*
X34781Y-10703D01*
X34762Y-10684D01*
X34724Y-10665D01*
X34649Y-10665D01*
X34612Y-10684D01*
X34593Y-10703D01*
X34574Y-10740D01*
G54D13*
X9000Y-8500D02*
X9000Y-12500D01*
X8000Y-8500D02*
X8000Y-12500D01*
X8000Y-12500D02*
X9000Y-12500D01*
X9000Y-8500D02*
X8000Y-8500D01*
G54D14*
X9000Y-15500D02*
X8000Y-15500D01*
X8000Y-15500D02*
X8000Y-13500D01*
X8000Y-13500D02*
X9000Y-13500D01*
X9000Y-13500D02*
X9000Y-15500D01*
G54D10*
X15133Y-15397D02*
X15133Y-26500D01*
X11000Y-15397D02*
X15133Y-15397D01*
X11000Y-26500D02*
X11000Y-15397D01*
X15133Y-26500D02*
X11000Y-26500D01*
G54D15*
X36000Y-15000D02*
X19000Y-15000D01*
X19000Y-15000D02*
X19000Y-10000D01*
X19000Y-10000D02*
X36000Y-10000D01*
X36000Y-10000D02*
X36000Y-15000D01*
X36000Y-12000D02*
X35500Y-12000D01*
X35500Y-12000D02*
X35500Y-13000D01*
X35500Y-13000D02*
X36000Y-13000D01*
G54D16*
X10000Y-16500D02*
X10000Y-26500D01*
X10000Y-26500D02*
X8000Y-26500D01*
X8000Y-26500D02*
X8000Y-16500D01*
X8000Y-16500D02*
X10000Y-16500D01*
X10000Y-19500D02*
X8000Y-19500D01*
X10000Y-23500D02*
X8000Y-23500D01*
G54D10*
X19500Y-18500D02*
X23649Y-18500D01*
X23649Y-18500D02*
X23452Y-20346D01*
X23452Y-20346D02*
X19696Y-20346D01*
X19696Y-20346D02*
X19500Y-18500D01*
X25500Y-18500D02*
X29649Y-18500D01*
X29649Y-18500D02*
X29452Y-20346D01*
X29452Y-20346D02*
X25696Y-20346D01*
X25696Y-20346D02*
X25500Y-18500D01*
X31500Y-18500D02*
X35649Y-18500D01*
X35649Y-18500D02*
X35452Y-20346D01*
X35452Y-20346D02*
X31696Y-20346D01*
X31696Y-20346D02*
X31500Y-18500D01*
M02*
