G04 (created by PCBNEW (2013-jul-07)-stable) date Mon 01 Dez 2014 22:00:58 CET*
%MOIN*%
G04 Gerber Fmt 3.4, Leading zero omitted, Abs format*
%FSLAX34Y34*%
G01*
G70*
G90*
G04 APERTURE LIST*
%ADD10C,0.00590551*%
%ADD11C,0.0787402*%
%ADD12R,0.06X0.06*%
%ADD13C,0.06*%
%ADD14O,0.343307X0.0716535*%
%ADD15O,0.062X0.09*%
%ADD16R,0.062X0.09*%
%ADD17C,0.15*%
%ADD18O,0.0787402X0.0472441*%
%ADD19C,0.00116142*%
%ADD20C,0.00787402*%
%ADD21C,0.019685*%
%ADD22C,0.0543307*%
%ADD23C,0.01*%
G04 APERTURE END LIST*
G54D10*
G54D11*
X17531Y-26000D03*
X19500Y-26000D03*
X21468Y-26000D03*
X27031Y-26000D03*
X29000Y-26000D03*
X30968Y-26000D03*
X36531Y-26000D03*
X38500Y-26000D03*
X40468Y-26000D03*
G54D12*
X8500Y-12000D03*
G54D13*
X8500Y-11000D03*
X8500Y-10000D03*
X8500Y-9000D03*
G54D12*
X8500Y-15000D03*
G54D13*
X8500Y-14000D03*
G54D14*
X13066Y-25161D03*
X13066Y-20948D03*
X13066Y-16736D03*
G54D15*
X34500Y-9500D03*
X33500Y-9500D03*
X32500Y-9500D03*
X31500Y-9500D03*
X30500Y-9500D03*
X29500Y-9500D03*
X28500Y-9500D03*
X27500Y-9500D03*
X26500Y-9500D03*
X25500Y-9500D03*
X24500Y-9500D03*
X23500Y-9500D03*
X22500Y-9500D03*
X21500Y-9500D03*
X20500Y-9500D03*
G54D16*
X20500Y-15500D03*
G54D15*
X21500Y-15500D03*
X22500Y-15500D03*
X23500Y-15500D03*
X24500Y-15500D03*
X25500Y-15500D03*
X26500Y-15500D03*
X27500Y-15500D03*
X28500Y-15500D03*
X29500Y-15500D03*
X30500Y-15500D03*
X31500Y-15500D03*
X32500Y-15500D03*
X33500Y-15500D03*
X34500Y-15500D03*
G54D17*
X9000Y-17500D03*
X9000Y-19500D03*
X9000Y-23500D03*
X9000Y-25500D03*
G54D18*
X20574Y-19594D03*
X21574Y-19594D03*
X22574Y-19594D03*
X26574Y-19594D03*
X27574Y-19594D03*
X28574Y-19594D03*
X32574Y-19594D03*
X33574Y-19594D03*
X34574Y-19594D03*
G54D19*
X17500Y-18000D03*
X17500Y-16500D03*
X18500Y-17500D03*
X18500Y-16500D03*
X10500Y-9750D03*
X10500Y-13000D03*
G54D20*
X26574Y-19594D02*
X26574Y-18000D01*
X26574Y-18000D02*
X27500Y-17075D01*
X27500Y-17075D02*
X27500Y-15500D01*
X32574Y-19594D02*
X32574Y-18000D01*
X32574Y-18000D02*
X31075Y-16500D01*
X31075Y-16500D02*
X29500Y-16500D01*
X29500Y-16500D02*
X28500Y-15500D01*
G54D21*
X17500Y-16500D02*
X17500Y-18000D01*
X18500Y-16500D02*
X18500Y-17500D01*
G54D20*
X31500Y-9500D02*
X31500Y-9000D01*
X19500Y-23000D02*
X19500Y-26000D01*
X20750Y-21750D02*
X19500Y-23000D01*
X36250Y-21750D02*
X20750Y-21750D01*
X37000Y-21000D02*
X36250Y-21750D01*
X37000Y-9750D02*
X37000Y-21000D01*
X36000Y-8750D02*
X37000Y-9750D01*
X31750Y-8750D02*
X36000Y-8750D01*
X31500Y-9000D02*
X31750Y-8750D01*
X30500Y-9500D02*
X30500Y-9000D01*
X29000Y-23000D02*
X29000Y-26000D01*
X29500Y-22500D02*
X29000Y-23000D01*
X36000Y-22500D02*
X29500Y-22500D01*
X37500Y-21000D02*
X36000Y-22500D01*
X37500Y-9750D02*
X37500Y-21000D01*
X36250Y-8500D02*
X37500Y-9750D01*
X31000Y-8500D02*
X36250Y-8500D01*
X30500Y-9000D02*
X31000Y-8500D01*
X29500Y-9500D02*
X29500Y-9000D01*
X38500Y-21500D02*
X38500Y-26000D01*
X38000Y-21000D02*
X38500Y-21500D01*
X38000Y-9750D02*
X38000Y-21000D01*
X36500Y-8250D02*
X38000Y-9750D01*
X30250Y-8250D02*
X36500Y-8250D01*
X29500Y-9000D02*
X30250Y-8250D01*
G54D22*
X10500Y-9750D02*
X10500Y-13000D01*
X10500Y-9750D02*
X11500Y-8750D01*
X11500Y-8750D02*
X19750Y-8750D01*
X20500Y-9500D02*
X19750Y-8750D01*
G54D20*
X20574Y-19594D02*
X20574Y-18005D01*
X20574Y-18005D02*
X22080Y-16500D01*
X22080Y-16500D02*
X24500Y-16500D01*
X24500Y-16500D02*
X25500Y-15500D01*
G54D10*
G36*
X42537Y-27289D02*
X41114Y-27289D01*
X41114Y-25977D01*
X41098Y-25851D01*
X41057Y-25732D01*
X41019Y-25661D01*
X40915Y-25623D01*
X40844Y-25694D01*
X40844Y-25552D01*
X40807Y-25448D01*
X40693Y-25393D01*
X40571Y-25361D01*
X40445Y-25353D01*
X40320Y-25370D01*
X40200Y-25411D01*
X40129Y-25448D01*
X40092Y-25552D01*
X40468Y-25929D01*
X40844Y-25552D01*
X40844Y-25694D01*
X40539Y-26000D01*
X40915Y-26376D01*
X41019Y-26338D01*
X41074Y-26225D01*
X41107Y-26103D01*
X41114Y-25977D01*
X41114Y-27289D01*
X40844Y-27289D01*
X40844Y-26447D01*
X40468Y-26070D01*
X40397Y-26141D01*
X40397Y-26000D01*
X40021Y-25623D01*
X39917Y-25661D01*
X39862Y-25774D01*
X39829Y-25896D01*
X39822Y-26022D01*
X39838Y-26148D01*
X39879Y-26267D01*
X39917Y-26338D01*
X40021Y-26376D01*
X40397Y-26000D01*
X40397Y-26141D01*
X40092Y-26447D01*
X40129Y-26551D01*
X40243Y-26606D01*
X40365Y-26638D01*
X40491Y-26646D01*
X40616Y-26629D01*
X40736Y-26588D01*
X40807Y-26551D01*
X40844Y-26447D01*
X40844Y-27289D01*
X37175Y-27289D01*
X37175Y-25936D01*
X37150Y-25813D01*
X37102Y-25696D01*
X37032Y-25591D01*
X36943Y-25501D01*
X36839Y-25431D01*
X36722Y-25382D01*
X36599Y-25356D01*
X36472Y-25355D01*
X36348Y-25379D01*
X36231Y-25426D01*
X36126Y-25495D01*
X36036Y-25584D01*
X35964Y-25688D01*
X35914Y-25804D01*
X35888Y-25927D01*
X35886Y-26054D01*
X35909Y-26178D01*
X35956Y-26295D01*
X36024Y-26401D01*
X36112Y-26492D01*
X36215Y-26564D01*
X36331Y-26615D01*
X36454Y-26642D01*
X36581Y-26644D01*
X36705Y-26622D01*
X36823Y-26577D01*
X36929Y-26509D01*
X37021Y-26422D01*
X37093Y-26319D01*
X37145Y-26204D01*
X37173Y-26081D01*
X37175Y-25936D01*
X37175Y-27289D01*
X31614Y-27289D01*
X31614Y-25977D01*
X31598Y-25851D01*
X31557Y-25732D01*
X31519Y-25661D01*
X31415Y-25623D01*
X31344Y-25694D01*
X31344Y-25552D01*
X31307Y-25448D01*
X31193Y-25393D01*
X31071Y-25361D01*
X30945Y-25353D01*
X30820Y-25370D01*
X30700Y-25411D01*
X30629Y-25448D01*
X30592Y-25552D01*
X30968Y-25929D01*
X31344Y-25552D01*
X31344Y-25694D01*
X31039Y-26000D01*
X31415Y-26376D01*
X31519Y-26338D01*
X31574Y-26225D01*
X31607Y-26103D01*
X31614Y-25977D01*
X31614Y-27289D01*
X31344Y-27289D01*
X31344Y-26447D01*
X30968Y-26070D01*
X30897Y-26141D01*
X30897Y-26000D01*
X30521Y-25623D01*
X30417Y-25661D01*
X30362Y-25774D01*
X30329Y-25896D01*
X30322Y-26022D01*
X30338Y-26148D01*
X30379Y-26267D01*
X30417Y-26338D01*
X30521Y-26376D01*
X30897Y-26000D01*
X30897Y-26141D01*
X30592Y-26447D01*
X30629Y-26551D01*
X30743Y-26606D01*
X30865Y-26638D01*
X30991Y-26646D01*
X31116Y-26629D01*
X31236Y-26588D01*
X31307Y-26551D01*
X31344Y-26447D01*
X31344Y-27289D01*
X27675Y-27289D01*
X27675Y-25936D01*
X27650Y-25813D01*
X27602Y-25696D01*
X27532Y-25591D01*
X27443Y-25501D01*
X27339Y-25431D01*
X27222Y-25382D01*
X27099Y-25356D01*
X26972Y-25355D01*
X26848Y-25379D01*
X26731Y-25426D01*
X26626Y-25495D01*
X26536Y-25584D01*
X26464Y-25688D01*
X26414Y-25804D01*
X26388Y-25927D01*
X26386Y-26054D01*
X26409Y-26178D01*
X26456Y-26295D01*
X26524Y-26401D01*
X26612Y-26492D01*
X26715Y-26564D01*
X26831Y-26615D01*
X26954Y-26642D01*
X27081Y-26644D01*
X27205Y-26622D01*
X27323Y-26577D01*
X27429Y-26509D01*
X27521Y-26422D01*
X27593Y-26319D01*
X27645Y-26204D01*
X27673Y-26081D01*
X27675Y-25936D01*
X27675Y-27289D01*
X22114Y-27289D01*
X22114Y-25977D01*
X22098Y-25851D01*
X22057Y-25732D01*
X22019Y-25661D01*
X21915Y-25623D01*
X21844Y-25694D01*
X21844Y-25552D01*
X21807Y-25448D01*
X21693Y-25393D01*
X21571Y-25361D01*
X21445Y-25353D01*
X21320Y-25370D01*
X21200Y-25411D01*
X21129Y-25448D01*
X21092Y-25552D01*
X21468Y-25929D01*
X21844Y-25552D01*
X21844Y-25694D01*
X21539Y-26000D01*
X21915Y-26376D01*
X22019Y-26338D01*
X22074Y-26225D01*
X22107Y-26103D01*
X22114Y-25977D01*
X22114Y-27289D01*
X21844Y-27289D01*
X21844Y-26447D01*
X21468Y-26070D01*
X21397Y-26141D01*
X21397Y-26000D01*
X21021Y-25623D01*
X20917Y-25661D01*
X20862Y-25774D01*
X20829Y-25896D01*
X20822Y-26022D01*
X20838Y-26148D01*
X20879Y-26267D01*
X20917Y-26338D01*
X21021Y-26376D01*
X21397Y-26000D01*
X21397Y-26141D01*
X21092Y-26447D01*
X21129Y-26551D01*
X21243Y-26606D01*
X21365Y-26638D01*
X21491Y-26646D01*
X21616Y-26629D01*
X21736Y-26588D01*
X21807Y-26551D01*
X21844Y-26447D01*
X21844Y-27289D01*
X18848Y-27289D01*
X18848Y-17500D01*
X18848Y-16500D01*
X18841Y-16432D01*
X18822Y-16367D01*
X18790Y-16307D01*
X18747Y-16254D01*
X18694Y-16211D01*
X18635Y-16178D01*
X18570Y-16158D01*
X18502Y-16151D01*
X18434Y-16157D01*
X18369Y-16176D01*
X18309Y-16208D01*
X18256Y-16251D01*
X18212Y-16303D01*
X18179Y-16362D01*
X18159Y-16427D01*
X18151Y-16495D01*
X18151Y-16500D01*
X18151Y-17500D01*
X18158Y-17567D01*
X18177Y-17632D01*
X18209Y-17692D01*
X18252Y-17745D01*
X18305Y-17788D01*
X18364Y-17821D01*
X18429Y-17841D01*
X18497Y-17848D01*
X18565Y-17842D01*
X18630Y-17823D01*
X18690Y-17791D01*
X18743Y-17748D01*
X18787Y-17696D01*
X18820Y-17637D01*
X18840Y-17572D01*
X18848Y-17504D01*
X18848Y-17500D01*
X18848Y-27289D01*
X18175Y-27289D01*
X18175Y-25936D01*
X18150Y-25813D01*
X18102Y-25696D01*
X18032Y-25591D01*
X17943Y-25501D01*
X17848Y-25437D01*
X17848Y-18000D01*
X17848Y-16500D01*
X17841Y-16432D01*
X17822Y-16367D01*
X17790Y-16307D01*
X17747Y-16254D01*
X17694Y-16211D01*
X17635Y-16178D01*
X17570Y-16158D01*
X17502Y-16151D01*
X17434Y-16157D01*
X17369Y-16176D01*
X17309Y-16208D01*
X17256Y-16251D01*
X17212Y-16303D01*
X17179Y-16362D01*
X17159Y-16427D01*
X17151Y-16495D01*
X17151Y-16500D01*
X17151Y-18000D01*
X17158Y-18067D01*
X17177Y-18132D01*
X17209Y-18192D01*
X17252Y-18245D01*
X17305Y-18288D01*
X17364Y-18321D01*
X17429Y-18341D01*
X17497Y-18348D01*
X17565Y-18342D01*
X17630Y-18323D01*
X17690Y-18291D01*
X17743Y-18248D01*
X17787Y-18196D01*
X17820Y-18137D01*
X17840Y-18072D01*
X17848Y-18004D01*
X17848Y-18000D01*
X17848Y-25437D01*
X17839Y-25431D01*
X17722Y-25382D01*
X17599Y-25356D01*
X17472Y-25355D01*
X17348Y-25379D01*
X17231Y-25426D01*
X17126Y-25495D01*
X17036Y-25584D01*
X16964Y-25688D01*
X16914Y-25804D01*
X16888Y-25927D01*
X16886Y-26054D01*
X16909Y-26178D01*
X16956Y-26295D01*
X17024Y-26401D01*
X17112Y-26492D01*
X17215Y-26564D01*
X17331Y-26615D01*
X17454Y-26642D01*
X17581Y-26644D01*
X17705Y-26622D01*
X17823Y-26577D01*
X17929Y-26509D01*
X18021Y-26422D01*
X18093Y-26319D01*
X18145Y-26204D01*
X18173Y-26081D01*
X18175Y-25936D01*
X18175Y-27289D01*
X15042Y-27289D01*
X15042Y-25165D01*
X15042Y-20953D01*
X15042Y-16740D01*
X15032Y-16622D01*
X14998Y-16508D01*
X14943Y-16403D01*
X14869Y-16310D01*
X14778Y-16234D01*
X14674Y-16177D01*
X14561Y-16141D01*
X14443Y-16128D01*
X14434Y-16127D01*
X11699Y-16127D01*
X11581Y-16139D01*
X11467Y-16173D01*
X11362Y-16229D01*
X11270Y-16304D01*
X11194Y-16396D01*
X11138Y-16500D01*
X11103Y-16613D01*
X11090Y-16731D01*
X11101Y-16850D01*
X11135Y-16964D01*
X11190Y-17069D01*
X11264Y-17161D01*
X11355Y-17238D01*
X11459Y-17295D01*
X11572Y-17331D01*
X11690Y-17344D01*
X11699Y-17344D01*
X14434Y-17344D01*
X14552Y-17332D01*
X14666Y-17298D01*
X14771Y-17242D01*
X14863Y-17167D01*
X14938Y-17076D01*
X14995Y-16971D01*
X15030Y-16858D01*
X15042Y-16740D01*
X15042Y-20953D01*
X15032Y-20834D01*
X14998Y-20720D01*
X14943Y-20615D01*
X14869Y-20523D01*
X14778Y-20446D01*
X14674Y-20389D01*
X14561Y-20353D01*
X14443Y-20340D01*
X14434Y-20340D01*
X11699Y-20340D01*
X11581Y-20352D01*
X11467Y-20386D01*
X11362Y-20442D01*
X11270Y-20517D01*
X11194Y-20608D01*
X11138Y-20713D01*
X11103Y-20826D01*
X11090Y-20944D01*
X11101Y-21062D01*
X11135Y-21176D01*
X11190Y-21281D01*
X11264Y-21374D01*
X11355Y-21450D01*
X11459Y-21507D01*
X11572Y-21543D01*
X11690Y-21557D01*
X11699Y-21557D01*
X14434Y-21557D01*
X14552Y-21545D01*
X14666Y-21511D01*
X14771Y-21455D01*
X14863Y-21380D01*
X14938Y-21288D01*
X14995Y-21184D01*
X15030Y-21071D01*
X15042Y-20953D01*
X15042Y-25165D01*
X15032Y-25047D01*
X14998Y-24933D01*
X14943Y-24828D01*
X14869Y-24735D01*
X14778Y-24659D01*
X14674Y-24602D01*
X14561Y-24566D01*
X14443Y-24553D01*
X14434Y-24553D01*
X11699Y-24553D01*
X11581Y-24564D01*
X11467Y-24599D01*
X11362Y-24654D01*
X11270Y-24729D01*
X11194Y-24821D01*
X11138Y-24925D01*
X11103Y-25039D01*
X11090Y-25157D01*
X11101Y-25275D01*
X11135Y-25389D01*
X11190Y-25494D01*
X11264Y-25587D01*
X11355Y-25663D01*
X11459Y-25720D01*
X11572Y-25756D01*
X11690Y-25769D01*
X11699Y-25769D01*
X14434Y-25769D01*
X14552Y-25758D01*
X14666Y-25723D01*
X14771Y-25668D01*
X14863Y-25593D01*
X14938Y-25501D01*
X14995Y-25397D01*
X15030Y-25283D01*
X15042Y-25165D01*
X15042Y-27289D01*
X10000Y-27289D01*
X10000Y-25401D01*
X9961Y-25209D01*
X9887Y-25028D01*
X9778Y-24864D01*
X9640Y-24725D01*
X9477Y-24616D01*
X9297Y-24540D01*
X9105Y-24500D01*
X9084Y-24500D01*
X9270Y-24467D01*
X9453Y-24396D01*
X9618Y-24291D01*
X9760Y-24156D01*
X9873Y-23996D01*
X9953Y-23817D01*
X9996Y-23625D01*
X10000Y-23401D01*
X10000Y-19401D01*
X9961Y-19209D01*
X9887Y-19028D01*
X9778Y-18864D01*
X9640Y-18725D01*
X9477Y-18616D01*
X9297Y-18540D01*
X9105Y-18500D01*
X9084Y-18500D01*
X9270Y-18467D01*
X9453Y-18396D01*
X9618Y-18291D01*
X9760Y-18156D01*
X9873Y-17996D01*
X9953Y-17817D01*
X9996Y-17625D01*
X10000Y-17401D01*
X9961Y-17209D01*
X9887Y-17028D01*
X9778Y-16864D01*
X9640Y-16725D01*
X9477Y-16616D01*
X9297Y-16540D01*
X9105Y-16500D01*
X9052Y-16500D01*
X9052Y-13973D01*
X9050Y-13960D01*
X9050Y-12277D01*
X9050Y-11675D01*
X9040Y-11627D01*
X9021Y-11582D01*
X8994Y-11541D01*
X8960Y-11506D01*
X8919Y-11479D01*
X8874Y-11460D01*
X8826Y-11450D01*
X8817Y-11450D01*
X8840Y-11435D01*
X8918Y-11361D01*
X8980Y-11272D01*
X9024Y-11174D01*
X9048Y-11069D01*
X9050Y-10946D01*
X9029Y-10840D01*
X8987Y-10740D01*
X8928Y-10650D01*
X8852Y-10574D01*
X8762Y-10513D01*
X8730Y-10500D01*
X8749Y-10493D01*
X8840Y-10435D01*
X8918Y-10361D01*
X8980Y-10272D01*
X9024Y-10174D01*
X9048Y-10069D01*
X9050Y-9946D01*
X9029Y-9840D01*
X8987Y-9740D01*
X8928Y-9650D01*
X8852Y-9574D01*
X8762Y-9513D01*
X8730Y-9500D01*
X8749Y-9493D01*
X8840Y-9435D01*
X8918Y-9361D01*
X8980Y-9272D01*
X9024Y-9174D01*
X9048Y-9069D01*
X9050Y-8946D01*
X9029Y-8840D01*
X8987Y-8740D01*
X8928Y-8650D01*
X8852Y-8574D01*
X8762Y-8513D01*
X8663Y-8472D01*
X8557Y-8450D01*
X8449Y-8449D01*
X8343Y-8469D01*
X8243Y-8510D01*
X8153Y-8569D01*
X8076Y-8644D01*
X8015Y-8733D01*
X7973Y-8832D01*
X7950Y-8938D01*
X7949Y-9046D01*
X7968Y-9152D01*
X8008Y-9252D01*
X8066Y-9343D01*
X8141Y-9420D01*
X8230Y-9482D01*
X8269Y-9499D01*
X8243Y-9510D01*
X8153Y-9569D01*
X8076Y-9644D01*
X8015Y-9733D01*
X7973Y-9832D01*
X7950Y-9938D01*
X7949Y-10046D01*
X7968Y-10152D01*
X8008Y-10252D01*
X8066Y-10343D01*
X8141Y-10420D01*
X8230Y-10482D01*
X8269Y-10499D01*
X8243Y-10510D01*
X8153Y-10569D01*
X8076Y-10644D01*
X8015Y-10733D01*
X7973Y-10832D01*
X7950Y-10938D01*
X7949Y-11046D01*
X7968Y-11152D01*
X8008Y-11252D01*
X8066Y-11343D01*
X8141Y-11420D01*
X8183Y-11449D01*
X8175Y-11449D01*
X8127Y-11459D01*
X8082Y-11478D01*
X8041Y-11505D01*
X8006Y-11539D01*
X7979Y-11580D01*
X7960Y-11625D01*
X7950Y-11673D01*
X7949Y-11722D01*
X7949Y-12324D01*
X7959Y-12372D01*
X7978Y-12417D01*
X8005Y-12458D01*
X8039Y-12493D01*
X8080Y-12520D01*
X8125Y-12539D01*
X8173Y-12549D01*
X8222Y-12550D01*
X8824Y-12550D01*
X8872Y-12540D01*
X8917Y-12521D01*
X8958Y-12494D01*
X8993Y-12460D01*
X9020Y-12419D01*
X9039Y-12374D01*
X9049Y-12326D01*
X9050Y-12277D01*
X9050Y-13960D01*
X9036Y-13866D01*
X9000Y-13764D01*
X8974Y-13716D01*
X8880Y-13690D01*
X8809Y-13761D01*
X8809Y-13619D01*
X8783Y-13525D01*
X8685Y-13479D01*
X8580Y-13453D01*
X8473Y-13447D01*
X8366Y-13463D01*
X8264Y-13499D01*
X8216Y-13525D01*
X8190Y-13619D01*
X8500Y-13929D01*
X8809Y-13619D01*
X8809Y-13761D01*
X8570Y-14000D01*
X8880Y-14309D01*
X8974Y-14283D01*
X9020Y-14185D01*
X9046Y-14080D01*
X9052Y-13973D01*
X9052Y-16500D01*
X9050Y-16500D01*
X9050Y-15277D01*
X9050Y-14675D01*
X9040Y-14627D01*
X9021Y-14582D01*
X8994Y-14541D01*
X8960Y-14506D01*
X8919Y-14479D01*
X8874Y-14460D01*
X8826Y-14450D01*
X8789Y-14449D01*
X8809Y-14380D01*
X8500Y-14070D01*
X8429Y-14141D01*
X8429Y-14000D01*
X8119Y-13690D01*
X8025Y-13716D01*
X7979Y-13814D01*
X7953Y-13919D01*
X7947Y-14026D01*
X7963Y-14133D01*
X7999Y-14235D01*
X8025Y-14283D01*
X8119Y-14309D01*
X8429Y-14000D01*
X8429Y-14141D01*
X8190Y-14380D01*
X8210Y-14449D01*
X8175Y-14449D01*
X8127Y-14459D01*
X8082Y-14478D01*
X8041Y-14505D01*
X8006Y-14539D01*
X7979Y-14580D01*
X7960Y-14625D01*
X7950Y-14673D01*
X7949Y-14722D01*
X7949Y-15324D01*
X7959Y-15372D01*
X7978Y-15417D01*
X8005Y-15458D01*
X8039Y-15493D01*
X8080Y-15520D01*
X8125Y-15539D01*
X8173Y-15549D01*
X8222Y-15550D01*
X8824Y-15550D01*
X8872Y-15540D01*
X8917Y-15521D01*
X8958Y-15494D01*
X8993Y-15460D01*
X9020Y-15419D01*
X9039Y-15374D01*
X9049Y-15326D01*
X9050Y-15277D01*
X9050Y-16500D01*
X8908Y-16499D01*
X8716Y-16536D01*
X8534Y-16609D01*
X8370Y-16716D01*
X8230Y-16854D01*
X8119Y-17015D01*
X8042Y-17196D01*
X8001Y-17387D01*
X7998Y-17584D01*
X8034Y-17776D01*
X8106Y-17959D01*
X8212Y-18124D01*
X8348Y-18265D01*
X8509Y-18377D01*
X8689Y-18455D01*
X8881Y-18497D01*
X8976Y-18499D01*
X8908Y-18499D01*
X8716Y-18536D01*
X8534Y-18609D01*
X8370Y-18716D01*
X8230Y-18854D01*
X8119Y-19015D01*
X8042Y-19196D01*
X8001Y-19387D01*
X7998Y-19584D01*
X8034Y-19776D01*
X8106Y-19959D01*
X8212Y-20124D01*
X8348Y-20265D01*
X8509Y-20377D01*
X8689Y-20455D01*
X8881Y-20497D01*
X9077Y-20501D01*
X9270Y-20467D01*
X9453Y-20396D01*
X9618Y-20291D01*
X9760Y-20156D01*
X9873Y-19996D01*
X9953Y-19817D01*
X9996Y-19625D01*
X10000Y-19401D01*
X10000Y-23401D01*
X9961Y-23209D01*
X9887Y-23028D01*
X9778Y-22864D01*
X9640Y-22725D01*
X9477Y-22616D01*
X9297Y-22540D01*
X9105Y-22500D01*
X8908Y-22499D01*
X8716Y-22536D01*
X8534Y-22609D01*
X8370Y-22716D01*
X8230Y-22854D01*
X8119Y-23015D01*
X8042Y-23196D01*
X8001Y-23387D01*
X7998Y-23584D01*
X8034Y-23776D01*
X8106Y-23959D01*
X8212Y-24124D01*
X8348Y-24265D01*
X8509Y-24377D01*
X8689Y-24455D01*
X8881Y-24497D01*
X8976Y-24499D01*
X8908Y-24499D01*
X8716Y-24536D01*
X8534Y-24609D01*
X8370Y-24716D01*
X8230Y-24854D01*
X8119Y-25015D01*
X8042Y-25196D01*
X8001Y-25387D01*
X7998Y-25584D01*
X8034Y-25776D01*
X8106Y-25959D01*
X8212Y-26124D01*
X8348Y-26265D01*
X8509Y-26377D01*
X8689Y-26455D01*
X8881Y-26497D01*
X9077Y-26501D01*
X9270Y-26467D01*
X9453Y-26396D01*
X9618Y-26291D01*
X9760Y-26156D01*
X9873Y-25996D01*
X9953Y-25817D01*
X9996Y-25625D01*
X10000Y-25401D01*
X10000Y-27289D01*
X7643Y-27289D01*
X7643Y-8143D01*
X29947Y-8143D01*
X29295Y-8795D01*
X29278Y-8816D01*
X29261Y-8836D01*
X29260Y-8837D01*
X29259Y-8839D01*
X29248Y-8859D01*
X29193Y-8888D01*
X29108Y-8956D01*
X29037Y-9040D01*
X28999Y-9109D01*
X28966Y-9046D01*
X28897Y-8962D01*
X28813Y-8892D01*
X28717Y-8840D01*
X28612Y-8808D01*
X28503Y-8796D01*
X28395Y-8806D01*
X28290Y-8837D01*
X28193Y-8888D01*
X28108Y-8956D01*
X28037Y-9040D01*
X27999Y-9109D01*
X27966Y-9046D01*
X27897Y-8962D01*
X27813Y-8892D01*
X27717Y-8840D01*
X27612Y-8808D01*
X27503Y-8796D01*
X27395Y-8806D01*
X27290Y-8837D01*
X27193Y-8888D01*
X27108Y-8956D01*
X27037Y-9040D01*
X26999Y-9109D01*
X26966Y-9046D01*
X26897Y-8962D01*
X26813Y-8892D01*
X26717Y-8840D01*
X26612Y-8808D01*
X26503Y-8796D01*
X26395Y-8806D01*
X26290Y-8837D01*
X26193Y-8888D01*
X26108Y-8956D01*
X26037Y-9040D01*
X25999Y-9109D01*
X25966Y-9046D01*
X25897Y-8962D01*
X25813Y-8892D01*
X25717Y-8840D01*
X25612Y-8808D01*
X25503Y-8796D01*
X25395Y-8806D01*
X25290Y-8837D01*
X25193Y-8888D01*
X25108Y-8956D01*
X25037Y-9040D01*
X24999Y-9109D01*
X24966Y-9046D01*
X24897Y-8962D01*
X24813Y-8892D01*
X24717Y-8840D01*
X24612Y-8808D01*
X24503Y-8796D01*
X24395Y-8806D01*
X24290Y-8837D01*
X24193Y-8888D01*
X24108Y-8956D01*
X24037Y-9040D01*
X23999Y-9109D01*
X23966Y-9046D01*
X23897Y-8962D01*
X23813Y-8892D01*
X23717Y-8840D01*
X23612Y-8808D01*
X23503Y-8796D01*
X23395Y-8806D01*
X23290Y-8837D01*
X23193Y-8888D01*
X23108Y-8956D01*
X23037Y-9040D01*
X22999Y-9109D01*
X22966Y-9046D01*
X22897Y-8962D01*
X22813Y-8892D01*
X22717Y-8840D01*
X22612Y-8808D01*
X22503Y-8796D01*
X22395Y-8806D01*
X22290Y-8837D01*
X22193Y-8888D01*
X22108Y-8956D01*
X22037Y-9040D01*
X22001Y-9106D01*
X21998Y-9100D01*
X21938Y-9008D01*
X21862Y-8929D01*
X21771Y-8867D01*
X21670Y-8824D01*
X21636Y-8816D01*
X21550Y-8865D01*
X21550Y-9450D01*
X21557Y-9450D01*
X21557Y-9550D01*
X21550Y-9550D01*
X21550Y-10134D01*
X21636Y-10183D01*
X21670Y-10175D01*
X21771Y-10132D01*
X21862Y-10070D01*
X21938Y-9991D01*
X21998Y-9899D01*
X22001Y-9892D01*
X22033Y-9953D01*
X22102Y-10037D01*
X22186Y-10107D01*
X22282Y-10159D01*
X22387Y-10191D01*
X22496Y-10203D01*
X22604Y-10193D01*
X22709Y-10162D01*
X22806Y-10111D01*
X22891Y-10043D01*
X22962Y-9959D01*
X23000Y-9890D01*
X23033Y-9953D01*
X23102Y-10037D01*
X23186Y-10107D01*
X23282Y-10159D01*
X23387Y-10191D01*
X23496Y-10203D01*
X23604Y-10193D01*
X23709Y-10162D01*
X23806Y-10111D01*
X23891Y-10043D01*
X23962Y-9959D01*
X24000Y-9890D01*
X24033Y-9953D01*
X24102Y-10037D01*
X24186Y-10107D01*
X24282Y-10159D01*
X24387Y-10191D01*
X24496Y-10203D01*
X24604Y-10193D01*
X24709Y-10162D01*
X24806Y-10111D01*
X24891Y-10043D01*
X24962Y-9959D01*
X25000Y-9890D01*
X25033Y-9953D01*
X25102Y-10037D01*
X25186Y-10107D01*
X25282Y-10159D01*
X25387Y-10191D01*
X25496Y-10203D01*
X25604Y-10193D01*
X25709Y-10162D01*
X25806Y-10111D01*
X25891Y-10043D01*
X25962Y-9959D01*
X26000Y-9890D01*
X26033Y-9953D01*
X26102Y-10037D01*
X26186Y-10107D01*
X26282Y-10159D01*
X26387Y-10191D01*
X26496Y-10203D01*
X26604Y-10193D01*
X26709Y-10162D01*
X26806Y-10111D01*
X26891Y-10043D01*
X26962Y-9959D01*
X27000Y-9890D01*
X27033Y-9953D01*
X27102Y-10037D01*
X27186Y-10107D01*
X27282Y-10159D01*
X27387Y-10191D01*
X27496Y-10203D01*
X27604Y-10193D01*
X27709Y-10162D01*
X27806Y-10111D01*
X27891Y-10043D01*
X27962Y-9959D01*
X28000Y-9890D01*
X28033Y-9953D01*
X28102Y-10037D01*
X28186Y-10107D01*
X28282Y-10159D01*
X28387Y-10191D01*
X28496Y-10203D01*
X28604Y-10193D01*
X28709Y-10162D01*
X28806Y-10111D01*
X28891Y-10043D01*
X28962Y-9959D01*
X29000Y-9890D01*
X29033Y-9953D01*
X29102Y-10037D01*
X29186Y-10107D01*
X29282Y-10159D01*
X29387Y-10191D01*
X29496Y-10203D01*
X29604Y-10193D01*
X29709Y-10162D01*
X29806Y-10111D01*
X29891Y-10043D01*
X29962Y-9959D01*
X30000Y-9890D01*
X30033Y-9953D01*
X30102Y-10037D01*
X30186Y-10107D01*
X30282Y-10159D01*
X30387Y-10191D01*
X30496Y-10203D01*
X30604Y-10193D01*
X30709Y-10162D01*
X30806Y-10111D01*
X30891Y-10043D01*
X30962Y-9959D01*
X31000Y-9890D01*
X31033Y-9953D01*
X31102Y-10037D01*
X31186Y-10107D01*
X31282Y-10159D01*
X31387Y-10191D01*
X31496Y-10203D01*
X31604Y-10193D01*
X31709Y-10162D01*
X31806Y-10111D01*
X31891Y-10043D01*
X31962Y-9959D01*
X32000Y-9890D01*
X32033Y-9953D01*
X32102Y-10037D01*
X32186Y-10107D01*
X32282Y-10159D01*
X32387Y-10191D01*
X32496Y-10203D01*
X32604Y-10193D01*
X32709Y-10162D01*
X32806Y-10111D01*
X32891Y-10043D01*
X32962Y-9959D01*
X33000Y-9890D01*
X33033Y-9953D01*
X33102Y-10037D01*
X33186Y-10107D01*
X33282Y-10159D01*
X33387Y-10191D01*
X33496Y-10203D01*
X33604Y-10193D01*
X33709Y-10162D01*
X33806Y-10111D01*
X33891Y-10043D01*
X33962Y-9959D01*
X34000Y-9890D01*
X34033Y-9953D01*
X34102Y-10037D01*
X34186Y-10107D01*
X34282Y-10159D01*
X34387Y-10191D01*
X34496Y-10203D01*
X34604Y-10193D01*
X34709Y-10162D01*
X34806Y-10111D01*
X34891Y-10043D01*
X34962Y-9959D01*
X35014Y-9863D01*
X35047Y-9759D01*
X35059Y-9651D01*
X35060Y-9643D01*
X35060Y-9356D01*
X35049Y-9247D01*
X35017Y-9143D01*
X34966Y-9046D01*
X34960Y-9039D01*
X35880Y-9039D01*
X36710Y-9869D01*
X36710Y-20880D01*
X36130Y-21460D01*
X35202Y-21460D01*
X35202Y-19719D01*
X35202Y-19469D01*
X35199Y-19452D01*
X35163Y-19364D01*
X35110Y-19284D01*
X35060Y-19234D01*
X35060Y-15643D01*
X35060Y-15356D01*
X35049Y-15247D01*
X35017Y-15143D01*
X34966Y-15046D01*
X34897Y-14962D01*
X34813Y-14892D01*
X34717Y-14840D01*
X34612Y-14808D01*
X34503Y-14796D01*
X34395Y-14806D01*
X34290Y-14837D01*
X34193Y-14888D01*
X34108Y-14956D01*
X34037Y-15040D01*
X33999Y-15109D01*
X33966Y-15046D01*
X33897Y-14962D01*
X33813Y-14892D01*
X33717Y-14840D01*
X33612Y-14808D01*
X33503Y-14796D01*
X33395Y-14806D01*
X33290Y-14837D01*
X33193Y-14888D01*
X33108Y-14956D01*
X33037Y-15040D01*
X32999Y-15109D01*
X32966Y-15046D01*
X32897Y-14962D01*
X32813Y-14892D01*
X32717Y-14840D01*
X32612Y-14808D01*
X32503Y-14796D01*
X32395Y-14806D01*
X32290Y-14837D01*
X32193Y-14888D01*
X32108Y-14956D01*
X32037Y-15040D01*
X31999Y-15109D01*
X31966Y-15046D01*
X31897Y-14962D01*
X31813Y-14892D01*
X31717Y-14840D01*
X31612Y-14808D01*
X31503Y-14796D01*
X31395Y-14806D01*
X31290Y-14837D01*
X31193Y-14888D01*
X31108Y-14956D01*
X31037Y-15040D01*
X30999Y-15109D01*
X30966Y-15046D01*
X30897Y-14962D01*
X30813Y-14892D01*
X30717Y-14840D01*
X30612Y-14808D01*
X30503Y-14796D01*
X30395Y-14806D01*
X30290Y-14837D01*
X30193Y-14888D01*
X30108Y-14956D01*
X30037Y-15040D01*
X29999Y-15109D01*
X29966Y-15046D01*
X29897Y-14962D01*
X29813Y-14892D01*
X29717Y-14840D01*
X29612Y-14808D01*
X29503Y-14796D01*
X29395Y-14806D01*
X29290Y-14837D01*
X29193Y-14888D01*
X29108Y-14956D01*
X29037Y-15040D01*
X28999Y-15109D01*
X28966Y-15046D01*
X28897Y-14962D01*
X28813Y-14892D01*
X28717Y-14840D01*
X28612Y-14808D01*
X28503Y-14796D01*
X28395Y-14806D01*
X28290Y-14837D01*
X28193Y-14888D01*
X28108Y-14956D01*
X28037Y-15040D01*
X27999Y-15109D01*
X27966Y-15046D01*
X27897Y-14962D01*
X27813Y-14892D01*
X27717Y-14840D01*
X27612Y-14808D01*
X27503Y-14796D01*
X27395Y-14806D01*
X27290Y-14837D01*
X27193Y-14888D01*
X27108Y-14956D01*
X27037Y-15040D01*
X26999Y-15109D01*
X26966Y-15046D01*
X26897Y-14962D01*
X26813Y-14892D01*
X26717Y-14840D01*
X26612Y-14808D01*
X26503Y-14796D01*
X26395Y-14806D01*
X26290Y-14837D01*
X26193Y-14888D01*
X26108Y-14956D01*
X26037Y-15040D01*
X25999Y-15109D01*
X25966Y-15046D01*
X25897Y-14962D01*
X25813Y-14892D01*
X25717Y-14840D01*
X25612Y-14808D01*
X25503Y-14796D01*
X25395Y-14806D01*
X25290Y-14837D01*
X25193Y-14888D01*
X25108Y-14956D01*
X25037Y-15040D01*
X24999Y-15109D01*
X24966Y-15046D01*
X24897Y-14962D01*
X24813Y-14892D01*
X24717Y-14840D01*
X24612Y-14808D01*
X24503Y-14796D01*
X24395Y-14806D01*
X24290Y-14837D01*
X24193Y-14888D01*
X24108Y-14956D01*
X24037Y-15040D01*
X24001Y-15106D01*
X23998Y-15100D01*
X23938Y-15008D01*
X23862Y-14929D01*
X23771Y-14867D01*
X23670Y-14824D01*
X23636Y-14816D01*
X23550Y-14865D01*
X23550Y-15450D01*
X23557Y-15450D01*
X23557Y-15550D01*
X23550Y-15550D01*
X23550Y-16134D01*
X23636Y-16183D01*
X23670Y-16175D01*
X23771Y-16132D01*
X23862Y-16070D01*
X23938Y-15991D01*
X23998Y-15899D01*
X24001Y-15892D01*
X24033Y-15953D01*
X24102Y-16037D01*
X24186Y-16107D01*
X24282Y-16159D01*
X24387Y-16191D01*
X24397Y-16193D01*
X24380Y-16210D01*
X23450Y-16210D01*
X23450Y-16134D01*
X23450Y-15550D01*
X23442Y-15550D01*
X23442Y-15450D01*
X23450Y-15450D01*
X23450Y-14865D01*
X23363Y-14816D01*
X23329Y-14824D01*
X23228Y-14867D01*
X23137Y-14929D01*
X23061Y-15008D01*
X23001Y-15100D01*
X22998Y-15107D01*
X22966Y-15046D01*
X22897Y-14962D01*
X22813Y-14892D01*
X22717Y-14840D01*
X22612Y-14808D01*
X22503Y-14796D01*
X22395Y-14806D01*
X22290Y-14837D01*
X22193Y-14888D01*
X22108Y-14956D01*
X22037Y-15040D01*
X21999Y-15109D01*
X21966Y-15046D01*
X21897Y-14962D01*
X21813Y-14892D01*
X21717Y-14840D01*
X21612Y-14808D01*
X21503Y-14796D01*
X21450Y-14801D01*
X21450Y-10134D01*
X21450Y-9550D01*
X21442Y-9550D01*
X21442Y-9450D01*
X21450Y-9450D01*
X21450Y-8865D01*
X21363Y-8816D01*
X21329Y-8824D01*
X21228Y-8867D01*
X21137Y-8929D01*
X21061Y-9008D01*
X21001Y-9100D01*
X20998Y-9107D01*
X20966Y-9046D01*
X20897Y-8962D01*
X20813Y-8892D01*
X20717Y-8840D01*
X20612Y-8808D01*
X20537Y-8800D01*
X20118Y-8381D01*
X20081Y-8350D01*
X20044Y-8319D01*
X20042Y-8318D01*
X20040Y-8316D01*
X19997Y-8293D01*
X19955Y-8270D01*
X19952Y-8269D01*
X19950Y-8268D01*
X19904Y-8254D01*
X19858Y-8239D01*
X19855Y-8239D01*
X19853Y-8238D01*
X19805Y-8233D01*
X19757Y-8228D01*
X19751Y-8228D01*
X19751Y-8228D01*
X19751Y-8228D01*
X19750Y-8228D01*
X11500Y-8228D01*
X11452Y-8233D01*
X11404Y-8237D01*
X11401Y-8238D01*
X11398Y-8238D01*
X11352Y-8252D01*
X11306Y-8265D01*
X11303Y-8266D01*
X11301Y-8267D01*
X11258Y-8290D01*
X11215Y-8312D01*
X11213Y-8314D01*
X11211Y-8315D01*
X11173Y-8345D01*
X11136Y-8376D01*
X11132Y-8379D01*
X11132Y-8379D01*
X11132Y-8379D01*
X11131Y-8381D01*
X10131Y-9381D01*
X10100Y-9418D01*
X10069Y-9455D01*
X10068Y-9457D01*
X10066Y-9459D01*
X10043Y-9502D01*
X10020Y-9544D01*
X10019Y-9547D01*
X10018Y-9549D01*
X10004Y-9595D01*
X9989Y-9641D01*
X9989Y-9644D01*
X9988Y-9646D01*
X9983Y-9694D01*
X9978Y-9742D01*
X9978Y-9748D01*
X9978Y-9748D01*
X9978Y-9748D01*
X9978Y-9750D01*
X9978Y-13000D01*
X9988Y-13101D01*
X10017Y-13198D01*
X10065Y-13288D01*
X10129Y-13367D01*
X10208Y-13432D01*
X10297Y-13480D01*
X10395Y-13510D01*
X10496Y-13521D01*
X10597Y-13512D01*
X10695Y-13483D01*
X10785Y-13436D01*
X10864Y-13372D01*
X10930Y-13294D01*
X10979Y-13205D01*
X11010Y-13108D01*
X11021Y-13007D01*
X11021Y-13000D01*
X11021Y-9966D01*
X11716Y-9271D01*
X19533Y-9271D01*
X19943Y-9681D01*
X19950Y-9752D01*
X19982Y-9856D01*
X20033Y-9953D01*
X20102Y-10037D01*
X20186Y-10107D01*
X20282Y-10159D01*
X20387Y-10191D01*
X20496Y-10203D01*
X20604Y-10193D01*
X20709Y-10162D01*
X20806Y-10111D01*
X20891Y-10043D01*
X20962Y-9959D01*
X20998Y-9893D01*
X21001Y-9899D01*
X21061Y-9991D01*
X21137Y-10070D01*
X21228Y-10132D01*
X21329Y-10175D01*
X21363Y-10183D01*
X21450Y-10134D01*
X21450Y-14801D01*
X21395Y-14806D01*
X21290Y-14837D01*
X21193Y-14888D01*
X21108Y-14956D01*
X21058Y-15016D01*
X21050Y-14977D01*
X21031Y-14932D01*
X21004Y-14891D01*
X20970Y-14856D01*
X20929Y-14829D01*
X20884Y-14810D01*
X20836Y-14800D01*
X20787Y-14799D01*
X20165Y-14799D01*
X20117Y-14809D01*
X20072Y-14828D01*
X20031Y-14855D01*
X19996Y-14889D01*
X19969Y-14930D01*
X19950Y-14975D01*
X19940Y-15023D01*
X19939Y-15072D01*
X19939Y-15974D01*
X19949Y-16022D01*
X19968Y-16067D01*
X19995Y-16108D01*
X20029Y-16143D01*
X20070Y-16170D01*
X20115Y-16189D01*
X20163Y-16199D01*
X20212Y-16200D01*
X20834Y-16200D01*
X20882Y-16190D01*
X20927Y-16171D01*
X20968Y-16144D01*
X21003Y-16110D01*
X21030Y-16069D01*
X21049Y-16024D01*
X21058Y-15983D01*
X21102Y-16037D01*
X21186Y-16107D01*
X21282Y-16159D01*
X21387Y-16191D01*
X21496Y-16203D01*
X21604Y-16193D01*
X21709Y-16162D01*
X21806Y-16111D01*
X21891Y-16043D01*
X21962Y-15959D01*
X22000Y-15890D01*
X22033Y-15953D01*
X22102Y-16037D01*
X22186Y-16107D01*
X22282Y-16159D01*
X22387Y-16191D01*
X22496Y-16203D01*
X22604Y-16193D01*
X22709Y-16162D01*
X22806Y-16111D01*
X22891Y-16043D01*
X22962Y-15959D01*
X22998Y-15893D01*
X23001Y-15899D01*
X23061Y-15991D01*
X23137Y-16070D01*
X23228Y-16132D01*
X23329Y-16175D01*
X23363Y-16183D01*
X23450Y-16134D01*
X23450Y-16210D01*
X22080Y-16210D01*
X22053Y-16213D01*
X22026Y-16215D01*
X22025Y-16215D01*
X22023Y-16216D01*
X21998Y-16223D01*
X21972Y-16231D01*
X21971Y-16232D01*
X21969Y-16232D01*
X21946Y-16245D01*
X21922Y-16257D01*
X21921Y-16258D01*
X21919Y-16258D01*
X21899Y-16275D01*
X21878Y-16292D01*
X21876Y-16294D01*
X21876Y-16294D01*
X21876Y-16294D01*
X21875Y-16295D01*
X20370Y-17800D01*
X20353Y-17821D01*
X20336Y-17841D01*
X20335Y-17843D01*
X20334Y-17844D01*
X20321Y-17867D01*
X20308Y-17891D01*
X20308Y-17892D01*
X20307Y-17893D01*
X20299Y-17919D01*
X20291Y-17945D01*
X20291Y-17946D01*
X20291Y-17948D01*
X20288Y-17974D01*
X20285Y-18001D01*
X20285Y-18004D01*
X20285Y-18004D01*
X20285Y-18004D01*
X20285Y-18005D01*
X20285Y-19127D01*
X20228Y-19144D01*
X20145Y-19189D01*
X20071Y-19249D01*
X20011Y-19322D01*
X19965Y-19406D01*
X19937Y-19496D01*
X19927Y-19591D01*
X19936Y-19685D01*
X19963Y-19776D01*
X20007Y-19860D01*
X20066Y-19934D01*
X20139Y-19995D01*
X20222Y-20041D01*
X20313Y-20070D01*
X20407Y-20080D01*
X20414Y-20080D01*
X20735Y-20080D01*
X20829Y-20071D01*
X20920Y-20044D01*
X21004Y-19999D01*
X21075Y-19941D01*
X21139Y-19995D01*
X21222Y-20041D01*
X21313Y-20070D01*
X21407Y-20080D01*
X21414Y-20080D01*
X21735Y-20080D01*
X21829Y-20071D01*
X21920Y-20044D01*
X22004Y-19999D01*
X22076Y-19941D01*
X22106Y-19971D01*
X22185Y-20024D01*
X22273Y-20061D01*
X22367Y-20080D01*
X22524Y-20080D01*
X22524Y-19644D01*
X22516Y-19644D01*
X22516Y-19544D01*
X22524Y-19544D01*
X22524Y-19108D01*
X22367Y-19108D01*
X22273Y-19127D01*
X22185Y-19164D01*
X22106Y-19217D01*
X22075Y-19248D01*
X22010Y-19193D01*
X21926Y-19147D01*
X21836Y-19118D01*
X21742Y-19108D01*
X21735Y-19108D01*
X21414Y-19108D01*
X21319Y-19117D01*
X21228Y-19144D01*
X21145Y-19189D01*
X21074Y-19247D01*
X21010Y-19193D01*
X20926Y-19147D01*
X20864Y-19127D01*
X20864Y-18125D01*
X22199Y-16789D01*
X24500Y-16789D01*
X24526Y-16786D01*
X24553Y-16784D01*
X24554Y-16784D01*
X24556Y-16783D01*
X24581Y-16776D01*
X24607Y-16768D01*
X24608Y-16767D01*
X24610Y-16767D01*
X24633Y-16754D01*
X24657Y-16742D01*
X24658Y-16741D01*
X24660Y-16741D01*
X24680Y-16724D01*
X24701Y-16707D01*
X24703Y-16705D01*
X24703Y-16705D01*
X24703Y-16705D01*
X24704Y-16704D01*
X25261Y-16147D01*
X25282Y-16159D01*
X25387Y-16191D01*
X25496Y-16203D01*
X25604Y-16193D01*
X25709Y-16162D01*
X25806Y-16111D01*
X25891Y-16043D01*
X25962Y-15959D01*
X26000Y-15890D01*
X26033Y-15953D01*
X26102Y-16037D01*
X26186Y-16107D01*
X26282Y-16159D01*
X26387Y-16191D01*
X26496Y-16203D01*
X26604Y-16193D01*
X26709Y-16162D01*
X26806Y-16111D01*
X26891Y-16043D01*
X26962Y-15959D01*
X27000Y-15890D01*
X27033Y-15953D01*
X27102Y-16037D01*
X27186Y-16107D01*
X27210Y-16120D01*
X27210Y-16955D01*
X26370Y-17795D01*
X26353Y-17816D01*
X26336Y-17836D01*
X26335Y-17838D01*
X26334Y-17839D01*
X26321Y-17862D01*
X26308Y-17886D01*
X26308Y-17887D01*
X26307Y-17888D01*
X26299Y-17914D01*
X26291Y-17940D01*
X26291Y-17941D01*
X26291Y-17943D01*
X26288Y-17969D01*
X26285Y-17996D01*
X26285Y-17999D01*
X26285Y-17999D01*
X26285Y-17999D01*
X26285Y-18000D01*
X26285Y-19127D01*
X26228Y-19144D01*
X26145Y-19189D01*
X26071Y-19249D01*
X26011Y-19322D01*
X25965Y-19406D01*
X25937Y-19496D01*
X25927Y-19591D01*
X25936Y-19685D01*
X25963Y-19776D01*
X26007Y-19860D01*
X26066Y-19934D01*
X26139Y-19995D01*
X26222Y-20041D01*
X26313Y-20070D01*
X26407Y-20080D01*
X26414Y-20080D01*
X26735Y-20080D01*
X26829Y-20071D01*
X26920Y-20044D01*
X27004Y-19999D01*
X27075Y-19941D01*
X27139Y-19995D01*
X27222Y-20041D01*
X27313Y-20070D01*
X27407Y-20080D01*
X27414Y-20080D01*
X27735Y-20080D01*
X27829Y-20071D01*
X27920Y-20044D01*
X28004Y-19999D01*
X28076Y-19941D01*
X28106Y-19971D01*
X28185Y-20024D01*
X28273Y-20061D01*
X28367Y-20080D01*
X28524Y-20080D01*
X28524Y-19644D01*
X28516Y-19644D01*
X28516Y-19544D01*
X28524Y-19544D01*
X28524Y-19108D01*
X28367Y-19108D01*
X28273Y-19127D01*
X28185Y-19164D01*
X28106Y-19217D01*
X28075Y-19248D01*
X28010Y-19193D01*
X27926Y-19147D01*
X27836Y-19118D01*
X27742Y-19108D01*
X27735Y-19108D01*
X27414Y-19108D01*
X27319Y-19117D01*
X27228Y-19144D01*
X27145Y-19189D01*
X27074Y-19247D01*
X27010Y-19193D01*
X26926Y-19147D01*
X26864Y-19127D01*
X26864Y-18120D01*
X27704Y-17279D01*
X27721Y-17258D01*
X27738Y-17238D01*
X27739Y-17237D01*
X27740Y-17235D01*
X27753Y-17212D01*
X27765Y-17188D01*
X27766Y-17187D01*
X27767Y-17186D01*
X27774Y-17160D01*
X27783Y-17135D01*
X27783Y-17133D01*
X27783Y-17132D01*
X27786Y-17105D01*
X27789Y-17079D01*
X27789Y-17076D01*
X27789Y-17076D01*
X27789Y-17075D01*
X27789Y-17075D01*
X27789Y-16121D01*
X27806Y-16111D01*
X27891Y-16043D01*
X27962Y-15959D01*
X28000Y-15890D01*
X28033Y-15953D01*
X28102Y-16037D01*
X28186Y-16107D01*
X28282Y-16159D01*
X28387Y-16191D01*
X28496Y-16203D01*
X28604Y-16193D01*
X28709Y-16162D01*
X28738Y-16147D01*
X29295Y-16705D01*
X29316Y-16721D01*
X29336Y-16739D01*
X29338Y-16739D01*
X29339Y-16740D01*
X29362Y-16753D01*
X29386Y-16766D01*
X29387Y-16766D01*
X29389Y-16767D01*
X29414Y-16775D01*
X29440Y-16783D01*
X29441Y-16783D01*
X29443Y-16784D01*
X29469Y-16786D01*
X29496Y-16789D01*
X29499Y-16789D01*
X29499Y-16789D01*
X29499Y-16789D01*
X29500Y-16789D01*
X30955Y-16789D01*
X32285Y-18120D01*
X32285Y-19127D01*
X32228Y-19144D01*
X32145Y-19189D01*
X32071Y-19249D01*
X32011Y-19322D01*
X31965Y-19406D01*
X31937Y-19496D01*
X31927Y-19591D01*
X31936Y-19685D01*
X31963Y-19776D01*
X32007Y-19860D01*
X32066Y-19934D01*
X32139Y-19995D01*
X32222Y-20041D01*
X32313Y-20070D01*
X32407Y-20080D01*
X32414Y-20080D01*
X32735Y-20080D01*
X32829Y-20071D01*
X32920Y-20044D01*
X33004Y-19999D01*
X33075Y-19941D01*
X33139Y-19995D01*
X33222Y-20041D01*
X33313Y-20070D01*
X33407Y-20080D01*
X33414Y-20080D01*
X33735Y-20080D01*
X33829Y-20071D01*
X33920Y-20044D01*
X34004Y-19999D01*
X34076Y-19941D01*
X34106Y-19971D01*
X34185Y-20024D01*
X34273Y-20061D01*
X34367Y-20080D01*
X34524Y-20080D01*
X34524Y-19644D01*
X34516Y-19644D01*
X34516Y-19544D01*
X34524Y-19544D01*
X34524Y-19108D01*
X34367Y-19108D01*
X34273Y-19127D01*
X34185Y-19164D01*
X34106Y-19217D01*
X34075Y-19248D01*
X34010Y-19193D01*
X33926Y-19147D01*
X33836Y-19118D01*
X33742Y-19108D01*
X33735Y-19108D01*
X33414Y-19108D01*
X33319Y-19117D01*
X33228Y-19144D01*
X33145Y-19189D01*
X33074Y-19247D01*
X33010Y-19193D01*
X32926Y-19147D01*
X32864Y-19127D01*
X32864Y-18000D01*
X32861Y-17973D01*
X32859Y-17946D01*
X32858Y-17945D01*
X32858Y-17943D01*
X32850Y-17918D01*
X32843Y-17892D01*
X32842Y-17891D01*
X32842Y-17889D01*
X32829Y-17866D01*
X32817Y-17842D01*
X32816Y-17841D01*
X32815Y-17840D01*
X32798Y-17819D01*
X32782Y-17798D01*
X32780Y-17796D01*
X32780Y-17796D01*
X32780Y-17796D01*
X32779Y-17795D01*
X31279Y-16295D01*
X31258Y-16278D01*
X31238Y-16261D01*
X31237Y-16260D01*
X31235Y-16259D01*
X31212Y-16247D01*
X31188Y-16234D01*
X31187Y-16233D01*
X31186Y-16233D01*
X31160Y-16225D01*
X31135Y-16217D01*
X31133Y-16217D01*
X31132Y-16216D01*
X31105Y-16214D01*
X31079Y-16211D01*
X31076Y-16211D01*
X31076Y-16211D01*
X31075Y-16211D01*
X31075Y-16211D01*
X29620Y-16211D01*
X29602Y-16193D01*
X29604Y-16193D01*
X29709Y-16162D01*
X29806Y-16111D01*
X29891Y-16043D01*
X29962Y-15959D01*
X30000Y-15890D01*
X30033Y-15953D01*
X30102Y-16037D01*
X30186Y-16107D01*
X30282Y-16159D01*
X30387Y-16191D01*
X30496Y-16203D01*
X30604Y-16193D01*
X30709Y-16162D01*
X30806Y-16111D01*
X30891Y-16043D01*
X30962Y-15959D01*
X31000Y-15890D01*
X31033Y-15953D01*
X31102Y-16037D01*
X31186Y-16107D01*
X31282Y-16159D01*
X31387Y-16191D01*
X31496Y-16203D01*
X31604Y-16193D01*
X31709Y-16162D01*
X31806Y-16111D01*
X31891Y-16043D01*
X31962Y-15959D01*
X32000Y-15890D01*
X32033Y-15953D01*
X32102Y-16037D01*
X32186Y-16107D01*
X32282Y-16159D01*
X32387Y-16191D01*
X32496Y-16203D01*
X32604Y-16193D01*
X32709Y-16162D01*
X32806Y-16111D01*
X32891Y-16043D01*
X32962Y-15959D01*
X33000Y-15890D01*
X33033Y-15953D01*
X33102Y-16037D01*
X33186Y-16107D01*
X33282Y-16159D01*
X33387Y-16191D01*
X33496Y-16203D01*
X33604Y-16193D01*
X33709Y-16162D01*
X33806Y-16111D01*
X33891Y-16043D01*
X33962Y-15959D01*
X34000Y-15890D01*
X34033Y-15953D01*
X34102Y-16037D01*
X34186Y-16107D01*
X34282Y-16159D01*
X34387Y-16191D01*
X34496Y-16203D01*
X34604Y-16193D01*
X34709Y-16162D01*
X34806Y-16111D01*
X34891Y-16043D01*
X34962Y-15959D01*
X35014Y-15863D01*
X35047Y-15759D01*
X35059Y-15651D01*
X35060Y-15643D01*
X35060Y-19234D01*
X35043Y-19217D01*
X34963Y-19164D01*
X34875Y-19127D01*
X34782Y-19108D01*
X34624Y-19108D01*
X34624Y-19544D01*
X35153Y-19544D01*
X35202Y-19469D01*
X35202Y-19719D01*
X35153Y-19644D01*
X34624Y-19644D01*
X34624Y-20080D01*
X34782Y-20080D01*
X34875Y-20061D01*
X34963Y-20024D01*
X35043Y-19971D01*
X35110Y-19904D01*
X35163Y-19824D01*
X35199Y-19736D01*
X35202Y-19719D01*
X35202Y-21460D01*
X29202Y-21460D01*
X29202Y-19719D01*
X29202Y-19469D01*
X29199Y-19452D01*
X29163Y-19364D01*
X29110Y-19284D01*
X29043Y-19217D01*
X28963Y-19164D01*
X28875Y-19127D01*
X28782Y-19108D01*
X28624Y-19108D01*
X28624Y-19544D01*
X29153Y-19544D01*
X29202Y-19469D01*
X29202Y-19719D01*
X29153Y-19644D01*
X28624Y-19644D01*
X28624Y-20080D01*
X28782Y-20080D01*
X28875Y-20061D01*
X28963Y-20024D01*
X29043Y-19971D01*
X29110Y-19904D01*
X29163Y-19824D01*
X29199Y-19736D01*
X29202Y-19719D01*
X29202Y-21460D01*
X23202Y-21460D01*
X23202Y-19719D01*
X23202Y-19469D01*
X23199Y-19452D01*
X23163Y-19364D01*
X23110Y-19284D01*
X23043Y-19217D01*
X22963Y-19164D01*
X22875Y-19127D01*
X22782Y-19108D01*
X22624Y-19108D01*
X22624Y-19544D01*
X23153Y-19544D01*
X23202Y-19469D01*
X23202Y-19719D01*
X23153Y-19644D01*
X22624Y-19644D01*
X22624Y-20080D01*
X22782Y-20080D01*
X22875Y-20061D01*
X22963Y-20024D01*
X23043Y-19971D01*
X23110Y-19904D01*
X23163Y-19824D01*
X23199Y-19736D01*
X23202Y-19719D01*
X23202Y-21460D01*
X20750Y-21460D01*
X20723Y-21463D01*
X20696Y-21465D01*
X20695Y-21465D01*
X20693Y-21466D01*
X20668Y-21473D01*
X20642Y-21481D01*
X20641Y-21482D01*
X20639Y-21482D01*
X20616Y-21495D01*
X20592Y-21507D01*
X20591Y-21508D01*
X20589Y-21508D01*
X20569Y-21525D01*
X20548Y-21542D01*
X20546Y-21544D01*
X20546Y-21544D01*
X20546Y-21544D01*
X20545Y-21545D01*
X19295Y-22795D01*
X19278Y-22816D01*
X19261Y-22836D01*
X19260Y-22837D01*
X19259Y-22839D01*
X19246Y-22862D01*
X19234Y-22886D01*
X19233Y-22887D01*
X19232Y-22888D01*
X19225Y-22914D01*
X19216Y-22939D01*
X19216Y-22941D01*
X19216Y-22942D01*
X19213Y-22969D01*
X19210Y-22995D01*
X19210Y-22998D01*
X19210Y-22998D01*
X19210Y-22999D01*
X19210Y-23000D01*
X19210Y-25422D01*
X19200Y-25426D01*
X19094Y-25495D01*
X19004Y-25584D01*
X18933Y-25688D01*
X18883Y-25804D01*
X18857Y-25927D01*
X18855Y-26054D01*
X18878Y-26178D01*
X18924Y-26295D01*
X18993Y-26401D01*
X19080Y-26492D01*
X19184Y-26564D01*
X19300Y-26615D01*
X19423Y-26642D01*
X19549Y-26644D01*
X19673Y-26622D01*
X19791Y-26577D01*
X19898Y-26509D01*
X19989Y-26422D01*
X20062Y-26319D01*
X20113Y-26204D01*
X20141Y-26081D01*
X20143Y-25936D01*
X20119Y-25813D01*
X20071Y-25696D01*
X20001Y-25591D01*
X19912Y-25501D01*
X19807Y-25431D01*
X19789Y-25423D01*
X19789Y-23119D01*
X20869Y-22039D01*
X36051Y-22039D01*
X35880Y-22210D01*
X29500Y-22210D01*
X29473Y-22213D01*
X29446Y-22215D01*
X29445Y-22215D01*
X29443Y-22216D01*
X29418Y-22223D01*
X29392Y-22231D01*
X29391Y-22232D01*
X29389Y-22232D01*
X29366Y-22245D01*
X29342Y-22257D01*
X29341Y-22258D01*
X29339Y-22258D01*
X29319Y-22275D01*
X29298Y-22292D01*
X29296Y-22294D01*
X29296Y-22294D01*
X29296Y-22294D01*
X29295Y-22295D01*
X28795Y-22795D01*
X28778Y-22816D01*
X28761Y-22836D01*
X28760Y-22837D01*
X28759Y-22839D01*
X28746Y-22862D01*
X28734Y-22886D01*
X28733Y-22887D01*
X28732Y-22888D01*
X28725Y-22914D01*
X28716Y-22939D01*
X28716Y-22941D01*
X28716Y-22942D01*
X28713Y-22969D01*
X28710Y-22995D01*
X28710Y-22998D01*
X28710Y-22998D01*
X28710Y-22999D01*
X28710Y-23000D01*
X28710Y-25422D01*
X28700Y-25426D01*
X28594Y-25495D01*
X28504Y-25584D01*
X28433Y-25688D01*
X28383Y-25804D01*
X28357Y-25927D01*
X28355Y-26054D01*
X28378Y-26178D01*
X28424Y-26295D01*
X28493Y-26401D01*
X28580Y-26492D01*
X28684Y-26564D01*
X28800Y-26615D01*
X28923Y-26642D01*
X29049Y-26644D01*
X29173Y-26622D01*
X29291Y-26577D01*
X29398Y-26509D01*
X29489Y-26422D01*
X29562Y-26319D01*
X29613Y-26204D01*
X29641Y-26081D01*
X29643Y-25936D01*
X29619Y-25813D01*
X29571Y-25696D01*
X29501Y-25591D01*
X29412Y-25501D01*
X29307Y-25431D01*
X29289Y-25423D01*
X29289Y-23119D01*
X29619Y-22789D01*
X36000Y-22789D01*
X36026Y-22786D01*
X36053Y-22784D01*
X36054Y-22784D01*
X36056Y-22783D01*
X36081Y-22776D01*
X36107Y-22768D01*
X36108Y-22767D01*
X36110Y-22767D01*
X36133Y-22754D01*
X36157Y-22742D01*
X36158Y-22741D01*
X36160Y-22741D01*
X36180Y-22724D01*
X36201Y-22707D01*
X36203Y-22705D01*
X36203Y-22705D01*
X36203Y-22705D01*
X36204Y-22704D01*
X37704Y-21204D01*
X37721Y-21183D01*
X37738Y-21163D01*
X37739Y-21162D01*
X37740Y-21160D01*
X37749Y-21143D01*
X37757Y-21157D01*
X37758Y-21158D01*
X37758Y-21160D01*
X37775Y-21180D01*
X37792Y-21201D01*
X37794Y-21203D01*
X37794Y-21203D01*
X37794Y-21203D01*
X37795Y-21204D01*
X38210Y-21619D01*
X38210Y-25422D01*
X38200Y-25426D01*
X38094Y-25495D01*
X38004Y-25584D01*
X37933Y-25688D01*
X37883Y-25804D01*
X37857Y-25927D01*
X37855Y-26054D01*
X37878Y-26178D01*
X37924Y-26295D01*
X37993Y-26401D01*
X38080Y-26492D01*
X38184Y-26564D01*
X38300Y-26615D01*
X38423Y-26642D01*
X38549Y-26644D01*
X38673Y-26622D01*
X38791Y-26577D01*
X38898Y-26509D01*
X38989Y-26422D01*
X39062Y-26319D01*
X39113Y-26204D01*
X39141Y-26081D01*
X39143Y-25936D01*
X39119Y-25813D01*
X39071Y-25696D01*
X39001Y-25591D01*
X38912Y-25501D01*
X38807Y-25431D01*
X38789Y-25423D01*
X38789Y-21500D01*
X38786Y-21473D01*
X38784Y-21446D01*
X38784Y-21445D01*
X38783Y-21443D01*
X38776Y-21418D01*
X38768Y-21392D01*
X38767Y-21391D01*
X38767Y-21389D01*
X38754Y-21366D01*
X38742Y-21342D01*
X38741Y-21341D01*
X38741Y-21339D01*
X38724Y-21319D01*
X38707Y-21298D01*
X38705Y-21296D01*
X38705Y-21296D01*
X38705Y-21296D01*
X38704Y-21295D01*
X38289Y-20880D01*
X38289Y-9750D01*
X38286Y-9723D01*
X38284Y-9696D01*
X38284Y-9695D01*
X38283Y-9693D01*
X38276Y-9668D01*
X38268Y-9642D01*
X38267Y-9641D01*
X38267Y-9639D01*
X38254Y-9616D01*
X38242Y-9592D01*
X38241Y-9591D01*
X38241Y-9589D01*
X38224Y-9569D01*
X38207Y-9548D01*
X38205Y-9546D01*
X38205Y-9546D01*
X38205Y-9546D01*
X38204Y-9545D01*
X36802Y-8143D01*
X42537Y-8143D01*
X42537Y-27289D01*
X42537Y-27289D01*
G37*
G54D23*
X42537Y-27289D02*
X41114Y-27289D01*
X41114Y-25977D01*
X41098Y-25851D01*
X41057Y-25732D01*
X41019Y-25661D01*
X40915Y-25623D01*
X40844Y-25694D01*
X40844Y-25552D01*
X40807Y-25448D01*
X40693Y-25393D01*
X40571Y-25361D01*
X40445Y-25353D01*
X40320Y-25370D01*
X40200Y-25411D01*
X40129Y-25448D01*
X40092Y-25552D01*
X40468Y-25929D01*
X40844Y-25552D01*
X40844Y-25694D01*
X40539Y-26000D01*
X40915Y-26376D01*
X41019Y-26338D01*
X41074Y-26225D01*
X41107Y-26103D01*
X41114Y-25977D01*
X41114Y-27289D01*
X40844Y-27289D01*
X40844Y-26447D01*
X40468Y-26070D01*
X40397Y-26141D01*
X40397Y-26000D01*
X40021Y-25623D01*
X39917Y-25661D01*
X39862Y-25774D01*
X39829Y-25896D01*
X39822Y-26022D01*
X39838Y-26148D01*
X39879Y-26267D01*
X39917Y-26338D01*
X40021Y-26376D01*
X40397Y-26000D01*
X40397Y-26141D01*
X40092Y-26447D01*
X40129Y-26551D01*
X40243Y-26606D01*
X40365Y-26638D01*
X40491Y-26646D01*
X40616Y-26629D01*
X40736Y-26588D01*
X40807Y-26551D01*
X40844Y-26447D01*
X40844Y-27289D01*
X37175Y-27289D01*
X37175Y-25936D01*
X37150Y-25813D01*
X37102Y-25696D01*
X37032Y-25591D01*
X36943Y-25501D01*
X36839Y-25431D01*
X36722Y-25382D01*
X36599Y-25356D01*
X36472Y-25355D01*
X36348Y-25379D01*
X36231Y-25426D01*
X36126Y-25495D01*
X36036Y-25584D01*
X35964Y-25688D01*
X35914Y-25804D01*
X35888Y-25927D01*
X35886Y-26054D01*
X35909Y-26178D01*
X35956Y-26295D01*
X36024Y-26401D01*
X36112Y-26492D01*
X36215Y-26564D01*
X36331Y-26615D01*
X36454Y-26642D01*
X36581Y-26644D01*
X36705Y-26622D01*
X36823Y-26577D01*
X36929Y-26509D01*
X37021Y-26422D01*
X37093Y-26319D01*
X37145Y-26204D01*
X37173Y-26081D01*
X37175Y-25936D01*
X37175Y-27289D01*
X31614Y-27289D01*
X31614Y-25977D01*
X31598Y-25851D01*
X31557Y-25732D01*
X31519Y-25661D01*
X31415Y-25623D01*
X31344Y-25694D01*
X31344Y-25552D01*
X31307Y-25448D01*
X31193Y-25393D01*
X31071Y-25361D01*
X30945Y-25353D01*
X30820Y-25370D01*
X30700Y-25411D01*
X30629Y-25448D01*
X30592Y-25552D01*
X30968Y-25929D01*
X31344Y-25552D01*
X31344Y-25694D01*
X31039Y-26000D01*
X31415Y-26376D01*
X31519Y-26338D01*
X31574Y-26225D01*
X31607Y-26103D01*
X31614Y-25977D01*
X31614Y-27289D01*
X31344Y-27289D01*
X31344Y-26447D01*
X30968Y-26070D01*
X30897Y-26141D01*
X30897Y-26000D01*
X30521Y-25623D01*
X30417Y-25661D01*
X30362Y-25774D01*
X30329Y-25896D01*
X30322Y-26022D01*
X30338Y-26148D01*
X30379Y-26267D01*
X30417Y-26338D01*
X30521Y-26376D01*
X30897Y-26000D01*
X30897Y-26141D01*
X30592Y-26447D01*
X30629Y-26551D01*
X30743Y-26606D01*
X30865Y-26638D01*
X30991Y-26646D01*
X31116Y-26629D01*
X31236Y-26588D01*
X31307Y-26551D01*
X31344Y-26447D01*
X31344Y-27289D01*
X27675Y-27289D01*
X27675Y-25936D01*
X27650Y-25813D01*
X27602Y-25696D01*
X27532Y-25591D01*
X27443Y-25501D01*
X27339Y-25431D01*
X27222Y-25382D01*
X27099Y-25356D01*
X26972Y-25355D01*
X26848Y-25379D01*
X26731Y-25426D01*
X26626Y-25495D01*
X26536Y-25584D01*
X26464Y-25688D01*
X26414Y-25804D01*
X26388Y-25927D01*
X26386Y-26054D01*
X26409Y-26178D01*
X26456Y-26295D01*
X26524Y-26401D01*
X26612Y-26492D01*
X26715Y-26564D01*
X26831Y-26615D01*
X26954Y-26642D01*
X27081Y-26644D01*
X27205Y-26622D01*
X27323Y-26577D01*
X27429Y-26509D01*
X27521Y-26422D01*
X27593Y-26319D01*
X27645Y-26204D01*
X27673Y-26081D01*
X27675Y-25936D01*
X27675Y-27289D01*
X22114Y-27289D01*
X22114Y-25977D01*
X22098Y-25851D01*
X22057Y-25732D01*
X22019Y-25661D01*
X21915Y-25623D01*
X21844Y-25694D01*
X21844Y-25552D01*
X21807Y-25448D01*
X21693Y-25393D01*
X21571Y-25361D01*
X21445Y-25353D01*
X21320Y-25370D01*
X21200Y-25411D01*
X21129Y-25448D01*
X21092Y-25552D01*
X21468Y-25929D01*
X21844Y-25552D01*
X21844Y-25694D01*
X21539Y-26000D01*
X21915Y-26376D01*
X22019Y-26338D01*
X22074Y-26225D01*
X22107Y-26103D01*
X22114Y-25977D01*
X22114Y-27289D01*
X21844Y-27289D01*
X21844Y-26447D01*
X21468Y-26070D01*
X21397Y-26141D01*
X21397Y-26000D01*
X21021Y-25623D01*
X20917Y-25661D01*
X20862Y-25774D01*
X20829Y-25896D01*
X20822Y-26022D01*
X20838Y-26148D01*
X20879Y-26267D01*
X20917Y-26338D01*
X21021Y-26376D01*
X21397Y-26000D01*
X21397Y-26141D01*
X21092Y-26447D01*
X21129Y-26551D01*
X21243Y-26606D01*
X21365Y-26638D01*
X21491Y-26646D01*
X21616Y-26629D01*
X21736Y-26588D01*
X21807Y-26551D01*
X21844Y-26447D01*
X21844Y-27289D01*
X18848Y-27289D01*
X18848Y-17500D01*
X18848Y-16500D01*
X18841Y-16432D01*
X18822Y-16367D01*
X18790Y-16307D01*
X18747Y-16254D01*
X18694Y-16211D01*
X18635Y-16178D01*
X18570Y-16158D01*
X18502Y-16151D01*
X18434Y-16157D01*
X18369Y-16176D01*
X18309Y-16208D01*
X18256Y-16251D01*
X18212Y-16303D01*
X18179Y-16362D01*
X18159Y-16427D01*
X18151Y-16495D01*
X18151Y-16500D01*
X18151Y-17500D01*
X18158Y-17567D01*
X18177Y-17632D01*
X18209Y-17692D01*
X18252Y-17745D01*
X18305Y-17788D01*
X18364Y-17821D01*
X18429Y-17841D01*
X18497Y-17848D01*
X18565Y-17842D01*
X18630Y-17823D01*
X18690Y-17791D01*
X18743Y-17748D01*
X18787Y-17696D01*
X18820Y-17637D01*
X18840Y-17572D01*
X18848Y-17504D01*
X18848Y-17500D01*
X18848Y-27289D01*
X18175Y-27289D01*
X18175Y-25936D01*
X18150Y-25813D01*
X18102Y-25696D01*
X18032Y-25591D01*
X17943Y-25501D01*
X17848Y-25437D01*
X17848Y-18000D01*
X17848Y-16500D01*
X17841Y-16432D01*
X17822Y-16367D01*
X17790Y-16307D01*
X17747Y-16254D01*
X17694Y-16211D01*
X17635Y-16178D01*
X17570Y-16158D01*
X17502Y-16151D01*
X17434Y-16157D01*
X17369Y-16176D01*
X17309Y-16208D01*
X17256Y-16251D01*
X17212Y-16303D01*
X17179Y-16362D01*
X17159Y-16427D01*
X17151Y-16495D01*
X17151Y-16500D01*
X17151Y-18000D01*
X17158Y-18067D01*
X17177Y-18132D01*
X17209Y-18192D01*
X17252Y-18245D01*
X17305Y-18288D01*
X17364Y-18321D01*
X17429Y-18341D01*
X17497Y-18348D01*
X17565Y-18342D01*
X17630Y-18323D01*
X17690Y-18291D01*
X17743Y-18248D01*
X17787Y-18196D01*
X17820Y-18137D01*
X17840Y-18072D01*
X17848Y-18004D01*
X17848Y-18000D01*
X17848Y-25437D01*
X17839Y-25431D01*
X17722Y-25382D01*
X17599Y-25356D01*
X17472Y-25355D01*
X17348Y-25379D01*
X17231Y-25426D01*
X17126Y-25495D01*
X17036Y-25584D01*
X16964Y-25688D01*
X16914Y-25804D01*
X16888Y-25927D01*
X16886Y-26054D01*
X16909Y-26178D01*
X16956Y-26295D01*
X17024Y-26401D01*
X17112Y-26492D01*
X17215Y-26564D01*
X17331Y-26615D01*
X17454Y-26642D01*
X17581Y-26644D01*
X17705Y-26622D01*
X17823Y-26577D01*
X17929Y-26509D01*
X18021Y-26422D01*
X18093Y-26319D01*
X18145Y-26204D01*
X18173Y-26081D01*
X18175Y-25936D01*
X18175Y-27289D01*
X15042Y-27289D01*
X15042Y-25165D01*
X15042Y-20953D01*
X15042Y-16740D01*
X15032Y-16622D01*
X14998Y-16508D01*
X14943Y-16403D01*
X14869Y-16310D01*
X14778Y-16234D01*
X14674Y-16177D01*
X14561Y-16141D01*
X14443Y-16128D01*
X14434Y-16127D01*
X11699Y-16127D01*
X11581Y-16139D01*
X11467Y-16173D01*
X11362Y-16229D01*
X11270Y-16304D01*
X11194Y-16396D01*
X11138Y-16500D01*
X11103Y-16613D01*
X11090Y-16731D01*
X11101Y-16850D01*
X11135Y-16964D01*
X11190Y-17069D01*
X11264Y-17161D01*
X11355Y-17238D01*
X11459Y-17295D01*
X11572Y-17331D01*
X11690Y-17344D01*
X11699Y-17344D01*
X14434Y-17344D01*
X14552Y-17332D01*
X14666Y-17298D01*
X14771Y-17242D01*
X14863Y-17167D01*
X14938Y-17076D01*
X14995Y-16971D01*
X15030Y-16858D01*
X15042Y-16740D01*
X15042Y-20953D01*
X15032Y-20834D01*
X14998Y-20720D01*
X14943Y-20615D01*
X14869Y-20523D01*
X14778Y-20446D01*
X14674Y-20389D01*
X14561Y-20353D01*
X14443Y-20340D01*
X14434Y-20340D01*
X11699Y-20340D01*
X11581Y-20352D01*
X11467Y-20386D01*
X11362Y-20442D01*
X11270Y-20517D01*
X11194Y-20608D01*
X11138Y-20713D01*
X11103Y-20826D01*
X11090Y-20944D01*
X11101Y-21062D01*
X11135Y-21176D01*
X11190Y-21281D01*
X11264Y-21374D01*
X11355Y-21450D01*
X11459Y-21507D01*
X11572Y-21543D01*
X11690Y-21557D01*
X11699Y-21557D01*
X14434Y-21557D01*
X14552Y-21545D01*
X14666Y-21511D01*
X14771Y-21455D01*
X14863Y-21380D01*
X14938Y-21288D01*
X14995Y-21184D01*
X15030Y-21071D01*
X15042Y-20953D01*
X15042Y-25165D01*
X15032Y-25047D01*
X14998Y-24933D01*
X14943Y-24828D01*
X14869Y-24735D01*
X14778Y-24659D01*
X14674Y-24602D01*
X14561Y-24566D01*
X14443Y-24553D01*
X14434Y-24553D01*
X11699Y-24553D01*
X11581Y-24564D01*
X11467Y-24599D01*
X11362Y-24654D01*
X11270Y-24729D01*
X11194Y-24821D01*
X11138Y-24925D01*
X11103Y-25039D01*
X11090Y-25157D01*
X11101Y-25275D01*
X11135Y-25389D01*
X11190Y-25494D01*
X11264Y-25587D01*
X11355Y-25663D01*
X11459Y-25720D01*
X11572Y-25756D01*
X11690Y-25769D01*
X11699Y-25769D01*
X14434Y-25769D01*
X14552Y-25758D01*
X14666Y-25723D01*
X14771Y-25668D01*
X14863Y-25593D01*
X14938Y-25501D01*
X14995Y-25397D01*
X15030Y-25283D01*
X15042Y-25165D01*
X15042Y-27289D01*
X10000Y-27289D01*
X10000Y-25401D01*
X9961Y-25209D01*
X9887Y-25028D01*
X9778Y-24864D01*
X9640Y-24725D01*
X9477Y-24616D01*
X9297Y-24540D01*
X9105Y-24500D01*
X9084Y-24500D01*
X9270Y-24467D01*
X9453Y-24396D01*
X9618Y-24291D01*
X9760Y-24156D01*
X9873Y-23996D01*
X9953Y-23817D01*
X9996Y-23625D01*
X10000Y-23401D01*
X10000Y-19401D01*
X9961Y-19209D01*
X9887Y-19028D01*
X9778Y-18864D01*
X9640Y-18725D01*
X9477Y-18616D01*
X9297Y-18540D01*
X9105Y-18500D01*
X9084Y-18500D01*
X9270Y-18467D01*
X9453Y-18396D01*
X9618Y-18291D01*
X9760Y-18156D01*
X9873Y-17996D01*
X9953Y-17817D01*
X9996Y-17625D01*
X10000Y-17401D01*
X9961Y-17209D01*
X9887Y-17028D01*
X9778Y-16864D01*
X9640Y-16725D01*
X9477Y-16616D01*
X9297Y-16540D01*
X9105Y-16500D01*
X9052Y-16500D01*
X9052Y-13973D01*
X9050Y-13960D01*
X9050Y-12277D01*
X9050Y-11675D01*
X9040Y-11627D01*
X9021Y-11582D01*
X8994Y-11541D01*
X8960Y-11506D01*
X8919Y-11479D01*
X8874Y-11460D01*
X8826Y-11450D01*
X8817Y-11450D01*
X8840Y-11435D01*
X8918Y-11361D01*
X8980Y-11272D01*
X9024Y-11174D01*
X9048Y-11069D01*
X9050Y-10946D01*
X9029Y-10840D01*
X8987Y-10740D01*
X8928Y-10650D01*
X8852Y-10574D01*
X8762Y-10513D01*
X8730Y-10500D01*
X8749Y-10493D01*
X8840Y-10435D01*
X8918Y-10361D01*
X8980Y-10272D01*
X9024Y-10174D01*
X9048Y-10069D01*
X9050Y-9946D01*
X9029Y-9840D01*
X8987Y-9740D01*
X8928Y-9650D01*
X8852Y-9574D01*
X8762Y-9513D01*
X8730Y-9500D01*
X8749Y-9493D01*
X8840Y-9435D01*
X8918Y-9361D01*
X8980Y-9272D01*
X9024Y-9174D01*
X9048Y-9069D01*
X9050Y-8946D01*
X9029Y-8840D01*
X8987Y-8740D01*
X8928Y-8650D01*
X8852Y-8574D01*
X8762Y-8513D01*
X8663Y-8472D01*
X8557Y-8450D01*
X8449Y-8449D01*
X8343Y-8469D01*
X8243Y-8510D01*
X8153Y-8569D01*
X8076Y-8644D01*
X8015Y-8733D01*
X7973Y-8832D01*
X7950Y-8938D01*
X7949Y-9046D01*
X7968Y-9152D01*
X8008Y-9252D01*
X8066Y-9343D01*
X8141Y-9420D01*
X8230Y-9482D01*
X8269Y-9499D01*
X8243Y-9510D01*
X8153Y-9569D01*
X8076Y-9644D01*
X8015Y-9733D01*
X7973Y-9832D01*
X7950Y-9938D01*
X7949Y-10046D01*
X7968Y-10152D01*
X8008Y-10252D01*
X8066Y-10343D01*
X8141Y-10420D01*
X8230Y-10482D01*
X8269Y-10499D01*
X8243Y-10510D01*
X8153Y-10569D01*
X8076Y-10644D01*
X8015Y-10733D01*
X7973Y-10832D01*
X7950Y-10938D01*
X7949Y-11046D01*
X7968Y-11152D01*
X8008Y-11252D01*
X8066Y-11343D01*
X8141Y-11420D01*
X8183Y-11449D01*
X8175Y-11449D01*
X8127Y-11459D01*
X8082Y-11478D01*
X8041Y-11505D01*
X8006Y-11539D01*
X7979Y-11580D01*
X7960Y-11625D01*
X7950Y-11673D01*
X7949Y-11722D01*
X7949Y-12324D01*
X7959Y-12372D01*
X7978Y-12417D01*
X8005Y-12458D01*
X8039Y-12493D01*
X8080Y-12520D01*
X8125Y-12539D01*
X8173Y-12549D01*
X8222Y-12550D01*
X8824Y-12550D01*
X8872Y-12540D01*
X8917Y-12521D01*
X8958Y-12494D01*
X8993Y-12460D01*
X9020Y-12419D01*
X9039Y-12374D01*
X9049Y-12326D01*
X9050Y-12277D01*
X9050Y-13960D01*
X9036Y-13866D01*
X9000Y-13764D01*
X8974Y-13716D01*
X8880Y-13690D01*
X8809Y-13761D01*
X8809Y-13619D01*
X8783Y-13525D01*
X8685Y-13479D01*
X8580Y-13453D01*
X8473Y-13447D01*
X8366Y-13463D01*
X8264Y-13499D01*
X8216Y-13525D01*
X8190Y-13619D01*
X8500Y-13929D01*
X8809Y-13619D01*
X8809Y-13761D01*
X8570Y-14000D01*
X8880Y-14309D01*
X8974Y-14283D01*
X9020Y-14185D01*
X9046Y-14080D01*
X9052Y-13973D01*
X9052Y-16500D01*
X9050Y-16500D01*
X9050Y-15277D01*
X9050Y-14675D01*
X9040Y-14627D01*
X9021Y-14582D01*
X8994Y-14541D01*
X8960Y-14506D01*
X8919Y-14479D01*
X8874Y-14460D01*
X8826Y-14450D01*
X8789Y-14449D01*
X8809Y-14380D01*
X8500Y-14070D01*
X8429Y-14141D01*
X8429Y-14000D01*
X8119Y-13690D01*
X8025Y-13716D01*
X7979Y-13814D01*
X7953Y-13919D01*
X7947Y-14026D01*
X7963Y-14133D01*
X7999Y-14235D01*
X8025Y-14283D01*
X8119Y-14309D01*
X8429Y-14000D01*
X8429Y-14141D01*
X8190Y-14380D01*
X8210Y-14449D01*
X8175Y-14449D01*
X8127Y-14459D01*
X8082Y-14478D01*
X8041Y-14505D01*
X8006Y-14539D01*
X7979Y-14580D01*
X7960Y-14625D01*
X7950Y-14673D01*
X7949Y-14722D01*
X7949Y-15324D01*
X7959Y-15372D01*
X7978Y-15417D01*
X8005Y-15458D01*
X8039Y-15493D01*
X8080Y-15520D01*
X8125Y-15539D01*
X8173Y-15549D01*
X8222Y-15550D01*
X8824Y-15550D01*
X8872Y-15540D01*
X8917Y-15521D01*
X8958Y-15494D01*
X8993Y-15460D01*
X9020Y-15419D01*
X9039Y-15374D01*
X9049Y-15326D01*
X9050Y-15277D01*
X9050Y-16500D01*
X8908Y-16499D01*
X8716Y-16536D01*
X8534Y-16609D01*
X8370Y-16716D01*
X8230Y-16854D01*
X8119Y-17015D01*
X8042Y-17196D01*
X8001Y-17387D01*
X7998Y-17584D01*
X8034Y-17776D01*
X8106Y-17959D01*
X8212Y-18124D01*
X8348Y-18265D01*
X8509Y-18377D01*
X8689Y-18455D01*
X8881Y-18497D01*
X8976Y-18499D01*
X8908Y-18499D01*
X8716Y-18536D01*
X8534Y-18609D01*
X8370Y-18716D01*
X8230Y-18854D01*
X8119Y-19015D01*
X8042Y-19196D01*
X8001Y-19387D01*
X7998Y-19584D01*
X8034Y-19776D01*
X8106Y-19959D01*
X8212Y-20124D01*
X8348Y-20265D01*
X8509Y-20377D01*
X8689Y-20455D01*
X8881Y-20497D01*
X9077Y-20501D01*
X9270Y-20467D01*
X9453Y-20396D01*
X9618Y-20291D01*
X9760Y-20156D01*
X9873Y-19996D01*
X9953Y-19817D01*
X9996Y-19625D01*
X10000Y-19401D01*
X10000Y-23401D01*
X9961Y-23209D01*
X9887Y-23028D01*
X9778Y-22864D01*
X9640Y-22725D01*
X9477Y-22616D01*
X9297Y-22540D01*
X9105Y-22500D01*
X8908Y-22499D01*
X8716Y-22536D01*
X8534Y-22609D01*
X8370Y-22716D01*
X8230Y-22854D01*
X8119Y-23015D01*
X8042Y-23196D01*
X8001Y-23387D01*
X7998Y-23584D01*
X8034Y-23776D01*
X8106Y-23959D01*
X8212Y-24124D01*
X8348Y-24265D01*
X8509Y-24377D01*
X8689Y-24455D01*
X8881Y-24497D01*
X8976Y-24499D01*
X8908Y-24499D01*
X8716Y-24536D01*
X8534Y-24609D01*
X8370Y-24716D01*
X8230Y-24854D01*
X8119Y-25015D01*
X8042Y-25196D01*
X8001Y-25387D01*
X7998Y-25584D01*
X8034Y-25776D01*
X8106Y-25959D01*
X8212Y-26124D01*
X8348Y-26265D01*
X8509Y-26377D01*
X8689Y-26455D01*
X8881Y-26497D01*
X9077Y-26501D01*
X9270Y-26467D01*
X9453Y-26396D01*
X9618Y-26291D01*
X9760Y-26156D01*
X9873Y-25996D01*
X9953Y-25817D01*
X9996Y-25625D01*
X10000Y-25401D01*
X10000Y-27289D01*
X7643Y-27289D01*
X7643Y-8143D01*
X29947Y-8143D01*
X29295Y-8795D01*
X29278Y-8816D01*
X29261Y-8836D01*
X29260Y-8837D01*
X29259Y-8839D01*
X29248Y-8859D01*
X29193Y-8888D01*
X29108Y-8956D01*
X29037Y-9040D01*
X28999Y-9109D01*
X28966Y-9046D01*
X28897Y-8962D01*
X28813Y-8892D01*
X28717Y-8840D01*
X28612Y-8808D01*
X28503Y-8796D01*
X28395Y-8806D01*
X28290Y-8837D01*
X28193Y-8888D01*
X28108Y-8956D01*
X28037Y-9040D01*
X27999Y-9109D01*
X27966Y-9046D01*
X27897Y-8962D01*
X27813Y-8892D01*
X27717Y-8840D01*
X27612Y-8808D01*
X27503Y-8796D01*
X27395Y-8806D01*
X27290Y-8837D01*
X27193Y-8888D01*
X27108Y-8956D01*
X27037Y-9040D01*
X26999Y-9109D01*
X26966Y-9046D01*
X26897Y-8962D01*
X26813Y-8892D01*
X26717Y-8840D01*
X26612Y-8808D01*
X26503Y-8796D01*
X26395Y-8806D01*
X26290Y-8837D01*
X26193Y-8888D01*
X26108Y-8956D01*
X26037Y-9040D01*
X25999Y-9109D01*
X25966Y-9046D01*
X25897Y-8962D01*
X25813Y-8892D01*
X25717Y-8840D01*
X25612Y-8808D01*
X25503Y-8796D01*
X25395Y-8806D01*
X25290Y-8837D01*
X25193Y-8888D01*
X25108Y-8956D01*
X25037Y-9040D01*
X24999Y-9109D01*
X24966Y-9046D01*
X24897Y-8962D01*
X24813Y-8892D01*
X24717Y-8840D01*
X24612Y-8808D01*
X24503Y-8796D01*
X24395Y-8806D01*
X24290Y-8837D01*
X24193Y-8888D01*
X24108Y-8956D01*
X24037Y-9040D01*
X23999Y-9109D01*
X23966Y-9046D01*
X23897Y-8962D01*
X23813Y-8892D01*
X23717Y-8840D01*
X23612Y-8808D01*
X23503Y-8796D01*
X23395Y-8806D01*
X23290Y-8837D01*
X23193Y-8888D01*
X23108Y-8956D01*
X23037Y-9040D01*
X22999Y-9109D01*
X22966Y-9046D01*
X22897Y-8962D01*
X22813Y-8892D01*
X22717Y-8840D01*
X22612Y-8808D01*
X22503Y-8796D01*
X22395Y-8806D01*
X22290Y-8837D01*
X22193Y-8888D01*
X22108Y-8956D01*
X22037Y-9040D01*
X22001Y-9106D01*
X21998Y-9100D01*
X21938Y-9008D01*
X21862Y-8929D01*
X21771Y-8867D01*
X21670Y-8824D01*
X21636Y-8816D01*
X21550Y-8865D01*
X21550Y-9450D01*
X21557Y-9450D01*
X21557Y-9550D01*
X21550Y-9550D01*
X21550Y-10134D01*
X21636Y-10183D01*
X21670Y-10175D01*
X21771Y-10132D01*
X21862Y-10070D01*
X21938Y-9991D01*
X21998Y-9899D01*
X22001Y-9892D01*
X22033Y-9953D01*
X22102Y-10037D01*
X22186Y-10107D01*
X22282Y-10159D01*
X22387Y-10191D01*
X22496Y-10203D01*
X22604Y-10193D01*
X22709Y-10162D01*
X22806Y-10111D01*
X22891Y-10043D01*
X22962Y-9959D01*
X23000Y-9890D01*
X23033Y-9953D01*
X23102Y-10037D01*
X23186Y-10107D01*
X23282Y-10159D01*
X23387Y-10191D01*
X23496Y-10203D01*
X23604Y-10193D01*
X23709Y-10162D01*
X23806Y-10111D01*
X23891Y-10043D01*
X23962Y-9959D01*
X24000Y-9890D01*
X24033Y-9953D01*
X24102Y-10037D01*
X24186Y-10107D01*
X24282Y-10159D01*
X24387Y-10191D01*
X24496Y-10203D01*
X24604Y-10193D01*
X24709Y-10162D01*
X24806Y-10111D01*
X24891Y-10043D01*
X24962Y-9959D01*
X25000Y-9890D01*
X25033Y-9953D01*
X25102Y-10037D01*
X25186Y-10107D01*
X25282Y-10159D01*
X25387Y-10191D01*
X25496Y-10203D01*
X25604Y-10193D01*
X25709Y-10162D01*
X25806Y-10111D01*
X25891Y-10043D01*
X25962Y-9959D01*
X26000Y-9890D01*
X26033Y-9953D01*
X26102Y-10037D01*
X26186Y-10107D01*
X26282Y-10159D01*
X26387Y-10191D01*
X26496Y-10203D01*
X26604Y-10193D01*
X26709Y-10162D01*
X26806Y-10111D01*
X26891Y-10043D01*
X26962Y-9959D01*
X27000Y-9890D01*
X27033Y-9953D01*
X27102Y-10037D01*
X27186Y-10107D01*
X27282Y-10159D01*
X27387Y-10191D01*
X27496Y-10203D01*
X27604Y-10193D01*
X27709Y-10162D01*
X27806Y-10111D01*
X27891Y-10043D01*
X27962Y-9959D01*
X28000Y-9890D01*
X28033Y-9953D01*
X28102Y-10037D01*
X28186Y-10107D01*
X28282Y-10159D01*
X28387Y-10191D01*
X28496Y-10203D01*
X28604Y-10193D01*
X28709Y-10162D01*
X28806Y-10111D01*
X28891Y-10043D01*
X28962Y-9959D01*
X29000Y-9890D01*
X29033Y-9953D01*
X29102Y-10037D01*
X29186Y-10107D01*
X29282Y-10159D01*
X29387Y-10191D01*
X29496Y-10203D01*
X29604Y-10193D01*
X29709Y-10162D01*
X29806Y-10111D01*
X29891Y-10043D01*
X29962Y-9959D01*
X30000Y-9890D01*
X30033Y-9953D01*
X30102Y-10037D01*
X30186Y-10107D01*
X30282Y-10159D01*
X30387Y-10191D01*
X30496Y-10203D01*
X30604Y-10193D01*
X30709Y-10162D01*
X30806Y-10111D01*
X30891Y-10043D01*
X30962Y-9959D01*
X31000Y-9890D01*
X31033Y-9953D01*
X31102Y-10037D01*
X31186Y-10107D01*
X31282Y-10159D01*
X31387Y-10191D01*
X31496Y-10203D01*
X31604Y-10193D01*
X31709Y-10162D01*
X31806Y-10111D01*
X31891Y-10043D01*
X31962Y-9959D01*
X32000Y-9890D01*
X32033Y-9953D01*
X32102Y-10037D01*
X32186Y-10107D01*
X32282Y-10159D01*
X32387Y-10191D01*
X32496Y-10203D01*
X32604Y-10193D01*
X32709Y-10162D01*
X32806Y-10111D01*
X32891Y-10043D01*
X32962Y-9959D01*
X33000Y-9890D01*
X33033Y-9953D01*
X33102Y-10037D01*
X33186Y-10107D01*
X33282Y-10159D01*
X33387Y-10191D01*
X33496Y-10203D01*
X33604Y-10193D01*
X33709Y-10162D01*
X33806Y-10111D01*
X33891Y-10043D01*
X33962Y-9959D01*
X34000Y-9890D01*
X34033Y-9953D01*
X34102Y-10037D01*
X34186Y-10107D01*
X34282Y-10159D01*
X34387Y-10191D01*
X34496Y-10203D01*
X34604Y-10193D01*
X34709Y-10162D01*
X34806Y-10111D01*
X34891Y-10043D01*
X34962Y-9959D01*
X35014Y-9863D01*
X35047Y-9759D01*
X35059Y-9651D01*
X35060Y-9643D01*
X35060Y-9356D01*
X35049Y-9247D01*
X35017Y-9143D01*
X34966Y-9046D01*
X34960Y-9039D01*
X35880Y-9039D01*
X36710Y-9869D01*
X36710Y-20880D01*
X36130Y-21460D01*
X35202Y-21460D01*
X35202Y-19719D01*
X35202Y-19469D01*
X35199Y-19452D01*
X35163Y-19364D01*
X35110Y-19284D01*
X35060Y-19234D01*
X35060Y-15643D01*
X35060Y-15356D01*
X35049Y-15247D01*
X35017Y-15143D01*
X34966Y-15046D01*
X34897Y-14962D01*
X34813Y-14892D01*
X34717Y-14840D01*
X34612Y-14808D01*
X34503Y-14796D01*
X34395Y-14806D01*
X34290Y-14837D01*
X34193Y-14888D01*
X34108Y-14956D01*
X34037Y-15040D01*
X33999Y-15109D01*
X33966Y-15046D01*
X33897Y-14962D01*
X33813Y-14892D01*
X33717Y-14840D01*
X33612Y-14808D01*
X33503Y-14796D01*
X33395Y-14806D01*
X33290Y-14837D01*
X33193Y-14888D01*
X33108Y-14956D01*
X33037Y-15040D01*
X32999Y-15109D01*
X32966Y-15046D01*
X32897Y-14962D01*
X32813Y-14892D01*
X32717Y-14840D01*
X32612Y-14808D01*
X32503Y-14796D01*
X32395Y-14806D01*
X32290Y-14837D01*
X32193Y-14888D01*
X32108Y-14956D01*
X32037Y-15040D01*
X31999Y-15109D01*
X31966Y-15046D01*
X31897Y-14962D01*
X31813Y-14892D01*
X31717Y-14840D01*
X31612Y-14808D01*
X31503Y-14796D01*
X31395Y-14806D01*
X31290Y-14837D01*
X31193Y-14888D01*
X31108Y-14956D01*
X31037Y-15040D01*
X30999Y-15109D01*
X30966Y-15046D01*
X30897Y-14962D01*
X30813Y-14892D01*
X30717Y-14840D01*
X30612Y-14808D01*
X30503Y-14796D01*
X30395Y-14806D01*
X30290Y-14837D01*
X30193Y-14888D01*
X30108Y-14956D01*
X30037Y-15040D01*
X29999Y-15109D01*
X29966Y-15046D01*
X29897Y-14962D01*
X29813Y-14892D01*
X29717Y-14840D01*
X29612Y-14808D01*
X29503Y-14796D01*
X29395Y-14806D01*
X29290Y-14837D01*
X29193Y-14888D01*
X29108Y-14956D01*
X29037Y-15040D01*
X28999Y-15109D01*
X28966Y-15046D01*
X28897Y-14962D01*
X28813Y-14892D01*
X28717Y-14840D01*
X28612Y-14808D01*
X28503Y-14796D01*
X28395Y-14806D01*
X28290Y-14837D01*
X28193Y-14888D01*
X28108Y-14956D01*
X28037Y-15040D01*
X27999Y-15109D01*
X27966Y-15046D01*
X27897Y-14962D01*
X27813Y-14892D01*
X27717Y-14840D01*
X27612Y-14808D01*
X27503Y-14796D01*
X27395Y-14806D01*
X27290Y-14837D01*
X27193Y-14888D01*
X27108Y-14956D01*
X27037Y-15040D01*
X26999Y-15109D01*
X26966Y-15046D01*
X26897Y-14962D01*
X26813Y-14892D01*
X26717Y-14840D01*
X26612Y-14808D01*
X26503Y-14796D01*
X26395Y-14806D01*
X26290Y-14837D01*
X26193Y-14888D01*
X26108Y-14956D01*
X26037Y-15040D01*
X25999Y-15109D01*
X25966Y-15046D01*
X25897Y-14962D01*
X25813Y-14892D01*
X25717Y-14840D01*
X25612Y-14808D01*
X25503Y-14796D01*
X25395Y-14806D01*
X25290Y-14837D01*
X25193Y-14888D01*
X25108Y-14956D01*
X25037Y-15040D01*
X24999Y-15109D01*
X24966Y-15046D01*
X24897Y-14962D01*
X24813Y-14892D01*
X24717Y-14840D01*
X24612Y-14808D01*
X24503Y-14796D01*
X24395Y-14806D01*
X24290Y-14837D01*
X24193Y-14888D01*
X24108Y-14956D01*
X24037Y-15040D01*
X24001Y-15106D01*
X23998Y-15100D01*
X23938Y-15008D01*
X23862Y-14929D01*
X23771Y-14867D01*
X23670Y-14824D01*
X23636Y-14816D01*
X23550Y-14865D01*
X23550Y-15450D01*
X23557Y-15450D01*
X23557Y-15550D01*
X23550Y-15550D01*
X23550Y-16134D01*
X23636Y-16183D01*
X23670Y-16175D01*
X23771Y-16132D01*
X23862Y-16070D01*
X23938Y-15991D01*
X23998Y-15899D01*
X24001Y-15892D01*
X24033Y-15953D01*
X24102Y-16037D01*
X24186Y-16107D01*
X24282Y-16159D01*
X24387Y-16191D01*
X24397Y-16193D01*
X24380Y-16210D01*
X23450Y-16210D01*
X23450Y-16134D01*
X23450Y-15550D01*
X23442Y-15550D01*
X23442Y-15450D01*
X23450Y-15450D01*
X23450Y-14865D01*
X23363Y-14816D01*
X23329Y-14824D01*
X23228Y-14867D01*
X23137Y-14929D01*
X23061Y-15008D01*
X23001Y-15100D01*
X22998Y-15107D01*
X22966Y-15046D01*
X22897Y-14962D01*
X22813Y-14892D01*
X22717Y-14840D01*
X22612Y-14808D01*
X22503Y-14796D01*
X22395Y-14806D01*
X22290Y-14837D01*
X22193Y-14888D01*
X22108Y-14956D01*
X22037Y-15040D01*
X21999Y-15109D01*
X21966Y-15046D01*
X21897Y-14962D01*
X21813Y-14892D01*
X21717Y-14840D01*
X21612Y-14808D01*
X21503Y-14796D01*
X21450Y-14801D01*
X21450Y-10134D01*
X21450Y-9550D01*
X21442Y-9550D01*
X21442Y-9450D01*
X21450Y-9450D01*
X21450Y-8865D01*
X21363Y-8816D01*
X21329Y-8824D01*
X21228Y-8867D01*
X21137Y-8929D01*
X21061Y-9008D01*
X21001Y-9100D01*
X20998Y-9107D01*
X20966Y-9046D01*
X20897Y-8962D01*
X20813Y-8892D01*
X20717Y-8840D01*
X20612Y-8808D01*
X20537Y-8800D01*
X20118Y-8381D01*
X20081Y-8350D01*
X20044Y-8319D01*
X20042Y-8318D01*
X20040Y-8316D01*
X19997Y-8293D01*
X19955Y-8270D01*
X19952Y-8269D01*
X19950Y-8268D01*
X19904Y-8254D01*
X19858Y-8239D01*
X19855Y-8239D01*
X19853Y-8238D01*
X19805Y-8233D01*
X19757Y-8228D01*
X19751Y-8228D01*
X19751Y-8228D01*
X19751Y-8228D01*
X19750Y-8228D01*
X11500Y-8228D01*
X11452Y-8233D01*
X11404Y-8237D01*
X11401Y-8238D01*
X11398Y-8238D01*
X11352Y-8252D01*
X11306Y-8265D01*
X11303Y-8266D01*
X11301Y-8267D01*
X11258Y-8290D01*
X11215Y-8312D01*
X11213Y-8314D01*
X11211Y-8315D01*
X11173Y-8345D01*
X11136Y-8376D01*
X11132Y-8379D01*
X11132Y-8379D01*
X11132Y-8379D01*
X11131Y-8381D01*
X10131Y-9381D01*
X10100Y-9418D01*
X10069Y-9455D01*
X10068Y-9457D01*
X10066Y-9459D01*
X10043Y-9502D01*
X10020Y-9544D01*
X10019Y-9547D01*
X10018Y-9549D01*
X10004Y-9595D01*
X9989Y-9641D01*
X9989Y-9644D01*
X9988Y-9646D01*
X9983Y-9694D01*
X9978Y-9742D01*
X9978Y-9748D01*
X9978Y-9748D01*
X9978Y-9748D01*
X9978Y-9750D01*
X9978Y-13000D01*
X9988Y-13101D01*
X10017Y-13198D01*
X10065Y-13288D01*
X10129Y-13367D01*
X10208Y-13432D01*
X10297Y-13480D01*
X10395Y-13510D01*
X10496Y-13521D01*
X10597Y-13512D01*
X10695Y-13483D01*
X10785Y-13436D01*
X10864Y-13372D01*
X10930Y-13294D01*
X10979Y-13205D01*
X11010Y-13108D01*
X11021Y-13007D01*
X11021Y-13000D01*
X11021Y-9966D01*
X11716Y-9271D01*
X19533Y-9271D01*
X19943Y-9681D01*
X19950Y-9752D01*
X19982Y-9856D01*
X20033Y-9953D01*
X20102Y-10037D01*
X20186Y-10107D01*
X20282Y-10159D01*
X20387Y-10191D01*
X20496Y-10203D01*
X20604Y-10193D01*
X20709Y-10162D01*
X20806Y-10111D01*
X20891Y-10043D01*
X20962Y-9959D01*
X20998Y-9893D01*
X21001Y-9899D01*
X21061Y-9991D01*
X21137Y-10070D01*
X21228Y-10132D01*
X21329Y-10175D01*
X21363Y-10183D01*
X21450Y-10134D01*
X21450Y-14801D01*
X21395Y-14806D01*
X21290Y-14837D01*
X21193Y-14888D01*
X21108Y-14956D01*
X21058Y-15016D01*
X21050Y-14977D01*
X21031Y-14932D01*
X21004Y-14891D01*
X20970Y-14856D01*
X20929Y-14829D01*
X20884Y-14810D01*
X20836Y-14800D01*
X20787Y-14799D01*
X20165Y-14799D01*
X20117Y-14809D01*
X20072Y-14828D01*
X20031Y-14855D01*
X19996Y-14889D01*
X19969Y-14930D01*
X19950Y-14975D01*
X19940Y-15023D01*
X19939Y-15072D01*
X19939Y-15974D01*
X19949Y-16022D01*
X19968Y-16067D01*
X19995Y-16108D01*
X20029Y-16143D01*
X20070Y-16170D01*
X20115Y-16189D01*
X20163Y-16199D01*
X20212Y-16200D01*
X20834Y-16200D01*
X20882Y-16190D01*
X20927Y-16171D01*
X20968Y-16144D01*
X21003Y-16110D01*
X21030Y-16069D01*
X21049Y-16024D01*
X21058Y-15983D01*
X21102Y-16037D01*
X21186Y-16107D01*
X21282Y-16159D01*
X21387Y-16191D01*
X21496Y-16203D01*
X21604Y-16193D01*
X21709Y-16162D01*
X21806Y-16111D01*
X21891Y-16043D01*
X21962Y-15959D01*
X22000Y-15890D01*
X22033Y-15953D01*
X22102Y-16037D01*
X22186Y-16107D01*
X22282Y-16159D01*
X22387Y-16191D01*
X22496Y-16203D01*
X22604Y-16193D01*
X22709Y-16162D01*
X22806Y-16111D01*
X22891Y-16043D01*
X22962Y-15959D01*
X22998Y-15893D01*
X23001Y-15899D01*
X23061Y-15991D01*
X23137Y-16070D01*
X23228Y-16132D01*
X23329Y-16175D01*
X23363Y-16183D01*
X23450Y-16134D01*
X23450Y-16210D01*
X22080Y-16210D01*
X22053Y-16213D01*
X22026Y-16215D01*
X22025Y-16215D01*
X22023Y-16216D01*
X21998Y-16223D01*
X21972Y-16231D01*
X21971Y-16232D01*
X21969Y-16232D01*
X21946Y-16245D01*
X21922Y-16257D01*
X21921Y-16258D01*
X21919Y-16258D01*
X21899Y-16275D01*
X21878Y-16292D01*
X21876Y-16294D01*
X21876Y-16294D01*
X21876Y-16294D01*
X21875Y-16295D01*
X20370Y-17800D01*
X20353Y-17821D01*
X20336Y-17841D01*
X20335Y-17843D01*
X20334Y-17844D01*
X20321Y-17867D01*
X20308Y-17891D01*
X20308Y-17892D01*
X20307Y-17893D01*
X20299Y-17919D01*
X20291Y-17945D01*
X20291Y-17946D01*
X20291Y-17948D01*
X20288Y-17974D01*
X20285Y-18001D01*
X20285Y-18004D01*
X20285Y-18004D01*
X20285Y-18004D01*
X20285Y-18005D01*
X20285Y-19127D01*
X20228Y-19144D01*
X20145Y-19189D01*
X20071Y-19249D01*
X20011Y-19322D01*
X19965Y-19406D01*
X19937Y-19496D01*
X19927Y-19591D01*
X19936Y-19685D01*
X19963Y-19776D01*
X20007Y-19860D01*
X20066Y-19934D01*
X20139Y-19995D01*
X20222Y-20041D01*
X20313Y-20070D01*
X20407Y-20080D01*
X20414Y-20080D01*
X20735Y-20080D01*
X20829Y-20071D01*
X20920Y-20044D01*
X21004Y-19999D01*
X21075Y-19941D01*
X21139Y-19995D01*
X21222Y-20041D01*
X21313Y-20070D01*
X21407Y-20080D01*
X21414Y-20080D01*
X21735Y-20080D01*
X21829Y-20071D01*
X21920Y-20044D01*
X22004Y-19999D01*
X22076Y-19941D01*
X22106Y-19971D01*
X22185Y-20024D01*
X22273Y-20061D01*
X22367Y-20080D01*
X22524Y-20080D01*
X22524Y-19644D01*
X22516Y-19644D01*
X22516Y-19544D01*
X22524Y-19544D01*
X22524Y-19108D01*
X22367Y-19108D01*
X22273Y-19127D01*
X22185Y-19164D01*
X22106Y-19217D01*
X22075Y-19248D01*
X22010Y-19193D01*
X21926Y-19147D01*
X21836Y-19118D01*
X21742Y-19108D01*
X21735Y-19108D01*
X21414Y-19108D01*
X21319Y-19117D01*
X21228Y-19144D01*
X21145Y-19189D01*
X21074Y-19247D01*
X21010Y-19193D01*
X20926Y-19147D01*
X20864Y-19127D01*
X20864Y-18125D01*
X22199Y-16789D01*
X24500Y-16789D01*
X24526Y-16786D01*
X24553Y-16784D01*
X24554Y-16784D01*
X24556Y-16783D01*
X24581Y-16776D01*
X24607Y-16768D01*
X24608Y-16767D01*
X24610Y-16767D01*
X24633Y-16754D01*
X24657Y-16742D01*
X24658Y-16741D01*
X24660Y-16741D01*
X24680Y-16724D01*
X24701Y-16707D01*
X24703Y-16705D01*
X24703Y-16705D01*
X24703Y-16705D01*
X24704Y-16704D01*
X25261Y-16147D01*
X25282Y-16159D01*
X25387Y-16191D01*
X25496Y-16203D01*
X25604Y-16193D01*
X25709Y-16162D01*
X25806Y-16111D01*
X25891Y-16043D01*
X25962Y-15959D01*
X26000Y-15890D01*
X26033Y-15953D01*
X26102Y-16037D01*
X26186Y-16107D01*
X26282Y-16159D01*
X26387Y-16191D01*
X26496Y-16203D01*
X26604Y-16193D01*
X26709Y-16162D01*
X26806Y-16111D01*
X26891Y-16043D01*
X26962Y-15959D01*
X27000Y-15890D01*
X27033Y-15953D01*
X27102Y-16037D01*
X27186Y-16107D01*
X27210Y-16120D01*
X27210Y-16955D01*
X26370Y-17795D01*
X26353Y-17816D01*
X26336Y-17836D01*
X26335Y-17838D01*
X26334Y-17839D01*
X26321Y-17862D01*
X26308Y-17886D01*
X26308Y-17887D01*
X26307Y-17888D01*
X26299Y-17914D01*
X26291Y-17940D01*
X26291Y-17941D01*
X26291Y-17943D01*
X26288Y-17969D01*
X26285Y-17996D01*
X26285Y-17999D01*
X26285Y-17999D01*
X26285Y-17999D01*
X26285Y-18000D01*
X26285Y-19127D01*
X26228Y-19144D01*
X26145Y-19189D01*
X26071Y-19249D01*
X26011Y-19322D01*
X25965Y-19406D01*
X25937Y-19496D01*
X25927Y-19591D01*
X25936Y-19685D01*
X25963Y-19776D01*
X26007Y-19860D01*
X26066Y-19934D01*
X26139Y-19995D01*
X26222Y-20041D01*
X26313Y-20070D01*
X26407Y-20080D01*
X26414Y-20080D01*
X26735Y-20080D01*
X26829Y-20071D01*
X26920Y-20044D01*
X27004Y-19999D01*
X27075Y-19941D01*
X27139Y-19995D01*
X27222Y-20041D01*
X27313Y-20070D01*
X27407Y-20080D01*
X27414Y-20080D01*
X27735Y-20080D01*
X27829Y-20071D01*
X27920Y-20044D01*
X28004Y-19999D01*
X28076Y-19941D01*
X28106Y-19971D01*
X28185Y-20024D01*
X28273Y-20061D01*
X28367Y-20080D01*
X28524Y-20080D01*
X28524Y-19644D01*
X28516Y-19644D01*
X28516Y-19544D01*
X28524Y-19544D01*
X28524Y-19108D01*
X28367Y-19108D01*
X28273Y-19127D01*
X28185Y-19164D01*
X28106Y-19217D01*
X28075Y-19248D01*
X28010Y-19193D01*
X27926Y-19147D01*
X27836Y-19118D01*
X27742Y-19108D01*
X27735Y-19108D01*
X27414Y-19108D01*
X27319Y-19117D01*
X27228Y-19144D01*
X27145Y-19189D01*
X27074Y-19247D01*
X27010Y-19193D01*
X26926Y-19147D01*
X26864Y-19127D01*
X26864Y-18120D01*
X27704Y-17279D01*
X27721Y-17258D01*
X27738Y-17238D01*
X27739Y-17237D01*
X27740Y-17235D01*
X27753Y-17212D01*
X27765Y-17188D01*
X27766Y-17187D01*
X27767Y-17186D01*
X27774Y-17160D01*
X27783Y-17135D01*
X27783Y-17133D01*
X27783Y-17132D01*
X27786Y-17105D01*
X27789Y-17079D01*
X27789Y-17076D01*
X27789Y-17076D01*
X27789Y-17075D01*
X27789Y-17075D01*
X27789Y-16121D01*
X27806Y-16111D01*
X27891Y-16043D01*
X27962Y-15959D01*
X28000Y-15890D01*
X28033Y-15953D01*
X28102Y-16037D01*
X28186Y-16107D01*
X28282Y-16159D01*
X28387Y-16191D01*
X28496Y-16203D01*
X28604Y-16193D01*
X28709Y-16162D01*
X28738Y-16147D01*
X29295Y-16705D01*
X29316Y-16721D01*
X29336Y-16739D01*
X29338Y-16739D01*
X29339Y-16740D01*
X29362Y-16753D01*
X29386Y-16766D01*
X29387Y-16766D01*
X29389Y-16767D01*
X29414Y-16775D01*
X29440Y-16783D01*
X29441Y-16783D01*
X29443Y-16784D01*
X29469Y-16786D01*
X29496Y-16789D01*
X29499Y-16789D01*
X29499Y-16789D01*
X29499Y-16789D01*
X29500Y-16789D01*
X30955Y-16789D01*
X32285Y-18120D01*
X32285Y-19127D01*
X32228Y-19144D01*
X32145Y-19189D01*
X32071Y-19249D01*
X32011Y-19322D01*
X31965Y-19406D01*
X31937Y-19496D01*
X31927Y-19591D01*
X31936Y-19685D01*
X31963Y-19776D01*
X32007Y-19860D01*
X32066Y-19934D01*
X32139Y-19995D01*
X32222Y-20041D01*
X32313Y-20070D01*
X32407Y-20080D01*
X32414Y-20080D01*
X32735Y-20080D01*
X32829Y-20071D01*
X32920Y-20044D01*
X33004Y-19999D01*
X33075Y-19941D01*
X33139Y-19995D01*
X33222Y-20041D01*
X33313Y-20070D01*
X33407Y-20080D01*
X33414Y-20080D01*
X33735Y-20080D01*
X33829Y-20071D01*
X33920Y-20044D01*
X34004Y-19999D01*
X34076Y-19941D01*
X34106Y-19971D01*
X34185Y-20024D01*
X34273Y-20061D01*
X34367Y-20080D01*
X34524Y-20080D01*
X34524Y-19644D01*
X34516Y-19644D01*
X34516Y-19544D01*
X34524Y-19544D01*
X34524Y-19108D01*
X34367Y-19108D01*
X34273Y-19127D01*
X34185Y-19164D01*
X34106Y-19217D01*
X34075Y-19248D01*
X34010Y-19193D01*
X33926Y-19147D01*
X33836Y-19118D01*
X33742Y-19108D01*
X33735Y-19108D01*
X33414Y-19108D01*
X33319Y-19117D01*
X33228Y-19144D01*
X33145Y-19189D01*
X33074Y-19247D01*
X33010Y-19193D01*
X32926Y-19147D01*
X32864Y-19127D01*
X32864Y-18000D01*
X32861Y-17973D01*
X32859Y-17946D01*
X32858Y-17945D01*
X32858Y-17943D01*
X32850Y-17918D01*
X32843Y-17892D01*
X32842Y-17891D01*
X32842Y-17889D01*
X32829Y-17866D01*
X32817Y-17842D01*
X32816Y-17841D01*
X32815Y-17840D01*
X32798Y-17819D01*
X32782Y-17798D01*
X32780Y-17796D01*
X32780Y-17796D01*
X32780Y-17796D01*
X32779Y-17795D01*
X31279Y-16295D01*
X31258Y-16278D01*
X31238Y-16261D01*
X31237Y-16260D01*
X31235Y-16259D01*
X31212Y-16247D01*
X31188Y-16234D01*
X31187Y-16233D01*
X31186Y-16233D01*
X31160Y-16225D01*
X31135Y-16217D01*
X31133Y-16217D01*
X31132Y-16216D01*
X31105Y-16214D01*
X31079Y-16211D01*
X31076Y-16211D01*
X31076Y-16211D01*
X31075Y-16211D01*
X31075Y-16211D01*
X29620Y-16211D01*
X29602Y-16193D01*
X29604Y-16193D01*
X29709Y-16162D01*
X29806Y-16111D01*
X29891Y-16043D01*
X29962Y-15959D01*
X30000Y-15890D01*
X30033Y-15953D01*
X30102Y-16037D01*
X30186Y-16107D01*
X30282Y-16159D01*
X30387Y-16191D01*
X30496Y-16203D01*
X30604Y-16193D01*
X30709Y-16162D01*
X30806Y-16111D01*
X30891Y-16043D01*
X30962Y-15959D01*
X31000Y-15890D01*
X31033Y-15953D01*
X31102Y-16037D01*
X31186Y-16107D01*
X31282Y-16159D01*
X31387Y-16191D01*
X31496Y-16203D01*
X31604Y-16193D01*
X31709Y-16162D01*
X31806Y-16111D01*
X31891Y-16043D01*
X31962Y-15959D01*
X32000Y-15890D01*
X32033Y-15953D01*
X32102Y-16037D01*
X32186Y-16107D01*
X32282Y-16159D01*
X32387Y-16191D01*
X32496Y-16203D01*
X32604Y-16193D01*
X32709Y-16162D01*
X32806Y-16111D01*
X32891Y-16043D01*
X32962Y-15959D01*
X33000Y-15890D01*
X33033Y-15953D01*
X33102Y-16037D01*
X33186Y-16107D01*
X33282Y-16159D01*
X33387Y-16191D01*
X33496Y-16203D01*
X33604Y-16193D01*
X33709Y-16162D01*
X33806Y-16111D01*
X33891Y-16043D01*
X33962Y-15959D01*
X34000Y-15890D01*
X34033Y-15953D01*
X34102Y-16037D01*
X34186Y-16107D01*
X34282Y-16159D01*
X34387Y-16191D01*
X34496Y-16203D01*
X34604Y-16193D01*
X34709Y-16162D01*
X34806Y-16111D01*
X34891Y-16043D01*
X34962Y-15959D01*
X35014Y-15863D01*
X35047Y-15759D01*
X35059Y-15651D01*
X35060Y-15643D01*
X35060Y-19234D01*
X35043Y-19217D01*
X34963Y-19164D01*
X34875Y-19127D01*
X34782Y-19108D01*
X34624Y-19108D01*
X34624Y-19544D01*
X35153Y-19544D01*
X35202Y-19469D01*
X35202Y-19719D01*
X35153Y-19644D01*
X34624Y-19644D01*
X34624Y-20080D01*
X34782Y-20080D01*
X34875Y-20061D01*
X34963Y-20024D01*
X35043Y-19971D01*
X35110Y-19904D01*
X35163Y-19824D01*
X35199Y-19736D01*
X35202Y-19719D01*
X35202Y-21460D01*
X29202Y-21460D01*
X29202Y-19719D01*
X29202Y-19469D01*
X29199Y-19452D01*
X29163Y-19364D01*
X29110Y-19284D01*
X29043Y-19217D01*
X28963Y-19164D01*
X28875Y-19127D01*
X28782Y-19108D01*
X28624Y-19108D01*
X28624Y-19544D01*
X29153Y-19544D01*
X29202Y-19469D01*
X29202Y-19719D01*
X29153Y-19644D01*
X28624Y-19644D01*
X28624Y-20080D01*
X28782Y-20080D01*
X28875Y-20061D01*
X28963Y-20024D01*
X29043Y-19971D01*
X29110Y-19904D01*
X29163Y-19824D01*
X29199Y-19736D01*
X29202Y-19719D01*
X29202Y-21460D01*
X23202Y-21460D01*
X23202Y-19719D01*
X23202Y-19469D01*
X23199Y-19452D01*
X23163Y-19364D01*
X23110Y-19284D01*
X23043Y-19217D01*
X22963Y-19164D01*
X22875Y-19127D01*
X22782Y-19108D01*
X22624Y-19108D01*
X22624Y-19544D01*
X23153Y-19544D01*
X23202Y-19469D01*
X23202Y-19719D01*
X23153Y-19644D01*
X22624Y-19644D01*
X22624Y-20080D01*
X22782Y-20080D01*
X22875Y-20061D01*
X22963Y-20024D01*
X23043Y-19971D01*
X23110Y-19904D01*
X23163Y-19824D01*
X23199Y-19736D01*
X23202Y-19719D01*
X23202Y-21460D01*
X20750Y-21460D01*
X20723Y-21463D01*
X20696Y-21465D01*
X20695Y-21465D01*
X20693Y-21466D01*
X20668Y-21473D01*
X20642Y-21481D01*
X20641Y-21482D01*
X20639Y-21482D01*
X20616Y-21495D01*
X20592Y-21507D01*
X20591Y-21508D01*
X20589Y-21508D01*
X20569Y-21525D01*
X20548Y-21542D01*
X20546Y-21544D01*
X20546Y-21544D01*
X20546Y-21544D01*
X20545Y-21545D01*
X19295Y-22795D01*
X19278Y-22816D01*
X19261Y-22836D01*
X19260Y-22837D01*
X19259Y-22839D01*
X19246Y-22862D01*
X19234Y-22886D01*
X19233Y-22887D01*
X19232Y-22888D01*
X19225Y-22914D01*
X19216Y-22939D01*
X19216Y-22941D01*
X19216Y-22942D01*
X19213Y-22969D01*
X19210Y-22995D01*
X19210Y-22998D01*
X19210Y-22998D01*
X19210Y-22999D01*
X19210Y-23000D01*
X19210Y-25422D01*
X19200Y-25426D01*
X19094Y-25495D01*
X19004Y-25584D01*
X18933Y-25688D01*
X18883Y-25804D01*
X18857Y-25927D01*
X18855Y-26054D01*
X18878Y-26178D01*
X18924Y-26295D01*
X18993Y-26401D01*
X19080Y-26492D01*
X19184Y-26564D01*
X19300Y-26615D01*
X19423Y-26642D01*
X19549Y-26644D01*
X19673Y-26622D01*
X19791Y-26577D01*
X19898Y-26509D01*
X19989Y-26422D01*
X20062Y-26319D01*
X20113Y-26204D01*
X20141Y-26081D01*
X20143Y-25936D01*
X20119Y-25813D01*
X20071Y-25696D01*
X20001Y-25591D01*
X19912Y-25501D01*
X19807Y-25431D01*
X19789Y-25423D01*
X19789Y-23119D01*
X20869Y-22039D01*
X36051Y-22039D01*
X35880Y-22210D01*
X29500Y-22210D01*
X29473Y-22213D01*
X29446Y-22215D01*
X29445Y-22215D01*
X29443Y-22216D01*
X29418Y-22223D01*
X29392Y-22231D01*
X29391Y-22232D01*
X29389Y-22232D01*
X29366Y-22245D01*
X29342Y-22257D01*
X29341Y-22258D01*
X29339Y-22258D01*
X29319Y-22275D01*
X29298Y-22292D01*
X29296Y-22294D01*
X29296Y-22294D01*
X29296Y-22294D01*
X29295Y-22295D01*
X28795Y-22795D01*
X28778Y-22816D01*
X28761Y-22836D01*
X28760Y-22837D01*
X28759Y-22839D01*
X28746Y-22862D01*
X28734Y-22886D01*
X28733Y-22887D01*
X28732Y-22888D01*
X28725Y-22914D01*
X28716Y-22939D01*
X28716Y-22941D01*
X28716Y-22942D01*
X28713Y-22969D01*
X28710Y-22995D01*
X28710Y-22998D01*
X28710Y-22998D01*
X28710Y-22999D01*
X28710Y-23000D01*
X28710Y-25422D01*
X28700Y-25426D01*
X28594Y-25495D01*
X28504Y-25584D01*
X28433Y-25688D01*
X28383Y-25804D01*
X28357Y-25927D01*
X28355Y-26054D01*
X28378Y-26178D01*
X28424Y-26295D01*
X28493Y-26401D01*
X28580Y-26492D01*
X28684Y-26564D01*
X28800Y-26615D01*
X28923Y-26642D01*
X29049Y-26644D01*
X29173Y-26622D01*
X29291Y-26577D01*
X29398Y-26509D01*
X29489Y-26422D01*
X29562Y-26319D01*
X29613Y-26204D01*
X29641Y-26081D01*
X29643Y-25936D01*
X29619Y-25813D01*
X29571Y-25696D01*
X29501Y-25591D01*
X29412Y-25501D01*
X29307Y-25431D01*
X29289Y-25423D01*
X29289Y-23119D01*
X29619Y-22789D01*
X36000Y-22789D01*
X36026Y-22786D01*
X36053Y-22784D01*
X36054Y-22784D01*
X36056Y-22783D01*
X36081Y-22776D01*
X36107Y-22768D01*
X36108Y-22767D01*
X36110Y-22767D01*
X36133Y-22754D01*
X36157Y-22742D01*
X36158Y-22741D01*
X36160Y-22741D01*
X36180Y-22724D01*
X36201Y-22707D01*
X36203Y-22705D01*
X36203Y-22705D01*
X36203Y-22705D01*
X36204Y-22704D01*
X37704Y-21204D01*
X37721Y-21183D01*
X37738Y-21163D01*
X37739Y-21162D01*
X37740Y-21160D01*
X37749Y-21143D01*
X37757Y-21157D01*
X37758Y-21158D01*
X37758Y-21160D01*
X37775Y-21180D01*
X37792Y-21201D01*
X37794Y-21203D01*
X37794Y-21203D01*
X37794Y-21203D01*
X37795Y-21204D01*
X38210Y-21619D01*
X38210Y-25422D01*
X38200Y-25426D01*
X38094Y-25495D01*
X38004Y-25584D01*
X37933Y-25688D01*
X37883Y-25804D01*
X37857Y-25927D01*
X37855Y-26054D01*
X37878Y-26178D01*
X37924Y-26295D01*
X37993Y-26401D01*
X38080Y-26492D01*
X38184Y-26564D01*
X38300Y-26615D01*
X38423Y-26642D01*
X38549Y-26644D01*
X38673Y-26622D01*
X38791Y-26577D01*
X38898Y-26509D01*
X38989Y-26422D01*
X39062Y-26319D01*
X39113Y-26204D01*
X39141Y-26081D01*
X39143Y-25936D01*
X39119Y-25813D01*
X39071Y-25696D01*
X39001Y-25591D01*
X38912Y-25501D01*
X38807Y-25431D01*
X38789Y-25423D01*
X38789Y-21500D01*
X38786Y-21473D01*
X38784Y-21446D01*
X38784Y-21445D01*
X38783Y-21443D01*
X38776Y-21418D01*
X38768Y-21392D01*
X38767Y-21391D01*
X38767Y-21389D01*
X38754Y-21366D01*
X38742Y-21342D01*
X38741Y-21341D01*
X38741Y-21339D01*
X38724Y-21319D01*
X38707Y-21298D01*
X38705Y-21296D01*
X38705Y-21296D01*
X38705Y-21296D01*
X38704Y-21295D01*
X38289Y-20880D01*
X38289Y-9750D01*
X38286Y-9723D01*
X38284Y-9696D01*
X38284Y-9695D01*
X38283Y-9693D01*
X38276Y-9668D01*
X38268Y-9642D01*
X38267Y-9641D01*
X38267Y-9639D01*
X38254Y-9616D01*
X38242Y-9592D01*
X38241Y-9591D01*
X38241Y-9589D01*
X38224Y-9569D01*
X38207Y-9548D01*
X38205Y-9546D01*
X38205Y-9546D01*
X38205Y-9546D01*
X38204Y-9545D01*
X36802Y-8143D01*
X42537Y-8143D01*
X42537Y-27289D01*
M02*
