G04 #@! TF.FileFunction,Legend,Top*
%FSLAX46Y46*%
G04 Gerber Fmt 4.6, Leading zero omitted, Abs format (unit mm)*
G04 Created by KiCad (PCBNEW 4.0.3-stable) date Mon Sep 19 23:01:39 2016*
%MOMM*%
%LPD*%
G01*
G04 APERTURE LIST*
%ADD10C,0.150000*%
%ADD11C,0.200000*%
%ADD12C,0.300000*%
%ADD13C,0.254000*%
%ADD14C,0.381000*%
%ADD15C,0.304800*%
G04 APERTURE END LIST*
D10*
X99734762Y-63952381D02*
X99401428Y-63476190D01*
X99163333Y-63952381D02*
X99163333Y-62952381D01*
X99544286Y-62952381D01*
X99639524Y-63000000D01*
X99687143Y-63047619D01*
X99734762Y-63142857D01*
X99734762Y-63285714D01*
X99687143Y-63380952D01*
X99639524Y-63428571D01*
X99544286Y-63476190D01*
X99163333Y-63476190D01*
X100020476Y-62952381D02*
X100353809Y-63952381D01*
X100687143Y-62952381D01*
X100925238Y-62952381D02*
X101544286Y-62952381D01*
X101210952Y-63333333D01*
X101353810Y-63333333D01*
X101449048Y-63380952D01*
X101496667Y-63428571D01*
X101544286Y-63523810D01*
X101544286Y-63761905D01*
X101496667Y-63857143D01*
X101449048Y-63904762D01*
X101353810Y-63952381D01*
X101068095Y-63952381D01*
X100972857Y-63904762D01*
X100925238Y-63857143D01*
X75604762Y-63952381D02*
X75271428Y-63476190D01*
X75033333Y-63952381D02*
X75033333Y-62952381D01*
X75414286Y-62952381D01*
X75509524Y-63000000D01*
X75557143Y-63047619D01*
X75604762Y-63142857D01*
X75604762Y-63285714D01*
X75557143Y-63380952D01*
X75509524Y-63428571D01*
X75414286Y-63476190D01*
X75033333Y-63476190D01*
X75890476Y-62952381D02*
X76223809Y-63952381D01*
X76557143Y-62952381D01*
X76842857Y-63047619D02*
X76890476Y-63000000D01*
X76985714Y-62952381D01*
X77223810Y-62952381D01*
X77319048Y-63000000D01*
X77366667Y-63047619D01*
X77414286Y-63142857D01*
X77414286Y-63238095D01*
X77366667Y-63380952D01*
X76795238Y-63952381D01*
X77414286Y-63952381D01*
X51474762Y-63952381D02*
X51141428Y-63476190D01*
X50903333Y-63952381D02*
X50903333Y-62952381D01*
X51284286Y-62952381D01*
X51379524Y-63000000D01*
X51427143Y-63047619D01*
X51474762Y-63142857D01*
X51474762Y-63285714D01*
X51427143Y-63380952D01*
X51379524Y-63428571D01*
X51284286Y-63476190D01*
X50903333Y-63476190D01*
X51760476Y-62952381D02*
X52093809Y-63952381D01*
X52427143Y-62952381D01*
X53284286Y-63952381D02*
X52712857Y-63952381D01*
X52998571Y-63952381D02*
X52998571Y-62952381D01*
X52903333Y-63095238D01*
X52808095Y-63190476D01*
X52712857Y-63238095D01*
X84495048Y-46680381D02*
X84495048Y-45680381D01*
X85542667Y-46680381D02*
X85209333Y-46204190D01*
X84971238Y-46680381D02*
X84971238Y-45680381D01*
X85352191Y-45680381D01*
X85447429Y-45728000D01*
X85495048Y-45775619D01*
X85542667Y-45870857D01*
X85542667Y-46013714D01*
X85495048Y-46108952D01*
X85447429Y-46156571D01*
X85352191Y-46204190D01*
X84971238Y-46204190D01*
X86304572Y-46156571D02*
X85971238Y-46156571D01*
X85971238Y-46680381D02*
X85971238Y-45680381D01*
X86447429Y-45680381D01*
X87304572Y-45680381D02*
X86828381Y-45680381D01*
X86780762Y-46156571D01*
X86828381Y-46108952D01*
X86923619Y-46061333D01*
X87161715Y-46061333D01*
X87256953Y-46108952D01*
X87304572Y-46156571D01*
X87352191Y-46251810D01*
X87352191Y-46489905D01*
X87304572Y-46585143D01*
X87256953Y-46632762D01*
X87161715Y-46680381D01*
X86923619Y-46680381D01*
X86828381Y-46632762D01*
X86780762Y-46585143D01*
X87733143Y-45775619D02*
X87780762Y-45728000D01*
X87876000Y-45680381D01*
X88114096Y-45680381D01*
X88209334Y-45728000D01*
X88256953Y-45775619D01*
X88304572Y-45870857D01*
X88304572Y-45966095D01*
X88256953Y-46108952D01*
X87685524Y-46680381D01*
X88304572Y-46680381D01*
X88923619Y-45680381D02*
X89018858Y-45680381D01*
X89114096Y-45728000D01*
X89161715Y-45775619D01*
X89209334Y-45870857D01*
X89256953Y-46061333D01*
X89256953Y-46299429D01*
X89209334Y-46489905D01*
X89161715Y-46585143D01*
X89114096Y-46632762D01*
X89018858Y-46680381D01*
X88923619Y-46680381D01*
X88828381Y-46632762D01*
X88780762Y-46585143D01*
X88733143Y-46489905D01*
X88685524Y-46299429D01*
X88685524Y-46061333D01*
X88733143Y-45870857D01*
X88780762Y-45775619D01*
X88828381Y-45728000D01*
X88923619Y-45680381D01*
X89685524Y-46680381D02*
X89685524Y-45680381D01*
X90256953Y-46680381D01*
X90256953Y-45680381D01*
X69255048Y-46680381D02*
X69255048Y-45680381D01*
X70302667Y-46680381D02*
X69969333Y-46204190D01*
X69731238Y-46680381D02*
X69731238Y-45680381D01*
X70112191Y-45680381D01*
X70207429Y-45728000D01*
X70255048Y-45775619D01*
X70302667Y-45870857D01*
X70302667Y-46013714D01*
X70255048Y-46108952D01*
X70207429Y-46156571D01*
X70112191Y-46204190D01*
X69731238Y-46204190D01*
X71064572Y-46156571D02*
X70731238Y-46156571D01*
X70731238Y-46680381D02*
X70731238Y-45680381D01*
X71207429Y-45680381D01*
X72064572Y-45680381D02*
X71588381Y-45680381D01*
X71540762Y-46156571D01*
X71588381Y-46108952D01*
X71683619Y-46061333D01*
X71921715Y-46061333D01*
X72016953Y-46108952D01*
X72064572Y-46156571D01*
X72112191Y-46251810D01*
X72112191Y-46489905D01*
X72064572Y-46585143D01*
X72016953Y-46632762D01*
X71921715Y-46680381D01*
X71683619Y-46680381D01*
X71588381Y-46632762D01*
X71540762Y-46585143D01*
X72493143Y-45775619D02*
X72540762Y-45728000D01*
X72636000Y-45680381D01*
X72874096Y-45680381D01*
X72969334Y-45728000D01*
X73016953Y-45775619D01*
X73064572Y-45870857D01*
X73064572Y-45966095D01*
X73016953Y-46108952D01*
X72445524Y-46680381D01*
X73064572Y-46680381D01*
X73683619Y-45680381D02*
X73778858Y-45680381D01*
X73874096Y-45728000D01*
X73921715Y-45775619D01*
X73969334Y-45870857D01*
X74016953Y-46061333D01*
X74016953Y-46299429D01*
X73969334Y-46489905D01*
X73921715Y-46585143D01*
X73874096Y-46632762D01*
X73778858Y-46680381D01*
X73683619Y-46680381D01*
X73588381Y-46632762D01*
X73540762Y-46585143D01*
X73493143Y-46489905D01*
X73445524Y-46299429D01*
X73445524Y-46061333D01*
X73493143Y-45870857D01*
X73540762Y-45775619D01*
X73588381Y-45728000D01*
X73683619Y-45680381D01*
X74445524Y-46680381D02*
X74445524Y-45680381D01*
X75016953Y-46680381D01*
X75016953Y-45680381D01*
X54015048Y-46680381D02*
X54015048Y-45680381D01*
X55062667Y-46680381D02*
X54729333Y-46204190D01*
X54491238Y-46680381D02*
X54491238Y-45680381D01*
X54872191Y-45680381D01*
X54967429Y-45728000D01*
X55015048Y-45775619D01*
X55062667Y-45870857D01*
X55062667Y-46013714D01*
X55015048Y-46108952D01*
X54967429Y-46156571D01*
X54872191Y-46204190D01*
X54491238Y-46204190D01*
X55824572Y-46156571D02*
X55491238Y-46156571D01*
X55491238Y-46680381D02*
X55491238Y-45680381D01*
X55967429Y-45680381D01*
X56824572Y-45680381D02*
X56348381Y-45680381D01*
X56300762Y-46156571D01*
X56348381Y-46108952D01*
X56443619Y-46061333D01*
X56681715Y-46061333D01*
X56776953Y-46108952D01*
X56824572Y-46156571D01*
X56872191Y-46251810D01*
X56872191Y-46489905D01*
X56824572Y-46585143D01*
X56776953Y-46632762D01*
X56681715Y-46680381D01*
X56443619Y-46680381D01*
X56348381Y-46632762D01*
X56300762Y-46585143D01*
X57253143Y-45775619D02*
X57300762Y-45728000D01*
X57396000Y-45680381D01*
X57634096Y-45680381D01*
X57729334Y-45728000D01*
X57776953Y-45775619D01*
X57824572Y-45870857D01*
X57824572Y-45966095D01*
X57776953Y-46108952D01*
X57205524Y-46680381D01*
X57824572Y-46680381D01*
X58443619Y-45680381D02*
X58538858Y-45680381D01*
X58634096Y-45728000D01*
X58681715Y-45775619D01*
X58729334Y-45870857D01*
X58776953Y-46061333D01*
X58776953Y-46299429D01*
X58729334Y-46489905D01*
X58681715Y-46585143D01*
X58634096Y-46632762D01*
X58538858Y-46680381D01*
X58443619Y-46680381D01*
X58348381Y-46632762D01*
X58300762Y-46585143D01*
X58253143Y-46489905D01*
X58205524Y-46299429D01*
X58205524Y-46061333D01*
X58253143Y-45870857D01*
X58300762Y-45775619D01*
X58348381Y-45728000D01*
X58443619Y-45680381D01*
X59205524Y-46680381D02*
X59205524Y-45680381D01*
X59776953Y-46680381D01*
X59776953Y-45680381D01*
D11*
X80010000Y-46990000D02*
X90551000Y-46990000D01*
X64770000Y-46990000D02*
X75311000Y-46990000D01*
X49530000Y-46990000D02*
X60071000Y-46990000D01*
X33147000Y-62230000D02*
X33147000Y-62484000D01*
X33147000Y-54864000D02*
X33147000Y-54610000D01*
X33147000Y-59436000D02*
X34417000Y-58166000D01*
X33147000Y-54864000D02*
X33147000Y-57658000D01*
X33147000Y-62230000D02*
X33147000Y-59436000D01*
X22860000Y-56134000D02*
X22860000Y-57150000D01*
X22860000Y-52070000D02*
X22860000Y-53086000D01*
D10*
X21717143Y-52951571D02*
X21383809Y-52951571D01*
X21383809Y-53475381D02*
X21383809Y-52475381D01*
X21860000Y-52475381D01*
X22669524Y-52808714D02*
X22669524Y-53475381D01*
X22240952Y-52808714D02*
X22240952Y-53332524D01*
X22288571Y-53427762D01*
X22383809Y-53475381D01*
X22526667Y-53475381D01*
X22621905Y-53427762D01*
X22669524Y-53380143D01*
X23098095Y-53427762D02*
X23193333Y-53475381D01*
X23383809Y-53475381D01*
X23479048Y-53427762D01*
X23526667Y-53332524D01*
X23526667Y-53284905D01*
X23479048Y-53189667D01*
X23383809Y-53142048D01*
X23240952Y-53142048D01*
X23145714Y-53094429D01*
X23098095Y-52999190D01*
X23098095Y-52951571D01*
X23145714Y-52856333D01*
X23240952Y-52808714D01*
X23383809Y-52808714D01*
X23479048Y-52856333D01*
X24336191Y-53427762D02*
X24240953Y-53475381D01*
X24050476Y-53475381D01*
X23955238Y-53427762D01*
X23907619Y-53332524D01*
X23907619Y-52951571D01*
X23955238Y-52856333D01*
X24050476Y-52808714D01*
X24240953Y-52808714D01*
X24336191Y-52856333D01*
X24383810Y-52951571D01*
X24383810Y-53046810D01*
X23907619Y-53142048D01*
X22098095Y-54125381D02*
X22717143Y-54125381D01*
X22383809Y-54506333D01*
X22526667Y-54506333D01*
X22621905Y-54553952D01*
X22669524Y-54601571D01*
X22717143Y-54696810D01*
X22717143Y-54934905D01*
X22669524Y-55030143D01*
X22621905Y-55077762D01*
X22526667Y-55125381D01*
X22240952Y-55125381D01*
X22145714Y-55077762D01*
X22098095Y-55030143D01*
X23098095Y-54839667D02*
X23574286Y-54839667D01*
X23002857Y-55125381D02*
X23336190Y-54125381D01*
X23669524Y-55125381D01*
X32321429Y-25328571D02*
X32464286Y-25376190D01*
X32511905Y-25423810D01*
X32559524Y-25519048D01*
X32559524Y-25661905D01*
X32511905Y-25757143D01*
X32464286Y-25804762D01*
X32369048Y-25852381D01*
X31988095Y-25852381D01*
X31988095Y-24852381D01*
X32321429Y-24852381D01*
X32416667Y-24900000D01*
X32464286Y-24947619D01*
X32511905Y-25042857D01*
X32511905Y-25138095D01*
X32464286Y-25233333D01*
X32416667Y-25280952D01*
X32321429Y-25328571D01*
X31988095Y-25328571D01*
X35099524Y-25852381D02*
X34766190Y-25376190D01*
X34528095Y-25852381D02*
X34528095Y-24852381D01*
X34909048Y-24852381D01*
X35004286Y-24900000D01*
X35051905Y-24947619D01*
X35099524Y-25042857D01*
X35099524Y-25185714D01*
X35051905Y-25280952D01*
X35004286Y-25328571D01*
X34909048Y-25376190D01*
X34528095Y-25376190D01*
X37591905Y-24900000D02*
X37496667Y-24852381D01*
X37353810Y-24852381D01*
X37210952Y-24900000D01*
X37115714Y-24995238D01*
X37068095Y-25090476D01*
X37020476Y-25280952D01*
X37020476Y-25423810D01*
X37068095Y-25614286D01*
X37115714Y-25709524D01*
X37210952Y-25804762D01*
X37353810Y-25852381D01*
X37449048Y-25852381D01*
X37591905Y-25804762D01*
X37639524Y-25757143D01*
X37639524Y-25423810D01*
X37449048Y-25423810D01*
X39608095Y-25471429D02*
X40370000Y-25471429D01*
X39989048Y-25852381D02*
X39989048Y-25090476D01*
X25415953Y-26487381D02*
X24844524Y-26487381D01*
X25130238Y-26487381D02*
X25130238Y-25487381D01*
X25035000Y-25630238D01*
X24939762Y-25725476D01*
X24844524Y-25773095D01*
X25796905Y-25582619D02*
X25844524Y-25535000D01*
X25939762Y-25487381D01*
X26177858Y-25487381D01*
X26273096Y-25535000D01*
X26320715Y-25582619D01*
X26368334Y-25677857D01*
X26368334Y-25773095D01*
X26320715Y-25915952D01*
X25749286Y-26487381D01*
X26368334Y-26487381D01*
X26654048Y-25487381D02*
X26987381Y-26487381D01*
X27320715Y-25487381D01*
X89447619Y-30488095D02*
X88638095Y-30488095D01*
X88542857Y-30535714D01*
X88495238Y-30583333D01*
X88447619Y-30678571D01*
X88447619Y-30869048D01*
X88495238Y-30964286D01*
X88542857Y-31011905D01*
X88638095Y-31059524D01*
X89447619Y-31059524D01*
X88495238Y-31488095D02*
X88447619Y-31630952D01*
X88447619Y-31869048D01*
X88495238Y-31964286D01*
X88542857Y-32011905D01*
X88638095Y-32059524D01*
X88733333Y-32059524D01*
X88828571Y-32011905D01*
X88876190Y-31964286D01*
X88923810Y-31869048D01*
X88971429Y-31678571D01*
X89019048Y-31583333D01*
X89066667Y-31535714D01*
X89161905Y-31488095D01*
X89257143Y-31488095D01*
X89352381Y-31535714D01*
X89400000Y-31583333D01*
X89447619Y-31678571D01*
X89447619Y-31916667D01*
X89400000Y-32059524D01*
X88971429Y-32821429D02*
X88923810Y-32964286D01*
X88876190Y-33011905D01*
X88780952Y-33059524D01*
X88638095Y-33059524D01*
X88542857Y-33011905D01*
X88495238Y-32964286D01*
X88447619Y-32869048D01*
X88447619Y-32488095D01*
X89447619Y-32488095D01*
X89447619Y-32821429D01*
X89400000Y-32916667D01*
X89352381Y-32964286D01*
X89257143Y-33011905D01*
X89161905Y-33011905D01*
X89066667Y-32964286D01*
X89019048Y-32916667D01*
X88971429Y-32821429D01*
X88971429Y-32488095D01*
X52355715Y-36647381D02*
X51784286Y-36647381D01*
X52070000Y-36647381D02*
X52070000Y-35647381D01*
X51974762Y-35790238D01*
X51879524Y-35885476D01*
X51784286Y-35933095D01*
X51260476Y-26757381D02*
X51879524Y-26757381D01*
X51546190Y-27138333D01*
X51689048Y-27138333D01*
X51784286Y-27185952D01*
X51831905Y-27233571D01*
X51879524Y-27328810D01*
X51879524Y-27566905D01*
X51831905Y-27662143D01*
X51784286Y-27709762D01*
X51689048Y-27757381D01*
X51403333Y-27757381D01*
X51308095Y-27709762D01*
X51260476Y-27662143D01*
X52498571Y-26757381D02*
X52593810Y-26757381D01*
X52689048Y-26805000D01*
X52736667Y-26852619D01*
X52784286Y-26947857D01*
X52831905Y-27138333D01*
X52831905Y-27376429D01*
X52784286Y-27566905D01*
X52736667Y-27662143D01*
X52689048Y-27709762D01*
X52593810Y-27757381D01*
X52498571Y-27757381D01*
X52403333Y-27709762D01*
X52355714Y-27662143D01*
X52308095Y-27566905D01*
X52260476Y-27376429D01*
X52260476Y-27138333D01*
X52308095Y-26947857D01*
X52355714Y-26852619D01*
X52403333Y-26805000D01*
X52498571Y-26757381D01*
D12*
X60707143Y-32000000D02*
X61421429Y-32000000D01*
X60564286Y-32428571D02*
X61064286Y-30928571D01*
X61564286Y-32428571D01*
X62064286Y-32428571D02*
X62064286Y-31428571D01*
X62064286Y-31714286D02*
X62135714Y-31571429D01*
X62207143Y-31500000D01*
X62350000Y-31428571D01*
X62492857Y-31428571D01*
X63635714Y-32428571D02*
X63635714Y-30928571D01*
X63635714Y-32357143D02*
X63492857Y-32428571D01*
X63207143Y-32428571D01*
X63064285Y-32357143D01*
X62992857Y-32285714D01*
X62921428Y-32142857D01*
X62921428Y-31714286D01*
X62992857Y-31571429D01*
X63064285Y-31500000D01*
X63207143Y-31428571D01*
X63492857Y-31428571D01*
X63635714Y-31500000D01*
X64992857Y-31428571D02*
X64992857Y-32428571D01*
X64350000Y-31428571D02*
X64350000Y-32214286D01*
X64421428Y-32357143D01*
X64564286Y-32428571D01*
X64778571Y-32428571D01*
X64921428Y-32357143D01*
X64992857Y-32285714D01*
X65707143Y-32428571D02*
X65707143Y-31428571D01*
X65707143Y-30928571D02*
X65635714Y-31000000D01*
X65707143Y-31071429D01*
X65778571Y-31000000D01*
X65707143Y-30928571D01*
X65707143Y-31071429D01*
X66421429Y-31428571D02*
X66421429Y-32428571D01*
X66421429Y-31571429D02*
X66492857Y-31500000D01*
X66635715Y-31428571D01*
X66850000Y-31428571D01*
X66992857Y-31500000D01*
X67064286Y-31642857D01*
X67064286Y-32428571D01*
X67992858Y-32428571D02*
X67850000Y-32357143D01*
X67778572Y-32285714D01*
X67707143Y-32142857D01*
X67707143Y-31714286D01*
X67778572Y-31571429D01*
X67850000Y-31500000D01*
X67992858Y-31428571D01*
X68207143Y-31428571D01*
X68350000Y-31500000D01*
X68421429Y-31571429D01*
X68492858Y-31714286D01*
X68492858Y-32142857D01*
X68421429Y-32285714D01*
X68350000Y-32357143D01*
X68207143Y-32428571D01*
X67992858Y-32428571D01*
X70278572Y-32428571D02*
X70278572Y-30928571D01*
X71135715Y-32428571D01*
X71135715Y-30928571D01*
X72492858Y-32428571D02*
X72492858Y-31642857D01*
X72421429Y-31500000D01*
X72278572Y-31428571D01*
X71992858Y-31428571D01*
X71850001Y-31500000D01*
X72492858Y-32357143D02*
X72350001Y-32428571D01*
X71992858Y-32428571D01*
X71850001Y-32357143D01*
X71778572Y-32214286D01*
X71778572Y-32071429D01*
X71850001Y-31928571D01*
X71992858Y-31857143D01*
X72350001Y-31857143D01*
X72492858Y-31785714D01*
X73207144Y-31428571D02*
X73207144Y-32428571D01*
X73207144Y-31571429D02*
X73278572Y-31500000D01*
X73421430Y-31428571D01*
X73635715Y-31428571D01*
X73778572Y-31500000D01*
X73850001Y-31642857D01*
X73850001Y-32428571D01*
X74778573Y-32428571D02*
X74635715Y-32357143D01*
X74564287Y-32285714D01*
X74492858Y-32142857D01*
X74492858Y-31714286D01*
X74564287Y-31571429D01*
X74635715Y-31500000D01*
X74778573Y-31428571D01*
X74992858Y-31428571D01*
X75135715Y-31500000D01*
X75207144Y-31571429D01*
X75278573Y-31714286D01*
X75278573Y-32142857D01*
X75207144Y-32285714D01*
X75135715Y-32357143D01*
X74992858Y-32428571D01*
X74778573Y-32428571D01*
X76921430Y-31428571D02*
X77278573Y-32428571D01*
X77635715Y-31428571D01*
X78064287Y-30928571D02*
X78992858Y-30928571D01*
X78492858Y-31500000D01*
X78707144Y-31500000D01*
X78850001Y-31571429D01*
X78921430Y-31642857D01*
X78992858Y-31785714D01*
X78992858Y-32142857D01*
X78921430Y-32285714D01*
X78850001Y-32357143D01*
X78707144Y-32428571D01*
X78278572Y-32428571D01*
X78135715Y-32357143D01*
X78064287Y-32285714D01*
D10*
X87439524Y-36647381D02*
X86868095Y-36647381D01*
X87153809Y-36647381D02*
X87153809Y-35647381D01*
X87058571Y-35790238D01*
X86963333Y-35885476D01*
X86868095Y-35933095D01*
X88344286Y-35647381D02*
X87868095Y-35647381D01*
X87820476Y-36123571D01*
X87868095Y-36075952D01*
X87963333Y-36028333D01*
X88201429Y-36028333D01*
X88296667Y-36075952D01*
X88344286Y-36123571D01*
X88391905Y-36218810D01*
X88391905Y-36456905D01*
X88344286Y-36552143D01*
X88296667Y-36599762D01*
X88201429Y-36647381D01*
X87963333Y-36647381D01*
X87868095Y-36599762D01*
X87820476Y-36552143D01*
X87439524Y-27757381D02*
X86868095Y-27757381D01*
X87153809Y-27757381D02*
X87153809Y-26757381D01*
X87058571Y-26900238D01*
X86963333Y-26995476D01*
X86868095Y-27043095D01*
X88296667Y-26757381D02*
X88106190Y-26757381D01*
X88010952Y-26805000D01*
X87963333Y-26852619D01*
X87868095Y-26995476D01*
X87820476Y-27185952D01*
X87820476Y-27566905D01*
X87868095Y-27662143D01*
X87915714Y-27709762D01*
X88010952Y-27757381D01*
X88201429Y-27757381D01*
X88296667Y-27709762D01*
X88344286Y-27662143D01*
X88391905Y-27566905D01*
X88391905Y-27328810D01*
X88344286Y-27233571D01*
X88296667Y-27185952D01*
X88201429Y-27138333D01*
X88010952Y-27138333D01*
X87915714Y-27185952D01*
X87868095Y-27233571D01*
X87820476Y-27328810D01*
X39710000Y-39110000D02*
X39710000Y-67310000D01*
X29210000Y-39110000D02*
X39710000Y-39110000D01*
X29210000Y-67310000D02*
X29210000Y-39110000D01*
X39710000Y-67310000D02*
X29210000Y-67310000D01*
D13*
X31115000Y-21590000D02*
X41275000Y-21590000D01*
X31115000Y-24130000D02*
X41275000Y-24130000D01*
X41275000Y-24130000D02*
X41275000Y-21590000D01*
X31115000Y-21590000D02*
X31115000Y-24130000D01*
D14*
X91440000Y-38100000D02*
X48260000Y-38100000D01*
X48260000Y-38100000D02*
X48260000Y-25400000D01*
X48260000Y-25400000D02*
X91440000Y-25400000D01*
X91440000Y-25400000D02*
X91440000Y-38100000D01*
X91440000Y-30480000D02*
X90170000Y-30480000D01*
X90170000Y-30480000D02*
X90170000Y-33020000D01*
X90170000Y-33020000D02*
X91440000Y-33020000D01*
D15*
X25400000Y-41910000D02*
X25400000Y-67310000D01*
X25400000Y-67310000D02*
X20320000Y-67310000D01*
X20320000Y-67310000D02*
X20320000Y-41910000D01*
X20320000Y-41910000D02*
X25400000Y-41910000D01*
X25400000Y-49530000D02*
X20320000Y-49530000D01*
X25400000Y-59690000D02*
X20320000Y-59690000D01*
D10*
X49530000Y-46990000D02*
X60070000Y-46990000D01*
X60070000Y-46990000D02*
X59570000Y-51680000D01*
X59570000Y-51680000D02*
X50030000Y-51680000D01*
X50030000Y-51680000D02*
X49530000Y-46990000D01*
X64770000Y-46990000D02*
X75310000Y-46990000D01*
X75310000Y-46990000D02*
X74810000Y-51680000D01*
X74810000Y-51680000D02*
X65270000Y-51680000D01*
X65270000Y-51680000D02*
X64770000Y-46990000D01*
X80010000Y-46990000D02*
X90550000Y-46990000D01*
X90550000Y-46990000D02*
X90050000Y-51680000D01*
X90050000Y-51680000D02*
X80510000Y-51680000D01*
X80510000Y-51680000D02*
X80010000Y-46990000D01*
X18859500Y-27249120D02*
X18859500Y-36250880D01*
X15359380Y-27249120D02*
X15359380Y-36250880D01*
X15359380Y-36250880D02*
X29860240Y-36250880D01*
X29860240Y-36250880D02*
X29860240Y-27249120D01*
X29860240Y-27249120D02*
X15359380Y-27249120D01*
M02*
