M48
;DRILL file {KiCad 4.0.3-stable} date Mon Sep 19 23:15:35 2016
;FORMAT={-:-/ absolute / inch / decimal}
FMAT,2
INCH,TZ
T1C0.024
T2C0.032
T3C0.039
T4C0.040
T5C0.043
T6C0.047
T7C0.055
T8C0.126
%
G90
G05
M72
T2
X2.05Y-0.95
X2.05Y-1.55
X2.15Y-0.95
X2.15Y-1.55
X2.25Y-0.95
X2.25Y-1.55
X2.35Y-0.95
X2.35Y-1.55
X2.45Y-0.95
X2.45Y-1.55
X2.55Y-0.95
X2.55Y-1.55
X2.65Y-0.95
X2.65Y-1.55
X2.75Y-0.95
X2.75Y-1.55
X2.85Y-0.95
X2.85Y-1.55
X2.95Y-0.95
X2.95Y-1.55
X3.05Y-0.95
X3.05Y-1.55
X3.15Y-0.95
X3.15Y-1.55
X3.25Y-0.95
X3.25Y-1.55
X3.35Y-0.95
X3.35Y-1.55
X3.45Y-0.95
X3.45Y-1.55
T4
X1.275Y-0.9
X1.375Y-0.9
X1.475Y-0.9
X1.575Y-0.9
T6
X1.7531Y-2.6
X1.95Y-2.6
X2.1469Y-2.6
X2.7031Y-2.6
X2.9Y-2.6
X3.0969Y-2.6
X3.6531Y-2.6
X3.85Y-2.6
X4.0469Y-2.6
T7
X0.9Y-1.75
X0.9Y-1.95
X0.9Y-2.35
X0.9Y-2.55
T8
X1.775Y-2.3
X4.05Y-0.975
X4.05Y-2.3
T1
X2.0417Y-1.9594G85X2.0732Y-1.9594
G05
X2.1417Y-1.9594G85X2.1732Y-1.9594
G05
X2.2417Y-1.9594G85X2.2732Y-1.9594
G05
X2.6417Y-1.9594G85X2.6732Y-1.9594
G05
X2.7417Y-1.9594G85X2.7732Y-1.9594
G05
X2.8417Y-1.9594G85X2.8732Y-1.9594
G05
X3.2417Y-1.9594G85X3.2732Y-1.9594
G05
X3.3417Y-1.9594G85X3.3732Y-1.9594
G05
X3.4417Y-1.9594G85X3.4732Y-1.9594
G05
T3
X0.9079Y-1.2107G85X0.9079Y-1.2893
G05
X0.9867Y-1.435G85X1.0654Y-1.435
G05
X1.1441Y-1.2107G85X1.1441Y-1.2893
G05
T5
X1.2346Y-1.6736G85X1.4787Y-1.6736
G05
X1.2346Y-2.0949G85X1.4787Y-2.0949
G05
X1.2346Y-2.5161G85X1.4787Y-2.5161
G05
T0
M30
