G04 MADE WITH FRITZING*
G04 WWW.FRITZING.ORG*
G04 DOUBLE SIDED*
G04 HOLES PLATED*
G04 CONTOUR ON CENTER OF CONTOUR VECTOR*
%ASAXBY*%
%FSLAX23Y23*%
%MOIN*%
%OFA0B0*%
%SFA1.0B1.0*%
%ADD10C,0.065118*%
%ADD11C,0.078740*%
%ADD12C,0.062222*%
%ADD13C,0.070000*%
%ADD14C,0.078000*%
%ADD15R,0.070000X0.069972*%
%ADD16R,0.078000X0.078000*%
%ADD17C,0.024000*%
%ADD18R,0.001000X0.001000*%
%LNCOPPER0*%
G90*
G70*
G54D10*
X1901Y707D03*
X2001Y707D03*
X2101Y707D03*
X1401Y707D03*
X1501Y707D03*
X1601Y707D03*
X901Y707D03*
X1001Y707D03*
X1101Y707D03*
G54D11*
X201Y907D03*
X201Y1108D03*
G54D12*
X201Y1441D03*
X201Y1530D03*
X201Y1618D03*
X201Y1707D03*
G54D13*
X701Y1157D03*
X801Y1157D03*
X901Y1157D03*
X1001Y1157D03*
X1101Y1157D03*
X1201Y1157D03*
X1301Y1157D03*
X1401Y1157D03*
X1501Y1157D03*
X1601Y1157D03*
X1701Y1157D03*
X1801Y1157D03*
X1901Y1157D03*
X2001Y1157D03*
X2101Y1157D03*
X701Y1757D03*
X801Y1757D03*
X901Y1757D03*
X1001Y1757D03*
X1101Y1757D03*
X1201Y1757D03*
X1301Y1757D03*
X1401Y1757D03*
X1501Y1757D03*
X1601Y1757D03*
X1701Y1757D03*
X1801Y1757D03*
X1901Y1757D03*
X2001Y1757D03*
X2101Y1757D03*
G54D14*
X301Y207D03*
X501Y207D03*
X701Y207D03*
X1101Y207D03*
X1301Y207D03*
X1501Y207D03*
X1901Y207D03*
X2101Y207D03*
X2301Y207D03*
G54D15*
X701Y1157D03*
G54D16*
X301Y207D03*
X1101Y207D03*
X1901Y207D03*
G54D17*
X2199Y308D02*
X2122Y229D01*
D02*
X2449Y307D02*
X2199Y308D01*
D02*
X2449Y1607D02*
X2449Y307D01*
D02*
X1802Y1607D02*
X2449Y1607D01*
D02*
X1801Y1728D02*
X1802Y1607D01*
D02*
X800Y207D02*
X731Y207D01*
D02*
X900Y106D02*
X799Y207D01*
D02*
X2549Y107D02*
X900Y106D01*
D02*
X2551Y1858D02*
X2549Y107D01*
D02*
X1000Y1858D02*
X2551Y1858D01*
D02*
X1000Y1786D02*
X1000Y1858D01*
D02*
X1600Y207D02*
X1531Y207D01*
D02*
X800Y207D02*
X900Y106D01*
D02*
X900Y106D02*
X1701Y106D01*
D02*
X900Y106D02*
X799Y207D01*
D02*
X1701Y106D02*
X1600Y207D01*
D02*
X2502Y106D02*
X900Y106D01*
D02*
X2401Y207D02*
X2502Y106D01*
D02*
X2331Y207D02*
X2401Y207D01*
D02*
X1600Y207D02*
X1531Y207D01*
D02*
X1701Y106D02*
X1600Y207D01*
D02*
X900Y106D02*
X1701Y106D01*
D02*
X800Y207D02*
X900Y106D01*
D02*
X731Y207D02*
X800Y207D01*
D02*
X1401Y308D02*
X1322Y229D01*
D02*
X2001Y308D02*
X1401Y308D01*
D02*
X2101Y408D02*
X2001Y308D01*
D02*
X2401Y407D02*
X2101Y408D01*
D02*
X2402Y1507D02*
X2401Y407D01*
D02*
X1701Y1506D02*
X2402Y1507D01*
D02*
X1701Y1728D02*
X1701Y1506D01*
D02*
X1301Y408D02*
X530Y215D01*
D02*
X1900Y408D02*
X1301Y408D01*
D02*
X2001Y507D02*
X1900Y408D01*
D02*
X2349Y507D02*
X2001Y507D01*
D02*
X2349Y1407D02*
X2349Y507D01*
D02*
X1600Y1408D02*
X2349Y1407D01*
D02*
X1601Y1728D02*
X1600Y1408D01*
D02*
X1101Y907D02*
X1101Y741D01*
D02*
X301Y1356D02*
X301Y906D01*
D02*
X301Y906D02*
X1101Y907D01*
D02*
X216Y1428D02*
X301Y1356D01*
D02*
X1601Y958D02*
X1601Y741D01*
D02*
X351Y956D02*
X1601Y958D01*
D02*
X351Y1507D02*
X351Y956D01*
D02*
X217Y1607D02*
X351Y1507D01*
D02*
X2101Y1007D02*
X2101Y741D01*
D02*
X401Y1007D02*
X2101Y1007D01*
D02*
X401Y1556D02*
X401Y1007D01*
D02*
X217Y1695D02*
X401Y1556D01*
G54D18*
X894Y768D02*
X905Y768D01*
X994Y768D02*
X1005Y768D01*
X1094Y768D02*
X1105Y768D01*
X1394Y768D02*
X1405Y768D01*
X1494Y768D02*
X1505Y768D01*
X1594Y768D02*
X1605Y768D01*
X1894Y768D02*
X1905Y768D01*
X1994Y768D02*
X2005Y768D01*
X2094Y768D02*
X2105Y768D01*
X890Y767D02*
X909Y767D01*
X990Y767D02*
X1009Y767D01*
X1090Y767D02*
X1109Y767D01*
X1390Y767D02*
X1409Y767D01*
X1490Y767D02*
X1509Y767D01*
X1590Y767D02*
X1609Y767D01*
X1890Y767D02*
X1909Y767D01*
X1990Y767D02*
X2009Y767D01*
X2090Y767D02*
X2109Y767D01*
X888Y766D02*
X912Y766D01*
X988Y766D02*
X1012Y766D01*
X1088Y766D02*
X1112Y766D01*
X1388Y766D02*
X1411Y766D01*
X1488Y766D02*
X1511Y766D01*
X1588Y766D02*
X1611Y766D01*
X1888Y766D02*
X1911Y766D01*
X1988Y766D02*
X2011Y766D01*
X2088Y766D02*
X2111Y766D01*
X886Y765D02*
X914Y765D01*
X986Y765D02*
X1014Y765D01*
X1086Y765D02*
X1114Y765D01*
X1386Y765D02*
X1413Y765D01*
X1486Y765D02*
X1513Y765D01*
X1586Y765D02*
X1613Y765D01*
X1886Y765D02*
X1913Y765D01*
X1986Y765D02*
X2013Y765D01*
X2086Y765D02*
X2113Y765D01*
X884Y764D02*
X915Y764D01*
X984Y764D02*
X1015Y764D01*
X1084Y764D02*
X1115Y764D01*
X1384Y764D02*
X1415Y764D01*
X1484Y764D02*
X1515Y764D01*
X1584Y764D02*
X1615Y764D01*
X1884Y764D02*
X1915Y764D01*
X1984Y764D02*
X2015Y764D01*
X2084Y764D02*
X2115Y764D01*
X883Y763D02*
X917Y763D01*
X983Y763D02*
X1017Y763D01*
X1083Y763D02*
X1117Y763D01*
X1383Y763D02*
X1417Y763D01*
X1483Y763D02*
X1517Y763D01*
X1583Y763D02*
X1617Y763D01*
X1882Y763D02*
X1916Y763D01*
X1982Y763D02*
X2016Y763D01*
X2082Y763D02*
X2116Y763D01*
X881Y762D02*
X918Y762D01*
X981Y762D02*
X1018Y762D01*
X1081Y762D02*
X1118Y762D01*
X1381Y762D02*
X1418Y762D01*
X1481Y762D02*
X1518Y762D01*
X1581Y762D02*
X1618Y762D01*
X1881Y762D02*
X1918Y762D01*
X1981Y762D02*
X2018Y762D01*
X2081Y762D02*
X2118Y762D01*
X880Y761D02*
X919Y761D01*
X980Y761D02*
X1019Y761D01*
X1080Y761D02*
X1119Y761D01*
X1380Y761D02*
X1419Y761D01*
X1480Y761D02*
X1519Y761D01*
X1580Y761D02*
X1619Y761D01*
X1880Y761D02*
X1919Y761D01*
X1980Y761D02*
X2019Y761D01*
X2080Y761D02*
X2119Y761D01*
X879Y760D02*
X920Y760D01*
X979Y760D02*
X1020Y760D01*
X1079Y760D02*
X1120Y760D01*
X1379Y760D02*
X1420Y760D01*
X1479Y760D02*
X1520Y760D01*
X1579Y760D02*
X1620Y760D01*
X1879Y760D02*
X1920Y760D01*
X1979Y760D02*
X2020Y760D01*
X2079Y760D02*
X2120Y760D01*
X878Y759D02*
X921Y759D01*
X978Y759D02*
X1021Y759D01*
X1078Y759D02*
X1121Y759D01*
X1378Y759D02*
X1421Y759D01*
X1478Y759D02*
X1521Y759D01*
X1578Y759D02*
X1621Y759D01*
X1878Y759D02*
X1921Y759D01*
X1978Y759D02*
X2021Y759D01*
X2078Y759D02*
X2121Y759D01*
X877Y758D02*
X922Y758D01*
X977Y758D02*
X1022Y758D01*
X1077Y758D02*
X1122Y758D01*
X1377Y758D02*
X1422Y758D01*
X1477Y758D02*
X1522Y758D01*
X1577Y758D02*
X1622Y758D01*
X1877Y758D02*
X1922Y758D01*
X1977Y758D02*
X2022Y758D01*
X2077Y758D02*
X2122Y758D01*
X877Y757D02*
X923Y757D01*
X977Y757D02*
X1023Y757D01*
X1077Y757D02*
X1123Y757D01*
X1376Y757D02*
X1423Y757D01*
X1476Y757D02*
X1523Y757D01*
X1576Y757D02*
X1623Y757D01*
X1876Y757D02*
X1923Y757D01*
X1976Y757D02*
X2023Y757D01*
X2076Y757D02*
X2123Y757D01*
X876Y756D02*
X924Y756D01*
X976Y756D02*
X1024Y756D01*
X1076Y756D02*
X1124Y756D01*
X1376Y756D02*
X1424Y756D01*
X1476Y756D02*
X1524Y756D01*
X1576Y756D02*
X1623Y756D01*
X1875Y756D02*
X1923Y756D01*
X1975Y756D02*
X2023Y756D01*
X2075Y756D02*
X2123Y756D01*
X875Y755D02*
X924Y755D01*
X975Y755D02*
X1024Y755D01*
X1075Y755D02*
X1124Y755D01*
X1375Y755D02*
X1424Y755D01*
X1475Y755D02*
X1524Y755D01*
X1575Y755D02*
X1624Y755D01*
X1875Y755D02*
X1924Y755D01*
X1975Y755D02*
X2024Y755D01*
X2075Y755D02*
X2124Y755D01*
X875Y754D02*
X925Y754D01*
X974Y754D02*
X1025Y754D01*
X1074Y754D02*
X1125Y754D01*
X1374Y754D02*
X1425Y754D01*
X1474Y754D02*
X1525Y754D01*
X1574Y754D02*
X1625Y754D01*
X1874Y754D02*
X1925Y754D01*
X1974Y754D02*
X2025Y754D01*
X2074Y754D02*
X2125Y754D01*
X874Y753D02*
X926Y753D01*
X974Y753D02*
X1026Y753D01*
X1074Y753D02*
X1126Y753D01*
X1374Y753D02*
X1425Y753D01*
X1474Y753D02*
X1525Y753D01*
X1574Y753D02*
X1625Y753D01*
X1874Y753D02*
X1925Y753D01*
X1974Y753D02*
X2025Y753D01*
X2074Y753D02*
X2125Y753D01*
X873Y752D02*
X926Y752D01*
X973Y752D02*
X1026Y752D01*
X1073Y752D02*
X1126Y752D01*
X1373Y752D02*
X1426Y752D01*
X1473Y752D02*
X1526Y752D01*
X1573Y752D02*
X1626Y752D01*
X1873Y752D02*
X1926Y752D01*
X1973Y752D02*
X2026Y752D01*
X2073Y752D02*
X2126Y752D01*
X873Y751D02*
X927Y751D01*
X973Y751D02*
X1027Y751D01*
X1073Y751D02*
X1127Y751D01*
X1373Y751D02*
X1426Y751D01*
X1473Y751D02*
X1526Y751D01*
X1573Y751D02*
X1626Y751D01*
X1873Y751D02*
X1926Y751D01*
X1973Y751D02*
X2026Y751D01*
X2073Y751D02*
X2126Y751D01*
X873Y750D02*
X927Y750D01*
X972Y750D02*
X1027Y750D01*
X1072Y750D02*
X1127Y750D01*
X1372Y750D02*
X1427Y750D01*
X1472Y750D02*
X1527Y750D01*
X1572Y750D02*
X1627Y750D01*
X1872Y750D02*
X1927Y750D01*
X1972Y750D02*
X2027Y750D01*
X2072Y750D02*
X2127Y750D01*
X872Y749D02*
X927Y749D01*
X972Y749D02*
X1027Y749D01*
X1072Y749D02*
X1127Y749D01*
X1372Y749D02*
X1427Y749D01*
X1472Y749D02*
X1527Y749D01*
X1572Y749D02*
X1627Y749D01*
X1872Y749D02*
X1927Y749D01*
X1972Y749D02*
X2027Y749D01*
X2072Y749D02*
X2127Y749D01*
X872Y748D02*
X928Y748D01*
X972Y748D02*
X1028Y748D01*
X1072Y748D02*
X1128Y748D01*
X1372Y748D02*
X1428Y748D01*
X1472Y748D02*
X1528Y748D01*
X1572Y748D02*
X1628Y748D01*
X1871Y748D02*
X1927Y748D01*
X1971Y748D02*
X2027Y748D01*
X2071Y748D02*
X2127Y748D01*
X871Y747D02*
X928Y747D01*
X971Y747D02*
X1028Y747D01*
X1071Y747D02*
X1128Y747D01*
X1371Y747D02*
X1428Y747D01*
X1471Y747D02*
X1528Y747D01*
X1571Y747D02*
X1628Y747D01*
X1871Y747D02*
X1928Y747D01*
X1971Y747D02*
X2028Y747D01*
X2071Y747D02*
X2128Y747D01*
X871Y746D02*
X928Y746D01*
X971Y746D02*
X1028Y746D01*
X1071Y746D02*
X1128Y746D01*
X1371Y746D02*
X1428Y746D01*
X1471Y746D02*
X1528Y746D01*
X1571Y746D02*
X1628Y746D01*
X1871Y746D02*
X1928Y746D01*
X1971Y746D02*
X2028Y746D01*
X2071Y746D02*
X2128Y746D01*
X871Y745D02*
X929Y745D01*
X971Y745D02*
X1029Y745D01*
X1071Y745D02*
X1129Y745D01*
X1371Y745D02*
X1428Y745D01*
X1471Y745D02*
X1528Y745D01*
X1571Y745D02*
X1628Y745D01*
X1871Y745D02*
X1928Y745D01*
X1971Y745D02*
X2028Y745D01*
X2071Y745D02*
X2128Y745D01*
X871Y744D02*
X929Y744D01*
X971Y744D02*
X1029Y744D01*
X1071Y744D02*
X1129Y744D01*
X1371Y744D02*
X1429Y744D01*
X1471Y744D02*
X1529Y744D01*
X1571Y744D02*
X1629Y744D01*
X1870Y744D02*
X1928Y744D01*
X1970Y744D02*
X2028Y744D01*
X2070Y744D02*
X2128Y744D01*
X871Y743D02*
X929Y743D01*
X971Y743D02*
X1029Y743D01*
X1071Y743D02*
X1129Y743D01*
X1370Y743D02*
X1429Y743D01*
X1470Y743D02*
X1529Y743D01*
X1570Y743D02*
X1629Y743D01*
X1870Y743D02*
X1929Y743D01*
X1970Y743D02*
X2029Y743D01*
X2070Y743D02*
X2129Y743D01*
X870Y742D02*
X929Y742D01*
X970Y742D02*
X1029Y742D01*
X1070Y742D02*
X1129Y742D01*
X1370Y742D02*
X1429Y742D01*
X1470Y742D02*
X1529Y742D01*
X1570Y742D02*
X1629Y742D01*
X1870Y742D02*
X1929Y742D01*
X1970Y742D02*
X2029Y742D01*
X2070Y742D02*
X2129Y742D01*
X870Y741D02*
X929Y741D01*
X970Y741D02*
X1029Y741D01*
X1070Y741D02*
X1129Y741D01*
X1370Y741D02*
X1429Y741D01*
X1470Y741D02*
X1529Y741D01*
X1570Y741D02*
X1629Y741D01*
X1870Y741D02*
X1929Y741D01*
X1970Y741D02*
X2029Y741D01*
X2070Y741D02*
X2129Y741D01*
X870Y740D02*
X929Y740D01*
X970Y740D02*
X1029Y740D01*
X1070Y740D02*
X1129Y740D01*
X1370Y740D02*
X1429Y740D01*
X1470Y740D02*
X1529Y740D01*
X1570Y740D02*
X1629Y740D01*
X1870Y740D02*
X1929Y740D01*
X1970Y740D02*
X2029Y740D01*
X2070Y740D02*
X2129Y740D01*
X870Y739D02*
X929Y739D01*
X970Y739D02*
X1029Y739D01*
X1070Y739D02*
X1129Y739D01*
X1370Y739D02*
X1429Y739D01*
X1470Y739D02*
X1529Y739D01*
X1570Y739D02*
X1629Y739D01*
X1870Y739D02*
X1929Y739D01*
X1970Y739D02*
X2029Y739D01*
X2070Y739D02*
X2129Y739D01*
X870Y738D02*
X929Y738D01*
X970Y738D02*
X1029Y738D01*
X1070Y738D02*
X1129Y738D01*
X1370Y738D02*
X1429Y738D01*
X1470Y738D02*
X1529Y738D01*
X1570Y738D02*
X1629Y738D01*
X1870Y738D02*
X1929Y738D01*
X1970Y738D02*
X2029Y738D01*
X2070Y738D02*
X2129Y738D01*
X870Y737D02*
X929Y737D01*
X970Y737D02*
X1029Y737D01*
X1070Y737D02*
X1129Y737D01*
X1370Y737D02*
X1429Y737D01*
X1470Y737D02*
X1529Y737D01*
X1570Y737D02*
X1629Y737D01*
X1870Y737D02*
X1929Y737D01*
X1970Y737D02*
X2029Y737D01*
X2070Y737D02*
X2129Y737D01*
X870Y736D02*
X929Y736D01*
X970Y736D02*
X1029Y736D01*
X1070Y736D02*
X1129Y736D01*
X1370Y736D02*
X1429Y736D01*
X1470Y736D02*
X1529Y736D01*
X1570Y736D02*
X1629Y736D01*
X1870Y736D02*
X1929Y736D01*
X1970Y736D02*
X2029Y736D01*
X2070Y736D02*
X2129Y736D01*
X870Y735D02*
X929Y735D01*
X970Y735D02*
X1029Y735D01*
X1070Y735D02*
X1129Y735D01*
X1370Y735D02*
X1429Y735D01*
X1470Y735D02*
X1529Y735D01*
X1570Y735D02*
X1629Y735D01*
X1870Y735D02*
X1929Y735D01*
X1970Y735D02*
X2029Y735D01*
X2070Y735D02*
X2129Y735D01*
X870Y734D02*
X929Y734D01*
X970Y734D02*
X1029Y734D01*
X1070Y734D02*
X1129Y734D01*
X1370Y734D02*
X1429Y734D01*
X1470Y734D02*
X1529Y734D01*
X1570Y734D02*
X1629Y734D01*
X1870Y734D02*
X1929Y734D01*
X1970Y734D02*
X2029Y734D01*
X2070Y734D02*
X2129Y734D01*
X870Y733D02*
X929Y733D01*
X970Y733D02*
X1029Y733D01*
X1070Y733D02*
X1129Y733D01*
X1370Y733D02*
X1429Y733D01*
X1470Y733D02*
X1529Y733D01*
X1570Y733D02*
X1629Y733D01*
X1870Y733D02*
X1929Y733D01*
X1970Y733D02*
X2029Y733D01*
X2070Y733D02*
X2129Y733D01*
X870Y732D02*
X929Y732D01*
X970Y732D02*
X1029Y732D01*
X1070Y732D02*
X1129Y732D01*
X1370Y732D02*
X1429Y732D01*
X1470Y732D02*
X1529Y732D01*
X1570Y732D02*
X1629Y732D01*
X1870Y732D02*
X1929Y732D01*
X1970Y732D02*
X2029Y732D01*
X2070Y732D02*
X2129Y732D01*
X870Y731D02*
X929Y731D01*
X970Y731D02*
X1029Y731D01*
X1070Y731D02*
X1129Y731D01*
X1370Y731D02*
X1429Y731D01*
X1470Y731D02*
X1529Y731D01*
X1570Y731D02*
X1629Y731D01*
X1870Y731D02*
X1929Y731D01*
X1970Y731D02*
X2029Y731D01*
X2070Y731D02*
X2129Y731D01*
X870Y730D02*
X929Y730D01*
X970Y730D02*
X1029Y730D01*
X1070Y730D02*
X1129Y730D01*
X1370Y730D02*
X1429Y730D01*
X1470Y730D02*
X1529Y730D01*
X1570Y730D02*
X1629Y730D01*
X1870Y730D02*
X1929Y730D01*
X1970Y730D02*
X2029Y730D01*
X2070Y730D02*
X2129Y730D01*
X870Y729D02*
X929Y729D01*
X970Y729D02*
X1029Y729D01*
X1070Y729D02*
X1129Y729D01*
X1370Y729D02*
X1429Y729D01*
X1470Y729D02*
X1529Y729D01*
X1570Y729D02*
X1629Y729D01*
X1870Y729D02*
X1929Y729D01*
X1970Y729D02*
X2029Y729D01*
X2070Y729D02*
X2129Y729D01*
X870Y728D02*
X894Y728D01*
X905Y728D02*
X929Y728D01*
X970Y728D02*
X994Y728D01*
X1005Y728D02*
X1029Y728D01*
X1070Y728D02*
X1094Y728D01*
X1105Y728D02*
X1129Y728D01*
X1370Y728D02*
X1394Y728D01*
X1405Y728D02*
X1429Y728D01*
X1470Y728D02*
X1494Y728D01*
X1505Y728D02*
X1529Y728D01*
X1570Y728D02*
X1594Y728D01*
X1605Y728D02*
X1629Y728D01*
X1870Y728D02*
X1894Y728D01*
X1905Y728D02*
X1929Y728D01*
X1970Y728D02*
X1994Y728D01*
X2005Y728D02*
X2029Y728D01*
X2070Y728D02*
X2094Y728D01*
X2105Y728D02*
X2129Y728D01*
X870Y727D02*
X891Y727D01*
X908Y727D02*
X929Y727D01*
X970Y727D02*
X991Y727D01*
X1008Y727D02*
X1029Y727D01*
X1070Y727D02*
X1091Y727D01*
X1108Y727D02*
X1129Y727D01*
X1370Y727D02*
X1391Y727D01*
X1408Y727D02*
X1429Y727D01*
X1470Y727D02*
X1491Y727D01*
X1508Y727D02*
X1529Y727D01*
X1570Y727D02*
X1591Y727D01*
X1608Y727D02*
X1629Y727D01*
X1870Y727D02*
X1891Y727D01*
X1908Y727D02*
X1929Y727D01*
X1970Y727D02*
X1991Y727D01*
X2008Y727D02*
X2029Y727D01*
X2070Y727D02*
X2091Y727D01*
X2108Y727D02*
X2129Y727D01*
X870Y726D02*
X889Y726D01*
X910Y726D02*
X929Y726D01*
X970Y726D02*
X989Y726D01*
X1010Y726D02*
X1029Y726D01*
X1070Y726D02*
X1089Y726D01*
X1110Y726D02*
X1129Y726D01*
X1370Y726D02*
X1389Y726D01*
X1410Y726D02*
X1429Y726D01*
X1470Y726D02*
X1489Y726D01*
X1510Y726D02*
X1529Y726D01*
X1570Y726D02*
X1589Y726D01*
X1610Y726D02*
X1629Y726D01*
X1870Y726D02*
X1889Y726D01*
X1910Y726D02*
X1929Y726D01*
X1970Y726D02*
X1989Y726D01*
X2010Y726D02*
X2029Y726D01*
X2070Y726D02*
X2089Y726D01*
X2110Y726D02*
X2129Y726D01*
X870Y725D02*
X888Y725D01*
X912Y725D02*
X929Y725D01*
X970Y725D02*
X988Y725D01*
X1012Y725D02*
X1029Y725D01*
X1070Y725D02*
X1088Y725D01*
X1112Y725D02*
X1129Y725D01*
X1370Y725D02*
X1388Y725D01*
X1412Y725D02*
X1429Y725D01*
X1470Y725D02*
X1488Y725D01*
X1512Y725D02*
X1529Y725D01*
X1570Y725D02*
X1588Y725D01*
X1612Y725D02*
X1629Y725D01*
X1870Y725D02*
X1887Y725D01*
X1911Y725D02*
X1929Y725D01*
X1970Y725D02*
X1987Y725D01*
X2011Y725D02*
X2029Y725D01*
X2070Y725D02*
X2087Y725D01*
X2111Y725D02*
X2129Y725D01*
X870Y724D02*
X887Y724D01*
X913Y724D02*
X929Y724D01*
X970Y724D02*
X987Y724D01*
X1013Y724D02*
X1029Y724D01*
X1070Y724D02*
X1087Y724D01*
X1113Y724D02*
X1129Y724D01*
X1370Y724D02*
X1386Y724D01*
X1413Y724D02*
X1429Y724D01*
X1470Y724D02*
X1486Y724D01*
X1513Y724D02*
X1529Y724D01*
X1570Y724D02*
X1586Y724D01*
X1613Y724D02*
X1629Y724D01*
X1870Y724D02*
X1886Y724D01*
X1913Y724D02*
X1929Y724D01*
X1970Y724D02*
X1986Y724D01*
X2013Y724D02*
X2029Y724D01*
X2070Y724D02*
X2086Y724D01*
X2113Y724D02*
X2129Y724D01*
X870Y723D02*
X885Y723D01*
X914Y723D02*
X929Y723D01*
X970Y723D02*
X985Y723D01*
X1014Y723D02*
X1029Y723D01*
X1070Y723D02*
X1085Y723D01*
X1114Y723D02*
X1129Y723D01*
X1370Y723D02*
X1385Y723D01*
X1414Y723D02*
X1429Y723D01*
X1470Y723D02*
X1485Y723D01*
X1514Y723D02*
X1529Y723D01*
X1570Y723D02*
X1585Y723D01*
X1614Y723D02*
X1629Y723D01*
X1870Y723D02*
X1885Y723D01*
X1914Y723D02*
X1929Y723D01*
X1970Y723D02*
X1985Y723D01*
X2014Y723D02*
X2029Y723D01*
X2070Y723D02*
X2085Y723D01*
X2114Y723D02*
X2129Y723D01*
X870Y722D02*
X884Y722D01*
X915Y722D02*
X929Y722D01*
X970Y722D02*
X984Y722D01*
X1015Y722D02*
X1029Y722D01*
X1070Y722D02*
X1084Y722D01*
X1115Y722D02*
X1129Y722D01*
X1370Y722D02*
X1384Y722D01*
X1415Y722D02*
X1429Y722D01*
X1470Y722D02*
X1484Y722D01*
X1515Y722D02*
X1529Y722D01*
X1570Y722D02*
X1584Y722D01*
X1615Y722D02*
X1629Y722D01*
X1870Y722D02*
X1884Y722D01*
X1915Y722D02*
X1929Y722D01*
X1970Y722D02*
X1984Y722D01*
X2015Y722D02*
X2029Y722D01*
X2070Y722D02*
X2084Y722D01*
X2115Y722D02*
X2129Y722D01*
X870Y721D02*
X884Y721D01*
X916Y721D02*
X929Y721D01*
X970Y721D02*
X984Y721D01*
X1016Y721D02*
X1029Y721D01*
X1070Y721D02*
X1084Y721D01*
X1116Y721D02*
X1129Y721D01*
X1370Y721D02*
X1383Y721D01*
X1416Y721D02*
X1429Y721D01*
X1470Y721D02*
X1483Y721D01*
X1516Y721D02*
X1529Y721D01*
X1570Y721D02*
X1583Y721D01*
X1616Y721D02*
X1629Y721D01*
X1870Y721D02*
X1883Y721D01*
X1916Y721D02*
X1929Y721D01*
X1970Y721D02*
X1983Y721D01*
X2016Y721D02*
X2029Y721D01*
X2070Y721D02*
X2083Y721D01*
X2115Y721D02*
X2129Y721D01*
X870Y720D02*
X883Y720D01*
X917Y720D02*
X929Y720D01*
X970Y720D02*
X983Y720D01*
X1017Y720D02*
X1029Y720D01*
X1070Y720D02*
X1083Y720D01*
X1117Y720D02*
X1129Y720D01*
X1370Y720D02*
X1383Y720D01*
X1417Y720D02*
X1429Y720D01*
X1470Y720D02*
X1483Y720D01*
X1517Y720D02*
X1529Y720D01*
X1570Y720D02*
X1583Y720D01*
X1616Y720D02*
X1629Y720D01*
X1870Y720D02*
X1883Y720D01*
X1916Y720D02*
X1929Y720D01*
X1970Y720D02*
X1982Y720D01*
X2016Y720D02*
X2029Y720D01*
X2070Y720D02*
X2082Y720D01*
X2116Y720D02*
X2129Y720D01*
X870Y719D02*
X882Y719D01*
X917Y719D02*
X929Y719D01*
X970Y719D02*
X982Y719D01*
X1017Y719D02*
X1029Y719D01*
X1070Y719D02*
X1082Y719D01*
X1117Y719D02*
X1129Y719D01*
X1370Y719D02*
X1382Y719D01*
X1417Y719D02*
X1429Y719D01*
X1470Y719D02*
X1482Y719D01*
X1517Y719D02*
X1529Y719D01*
X1570Y719D02*
X1582Y719D01*
X1617Y719D02*
X1629Y719D01*
X1870Y719D02*
X1882Y719D01*
X1917Y719D02*
X1929Y719D01*
X1970Y719D02*
X1982Y719D01*
X2017Y719D02*
X2029Y719D01*
X2070Y719D02*
X2082Y719D01*
X2117Y719D02*
X2129Y719D01*
X870Y718D02*
X882Y718D01*
X918Y718D02*
X929Y718D01*
X970Y718D02*
X982Y718D01*
X1018Y718D02*
X1029Y718D01*
X1070Y718D02*
X1082Y718D01*
X1118Y718D02*
X1129Y718D01*
X1370Y718D02*
X1382Y718D01*
X1418Y718D02*
X1429Y718D01*
X1470Y718D02*
X1481Y718D01*
X1518Y718D02*
X1529Y718D01*
X1570Y718D02*
X1581Y718D01*
X1618Y718D02*
X1629Y718D01*
X1870Y718D02*
X1881Y718D01*
X1918Y718D02*
X1929Y718D01*
X1970Y718D02*
X1981Y718D01*
X2017Y718D02*
X2029Y718D01*
X2070Y718D02*
X2081Y718D01*
X2117Y718D02*
X2129Y718D01*
X870Y717D02*
X881Y717D01*
X918Y717D02*
X929Y717D01*
X970Y717D02*
X981Y717D01*
X1018Y717D02*
X1029Y717D01*
X1070Y717D02*
X1081Y717D01*
X1118Y717D02*
X1129Y717D01*
X1370Y717D02*
X1381Y717D01*
X1418Y717D02*
X1429Y717D01*
X1470Y717D02*
X1481Y717D01*
X1518Y717D02*
X1529Y717D01*
X1570Y717D02*
X1581Y717D01*
X1618Y717D02*
X1629Y717D01*
X1870Y717D02*
X1881Y717D01*
X1918Y717D02*
X1929Y717D01*
X1970Y717D02*
X1981Y717D01*
X2018Y717D02*
X2029Y717D01*
X2070Y717D02*
X2081Y717D01*
X2118Y717D02*
X2129Y717D01*
X870Y716D02*
X881Y716D01*
X919Y716D02*
X929Y716D01*
X970Y716D02*
X981Y716D01*
X1019Y716D02*
X1029Y716D01*
X1070Y716D02*
X1081Y716D01*
X1119Y716D02*
X1129Y716D01*
X1370Y716D02*
X1381Y716D01*
X1419Y716D02*
X1429Y716D01*
X1470Y716D02*
X1481Y716D01*
X1519Y716D02*
X1529Y716D01*
X1570Y716D02*
X1580Y716D01*
X1619Y716D02*
X1629Y716D01*
X1870Y716D02*
X1880Y716D01*
X1918Y716D02*
X1929Y716D01*
X1970Y716D02*
X1980Y716D01*
X2018Y716D02*
X2029Y716D01*
X2070Y716D02*
X2080Y716D01*
X2118Y716D02*
X2129Y716D01*
X870Y715D02*
X880Y715D01*
X919Y715D02*
X929Y715D01*
X970Y715D02*
X980Y715D01*
X1019Y715D02*
X1029Y715D01*
X1070Y715D02*
X1080Y715D01*
X1119Y715D02*
X1129Y715D01*
X1370Y715D02*
X1380Y715D01*
X1419Y715D02*
X1429Y715D01*
X1470Y715D02*
X1480Y715D01*
X1519Y715D02*
X1529Y715D01*
X1570Y715D02*
X1580Y715D01*
X1619Y715D02*
X1629Y715D01*
X1870Y715D02*
X1880Y715D01*
X1919Y715D02*
X1929Y715D01*
X1970Y715D02*
X1980Y715D01*
X2019Y715D02*
X2029Y715D01*
X2070Y715D02*
X2080Y715D01*
X2119Y715D02*
X2129Y715D01*
X870Y714D02*
X880Y714D01*
X919Y714D02*
X929Y714D01*
X970Y714D02*
X980Y714D01*
X1019Y714D02*
X1029Y714D01*
X1070Y714D02*
X1080Y714D01*
X1119Y714D02*
X1129Y714D01*
X1370Y714D02*
X1380Y714D01*
X1419Y714D02*
X1429Y714D01*
X1470Y714D02*
X1480Y714D01*
X1519Y714D02*
X1529Y714D01*
X1570Y714D02*
X1580Y714D01*
X1619Y714D02*
X1629Y714D01*
X1870Y714D02*
X1880Y714D01*
X1919Y714D02*
X1929Y714D01*
X1970Y714D02*
X1980Y714D01*
X2019Y714D02*
X2029Y714D01*
X2070Y714D02*
X2080Y714D01*
X2119Y714D02*
X2129Y714D01*
X870Y713D02*
X880Y713D01*
X920Y713D02*
X929Y713D01*
X970Y713D02*
X980Y713D01*
X1020Y713D02*
X1029Y713D01*
X1070Y713D02*
X1080Y713D01*
X1120Y713D02*
X1129Y713D01*
X1370Y713D02*
X1380Y713D01*
X1420Y713D02*
X1429Y713D01*
X1470Y713D02*
X1480Y713D01*
X1520Y713D02*
X1529Y713D01*
X1570Y713D02*
X1580Y713D01*
X1620Y713D02*
X1629Y713D01*
X1870Y713D02*
X1879Y713D01*
X1919Y713D02*
X1929Y713D01*
X1970Y713D02*
X1979Y713D01*
X2019Y713D02*
X2029Y713D01*
X2070Y713D02*
X2079Y713D01*
X2119Y713D02*
X2129Y713D01*
X870Y712D02*
X880Y712D01*
X920Y712D02*
X929Y712D01*
X970Y712D02*
X980Y712D01*
X1020Y712D02*
X1029Y712D01*
X1070Y712D02*
X1080Y712D01*
X1120Y712D02*
X1129Y712D01*
X1370Y712D02*
X1379Y712D01*
X1420Y712D02*
X1429Y712D01*
X1470Y712D02*
X1479Y712D01*
X1520Y712D02*
X1529Y712D01*
X1570Y712D02*
X1579Y712D01*
X1620Y712D02*
X1629Y712D01*
X1870Y712D02*
X1879Y712D01*
X1920Y712D02*
X1929Y712D01*
X1970Y712D02*
X1979Y712D01*
X2020Y712D02*
X2029Y712D01*
X2070Y712D02*
X2079Y712D01*
X2120Y712D02*
X2129Y712D01*
X870Y711D02*
X880Y711D01*
X920Y711D02*
X929Y711D01*
X970Y711D02*
X979Y711D01*
X1020Y711D02*
X1029Y711D01*
X1070Y711D02*
X1079Y711D01*
X1120Y711D02*
X1129Y711D01*
X1370Y711D02*
X1379Y711D01*
X1420Y711D02*
X1429Y711D01*
X1470Y711D02*
X1479Y711D01*
X1520Y711D02*
X1529Y711D01*
X1570Y711D02*
X1579Y711D01*
X1620Y711D02*
X1629Y711D01*
X1870Y711D02*
X1879Y711D01*
X1920Y711D02*
X1929Y711D01*
X1970Y711D02*
X1979Y711D01*
X2020Y711D02*
X2029Y711D01*
X2070Y711D02*
X2079Y711D01*
X2120Y711D02*
X2129Y711D01*
X870Y710D02*
X879Y710D01*
X920Y710D02*
X929Y710D01*
X970Y710D02*
X979Y710D01*
X1020Y710D02*
X1029Y710D01*
X1070Y710D02*
X1079Y710D01*
X1120Y710D02*
X1129Y710D01*
X1370Y710D02*
X1379Y710D01*
X1420Y710D02*
X1429Y710D01*
X1470Y710D02*
X1479Y710D01*
X1520Y710D02*
X1529Y710D01*
X1570Y710D02*
X1579Y710D01*
X1620Y710D02*
X1629Y710D01*
X1870Y710D02*
X1879Y710D01*
X1920Y710D02*
X1929Y710D01*
X1970Y710D02*
X1979Y710D01*
X2020Y710D02*
X2029Y710D01*
X2070Y710D02*
X2079Y710D01*
X2120Y710D02*
X2129Y710D01*
X870Y709D02*
X879Y709D01*
X920Y709D02*
X929Y709D01*
X970Y709D02*
X979Y709D01*
X1020Y709D02*
X1029Y709D01*
X1070Y709D02*
X1079Y709D01*
X1120Y709D02*
X1129Y709D01*
X1370Y709D02*
X1379Y709D01*
X1420Y709D02*
X1429Y709D01*
X1470Y709D02*
X1479Y709D01*
X1520Y709D02*
X1529Y709D01*
X1570Y709D02*
X1579Y709D01*
X1620Y709D02*
X1629Y709D01*
X1870Y709D02*
X1879Y709D01*
X1920Y709D02*
X1929Y709D01*
X1970Y709D02*
X1979Y709D01*
X2020Y709D02*
X2029Y709D01*
X2070Y709D02*
X2079Y709D01*
X2120Y709D02*
X2129Y709D01*
X870Y708D02*
X879Y708D01*
X920Y708D02*
X929Y708D01*
X970Y708D02*
X979Y708D01*
X1020Y708D02*
X1029Y708D01*
X1070Y708D02*
X1079Y708D01*
X1120Y708D02*
X1129Y708D01*
X1370Y708D02*
X1379Y708D01*
X1420Y708D02*
X1429Y708D01*
X1470Y708D02*
X1479Y708D01*
X1520Y708D02*
X1529Y708D01*
X1570Y708D02*
X1579Y708D01*
X1620Y708D02*
X1629Y708D01*
X1870Y708D02*
X1879Y708D01*
X1920Y708D02*
X1929Y708D01*
X1970Y708D02*
X1979Y708D01*
X2020Y708D02*
X2029Y708D01*
X2070Y708D02*
X2079Y708D01*
X2120Y708D02*
X2129Y708D01*
X870Y707D02*
X879Y707D01*
X920Y707D02*
X929Y707D01*
X970Y707D02*
X979Y707D01*
X1020Y707D02*
X1029Y707D01*
X1070Y707D02*
X1079Y707D01*
X1120Y707D02*
X1129Y707D01*
X1370Y707D02*
X1379Y707D01*
X1420Y707D02*
X1429Y707D01*
X1470Y707D02*
X1479Y707D01*
X1520Y707D02*
X1529Y707D01*
X1570Y707D02*
X1579Y707D01*
X1620Y707D02*
X1629Y707D01*
X1870Y707D02*
X1879Y707D01*
X1920Y707D02*
X1929Y707D01*
X1970Y707D02*
X1979Y707D01*
X2020Y707D02*
X2029Y707D01*
X2070Y707D02*
X2079Y707D01*
X2120Y707D02*
X2129Y707D01*
X870Y706D02*
X880Y706D01*
X920Y706D02*
X929Y706D01*
X970Y706D02*
X980Y706D01*
X1020Y706D02*
X1029Y706D01*
X1070Y706D02*
X1079Y706D01*
X1120Y706D02*
X1129Y706D01*
X1370Y706D02*
X1379Y706D01*
X1420Y706D02*
X1429Y706D01*
X1470Y706D02*
X1479Y706D01*
X1520Y706D02*
X1529Y706D01*
X1570Y706D02*
X1579Y706D01*
X1620Y706D02*
X1629Y706D01*
X1870Y706D02*
X1879Y706D01*
X1920Y706D02*
X1929Y706D01*
X1970Y706D02*
X1979Y706D01*
X2020Y706D02*
X2029Y706D01*
X2070Y706D02*
X2079Y706D01*
X2120Y706D02*
X2129Y706D01*
X870Y705D02*
X880Y705D01*
X920Y705D02*
X929Y705D01*
X970Y705D02*
X980Y705D01*
X1020Y705D02*
X1029Y705D01*
X1070Y705D02*
X1080Y705D01*
X1120Y705D02*
X1129Y705D01*
X1370Y705D02*
X1379Y705D01*
X1420Y705D02*
X1429Y705D01*
X1470Y705D02*
X1479Y705D01*
X1520Y705D02*
X1529Y705D01*
X1570Y705D02*
X1579Y705D01*
X1620Y705D02*
X1629Y705D01*
X1870Y705D02*
X1879Y705D01*
X1920Y705D02*
X1929Y705D01*
X1970Y705D02*
X1979Y705D01*
X2020Y705D02*
X2029Y705D01*
X2070Y705D02*
X2079Y705D01*
X2119Y705D02*
X2129Y705D01*
X870Y704D02*
X880Y704D01*
X920Y704D02*
X929Y704D01*
X970Y704D02*
X980Y704D01*
X1020Y704D02*
X1029Y704D01*
X1070Y704D02*
X1080Y704D01*
X1120Y704D02*
X1129Y704D01*
X1370Y704D02*
X1380Y704D01*
X1419Y704D02*
X1429Y704D01*
X1470Y704D02*
X1480Y704D01*
X1519Y704D02*
X1529Y704D01*
X1570Y704D02*
X1580Y704D01*
X1619Y704D02*
X1629Y704D01*
X1870Y704D02*
X1880Y704D01*
X1919Y704D02*
X1929Y704D01*
X1970Y704D02*
X1980Y704D01*
X2019Y704D02*
X2029Y704D01*
X2070Y704D02*
X2079Y704D01*
X2119Y704D02*
X2129Y704D01*
X870Y703D02*
X880Y703D01*
X919Y703D02*
X929Y703D01*
X970Y703D02*
X980Y703D01*
X1019Y703D02*
X1029Y703D01*
X1070Y703D02*
X1080Y703D01*
X1119Y703D02*
X1129Y703D01*
X1370Y703D02*
X1380Y703D01*
X1419Y703D02*
X1429Y703D01*
X1470Y703D02*
X1480Y703D01*
X1519Y703D02*
X1529Y703D01*
X1570Y703D02*
X1580Y703D01*
X1619Y703D02*
X1629Y703D01*
X1870Y703D02*
X1880Y703D01*
X1919Y703D02*
X1929Y703D01*
X1970Y703D02*
X1980Y703D01*
X2019Y703D02*
X2029Y703D01*
X2070Y703D02*
X2080Y703D01*
X2119Y703D02*
X2129Y703D01*
X870Y702D02*
X881Y702D01*
X919Y702D02*
X929Y702D01*
X970Y702D02*
X980Y702D01*
X1019Y702D02*
X1029Y702D01*
X1070Y702D02*
X1080Y702D01*
X1119Y702D02*
X1129Y702D01*
X1370Y702D02*
X1380Y702D01*
X1419Y702D02*
X1429Y702D01*
X1470Y702D02*
X1480Y702D01*
X1519Y702D02*
X1529Y702D01*
X1570Y702D02*
X1580Y702D01*
X1619Y702D02*
X1629Y702D01*
X1870Y702D02*
X1880Y702D01*
X1919Y702D02*
X1929Y702D01*
X1970Y702D02*
X1980Y702D01*
X2019Y702D02*
X2029Y702D01*
X2070Y702D02*
X2080Y702D01*
X2119Y702D02*
X2129Y702D01*
X870Y701D02*
X881Y701D01*
X919Y701D02*
X929Y701D01*
X970Y701D02*
X981Y701D01*
X1019Y701D02*
X1029Y701D01*
X1070Y701D02*
X1081Y701D01*
X1119Y701D02*
X1129Y701D01*
X1370Y701D02*
X1381Y701D01*
X1419Y701D02*
X1429Y701D01*
X1470Y701D02*
X1481Y701D01*
X1519Y701D02*
X1529Y701D01*
X1570Y701D02*
X1581Y701D01*
X1618Y701D02*
X1629Y701D01*
X1870Y701D02*
X1881Y701D01*
X1918Y701D02*
X1929Y701D01*
X1970Y701D02*
X1980Y701D01*
X2018Y701D02*
X2029Y701D01*
X2070Y701D02*
X2080Y701D01*
X2118Y701D02*
X2129Y701D01*
X870Y700D02*
X881Y700D01*
X918Y700D02*
X929Y700D01*
X970Y700D02*
X981Y700D01*
X1018Y700D02*
X1029Y700D01*
X1070Y700D02*
X1081Y700D01*
X1118Y700D02*
X1129Y700D01*
X1370Y700D02*
X1381Y700D01*
X1418Y700D02*
X1429Y700D01*
X1470Y700D02*
X1481Y700D01*
X1518Y700D02*
X1529Y700D01*
X1570Y700D02*
X1581Y700D01*
X1618Y700D02*
X1629Y700D01*
X1870Y700D02*
X1881Y700D01*
X1918Y700D02*
X1929Y700D01*
X1970Y700D02*
X1981Y700D01*
X2018Y700D02*
X2029Y700D01*
X2070Y700D02*
X2081Y700D01*
X2118Y700D02*
X2129Y700D01*
X870Y699D02*
X882Y699D01*
X918Y699D02*
X929Y699D01*
X970Y699D02*
X982Y699D01*
X1018Y699D02*
X1029Y699D01*
X1070Y699D02*
X1082Y699D01*
X1118Y699D02*
X1129Y699D01*
X1370Y699D02*
X1382Y699D01*
X1418Y699D02*
X1429Y699D01*
X1470Y699D02*
X1482Y699D01*
X1517Y699D02*
X1529Y699D01*
X1570Y699D02*
X1582Y699D01*
X1617Y699D02*
X1629Y699D01*
X1870Y699D02*
X1882Y699D01*
X1917Y699D02*
X1929Y699D01*
X1970Y699D02*
X1982Y699D01*
X2017Y699D02*
X2029Y699D01*
X2070Y699D02*
X2081Y699D01*
X2117Y699D02*
X2129Y699D01*
X870Y698D02*
X882Y698D01*
X917Y698D02*
X929Y698D01*
X970Y698D02*
X982Y698D01*
X1017Y698D02*
X1029Y698D01*
X1070Y698D02*
X1082Y698D01*
X1117Y698D02*
X1129Y698D01*
X1370Y698D02*
X1382Y698D01*
X1417Y698D02*
X1429Y698D01*
X1470Y698D02*
X1482Y698D01*
X1517Y698D02*
X1529Y698D01*
X1570Y698D02*
X1582Y698D01*
X1617Y698D02*
X1629Y698D01*
X1870Y698D02*
X1882Y698D01*
X1917Y698D02*
X1929Y698D01*
X1970Y698D02*
X1982Y698D01*
X2017Y698D02*
X2029Y698D01*
X2070Y698D02*
X2082Y698D01*
X2117Y698D02*
X2129Y698D01*
X870Y697D02*
X883Y697D01*
X916Y697D02*
X929Y697D01*
X970Y697D02*
X983Y697D01*
X1016Y697D02*
X1029Y697D01*
X1070Y697D02*
X1083Y697D01*
X1116Y697D02*
X1129Y697D01*
X1370Y697D02*
X1383Y697D01*
X1416Y697D02*
X1429Y697D01*
X1470Y697D02*
X1483Y697D01*
X1516Y697D02*
X1529Y697D01*
X1570Y697D02*
X1583Y697D01*
X1616Y697D02*
X1629Y697D01*
X1870Y697D02*
X1883Y697D01*
X1916Y697D02*
X1929Y697D01*
X1970Y697D02*
X1983Y697D01*
X2016Y697D02*
X2029Y697D01*
X2070Y697D02*
X2083Y697D01*
X2116Y697D02*
X2129Y697D01*
X870Y696D02*
X884Y696D01*
X916Y696D02*
X929Y696D01*
X970Y696D02*
X984Y696D01*
X1016Y696D02*
X1029Y696D01*
X1070Y696D02*
X1084Y696D01*
X1116Y696D02*
X1129Y696D01*
X1370Y696D02*
X1384Y696D01*
X1415Y696D02*
X1429Y696D01*
X1470Y696D02*
X1484Y696D01*
X1515Y696D02*
X1529Y696D01*
X1570Y696D02*
X1584Y696D01*
X1615Y696D02*
X1629Y696D01*
X1870Y696D02*
X1884Y696D01*
X1915Y696D02*
X1929Y696D01*
X1970Y696D02*
X1984Y696D01*
X2015Y696D02*
X2029Y696D01*
X2070Y696D02*
X2084Y696D01*
X2115Y696D02*
X2129Y696D01*
X870Y695D02*
X885Y695D01*
X915Y695D02*
X929Y695D01*
X970Y695D02*
X985Y695D01*
X1015Y695D02*
X1029Y695D01*
X1070Y695D02*
X1085Y695D01*
X1115Y695D02*
X1129Y695D01*
X1370Y695D02*
X1385Y695D01*
X1415Y695D02*
X1429Y695D01*
X1470Y695D02*
X1485Y695D01*
X1515Y695D02*
X1529Y695D01*
X1570Y695D02*
X1585Y695D01*
X1615Y695D02*
X1629Y695D01*
X1870Y695D02*
X1884Y695D01*
X1914Y695D02*
X1929Y695D01*
X1970Y695D02*
X1984Y695D01*
X2014Y695D02*
X2029Y695D01*
X2070Y695D02*
X2084Y695D01*
X2114Y695D02*
X2129Y695D01*
X870Y694D02*
X886Y694D01*
X914Y694D02*
X929Y694D01*
X970Y694D02*
X986Y694D01*
X1014Y694D02*
X1029Y694D01*
X1070Y694D02*
X1086Y694D01*
X1114Y694D02*
X1129Y694D01*
X1370Y694D02*
X1386Y694D01*
X1414Y694D02*
X1429Y694D01*
X1470Y694D02*
X1486Y694D01*
X1514Y694D02*
X1529Y694D01*
X1570Y694D02*
X1586Y694D01*
X1614Y694D02*
X1629Y694D01*
X1870Y694D02*
X1885Y694D01*
X1913Y694D02*
X1929Y694D01*
X1970Y694D02*
X1985Y694D01*
X2013Y694D02*
X2029Y694D01*
X2070Y694D02*
X2085Y694D01*
X2113Y694D02*
X2129Y694D01*
X870Y693D02*
X887Y693D01*
X913Y693D02*
X929Y693D01*
X970Y693D02*
X987Y693D01*
X1013Y693D02*
X1029Y693D01*
X1070Y693D02*
X1087Y693D01*
X1112Y693D02*
X1129Y693D01*
X1370Y693D02*
X1387Y693D01*
X1412Y693D02*
X1429Y693D01*
X1470Y693D02*
X1487Y693D01*
X1512Y693D02*
X1529Y693D01*
X1570Y693D02*
X1587Y693D01*
X1612Y693D02*
X1629Y693D01*
X1870Y693D02*
X1887Y693D01*
X1912Y693D02*
X1929Y693D01*
X1970Y693D02*
X1987Y693D01*
X2012Y693D02*
X2029Y693D01*
X2070Y693D02*
X2087Y693D01*
X2112Y693D02*
X2129Y693D01*
X870Y692D02*
X888Y692D01*
X911Y692D02*
X929Y692D01*
X970Y692D02*
X988Y692D01*
X1011Y692D02*
X1029Y692D01*
X1070Y692D02*
X1088Y692D01*
X1111Y692D02*
X1129Y692D01*
X1370Y692D02*
X1388Y692D01*
X1411Y692D02*
X1429Y692D01*
X1470Y692D02*
X1488Y692D01*
X1511Y692D02*
X1529Y692D01*
X1570Y692D02*
X1588Y692D01*
X1611Y692D02*
X1629Y692D01*
X1870Y692D02*
X1888Y692D01*
X1911Y692D02*
X1929Y692D01*
X1970Y692D02*
X1988Y692D01*
X2011Y692D02*
X2029Y692D01*
X2070Y692D02*
X2088Y692D01*
X2111Y692D02*
X2129Y692D01*
X870Y691D02*
X890Y691D01*
X909Y691D02*
X929Y691D01*
X970Y691D02*
X990Y691D01*
X1009Y691D02*
X1029Y691D01*
X1070Y691D02*
X1090Y691D01*
X1109Y691D02*
X1129Y691D01*
X1370Y691D02*
X1390Y691D01*
X1409Y691D02*
X1429Y691D01*
X1470Y691D02*
X1490Y691D01*
X1509Y691D02*
X1529Y691D01*
X1570Y691D02*
X1590Y691D01*
X1609Y691D02*
X1629Y691D01*
X1870Y691D02*
X1890Y691D01*
X1909Y691D02*
X1929Y691D01*
X1970Y691D02*
X1990Y691D01*
X2009Y691D02*
X2029Y691D01*
X2070Y691D02*
X2090Y691D01*
X2109Y691D02*
X2129Y691D01*
X870Y690D02*
X892Y690D01*
X907Y690D02*
X929Y690D01*
X970Y690D02*
X992Y690D01*
X1007Y690D02*
X1029Y690D01*
X1070Y690D02*
X1092Y690D01*
X1107Y690D02*
X1129Y690D01*
X1370Y690D02*
X1392Y690D01*
X1407Y690D02*
X1429Y690D01*
X1470Y690D02*
X1492Y690D01*
X1507Y690D02*
X1529Y690D01*
X1570Y690D02*
X1592Y690D01*
X1607Y690D02*
X1629Y690D01*
X1870Y690D02*
X1892Y690D01*
X1907Y690D02*
X1929Y690D01*
X1970Y690D02*
X1992Y690D01*
X2007Y690D02*
X2029Y690D01*
X2070Y690D02*
X2092Y690D01*
X2107Y690D02*
X2129Y690D01*
X870Y689D02*
X896Y689D01*
X903Y689D02*
X929Y689D01*
X970Y689D02*
X996Y689D01*
X1003Y689D02*
X1029Y689D01*
X1070Y689D02*
X1096Y689D01*
X1103Y689D02*
X1129Y689D01*
X1370Y689D02*
X1396Y689D01*
X1403Y689D02*
X1429Y689D01*
X1470Y689D02*
X1496Y689D01*
X1503Y689D02*
X1529Y689D01*
X1570Y689D02*
X1596Y689D01*
X1603Y689D02*
X1629Y689D01*
X1870Y689D02*
X1896Y689D01*
X1903Y689D02*
X1929Y689D01*
X1970Y689D02*
X1996Y689D01*
X2003Y689D02*
X2029Y689D01*
X2070Y689D02*
X2096Y689D01*
X2103Y689D02*
X2129Y689D01*
X870Y688D02*
X929Y688D01*
X970Y688D02*
X1029Y688D01*
X1070Y688D02*
X1129Y688D01*
X1370Y688D02*
X1429Y688D01*
X1470Y688D02*
X1529Y688D01*
X1570Y688D02*
X1629Y688D01*
X1870Y688D02*
X1929Y688D01*
X1970Y688D02*
X2029Y688D01*
X2070Y688D02*
X2129Y688D01*
X870Y687D02*
X929Y687D01*
X970Y687D02*
X1029Y687D01*
X1070Y687D02*
X1129Y687D01*
X1370Y687D02*
X1429Y687D01*
X1470Y687D02*
X1529Y687D01*
X1570Y687D02*
X1629Y687D01*
X1870Y687D02*
X1929Y687D01*
X1970Y687D02*
X2029Y687D01*
X2070Y687D02*
X2129Y687D01*
X870Y686D02*
X929Y686D01*
X970Y686D02*
X1029Y686D01*
X1070Y686D02*
X1129Y686D01*
X1370Y686D02*
X1429Y686D01*
X1470Y686D02*
X1529Y686D01*
X1570Y686D02*
X1629Y686D01*
X1870Y686D02*
X1929Y686D01*
X1970Y686D02*
X2029Y686D01*
X2070Y686D02*
X2129Y686D01*
X870Y685D02*
X929Y685D01*
X970Y685D02*
X1029Y685D01*
X1070Y685D02*
X1129Y685D01*
X1370Y685D02*
X1429Y685D01*
X1470Y685D02*
X1529Y685D01*
X1570Y685D02*
X1629Y685D01*
X1870Y685D02*
X1929Y685D01*
X1970Y685D02*
X2029Y685D01*
X2070Y685D02*
X2129Y685D01*
X870Y684D02*
X929Y684D01*
X970Y684D02*
X1029Y684D01*
X1070Y684D02*
X1129Y684D01*
X1370Y684D02*
X1429Y684D01*
X1470Y684D02*
X1529Y684D01*
X1570Y684D02*
X1629Y684D01*
X1870Y684D02*
X1929Y684D01*
X1970Y684D02*
X2029Y684D01*
X2070Y684D02*
X2129Y684D01*
X870Y683D02*
X929Y683D01*
X970Y683D02*
X1029Y683D01*
X1070Y683D02*
X1129Y683D01*
X1370Y683D02*
X1429Y683D01*
X1470Y683D02*
X1529Y683D01*
X1570Y683D02*
X1629Y683D01*
X1870Y683D02*
X1929Y683D01*
X1970Y683D02*
X2029Y683D01*
X2070Y683D02*
X2129Y683D01*
X870Y682D02*
X929Y682D01*
X970Y682D02*
X1029Y682D01*
X1070Y682D02*
X1129Y682D01*
X1370Y682D02*
X1429Y682D01*
X1470Y682D02*
X1529Y682D01*
X1570Y682D02*
X1629Y682D01*
X1870Y682D02*
X1929Y682D01*
X1970Y682D02*
X2029Y682D01*
X2070Y682D02*
X2129Y682D01*
X870Y681D02*
X929Y681D01*
X970Y681D02*
X1029Y681D01*
X1070Y681D02*
X1129Y681D01*
X1370Y681D02*
X1429Y681D01*
X1470Y681D02*
X1529Y681D01*
X1570Y681D02*
X1629Y681D01*
X1870Y681D02*
X1929Y681D01*
X1970Y681D02*
X2029Y681D01*
X2070Y681D02*
X2129Y681D01*
X870Y680D02*
X929Y680D01*
X970Y680D02*
X1029Y680D01*
X1070Y680D02*
X1129Y680D01*
X1370Y680D02*
X1429Y680D01*
X1470Y680D02*
X1529Y680D01*
X1570Y680D02*
X1629Y680D01*
X1870Y680D02*
X1929Y680D01*
X1970Y680D02*
X2029Y680D01*
X2070Y680D02*
X2129Y680D01*
X870Y679D02*
X929Y679D01*
X970Y679D02*
X1029Y679D01*
X1070Y679D02*
X1129Y679D01*
X1370Y679D02*
X1429Y679D01*
X1470Y679D02*
X1529Y679D01*
X1570Y679D02*
X1629Y679D01*
X1870Y679D02*
X1929Y679D01*
X1970Y679D02*
X2029Y679D01*
X2070Y679D02*
X2129Y679D01*
X870Y678D02*
X929Y678D01*
X970Y678D02*
X1029Y678D01*
X1070Y678D02*
X1129Y678D01*
X1370Y678D02*
X1429Y678D01*
X1470Y678D02*
X1529Y678D01*
X1570Y678D02*
X1629Y678D01*
X1870Y678D02*
X1929Y678D01*
X1970Y678D02*
X2029Y678D01*
X2070Y678D02*
X2129Y678D01*
X870Y677D02*
X929Y677D01*
X970Y677D02*
X1029Y677D01*
X1070Y677D02*
X1129Y677D01*
X1370Y677D02*
X1429Y677D01*
X1470Y677D02*
X1529Y677D01*
X1570Y677D02*
X1629Y677D01*
X1870Y677D02*
X1929Y677D01*
X1970Y677D02*
X2029Y677D01*
X2070Y677D02*
X2129Y677D01*
X870Y676D02*
X929Y676D01*
X970Y676D02*
X1029Y676D01*
X1070Y676D02*
X1129Y676D01*
X1370Y676D02*
X1429Y676D01*
X1470Y676D02*
X1529Y676D01*
X1570Y676D02*
X1629Y676D01*
X1870Y676D02*
X1929Y676D01*
X1970Y676D02*
X2029Y676D01*
X2070Y676D02*
X2129Y676D01*
X871Y675D02*
X929Y675D01*
X970Y675D02*
X1029Y675D01*
X1070Y675D02*
X1129Y675D01*
X1370Y675D02*
X1429Y675D01*
X1470Y675D02*
X1529Y675D01*
X1570Y675D02*
X1629Y675D01*
X1870Y675D02*
X1929Y675D01*
X1970Y675D02*
X2029Y675D01*
X2070Y675D02*
X2129Y675D01*
X871Y674D02*
X929Y674D01*
X971Y674D02*
X1029Y674D01*
X1071Y674D02*
X1129Y674D01*
X1371Y674D02*
X1429Y674D01*
X1470Y674D02*
X1529Y674D01*
X1570Y674D02*
X1629Y674D01*
X1870Y674D02*
X1929Y674D01*
X1970Y674D02*
X2029Y674D01*
X2070Y674D02*
X2128Y674D01*
X871Y673D02*
X929Y673D01*
X971Y673D02*
X1029Y673D01*
X1071Y673D02*
X1129Y673D01*
X1371Y673D02*
X1429Y673D01*
X1471Y673D02*
X1529Y673D01*
X1571Y673D02*
X1628Y673D01*
X1871Y673D02*
X1928Y673D01*
X1970Y673D02*
X2028Y673D01*
X2070Y673D02*
X2128Y673D01*
X871Y672D02*
X928Y672D01*
X971Y672D02*
X1028Y672D01*
X1071Y672D02*
X1128Y672D01*
X1371Y672D02*
X1428Y672D01*
X1471Y672D02*
X1528Y672D01*
X1571Y672D02*
X1628Y672D01*
X1871Y672D02*
X1928Y672D01*
X1971Y672D02*
X2028Y672D01*
X2071Y672D02*
X2128Y672D01*
X871Y671D02*
X928Y671D01*
X971Y671D02*
X1028Y671D01*
X1071Y671D02*
X1128Y671D01*
X1371Y671D02*
X1428Y671D01*
X1471Y671D02*
X1528Y671D01*
X1571Y671D02*
X1628Y671D01*
X1871Y671D02*
X1928Y671D01*
X1971Y671D02*
X2028Y671D01*
X2071Y671D02*
X2128Y671D01*
X872Y670D02*
X928Y670D01*
X972Y670D02*
X1028Y670D01*
X1072Y670D02*
X1128Y670D01*
X1371Y670D02*
X1428Y670D01*
X1471Y670D02*
X1528Y670D01*
X1571Y670D02*
X1628Y670D01*
X1871Y670D02*
X1928Y670D01*
X1971Y670D02*
X2028Y670D01*
X2071Y670D02*
X2128Y670D01*
X872Y669D02*
X928Y669D01*
X972Y669D02*
X1028Y669D01*
X1072Y669D02*
X1128Y669D01*
X1372Y669D02*
X1427Y669D01*
X1472Y669D02*
X1527Y669D01*
X1572Y669D02*
X1627Y669D01*
X1872Y669D02*
X1927Y669D01*
X1972Y669D02*
X2027Y669D01*
X2072Y669D02*
X2127Y669D01*
X872Y668D02*
X927Y668D01*
X972Y668D02*
X1027Y668D01*
X1072Y668D02*
X1127Y668D01*
X1372Y668D02*
X1427Y668D01*
X1472Y668D02*
X1527Y668D01*
X1572Y668D02*
X1627Y668D01*
X1872Y668D02*
X1927Y668D01*
X1972Y668D02*
X2027Y668D01*
X2072Y668D02*
X2127Y668D01*
X873Y667D02*
X927Y667D01*
X973Y667D02*
X1027Y667D01*
X1073Y667D02*
X1127Y667D01*
X1372Y667D02*
X1427Y667D01*
X1472Y667D02*
X1527Y667D01*
X1572Y667D02*
X1627Y667D01*
X1872Y667D02*
X1927Y667D01*
X1972Y667D02*
X2027Y667D01*
X2072Y667D02*
X2127Y667D01*
X873Y666D02*
X926Y666D01*
X973Y666D02*
X1026Y666D01*
X1073Y666D02*
X1126Y666D01*
X1373Y666D02*
X1426Y666D01*
X1473Y666D02*
X1526Y666D01*
X1573Y666D02*
X1626Y666D01*
X1873Y666D02*
X1926Y666D01*
X1973Y666D02*
X2026Y666D01*
X2073Y666D02*
X2126Y666D01*
X874Y665D02*
X926Y665D01*
X974Y665D02*
X1026Y665D01*
X1074Y665D02*
X1126Y665D01*
X1373Y665D02*
X1426Y665D01*
X1473Y665D02*
X1526Y665D01*
X1573Y665D02*
X1626Y665D01*
X1873Y665D02*
X1926Y665D01*
X1973Y665D02*
X2026Y665D01*
X2073Y665D02*
X2126Y665D01*
X874Y664D02*
X925Y664D01*
X974Y664D02*
X1025Y664D01*
X1074Y664D02*
X1125Y664D01*
X1374Y664D02*
X1425Y664D01*
X1474Y664D02*
X1525Y664D01*
X1574Y664D02*
X1625Y664D01*
X1874Y664D02*
X1925Y664D01*
X1974Y664D02*
X2025Y664D01*
X2074Y664D02*
X2125Y664D01*
X875Y663D02*
X925Y663D01*
X975Y663D02*
X1025Y663D01*
X1075Y663D02*
X1125Y663D01*
X1375Y663D02*
X1425Y663D01*
X1475Y663D02*
X1525Y663D01*
X1575Y663D02*
X1625Y663D01*
X1874Y663D02*
X1924Y663D01*
X1974Y663D02*
X2024Y663D01*
X2074Y663D02*
X2124Y663D01*
X875Y662D02*
X924Y662D01*
X975Y662D02*
X1024Y662D01*
X1075Y662D02*
X1124Y662D01*
X1375Y662D02*
X1424Y662D01*
X1475Y662D02*
X1524Y662D01*
X1575Y662D02*
X1624Y662D01*
X1875Y662D02*
X1924Y662D01*
X1975Y662D02*
X2024Y662D01*
X2075Y662D02*
X2124Y662D01*
X876Y661D02*
X923Y661D01*
X976Y661D02*
X1023Y661D01*
X1076Y661D02*
X1123Y661D01*
X1376Y661D02*
X1423Y661D01*
X1476Y661D02*
X1523Y661D01*
X1576Y661D02*
X1623Y661D01*
X1876Y661D02*
X1923Y661D01*
X1976Y661D02*
X2023Y661D01*
X2076Y661D02*
X2123Y661D01*
X877Y660D02*
X923Y660D01*
X977Y660D02*
X1023Y660D01*
X1077Y660D02*
X1123Y660D01*
X1377Y660D02*
X1423Y660D01*
X1477Y660D02*
X1523Y660D01*
X1577Y660D02*
X1622Y660D01*
X1876Y660D02*
X1922Y660D01*
X1976Y660D02*
X2022Y660D01*
X2076Y660D02*
X2122Y660D01*
X878Y659D02*
X922Y659D01*
X978Y659D02*
X1022Y659D01*
X1078Y659D02*
X1122Y659D01*
X1378Y659D02*
X1422Y659D01*
X1477Y659D02*
X1522Y659D01*
X1577Y659D02*
X1622Y659D01*
X1877Y659D02*
X1922Y659D01*
X1977Y659D02*
X2022Y659D01*
X2077Y659D02*
X2121Y659D01*
X879Y658D02*
X921Y658D01*
X979Y658D02*
X1021Y658D01*
X1079Y658D02*
X1121Y658D01*
X1378Y658D02*
X1421Y658D01*
X1478Y658D02*
X1521Y658D01*
X1578Y658D02*
X1621Y658D01*
X1878Y658D02*
X1921Y658D01*
X1978Y658D02*
X2021Y658D01*
X2078Y658D02*
X2121Y658D01*
X880Y657D02*
X920Y657D01*
X980Y657D02*
X1020Y657D01*
X1080Y657D02*
X1120Y657D01*
X1379Y657D02*
X1420Y657D01*
X1479Y657D02*
X1520Y657D01*
X1579Y657D02*
X1620Y657D01*
X1879Y657D02*
X1920Y657D01*
X1979Y657D02*
X2020Y657D01*
X2079Y657D02*
X2120Y657D01*
X881Y656D02*
X919Y656D01*
X981Y656D02*
X1019Y656D01*
X1081Y656D02*
X1119Y656D01*
X1381Y656D02*
X1419Y656D01*
X1480Y656D02*
X1519Y656D01*
X1580Y656D02*
X1619Y656D01*
X1880Y656D02*
X1919Y656D01*
X1980Y656D02*
X2018Y656D01*
X2080Y656D02*
X2118Y656D01*
X882Y655D02*
X918Y655D01*
X982Y655D02*
X1018Y655D01*
X1082Y655D02*
X1118Y655D01*
X1382Y655D02*
X1417Y655D01*
X1482Y655D02*
X1517Y655D01*
X1582Y655D02*
X1617Y655D01*
X1882Y655D02*
X1917Y655D01*
X1982Y655D02*
X2017Y655D01*
X2082Y655D02*
X2117Y655D01*
X883Y654D02*
X916Y654D01*
X983Y654D02*
X1016Y654D01*
X1083Y654D02*
X1116Y654D01*
X1383Y654D02*
X1416Y654D01*
X1483Y654D02*
X1516Y654D01*
X1583Y654D02*
X1616Y654D01*
X1883Y654D02*
X1916Y654D01*
X1983Y654D02*
X2016Y654D01*
X2083Y654D02*
X2116Y654D01*
X885Y653D02*
X915Y653D01*
X985Y653D02*
X1015Y653D01*
X1085Y653D02*
X1115Y653D01*
X1385Y653D02*
X1415Y653D01*
X1485Y653D02*
X1515Y653D01*
X1585Y653D02*
X1614Y653D01*
X1885Y653D02*
X1914Y653D01*
X1984Y653D02*
X2014Y653D01*
X2084Y653D02*
X2114Y653D01*
X887Y652D02*
X913Y652D01*
X987Y652D02*
X1013Y652D01*
X1087Y652D02*
X1113Y652D01*
X1386Y652D02*
X1413Y652D01*
X1486Y652D02*
X1513Y652D01*
X1586Y652D02*
X1613Y652D01*
X1886Y652D02*
X1913Y652D01*
X1986Y652D02*
X2013Y652D01*
X2086Y652D02*
X2113Y652D01*
X889Y651D02*
X911Y651D01*
X989Y651D02*
X1011Y651D01*
X1089Y651D02*
X1111Y651D01*
X1389Y651D02*
X1411Y651D01*
X1489Y651D02*
X1511Y651D01*
X1589Y651D02*
X1611Y651D01*
X1888Y651D02*
X1910Y651D01*
X1988Y651D02*
X2010Y651D01*
X2088Y651D02*
X2110Y651D01*
X891Y650D02*
X908Y650D01*
X991Y650D02*
X1008Y650D01*
X1091Y650D02*
X1108Y650D01*
X1391Y650D02*
X1408Y650D01*
X1491Y650D02*
X1508Y650D01*
X1591Y650D02*
X1608Y650D01*
X1891Y650D02*
X1908Y650D01*
X1991Y650D02*
X2008Y650D01*
X2091Y650D02*
X2108Y650D01*
X896Y649D02*
X903Y649D01*
X996Y649D02*
X1003Y649D01*
X1096Y649D02*
X1103Y649D01*
X1396Y649D02*
X1403Y649D01*
X1496Y649D02*
X1503Y649D01*
X1596Y649D02*
X1603Y649D01*
X1896Y649D02*
X1903Y649D01*
X1996Y649D02*
X2003Y649D01*
X2096Y649D02*
X2103Y649D01*
D02*
G04 End of Copper0*
M02*