G04 MADE WITH FRITZING*
G04 WWW.FRITZING.ORG*
G04 DOUBLE SIDED*
G04 HOLES PLATED*
G04 CONTOUR ON CENTER OF CONTOUR VECTOR*
%ASAXBY*%
%FSLAX23Y23*%
%MOIN*%
%OFA0B0*%
%SFA1.0B1.0*%
%ADD10C,0.065118*%
%ADD11C,0.078740*%
%ADD12C,0.062222*%
%ADD13C,0.070000*%
%ADD14C,0.078000*%
%ADD15R,0.070000X0.069972*%
%ADD16R,0.078000X0.078000*%
%ADD17C,0.024000*%
%ADD18R,0.001000X0.001000*%
%LNCOPPER1*%
G90*
G70*
G54D10*
X1901Y707D03*
X2001Y707D03*
X2101Y707D03*
X1901Y707D03*
X2001Y707D03*
X2101Y707D03*
X1401Y707D03*
X1501Y707D03*
X1601Y707D03*
X1401Y707D03*
X1501Y707D03*
X1601Y707D03*
X901Y707D03*
X1001Y707D03*
X1101Y707D03*
X901Y707D03*
X1001Y707D03*
X1101Y707D03*
G54D11*
X201Y907D03*
X201Y1108D03*
G54D12*
X201Y1441D03*
X201Y1530D03*
X201Y1618D03*
X201Y1707D03*
G54D13*
X701Y1157D03*
X801Y1157D03*
X901Y1157D03*
X1001Y1157D03*
X1101Y1157D03*
X1201Y1157D03*
X1301Y1157D03*
X1401Y1157D03*
X1501Y1157D03*
X1601Y1157D03*
X1701Y1157D03*
X1801Y1157D03*
X1901Y1157D03*
X2001Y1157D03*
X2101Y1157D03*
X701Y1757D03*
X801Y1757D03*
X901Y1757D03*
X1001Y1757D03*
X1101Y1757D03*
X1201Y1757D03*
X1301Y1757D03*
X1401Y1757D03*
X1501Y1757D03*
X1601Y1757D03*
X1701Y1757D03*
X1801Y1757D03*
X1901Y1757D03*
X2001Y1757D03*
X2101Y1757D03*
G54D14*
X301Y207D03*
X501Y207D03*
X701Y207D03*
X1101Y207D03*
X1301Y207D03*
X1501Y207D03*
X1901Y207D03*
X2101Y207D03*
X2301Y207D03*
G54D15*
X701Y1157D03*
G54D16*
X301Y207D03*
X1101Y207D03*
X1901Y207D03*
G54D17*
X200Y506D02*
X201Y880D01*
D02*
X500Y507D02*
X502Y1508D01*
D02*
X500Y507D02*
X200Y506D01*
D02*
X1101Y506D02*
X200Y506D01*
D02*
X1001Y507D02*
X1001Y674D01*
D02*
X500Y507D02*
X1001Y507D01*
D02*
X800Y1508D02*
X801Y1728D01*
D02*
X200Y506D02*
X500Y507D01*
D02*
X502Y1508D02*
X800Y1508D01*
D02*
X1101Y237D02*
X1101Y506D01*
D02*
X2001Y507D02*
X2001Y674D01*
D02*
X1499Y507D02*
X2001Y507D01*
D02*
X1499Y507D02*
X1500Y674D01*
D02*
X1001Y507D02*
X1499Y507D01*
D02*
X1200Y907D02*
X900Y907D01*
D02*
X900Y907D02*
X900Y741D01*
D02*
X1200Y1128D02*
X1200Y907D01*
D02*
X1001Y507D02*
X1001Y674D01*
D02*
X301Y237D02*
X301Y506D01*
D02*
X301Y506D02*
X1001Y507D01*
D02*
X1499Y507D02*
X1500Y674D01*
D02*
X1901Y237D02*
X1901Y506D01*
D02*
X1901Y506D02*
X1499Y507D01*
D02*
X1900Y907D02*
X1499Y907D01*
D02*
X1499Y907D02*
X1500Y1128D01*
D02*
X1900Y741D02*
X1900Y907D01*
D02*
X1401Y741D02*
X1401Y1008D01*
D02*
X1401Y1008D02*
X1401Y1128D01*
D02*
X700Y1609D02*
X401Y1608D01*
D02*
X401Y1406D02*
X218Y1519D01*
D02*
X401Y1608D02*
X401Y1107D01*
D02*
X401Y1107D02*
X228Y1108D01*
D02*
X700Y1728D02*
X700Y1609D01*
D02*
X401Y1107D02*
X401Y1406D01*
G54D18*
X2426Y1806D02*
X2493Y1806D01*
X2425Y1805D02*
X2493Y1805D01*
X2424Y1804D02*
X2493Y1804D01*
X2546Y1804D02*
X2563Y1804D01*
X2424Y1803D02*
X2493Y1803D01*
X2544Y1803D02*
X2565Y1803D01*
X2424Y1802D02*
X2493Y1802D01*
X2543Y1802D02*
X2566Y1802D01*
X2424Y1801D02*
X2493Y1801D01*
X2542Y1801D02*
X2567Y1801D01*
X2424Y1800D02*
X2493Y1800D01*
X2541Y1800D02*
X2568Y1800D01*
X2425Y1799D02*
X2493Y1799D01*
X2540Y1799D02*
X2569Y1799D01*
X2427Y1798D02*
X2493Y1798D01*
X2539Y1798D02*
X2570Y1798D01*
X2462Y1797D02*
X2470Y1797D01*
X2485Y1797D02*
X2493Y1797D01*
X2538Y1797D02*
X2548Y1797D01*
X2561Y1797D02*
X2571Y1797D01*
X2462Y1796D02*
X2470Y1796D01*
X2485Y1796D02*
X2493Y1796D01*
X2537Y1796D02*
X2546Y1796D01*
X2562Y1796D02*
X2572Y1796D01*
X2462Y1795D02*
X2470Y1795D01*
X2485Y1795D02*
X2493Y1795D01*
X2536Y1795D02*
X2546Y1795D01*
X2563Y1795D02*
X2572Y1795D01*
X2462Y1794D02*
X2470Y1794D01*
X2485Y1794D02*
X2493Y1794D01*
X2536Y1794D02*
X2545Y1794D01*
X2564Y1794D02*
X2573Y1794D01*
X2462Y1793D02*
X2470Y1793D01*
X2485Y1793D02*
X2493Y1793D01*
X2535Y1793D02*
X2544Y1793D01*
X2565Y1793D02*
X2574Y1793D01*
X2462Y1792D02*
X2470Y1792D01*
X2485Y1792D02*
X2493Y1792D01*
X2534Y1792D02*
X2543Y1792D01*
X2566Y1792D02*
X2574Y1792D01*
X2461Y1791D02*
X2470Y1791D01*
X2485Y1791D02*
X2493Y1791D01*
X2534Y1791D02*
X2542Y1791D01*
X2567Y1791D02*
X2575Y1791D01*
X2459Y1790D02*
X2470Y1790D01*
X2485Y1790D02*
X2493Y1790D01*
X2534Y1790D02*
X2541Y1790D01*
X2567Y1790D02*
X2575Y1790D01*
X2457Y1789D02*
X2470Y1789D01*
X2485Y1789D02*
X2493Y1789D01*
X2534Y1789D02*
X2541Y1789D01*
X2568Y1789D02*
X2575Y1789D01*
X2456Y1788D02*
X2470Y1788D01*
X2485Y1788D02*
X2493Y1788D01*
X2533Y1788D02*
X2540Y1788D01*
X2569Y1788D02*
X2575Y1788D01*
X2454Y1787D02*
X2470Y1787D01*
X2485Y1787D02*
X2493Y1787D01*
X2533Y1787D02*
X2540Y1787D01*
X2569Y1787D02*
X2575Y1787D01*
X2452Y1786D02*
X2470Y1786D01*
X2485Y1786D02*
X2493Y1786D01*
X2533Y1786D02*
X2540Y1786D01*
X2569Y1786D02*
X2575Y1786D01*
X2451Y1785D02*
X2470Y1785D01*
X2485Y1785D02*
X2493Y1785D01*
X2533Y1785D02*
X2540Y1785D01*
X2569Y1785D02*
X2575Y1785D01*
X2449Y1784D02*
X2470Y1784D01*
X2485Y1784D02*
X2493Y1784D01*
X2533Y1784D02*
X2540Y1784D01*
X2569Y1784D02*
X2575Y1784D01*
X2447Y1783D02*
X2470Y1783D01*
X2485Y1783D02*
X2493Y1783D01*
X2533Y1783D02*
X2540Y1783D01*
X2569Y1783D02*
X2575Y1783D01*
X2445Y1782D02*
X2470Y1782D01*
X2485Y1782D02*
X2493Y1782D01*
X2533Y1782D02*
X2540Y1782D01*
X2569Y1782D02*
X2575Y1782D01*
X2444Y1781D02*
X2470Y1781D01*
X2485Y1781D02*
X2493Y1781D01*
X2533Y1781D02*
X2540Y1781D01*
X2569Y1781D02*
X2575Y1781D01*
X2442Y1780D02*
X2459Y1780D01*
X2462Y1780D02*
X2470Y1780D01*
X2485Y1780D02*
X2493Y1780D01*
X2533Y1780D02*
X2540Y1780D01*
X2569Y1780D02*
X2575Y1780D01*
X2440Y1779D02*
X2458Y1779D01*
X2462Y1779D02*
X2470Y1779D01*
X2485Y1779D02*
X2493Y1779D01*
X2533Y1779D02*
X2540Y1779D01*
X2569Y1779D02*
X2575Y1779D01*
X2439Y1778D02*
X2456Y1778D01*
X2462Y1778D02*
X2470Y1778D01*
X2485Y1778D02*
X2493Y1778D01*
X2533Y1778D02*
X2540Y1778D01*
X2569Y1778D02*
X2575Y1778D01*
X2437Y1777D02*
X2454Y1777D01*
X2462Y1777D02*
X2470Y1777D01*
X2485Y1777D02*
X2493Y1777D01*
X2533Y1777D02*
X2540Y1777D01*
X2569Y1777D02*
X2575Y1777D01*
X2435Y1776D02*
X2452Y1776D01*
X2462Y1776D02*
X2470Y1776D01*
X2485Y1776D02*
X2493Y1776D01*
X2533Y1776D02*
X2540Y1776D01*
X2569Y1776D02*
X2575Y1776D01*
X2433Y1775D02*
X2451Y1775D01*
X2462Y1775D02*
X2470Y1775D01*
X2485Y1775D02*
X2493Y1775D01*
X2533Y1775D02*
X2540Y1775D01*
X2569Y1775D02*
X2575Y1775D01*
X2432Y1774D02*
X2449Y1774D01*
X2462Y1774D02*
X2470Y1774D01*
X2484Y1774D02*
X2493Y1774D01*
X2533Y1774D02*
X2540Y1774D01*
X2569Y1774D02*
X2575Y1774D01*
X2430Y1773D02*
X2447Y1773D01*
X2462Y1773D02*
X2471Y1773D01*
X2484Y1773D02*
X2492Y1773D01*
X2533Y1773D02*
X2540Y1773D01*
X2569Y1773D02*
X2575Y1773D01*
X2428Y1772D02*
X2446Y1772D01*
X2462Y1772D02*
X2472Y1772D01*
X2483Y1772D02*
X2492Y1772D01*
X2533Y1772D02*
X2540Y1772D01*
X2569Y1772D02*
X2575Y1772D01*
X2427Y1771D02*
X2444Y1771D01*
X2463Y1771D02*
X2492Y1771D01*
X2533Y1771D02*
X2540Y1771D01*
X2569Y1771D02*
X2575Y1771D01*
X2425Y1770D02*
X2442Y1770D01*
X2463Y1770D02*
X2491Y1770D01*
X2534Y1770D02*
X2540Y1770D01*
X2569Y1770D02*
X2575Y1770D01*
X2424Y1769D02*
X2440Y1769D01*
X2464Y1769D02*
X2491Y1769D01*
X2534Y1769D02*
X2539Y1769D01*
X2569Y1769D02*
X2575Y1769D01*
X2424Y1768D02*
X2439Y1768D01*
X2464Y1768D02*
X2490Y1768D01*
X2535Y1768D02*
X2538Y1768D01*
X2570Y1768D02*
X2574Y1768D01*
X2424Y1767D02*
X2437Y1767D01*
X2465Y1767D02*
X2489Y1767D01*
X2424Y1766D02*
X2435Y1766D01*
X2466Y1766D02*
X2489Y1766D01*
X2424Y1765D02*
X2434Y1765D01*
X2467Y1765D02*
X2487Y1765D01*
X2424Y1764D02*
X2432Y1764D01*
X2468Y1764D02*
X2486Y1764D01*
X2425Y1763D02*
X2430Y1763D01*
X2470Y1763D02*
X2484Y1763D01*
X2476Y1762D02*
X2479Y1762D01*
X2544Y1750D02*
X2565Y1750D01*
X2541Y1749D02*
X2567Y1749D01*
X2540Y1748D02*
X2569Y1748D01*
X2539Y1747D02*
X2570Y1747D01*
X2538Y1746D02*
X2571Y1746D01*
X2537Y1745D02*
X2572Y1745D01*
X2536Y1744D02*
X2572Y1744D01*
X2536Y1743D02*
X2573Y1743D01*
X2535Y1742D02*
X2544Y1742D01*
X2565Y1742D02*
X2574Y1742D01*
X2434Y1741D02*
X2464Y1741D01*
X2534Y1741D02*
X2543Y1741D01*
X2566Y1741D02*
X2574Y1741D01*
X2431Y1740D02*
X2468Y1740D01*
X2534Y1740D02*
X2542Y1740D01*
X2567Y1740D02*
X2575Y1740D01*
X2430Y1739D02*
X2470Y1739D01*
X2534Y1739D02*
X2541Y1739D01*
X2568Y1739D02*
X2575Y1739D01*
X2428Y1738D02*
X2471Y1738D01*
X2534Y1738D02*
X2540Y1738D01*
X2568Y1738D02*
X2575Y1738D01*
X2427Y1737D02*
X2472Y1737D01*
X2533Y1737D02*
X2540Y1737D01*
X2569Y1737D02*
X2575Y1737D01*
X2426Y1736D02*
X2474Y1736D01*
X2533Y1736D02*
X2540Y1736D01*
X2569Y1736D02*
X2575Y1736D01*
X2426Y1735D02*
X2475Y1735D01*
X2533Y1735D02*
X2540Y1735D01*
X2569Y1735D02*
X2575Y1735D01*
X2425Y1734D02*
X2476Y1734D01*
X2533Y1734D02*
X2540Y1734D01*
X2569Y1734D02*
X2575Y1734D01*
X2425Y1733D02*
X2478Y1733D01*
X2533Y1733D02*
X2540Y1733D01*
X2569Y1733D02*
X2575Y1733D01*
X2424Y1732D02*
X2435Y1732D01*
X2464Y1732D02*
X2479Y1732D01*
X2533Y1732D02*
X2540Y1732D01*
X2569Y1732D02*
X2575Y1732D01*
X2424Y1731D02*
X2433Y1731D01*
X2466Y1731D02*
X2480Y1731D01*
X2533Y1731D02*
X2540Y1731D01*
X2569Y1731D02*
X2575Y1731D01*
X2424Y1730D02*
X2432Y1730D01*
X2468Y1730D02*
X2482Y1730D01*
X2533Y1730D02*
X2540Y1730D01*
X2569Y1730D02*
X2575Y1730D01*
X2424Y1729D02*
X2432Y1729D01*
X2469Y1729D02*
X2483Y1729D01*
X2533Y1729D02*
X2540Y1729D01*
X2569Y1729D02*
X2575Y1729D01*
X2424Y1728D02*
X2432Y1728D01*
X2470Y1728D02*
X2484Y1728D01*
X2533Y1728D02*
X2540Y1728D01*
X2569Y1728D02*
X2575Y1728D01*
X2424Y1727D02*
X2432Y1727D01*
X2472Y1727D02*
X2485Y1727D01*
X2533Y1727D02*
X2540Y1727D01*
X2569Y1727D02*
X2575Y1727D01*
X2424Y1726D02*
X2432Y1726D01*
X2473Y1726D02*
X2487Y1726D01*
X2533Y1726D02*
X2540Y1726D01*
X2569Y1726D02*
X2575Y1726D01*
X2424Y1725D02*
X2432Y1725D01*
X2474Y1725D02*
X2488Y1725D01*
X2534Y1725D02*
X2541Y1725D01*
X2568Y1725D02*
X2575Y1725D01*
X2424Y1724D02*
X2432Y1724D01*
X2475Y1724D02*
X2489Y1724D01*
X2534Y1724D02*
X2541Y1724D01*
X2568Y1724D02*
X2575Y1724D01*
X2424Y1723D02*
X2432Y1723D01*
X2477Y1723D02*
X2490Y1723D01*
X2534Y1723D02*
X2542Y1723D01*
X2567Y1723D02*
X2575Y1723D01*
X2424Y1722D02*
X2432Y1722D01*
X2478Y1722D02*
X2491Y1722D01*
X2535Y1722D02*
X2543Y1722D01*
X2566Y1722D02*
X2574Y1722D01*
X2424Y1721D02*
X2432Y1721D01*
X2479Y1721D02*
X2491Y1721D01*
X2535Y1721D02*
X2544Y1721D01*
X2565Y1721D02*
X2574Y1721D01*
X2424Y1720D02*
X2432Y1720D01*
X2481Y1720D02*
X2492Y1720D01*
X2536Y1720D02*
X2573Y1720D01*
X2424Y1719D02*
X2432Y1719D01*
X2482Y1719D02*
X2492Y1719D01*
X2537Y1719D02*
X2572Y1719D01*
X2424Y1718D02*
X2432Y1718D01*
X2448Y1718D02*
X2453Y1718D01*
X2483Y1718D02*
X2492Y1718D01*
X2537Y1718D02*
X2571Y1718D01*
X2424Y1717D02*
X2432Y1717D01*
X2447Y1717D02*
X2454Y1717D01*
X2484Y1717D02*
X2492Y1717D01*
X2538Y1717D02*
X2570Y1717D01*
X2424Y1716D02*
X2432Y1716D01*
X2447Y1716D02*
X2454Y1716D01*
X2484Y1716D02*
X2493Y1716D01*
X2539Y1716D02*
X2569Y1716D01*
X2424Y1715D02*
X2432Y1715D01*
X2447Y1715D02*
X2455Y1715D01*
X2485Y1715D02*
X2493Y1715D01*
X2541Y1715D02*
X2568Y1715D01*
X2424Y1714D02*
X2432Y1714D01*
X2447Y1714D02*
X2455Y1714D01*
X2485Y1714D02*
X2493Y1714D01*
X2542Y1714D02*
X2567Y1714D01*
X2424Y1713D02*
X2432Y1713D01*
X2447Y1713D02*
X2455Y1713D01*
X2485Y1713D02*
X2493Y1713D01*
X2545Y1713D02*
X2564Y1713D01*
X2424Y1712D02*
X2432Y1712D01*
X2447Y1712D02*
X2455Y1712D01*
X2485Y1712D02*
X2493Y1712D01*
X2424Y1711D02*
X2432Y1711D01*
X2447Y1711D02*
X2455Y1711D01*
X2485Y1711D02*
X2493Y1711D01*
X2424Y1710D02*
X2432Y1710D01*
X2447Y1710D02*
X2455Y1710D01*
X2485Y1710D02*
X2493Y1710D01*
X2424Y1709D02*
X2432Y1709D01*
X2447Y1709D02*
X2455Y1709D01*
X2485Y1709D02*
X2493Y1709D01*
X2424Y1708D02*
X2432Y1708D01*
X2447Y1708D02*
X2455Y1708D01*
X2485Y1708D02*
X2493Y1708D01*
X2424Y1707D02*
X2433Y1707D01*
X2447Y1707D02*
X2455Y1707D01*
X2485Y1707D02*
X2493Y1707D01*
X2424Y1706D02*
X2435Y1706D01*
X2446Y1706D02*
X2455Y1706D01*
X2485Y1706D02*
X2493Y1706D01*
X2425Y1705D02*
X2455Y1705D01*
X2485Y1705D02*
X2493Y1705D01*
X2425Y1704D02*
X2455Y1704D01*
X2485Y1704D02*
X2493Y1704D01*
X2426Y1703D02*
X2455Y1703D01*
X2485Y1703D02*
X2493Y1703D01*
X2427Y1702D02*
X2455Y1702D01*
X2485Y1702D02*
X2493Y1702D01*
X2427Y1701D02*
X2455Y1701D01*
X2485Y1701D02*
X2493Y1701D01*
X2428Y1700D02*
X2455Y1700D01*
X2485Y1700D02*
X2493Y1700D01*
X2430Y1699D02*
X2455Y1699D01*
X2485Y1699D02*
X2492Y1699D01*
X2431Y1698D02*
X2455Y1698D01*
X2486Y1698D02*
X2491Y1698D01*
X2434Y1697D02*
X2455Y1697D01*
X2487Y1697D02*
X2490Y1697D01*
X2535Y1695D02*
X2574Y1695D01*
X2534Y1694D02*
X2575Y1694D01*
X2534Y1693D02*
X2575Y1693D01*
X2533Y1692D02*
X2575Y1692D01*
X2534Y1691D02*
X2575Y1691D01*
X2534Y1690D02*
X2575Y1690D01*
X2535Y1689D02*
X2574Y1689D01*
X2558Y1688D02*
X2567Y1688D01*
X2559Y1687D02*
X2568Y1687D01*
X2560Y1686D02*
X2569Y1686D01*
X2561Y1685D02*
X2570Y1685D01*
X2562Y1684D02*
X2571Y1684D01*
X2562Y1683D02*
X2572Y1683D01*
X2563Y1682D02*
X2572Y1682D01*
X2564Y1681D02*
X2573Y1681D01*
X2565Y1680D02*
X2574Y1680D01*
X2566Y1679D02*
X2575Y1679D01*
X2567Y1678D02*
X2575Y1678D01*
X2568Y1677D02*
X2575Y1677D01*
X2568Y1676D02*
X2575Y1676D01*
X2424Y1675D02*
X2493Y1675D01*
X2569Y1675D02*
X2575Y1675D01*
X2424Y1674D02*
X2493Y1674D01*
X2569Y1674D02*
X2575Y1674D01*
X2424Y1673D02*
X2493Y1673D01*
X2569Y1673D02*
X2575Y1673D01*
X2424Y1672D02*
X2493Y1672D01*
X2569Y1672D02*
X2575Y1672D01*
X2424Y1671D02*
X2493Y1671D01*
X2569Y1671D02*
X2575Y1671D01*
X2424Y1670D02*
X2493Y1670D01*
X2569Y1670D02*
X2575Y1670D01*
X2424Y1669D02*
X2493Y1669D01*
X2569Y1669D02*
X2575Y1669D01*
X2424Y1668D02*
X2493Y1668D01*
X2568Y1668D02*
X2575Y1668D01*
X2424Y1667D02*
X2493Y1667D01*
X2568Y1667D02*
X2575Y1667D01*
X2424Y1666D02*
X2432Y1666D01*
X2454Y1666D02*
X2462Y1666D01*
X2485Y1666D02*
X2493Y1666D01*
X2565Y1666D02*
X2575Y1666D01*
X2424Y1665D02*
X2432Y1665D01*
X2454Y1665D02*
X2462Y1665D01*
X2485Y1665D02*
X2493Y1665D01*
X2560Y1665D02*
X2574Y1665D01*
X2424Y1664D02*
X2432Y1664D01*
X2454Y1664D02*
X2462Y1664D01*
X2485Y1664D02*
X2493Y1664D01*
X2560Y1664D02*
X2574Y1664D01*
X2424Y1663D02*
X2432Y1663D01*
X2454Y1663D02*
X2462Y1663D01*
X2485Y1663D02*
X2493Y1663D01*
X2559Y1663D02*
X2573Y1663D01*
X2424Y1662D02*
X2432Y1662D01*
X2454Y1662D02*
X2462Y1662D01*
X2485Y1662D02*
X2493Y1662D01*
X2559Y1662D02*
X2572Y1662D01*
X2424Y1661D02*
X2432Y1661D01*
X2454Y1661D02*
X2462Y1661D01*
X2485Y1661D02*
X2493Y1661D01*
X2559Y1661D02*
X2571Y1661D01*
X2424Y1660D02*
X2432Y1660D01*
X2454Y1660D02*
X2462Y1660D01*
X2485Y1660D02*
X2493Y1660D01*
X2560Y1660D02*
X2570Y1660D01*
X2424Y1659D02*
X2432Y1659D01*
X2454Y1659D02*
X2462Y1659D01*
X2485Y1659D02*
X2493Y1659D01*
X2561Y1659D02*
X2568Y1659D01*
X2424Y1658D02*
X2432Y1658D01*
X2454Y1658D02*
X2462Y1658D01*
X2485Y1658D02*
X2493Y1658D01*
X2424Y1657D02*
X2432Y1657D01*
X2454Y1657D02*
X2462Y1657D01*
X2485Y1657D02*
X2493Y1657D01*
X2424Y1656D02*
X2432Y1656D01*
X2454Y1656D02*
X2462Y1656D01*
X2485Y1656D02*
X2493Y1656D01*
X2424Y1655D02*
X2432Y1655D01*
X2454Y1655D02*
X2462Y1655D01*
X2485Y1655D02*
X2493Y1655D01*
X2424Y1654D02*
X2432Y1654D01*
X2454Y1654D02*
X2462Y1654D01*
X2485Y1654D02*
X2493Y1654D01*
X2424Y1653D02*
X2432Y1653D01*
X2454Y1653D02*
X2462Y1653D01*
X2485Y1653D02*
X2493Y1653D01*
X2424Y1652D02*
X2432Y1652D01*
X2454Y1652D02*
X2462Y1652D01*
X2485Y1652D02*
X2493Y1652D01*
X2424Y1651D02*
X2432Y1651D01*
X2454Y1651D02*
X2462Y1651D01*
X2485Y1651D02*
X2493Y1651D01*
X2424Y1650D02*
X2432Y1650D01*
X2454Y1650D02*
X2462Y1650D01*
X2485Y1650D02*
X2493Y1650D01*
X2424Y1649D02*
X2432Y1649D01*
X2454Y1649D02*
X2462Y1649D01*
X2485Y1649D02*
X2493Y1649D01*
X2424Y1648D02*
X2432Y1648D01*
X2454Y1648D02*
X2462Y1648D01*
X2485Y1648D02*
X2493Y1648D01*
X2424Y1647D02*
X2432Y1647D01*
X2454Y1647D02*
X2463Y1647D01*
X2484Y1647D02*
X2493Y1647D01*
X2424Y1646D02*
X2432Y1646D01*
X2453Y1646D02*
X2463Y1646D01*
X2484Y1646D02*
X2492Y1646D01*
X2424Y1645D02*
X2433Y1645D01*
X2453Y1645D02*
X2463Y1645D01*
X2483Y1645D02*
X2492Y1645D01*
X2424Y1644D02*
X2434Y1644D01*
X2452Y1644D02*
X2464Y1644D01*
X2483Y1644D02*
X2492Y1644D01*
X2425Y1643D02*
X2434Y1643D01*
X2451Y1643D02*
X2465Y1643D01*
X2482Y1643D02*
X2492Y1643D01*
X2425Y1642D02*
X2436Y1642D01*
X2450Y1642D02*
X2466Y1642D01*
X2481Y1642D02*
X2491Y1642D01*
X2426Y1641D02*
X2437Y1641D01*
X2449Y1641D02*
X2468Y1641D01*
X2479Y1641D02*
X2491Y1641D01*
X2544Y1641D02*
X2565Y1641D01*
X2426Y1640D02*
X2490Y1640D01*
X2541Y1640D02*
X2567Y1640D01*
X2427Y1639D02*
X2489Y1639D01*
X2540Y1639D02*
X2569Y1639D01*
X2428Y1638D02*
X2489Y1638D01*
X2539Y1638D02*
X2570Y1638D01*
X2429Y1637D02*
X2457Y1637D01*
X2459Y1637D02*
X2488Y1637D01*
X2538Y1637D02*
X2571Y1637D01*
X2430Y1636D02*
X2456Y1636D01*
X2460Y1636D02*
X2487Y1636D01*
X2537Y1636D02*
X2572Y1636D01*
X2431Y1635D02*
X2455Y1635D01*
X2461Y1635D02*
X2485Y1635D01*
X2536Y1635D02*
X2572Y1635D01*
X2432Y1634D02*
X2454Y1634D01*
X2463Y1634D02*
X2484Y1634D01*
X2535Y1634D02*
X2573Y1634D01*
X2434Y1633D02*
X2452Y1633D01*
X2464Y1633D02*
X2482Y1633D01*
X2535Y1633D02*
X2544Y1633D01*
X2549Y1633D02*
X2556Y1633D01*
X2565Y1633D02*
X2574Y1633D01*
X2437Y1632D02*
X2449Y1632D01*
X2467Y1632D02*
X2480Y1632D01*
X2534Y1632D02*
X2543Y1632D01*
X2549Y1632D02*
X2556Y1632D01*
X2566Y1632D02*
X2574Y1632D01*
X2534Y1631D02*
X2542Y1631D01*
X2549Y1631D02*
X2556Y1631D01*
X2567Y1631D02*
X2575Y1631D01*
X2534Y1630D02*
X2541Y1630D01*
X2549Y1630D02*
X2556Y1630D01*
X2568Y1630D02*
X2575Y1630D01*
X2533Y1629D02*
X2540Y1629D01*
X2549Y1629D02*
X2556Y1629D01*
X2568Y1629D02*
X2575Y1629D01*
X2533Y1628D02*
X2540Y1628D01*
X2549Y1628D02*
X2556Y1628D01*
X2569Y1628D02*
X2575Y1628D01*
X2533Y1627D02*
X2540Y1627D01*
X2549Y1627D02*
X2556Y1627D01*
X2569Y1627D02*
X2575Y1627D01*
X2533Y1626D02*
X2540Y1626D01*
X2549Y1626D02*
X2556Y1626D01*
X2569Y1626D02*
X2575Y1626D01*
X2533Y1625D02*
X2540Y1625D01*
X2549Y1625D02*
X2556Y1625D01*
X2569Y1625D02*
X2575Y1625D01*
X2533Y1624D02*
X2540Y1624D01*
X2549Y1624D02*
X2556Y1624D01*
X2569Y1624D02*
X2575Y1624D01*
X2533Y1623D02*
X2540Y1623D01*
X2549Y1623D02*
X2556Y1623D01*
X2569Y1623D02*
X2575Y1623D01*
X2533Y1622D02*
X2540Y1622D01*
X2549Y1622D02*
X2556Y1622D01*
X2569Y1622D02*
X2575Y1622D01*
X2533Y1621D02*
X2540Y1621D01*
X2549Y1621D02*
X2556Y1621D01*
X2569Y1621D02*
X2575Y1621D01*
X2533Y1620D02*
X2540Y1620D01*
X2549Y1620D02*
X2556Y1620D01*
X2569Y1620D02*
X2575Y1620D01*
X2533Y1619D02*
X2540Y1619D01*
X2549Y1619D02*
X2556Y1619D01*
X2569Y1619D02*
X2575Y1619D01*
X2533Y1618D02*
X2540Y1618D01*
X2549Y1618D02*
X2556Y1618D01*
X2569Y1618D02*
X2575Y1618D01*
X2533Y1617D02*
X2540Y1617D01*
X2549Y1617D02*
X2556Y1617D01*
X2569Y1617D02*
X2575Y1617D01*
X2533Y1616D02*
X2540Y1616D01*
X2549Y1616D02*
X2556Y1616D01*
X2568Y1616D02*
X2575Y1616D01*
X2533Y1615D02*
X2540Y1615D01*
X2549Y1615D02*
X2556Y1615D01*
X2568Y1615D02*
X2575Y1615D01*
X2533Y1614D02*
X2540Y1614D01*
X2549Y1614D02*
X2556Y1614D01*
X2567Y1614D02*
X2575Y1614D01*
X2533Y1613D02*
X2540Y1613D01*
X2549Y1613D02*
X2556Y1613D01*
X2566Y1613D02*
X2574Y1613D01*
X2533Y1612D02*
X2540Y1612D01*
X2549Y1612D02*
X2556Y1612D01*
X2565Y1612D02*
X2574Y1612D01*
X2533Y1611D02*
X2540Y1611D01*
X2549Y1611D02*
X2573Y1611D01*
X2533Y1610D02*
X2540Y1610D01*
X2549Y1610D02*
X2572Y1610D01*
X2533Y1609D02*
X2540Y1609D01*
X2549Y1609D02*
X2571Y1609D01*
X2533Y1608D02*
X2540Y1608D01*
X2549Y1608D02*
X2570Y1608D01*
X2533Y1607D02*
X2540Y1607D01*
X2550Y1607D02*
X2569Y1607D01*
X2534Y1606D02*
X2540Y1606D01*
X2550Y1606D02*
X2568Y1606D01*
X2535Y1605D02*
X2539Y1605D01*
X2551Y1605D02*
X2567Y1605D01*
X2536Y1604D02*
X2537Y1604D01*
X2552Y1604D02*
X2564Y1604D01*
X2542Y1586D02*
X2566Y1586D01*
X2541Y1585D02*
X2568Y1585D01*
X2539Y1584D02*
X2569Y1584D01*
X2538Y1583D02*
X2570Y1583D01*
X2538Y1582D02*
X2571Y1582D01*
X2537Y1581D02*
X2572Y1581D01*
X2536Y1580D02*
X2573Y1580D01*
X2535Y1579D02*
X2545Y1579D01*
X2564Y1579D02*
X2574Y1579D01*
X2535Y1578D02*
X2543Y1578D01*
X2565Y1578D02*
X2574Y1578D01*
X2534Y1577D02*
X2542Y1577D01*
X2566Y1577D02*
X2575Y1577D01*
X2534Y1576D02*
X2541Y1576D01*
X2567Y1576D02*
X2575Y1576D01*
X2534Y1575D02*
X2541Y1575D01*
X2568Y1575D02*
X2575Y1575D01*
X2533Y1574D02*
X2540Y1574D01*
X2569Y1574D02*
X2575Y1574D01*
X2533Y1573D02*
X2540Y1573D01*
X2569Y1573D02*
X2575Y1573D01*
X2533Y1572D02*
X2540Y1572D01*
X2569Y1572D02*
X2575Y1572D01*
X2533Y1571D02*
X2540Y1571D01*
X2569Y1571D02*
X2575Y1571D01*
X2533Y1570D02*
X2540Y1570D01*
X2569Y1570D02*
X2575Y1570D01*
X2533Y1569D02*
X2540Y1569D01*
X2569Y1569D02*
X2575Y1569D01*
X2533Y1568D02*
X2540Y1568D01*
X2569Y1568D02*
X2575Y1568D01*
X2533Y1567D02*
X2540Y1567D01*
X2569Y1567D02*
X2575Y1567D01*
X2533Y1566D02*
X2540Y1566D01*
X2568Y1566D02*
X2575Y1566D01*
X2534Y1565D02*
X2541Y1565D01*
X2568Y1565D02*
X2575Y1565D01*
X2534Y1564D02*
X2542Y1564D01*
X2567Y1564D02*
X2575Y1564D01*
X2534Y1563D02*
X2542Y1563D01*
X2566Y1563D02*
X2575Y1563D01*
X2535Y1562D02*
X2543Y1562D01*
X2565Y1562D02*
X2574Y1562D01*
X2535Y1561D02*
X2544Y1561D01*
X2565Y1561D02*
X2573Y1561D01*
X2536Y1560D02*
X2545Y1560D01*
X2564Y1560D02*
X2573Y1560D01*
X2537Y1559D02*
X2546Y1559D01*
X2563Y1559D02*
X2572Y1559D01*
X2537Y1558D02*
X2547Y1558D01*
X2562Y1558D02*
X2571Y1558D01*
X2538Y1557D02*
X2549Y1557D01*
X2560Y1557D02*
X2571Y1557D01*
X2535Y1556D02*
X2590Y1556D01*
X2534Y1555D02*
X2591Y1555D01*
X2534Y1554D02*
X2591Y1554D01*
X2533Y1553D02*
X2591Y1553D01*
X2534Y1552D02*
X2591Y1552D01*
X2534Y1551D02*
X2591Y1551D01*
X2535Y1550D02*
X2590Y1550D01*
X2424Y1545D02*
X2489Y1545D01*
X2424Y1544D02*
X2491Y1544D01*
X2424Y1543D02*
X2492Y1543D01*
X2424Y1542D02*
X2492Y1542D01*
X2424Y1541D02*
X2493Y1541D01*
X2424Y1540D02*
X2493Y1540D01*
X2424Y1539D02*
X2492Y1539D01*
X2424Y1538D02*
X2492Y1538D01*
X2424Y1537D02*
X2491Y1537D01*
X2424Y1536D02*
X2432Y1536D01*
X2424Y1535D02*
X2432Y1535D01*
X2424Y1534D02*
X2432Y1534D01*
X2424Y1533D02*
X2432Y1533D01*
X2424Y1532D02*
X2432Y1532D01*
X2424Y1531D02*
X2432Y1531D01*
X2540Y1531D02*
X2574Y1531D01*
X2424Y1530D02*
X2432Y1530D01*
X2538Y1530D02*
X2575Y1530D01*
X2424Y1529D02*
X2432Y1529D01*
X2537Y1529D02*
X2575Y1529D01*
X2424Y1528D02*
X2432Y1528D01*
X2536Y1528D02*
X2575Y1528D01*
X2424Y1527D02*
X2432Y1527D01*
X2535Y1527D02*
X2575Y1527D01*
X2424Y1526D02*
X2432Y1526D01*
X2535Y1526D02*
X2575Y1526D01*
X2424Y1525D02*
X2432Y1525D01*
X2534Y1525D02*
X2573Y1525D01*
X2424Y1524D02*
X2432Y1524D01*
X2534Y1524D02*
X2542Y1524D01*
X2424Y1523D02*
X2432Y1523D01*
X2534Y1523D02*
X2541Y1523D01*
X2424Y1522D02*
X2432Y1522D01*
X2534Y1522D02*
X2540Y1522D01*
X2424Y1521D02*
X2432Y1521D01*
X2533Y1521D02*
X2540Y1521D01*
X2424Y1520D02*
X2432Y1520D01*
X2533Y1520D02*
X2540Y1520D01*
X2424Y1519D02*
X2432Y1519D01*
X2533Y1519D02*
X2540Y1519D01*
X2424Y1518D02*
X2432Y1518D01*
X2533Y1518D02*
X2540Y1518D01*
X2424Y1517D02*
X2432Y1517D01*
X2533Y1517D02*
X2540Y1517D01*
X2424Y1516D02*
X2432Y1516D01*
X2533Y1516D02*
X2540Y1516D01*
X2424Y1515D02*
X2432Y1515D01*
X2533Y1515D02*
X2540Y1515D01*
X2424Y1514D02*
X2432Y1514D01*
X2534Y1514D02*
X2541Y1514D01*
X2424Y1513D02*
X2432Y1513D01*
X2534Y1513D02*
X2541Y1513D01*
X2424Y1512D02*
X2432Y1512D01*
X2534Y1512D02*
X2542Y1512D01*
X2424Y1511D02*
X2432Y1511D01*
X2535Y1511D02*
X2542Y1511D01*
X2424Y1510D02*
X2432Y1510D01*
X2535Y1510D02*
X2543Y1510D01*
X2424Y1509D02*
X2432Y1509D01*
X2536Y1509D02*
X2544Y1509D01*
X2424Y1508D02*
X2432Y1508D01*
X2536Y1508D02*
X2544Y1508D01*
X2424Y1507D02*
X2432Y1507D01*
X2537Y1507D02*
X2545Y1507D01*
X2424Y1506D02*
X2432Y1506D01*
X2538Y1506D02*
X2546Y1506D01*
X2424Y1505D02*
X2432Y1505D01*
X2538Y1505D02*
X2546Y1505D01*
X2424Y1504D02*
X2431Y1504D01*
X2539Y1504D02*
X2547Y1504D01*
X2424Y1503D02*
X2431Y1503D01*
X2540Y1503D02*
X2548Y1503D01*
X2425Y1502D02*
X2430Y1502D01*
X2536Y1502D02*
X2573Y1502D01*
X2426Y1501D02*
X2429Y1501D01*
X2534Y1501D02*
X2574Y1501D01*
X2534Y1500D02*
X2575Y1500D01*
X2533Y1499D02*
X2575Y1499D01*
X2533Y1498D02*
X2575Y1498D01*
X2534Y1497D02*
X2575Y1497D01*
X2535Y1496D02*
X2574Y1496D01*
X2536Y1495D02*
X2573Y1495D01*
X2424Y1479D02*
X2493Y1479D01*
X2424Y1478D02*
X2493Y1478D01*
X2535Y1478D02*
X2573Y1478D01*
X2424Y1477D02*
X2493Y1477D01*
X2534Y1477D02*
X2575Y1477D01*
X2424Y1476D02*
X2493Y1476D01*
X2534Y1476D02*
X2575Y1476D01*
X2424Y1475D02*
X2493Y1475D01*
X2533Y1475D02*
X2575Y1475D01*
X2424Y1474D02*
X2493Y1474D01*
X2534Y1474D02*
X2575Y1474D01*
X2424Y1473D02*
X2493Y1473D01*
X2534Y1473D02*
X2575Y1473D01*
X2424Y1472D02*
X2493Y1472D01*
X2535Y1472D02*
X2574Y1472D01*
X2424Y1471D02*
X2493Y1471D01*
X2537Y1471D02*
X2573Y1471D01*
X2424Y1470D02*
X2432Y1470D01*
X2454Y1470D02*
X2462Y1470D01*
X2485Y1470D02*
X2493Y1470D01*
X2565Y1470D02*
X2574Y1470D01*
X2424Y1469D02*
X2432Y1469D01*
X2454Y1469D02*
X2462Y1469D01*
X2485Y1469D02*
X2493Y1469D01*
X2565Y1469D02*
X2574Y1469D01*
X2424Y1468D02*
X2432Y1468D01*
X2454Y1468D02*
X2462Y1468D01*
X2485Y1468D02*
X2493Y1468D01*
X2566Y1468D02*
X2575Y1468D01*
X2424Y1467D02*
X2432Y1467D01*
X2454Y1467D02*
X2462Y1467D01*
X2485Y1467D02*
X2493Y1467D01*
X2567Y1467D02*
X2575Y1467D01*
X2424Y1466D02*
X2432Y1466D01*
X2454Y1466D02*
X2462Y1466D01*
X2485Y1466D02*
X2493Y1466D01*
X2568Y1466D02*
X2575Y1466D01*
X2424Y1465D02*
X2432Y1465D01*
X2454Y1465D02*
X2462Y1465D01*
X2485Y1465D02*
X2493Y1465D01*
X2569Y1465D02*
X2575Y1465D01*
X2424Y1464D02*
X2432Y1464D01*
X2454Y1464D02*
X2462Y1464D01*
X2485Y1464D02*
X2493Y1464D01*
X2569Y1464D02*
X2575Y1464D01*
X2424Y1463D02*
X2432Y1463D01*
X2454Y1463D02*
X2462Y1463D01*
X2485Y1463D02*
X2493Y1463D01*
X2567Y1463D02*
X2575Y1463D01*
X2424Y1462D02*
X2432Y1462D01*
X2454Y1462D02*
X2462Y1462D01*
X2485Y1462D02*
X2493Y1462D01*
X2535Y1462D02*
X2575Y1462D01*
X2424Y1461D02*
X2432Y1461D01*
X2454Y1461D02*
X2462Y1461D01*
X2485Y1461D02*
X2493Y1461D01*
X2534Y1461D02*
X2575Y1461D01*
X2424Y1460D02*
X2432Y1460D01*
X2454Y1460D02*
X2462Y1460D01*
X2485Y1460D02*
X2493Y1460D01*
X2534Y1460D02*
X2574Y1460D01*
X2424Y1459D02*
X2432Y1459D01*
X2454Y1459D02*
X2462Y1459D01*
X2485Y1459D02*
X2493Y1459D01*
X2533Y1459D02*
X2573Y1459D01*
X2424Y1458D02*
X2432Y1458D01*
X2454Y1458D02*
X2462Y1458D01*
X2485Y1458D02*
X2493Y1458D01*
X2534Y1458D02*
X2572Y1458D01*
X2424Y1457D02*
X2432Y1457D01*
X2454Y1457D02*
X2462Y1457D01*
X2485Y1457D02*
X2493Y1457D01*
X2534Y1457D02*
X2572Y1457D01*
X2424Y1456D02*
X2432Y1456D01*
X2454Y1456D02*
X2462Y1456D01*
X2485Y1456D02*
X2493Y1456D01*
X2535Y1456D02*
X2573Y1456D01*
X2424Y1455D02*
X2432Y1455D01*
X2455Y1455D02*
X2461Y1455D01*
X2485Y1455D02*
X2493Y1455D01*
X2565Y1455D02*
X2573Y1455D01*
X2424Y1454D02*
X2432Y1454D01*
X2456Y1454D02*
X2461Y1454D01*
X2485Y1454D02*
X2493Y1454D01*
X2565Y1454D02*
X2574Y1454D01*
X2424Y1453D02*
X2432Y1453D01*
X2458Y1453D02*
X2458Y1453D01*
X2485Y1453D02*
X2493Y1453D01*
X2566Y1453D02*
X2575Y1453D01*
X2424Y1452D02*
X2432Y1452D01*
X2485Y1452D02*
X2493Y1452D01*
X2567Y1452D02*
X2575Y1452D01*
X2424Y1451D02*
X2432Y1451D01*
X2485Y1451D02*
X2493Y1451D01*
X2568Y1451D02*
X2575Y1451D01*
X2424Y1450D02*
X2432Y1450D01*
X2485Y1450D02*
X2493Y1450D01*
X2569Y1450D02*
X2575Y1450D01*
X2424Y1449D02*
X2432Y1449D01*
X2485Y1449D02*
X2493Y1449D01*
X2569Y1449D02*
X2575Y1449D01*
X2424Y1448D02*
X2432Y1448D01*
X2485Y1448D02*
X2493Y1448D01*
X2567Y1448D02*
X2575Y1448D01*
X2424Y1447D02*
X2432Y1447D01*
X2485Y1447D02*
X2493Y1447D01*
X2535Y1447D02*
X2575Y1447D01*
X2424Y1446D02*
X2432Y1446D01*
X2485Y1446D02*
X2493Y1446D01*
X2534Y1446D02*
X2574Y1446D01*
X2424Y1445D02*
X2432Y1445D01*
X2485Y1445D02*
X2493Y1445D01*
X2534Y1445D02*
X2574Y1445D01*
X2424Y1444D02*
X2432Y1444D01*
X2485Y1444D02*
X2493Y1444D01*
X2533Y1444D02*
X2573Y1444D01*
X2424Y1443D02*
X2432Y1443D01*
X2485Y1443D02*
X2493Y1443D01*
X2534Y1443D02*
X2572Y1443D01*
X2424Y1442D02*
X2432Y1442D01*
X2485Y1442D02*
X2493Y1442D01*
X2534Y1442D02*
X2571Y1442D01*
X2424Y1441D02*
X2432Y1441D01*
X2485Y1441D02*
X2493Y1441D01*
X2535Y1441D02*
X2570Y1441D01*
X2424Y1440D02*
X2432Y1440D01*
X2485Y1440D02*
X2493Y1440D01*
X2424Y1439D02*
X2432Y1439D01*
X2485Y1439D02*
X2493Y1439D01*
X2424Y1438D02*
X2431Y1438D01*
X2485Y1438D02*
X2492Y1438D01*
X2425Y1437D02*
X2431Y1437D01*
X2486Y1437D02*
X2492Y1437D01*
X2425Y1436D02*
X2430Y1436D01*
X2487Y1436D02*
X2491Y1436D01*
X2519Y1423D02*
X2575Y1423D01*
X2518Y1422D02*
X2576Y1422D01*
X2518Y1421D02*
X2577Y1421D01*
X2517Y1420D02*
X2577Y1420D01*
X2517Y1419D02*
X2577Y1419D01*
X2518Y1418D02*
X2577Y1418D01*
X2518Y1417D02*
X2576Y1417D01*
X2520Y1416D02*
X2574Y1416D01*
X2537Y1415D02*
X2547Y1415D01*
X2562Y1415D02*
X2572Y1415D01*
X2426Y1414D02*
X2429Y1414D01*
X2487Y1414D02*
X2490Y1414D01*
X2536Y1414D02*
X2545Y1414D01*
X2563Y1414D02*
X2573Y1414D01*
X2425Y1413D02*
X2430Y1413D01*
X2486Y1413D02*
X2491Y1413D01*
X2535Y1413D02*
X2544Y1413D01*
X2564Y1413D02*
X2574Y1413D01*
X2424Y1412D02*
X2431Y1412D01*
X2485Y1412D02*
X2492Y1412D01*
X2534Y1412D02*
X2544Y1412D01*
X2565Y1412D02*
X2575Y1412D01*
X2424Y1411D02*
X2431Y1411D01*
X2485Y1411D02*
X2493Y1411D01*
X2533Y1411D02*
X2543Y1411D01*
X2566Y1411D02*
X2575Y1411D01*
X2424Y1410D02*
X2432Y1410D01*
X2485Y1410D02*
X2493Y1410D01*
X2533Y1410D02*
X2541Y1410D01*
X2567Y1410D02*
X2576Y1410D01*
X2424Y1409D02*
X2432Y1409D01*
X2485Y1409D02*
X2493Y1409D01*
X2532Y1409D02*
X2540Y1409D01*
X2568Y1409D02*
X2576Y1409D01*
X2424Y1408D02*
X2432Y1408D01*
X2485Y1408D02*
X2493Y1408D01*
X2532Y1408D02*
X2540Y1408D01*
X2569Y1408D02*
X2577Y1408D01*
X2424Y1407D02*
X2432Y1407D01*
X2485Y1407D02*
X2493Y1407D01*
X2532Y1407D02*
X2539Y1407D01*
X2570Y1407D02*
X2577Y1407D01*
X2424Y1406D02*
X2432Y1406D01*
X2485Y1406D02*
X2493Y1406D01*
X2532Y1406D02*
X2539Y1406D01*
X2570Y1406D02*
X2577Y1406D01*
X2424Y1405D02*
X2493Y1405D01*
X2532Y1405D02*
X2538Y1405D01*
X2570Y1405D02*
X2577Y1405D01*
X2424Y1404D02*
X2493Y1404D01*
X2532Y1404D02*
X2538Y1404D01*
X2570Y1404D02*
X2577Y1404D01*
X2424Y1403D02*
X2493Y1403D01*
X2532Y1403D02*
X2539Y1403D01*
X2570Y1403D02*
X2577Y1403D01*
X2424Y1402D02*
X2493Y1402D01*
X2532Y1402D02*
X2539Y1402D01*
X2570Y1402D02*
X2577Y1402D01*
X2424Y1401D02*
X2493Y1401D01*
X2532Y1401D02*
X2540Y1401D01*
X2569Y1401D02*
X2577Y1401D01*
X2424Y1400D02*
X2493Y1400D01*
X2532Y1400D02*
X2540Y1400D01*
X2568Y1400D02*
X2576Y1400D01*
X2424Y1399D02*
X2493Y1399D01*
X2533Y1399D02*
X2541Y1399D01*
X2567Y1399D02*
X2576Y1399D01*
X2424Y1398D02*
X2493Y1398D01*
X2533Y1398D02*
X2542Y1398D01*
X2567Y1398D02*
X2575Y1398D01*
X2424Y1397D02*
X2493Y1397D01*
X2534Y1397D02*
X2543Y1397D01*
X2566Y1397D02*
X2575Y1397D01*
X2424Y1396D02*
X2432Y1396D01*
X2485Y1396D02*
X2493Y1396D01*
X2535Y1396D02*
X2544Y1396D01*
X2565Y1396D02*
X2574Y1396D01*
X2424Y1395D02*
X2432Y1395D01*
X2485Y1395D02*
X2493Y1395D01*
X2536Y1395D02*
X2545Y1395D01*
X2564Y1395D02*
X2573Y1395D01*
X2424Y1394D02*
X2432Y1394D01*
X2485Y1394D02*
X2493Y1394D01*
X2536Y1394D02*
X2546Y1394D01*
X2563Y1394D02*
X2572Y1394D01*
X2424Y1393D02*
X2432Y1393D01*
X2485Y1393D02*
X2493Y1393D01*
X2537Y1393D02*
X2571Y1393D01*
X2424Y1392D02*
X2432Y1392D01*
X2484Y1392D02*
X2493Y1392D01*
X2538Y1392D02*
X2571Y1392D01*
X2424Y1391D02*
X2432Y1391D01*
X2484Y1391D02*
X2493Y1391D01*
X2539Y1391D02*
X2570Y1391D01*
X2424Y1390D02*
X2433Y1390D01*
X2483Y1390D02*
X2492Y1390D01*
X2540Y1390D02*
X2569Y1390D01*
X2424Y1389D02*
X2435Y1389D01*
X2482Y1389D02*
X2492Y1389D01*
X2541Y1389D02*
X2568Y1389D01*
X2425Y1388D02*
X2437Y1388D01*
X2480Y1388D02*
X2492Y1388D01*
X2542Y1388D02*
X2566Y1388D01*
X2425Y1387D02*
X2439Y1387D01*
X2478Y1387D02*
X2491Y1387D01*
X2544Y1387D02*
X2565Y1387D01*
X2426Y1386D02*
X2441Y1386D01*
X2476Y1386D02*
X2491Y1386D01*
X2547Y1386D02*
X2562Y1386D01*
X2426Y1385D02*
X2442Y1385D01*
X2474Y1385D02*
X2490Y1385D01*
X2427Y1384D02*
X2444Y1384D01*
X2472Y1384D02*
X2489Y1384D01*
X2428Y1383D02*
X2446Y1383D01*
X2470Y1383D02*
X2488Y1383D01*
X2429Y1382D02*
X2448Y1382D01*
X2468Y1382D02*
X2487Y1382D01*
X2431Y1381D02*
X2450Y1381D01*
X2466Y1381D02*
X2485Y1381D01*
X2433Y1380D02*
X2452Y1380D01*
X2464Y1380D02*
X2483Y1380D01*
X2435Y1379D02*
X2455Y1379D01*
X2461Y1379D02*
X2481Y1379D01*
X2437Y1378D02*
X2479Y1378D01*
X2439Y1377D02*
X2477Y1377D01*
X2441Y1376D02*
X2475Y1376D01*
X2443Y1375D02*
X2473Y1375D01*
X2445Y1374D02*
X2471Y1374D01*
X2447Y1373D02*
X2469Y1373D01*
X2449Y1372D02*
X2467Y1372D01*
X2451Y1371D02*
X2465Y1371D01*
X2455Y1370D02*
X2461Y1370D01*
X2471Y1283D02*
X2490Y1283D01*
X2469Y1282D02*
X2492Y1282D01*
X2466Y1281D02*
X2492Y1281D01*
X2464Y1280D02*
X2493Y1280D01*
X2461Y1279D02*
X2493Y1279D01*
X2459Y1278D02*
X2493Y1278D01*
X2456Y1277D02*
X2492Y1277D01*
X2453Y1276D02*
X2491Y1276D01*
X2451Y1275D02*
X2490Y1275D01*
X2448Y1274D02*
X2472Y1274D01*
X2446Y1273D02*
X2470Y1273D01*
X2443Y1272D02*
X2467Y1272D01*
X2441Y1271D02*
X2465Y1271D01*
X2438Y1270D02*
X2462Y1270D01*
X2435Y1269D02*
X2460Y1269D01*
X2433Y1268D02*
X2457Y1268D01*
X2430Y1267D02*
X2455Y1267D01*
X2428Y1266D02*
X2452Y1266D01*
X2426Y1265D02*
X2450Y1265D01*
X2424Y1264D02*
X2447Y1264D01*
X2424Y1263D02*
X2444Y1263D01*
X2424Y1262D02*
X2442Y1262D01*
X2424Y1261D02*
X2440Y1261D01*
X2424Y1260D02*
X2443Y1260D01*
X2424Y1259D02*
X2445Y1259D01*
X2425Y1258D02*
X2448Y1258D01*
X2426Y1257D02*
X2450Y1257D01*
X2429Y1256D02*
X2453Y1256D01*
X2432Y1255D02*
X2456Y1255D01*
X2434Y1254D02*
X2458Y1254D01*
X2437Y1253D02*
X2461Y1253D01*
X2439Y1252D02*
X2463Y1252D01*
X2442Y1251D02*
X2466Y1251D01*
X2444Y1250D02*
X2468Y1250D01*
X2447Y1249D02*
X2471Y1249D01*
X2450Y1248D02*
X2474Y1248D01*
X2452Y1247D02*
X2491Y1247D01*
X2455Y1246D02*
X2492Y1246D01*
X2457Y1245D02*
X2492Y1245D01*
X2460Y1244D02*
X2493Y1244D01*
X2462Y1243D02*
X2493Y1243D01*
X2465Y1242D02*
X2492Y1242D01*
X2467Y1241D02*
X2492Y1241D01*
X2470Y1240D02*
X2491Y1240D01*
X2473Y1239D02*
X2489Y1239D01*
X2424Y1218D02*
X2455Y1218D01*
X2488Y1218D02*
X2489Y1218D01*
X2424Y1217D02*
X2458Y1217D01*
X2486Y1217D02*
X2491Y1217D01*
X2424Y1216D02*
X2459Y1216D01*
X2485Y1216D02*
X2492Y1216D01*
X2424Y1215D02*
X2460Y1215D01*
X2485Y1215D02*
X2492Y1215D01*
X2424Y1214D02*
X2461Y1214D01*
X2485Y1214D02*
X2493Y1214D01*
X2424Y1213D02*
X2461Y1213D01*
X2485Y1213D02*
X2493Y1213D01*
X2424Y1212D02*
X2462Y1212D01*
X2485Y1212D02*
X2493Y1212D01*
X2424Y1211D02*
X2462Y1211D01*
X2485Y1211D02*
X2493Y1211D01*
X2424Y1210D02*
X2462Y1210D01*
X2485Y1210D02*
X2493Y1210D01*
X2424Y1209D02*
X2432Y1209D01*
X2454Y1209D02*
X2462Y1209D01*
X2485Y1209D02*
X2493Y1209D01*
X2424Y1208D02*
X2432Y1208D01*
X2454Y1208D02*
X2462Y1208D01*
X2485Y1208D02*
X2493Y1208D01*
X2424Y1207D02*
X2432Y1207D01*
X2454Y1207D02*
X2462Y1207D01*
X2485Y1207D02*
X2493Y1207D01*
X2424Y1206D02*
X2432Y1206D01*
X2454Y1206D02*
X2462Y1206D01*
X2485Y1206D02*
X2493Y1206D01*
X2424Y1205D02*
X2432Y1205D01*
X2454Y1205D02*
X2462Y1205D01*
X2485Y1205D02*
X2493Y1205D01*
X2424Y1204D02*
X2432Y1204D01*
X2454Y1204D02*
X2462Y1204D01*
X2485Y1204D02*
X2493Y1204D01*
X2424Y1203D02*
X2432Y1203D01*
X2454Y1203D02*
X2462Y1203D01*
X2485Y1203D02*
X2493Y1203D01*
X2424Y1202D02*
X2432Y1202D01*
X2454Y1202D02*
X2462Y1202D01*
X2485Y1202D02*
X2493Y1202D01*
X2424Y1201D02*
X2432Y1201D01*
X2454Y1201D02*
X2462Y1201D01*
X2485Y1201D02*
X2493Y1201D01*
X2424Y1200D02*
X2432Y1200D01*
X2454Y1200D02*
X2462Y1200D01*
X2485Y1200D02*
X2493Y1200D01*
X2424Y1199D02*
X2432Y1199D01*
X2454Y1199D02*
X2462Y1199D01*
X2485Y1199D02*
X2493Y1199D01*
X2424Y1198D02*
X2432Y1198D01*
X2454Y1198D02*
X2462Y1198D01*
X2485Y1198D02*
X2493Y1198D01*
X2424Y1197D02*
X2432Y1197D01*
X2454Y1197D02*
X2462Y1197D01*
X2485Y1197D02*
X2493Y1197D01*
X2424Y1196D02*
X2432Y1196D01*
X2454Y1196D02*
X2462Y1196D01*
X2485Y1196D02*
X2493Y1196D01*
X2424Y1195D02*
X2432Y1195D01*
X2454Y1195D02*
X2462Y1195D01*
X2485Y1195D02*
X2493Y1195D01*
X2424Y1194D02*
X2432Y1194D01*
X2454Y1194D02*
X2462Y1194D01*
X2485Y1194D02*
X2493Y1194D01*
X2424Y1193D02*
X2432Y1193D01*
X2454Y1193D02*
X2462Y1193D01*
X2485Y1193D02*
X2493Y1193D01*
X2424Y1192D02*
X2432Y1192D01*
X2454Y1192D02*
X2462Y1192D01*
X2485Y1192D02*
X2493Y1192D01*
X2424Y1191D02*
X2432Y1191D01*
X2454Y1191D02*
X2462Y1191D01*
X2485Y1191D02*
X2493Y1191D01*
X2424Y1190D02*
X2432Y1190D01*
X2454Y1190D02*
X2462Y1190D01*
X2485Y1190D02*
X2493Y1190D01*
X2424Y1189D02*
X2432Y1189D01*
X2454Y1189D02*
X2462Y1189D01*
X2485Y1189D02*
X2493Y1189D01*
X2424Y1188D02*
X2432Y1188D01*
X2454Y1188D02*
X2462Y1188D01*
X2485Y1188D02*
X2493Y1188D01*
X2424Y1187D02*
X2432Y1187D01*
X2454Y1187D02*
X2462Y1187D01*
X2485Y1187D02*
X2493Y1187D01*
X2424Y1186D02*
X2432Y1186D01*
X2454Y1186D02*
X2462Y1186D01*
X2485Y1186D02*
X2493Y1186D01*
X2424Y1185D02*
X2432Y1185D01*
X2454Y1185D02*
X2462Y1185D01*
X2485Y1185D02*
X2493Y1185D01*
X2424Y1184D02*
X2432Y1184D01*
X2454Y1184D02*
X2462Y1184D01*
X2485Y1184D02*
X2493Y1184D01*
X2424Y1183D02*
X2432Y1183D01*
X2454Y1183D02*
X2462Y1183D01*
X2485Y1183D02*
X2493Y1183D01*
X2424Y1182D02*
X2432Y1182D01*
X2454Y1182D02*
X2493Y1182D01*
X2424Y1181D02*
X2432Y1181D01*
X2454Y1181D02*
X2493Y1181D01*
X2424Y1180D02*
X2432Y1180D01*
X2455Y1180D02*
X2492Y1180D01*
X2424Y1179D02*
X2432Y1179D01*
X2455Y1179D02*
X2492Y1179D01*
X2424Y1178D02*
X2432Y1178D01*
X2455Y1178D02*
X2491Y1178D01*
X2424Y1177D02*
X2431Y1177D01*
X2456Y1177D02*
X2491Y1177D01*
X2424Y1176D02*
X2431Y1176D01*
X2457Y1176D02*
X2490Y1176D01*
X2425Y1175D02*
X2430Y1175D01*
X2458Y1175D02*
X2489Y1175D01*
X2426Y1174D02*
X2429Y1174D01*
X2460Y1174D02*
X2487Y1174D01*
X2424Y1087D02*
X2456Y1087D01*
X2487Y1087D02*
X2490Y1087D01*
X2424Y1086D02*
X2458Y1086D01*
X2486Y1086D02*
X2491Y1086D01*
X2424Y1085D02*
X2459Y1085D01*
X2485Y1085D02*
X2492Y1085D01*
X2424Y1084D02*
X2460Y1084D01*
X2485Y1084D02*
X2493Y1084D01*
X2424Y1083D02*
X2461Y1083D01*
X2485Y1083D02*
X2493Y1083D01*
X2424Y1082D02*
X2461Y1082D01*
X2485Y1082D02*
X2493Y1082D01*
X2424Y1081D02*
X2462Y1081D01*
X2485Y1081D02*
X2493Y1081D01*
X2424Y1080D02*
X2462Y1080D01*
X2485Y1080D02*
X2493Y1080D01*
X2424Y1079D02*
X2462Y1079D01*
X2485Y1079D02*
X2493Y1079D01*
X2424Y1078D02*
X2432Y1078D01*
X2454Y1078D02*
X2462Y1078D01*
X2485Y1078D02*
X2493Y1078D01*
X2424Y1077D02*
X2432Y1077D01*
X2454Y1077D02*
X2462Y1077D01*
X2485Y1077D02*
X2493Y1077D01*
X2424Y1076D02*
X2432Y1076D01*
X2454Y1076D02*
X2462Y1076D01*
X2485Y1076D02*
X2493Y1076D01*
X2424Y1075D02*
X2432Y1075D01*
X2454Y1075D02*
X2462Y1075D01*
X2485Y1075D02*
X2493Y1075D01*
X2424Y1074D02*
X2432Y1074D01*
X2454Y1074D02*
X2462Y1074D01*
X2485Y1074D02*
X2493Y1074D01*
X2424Y1073D02*
X2432Y1073D01*
X2454Y1073D02*
X2462Y1073D01*
X2485Y1073D02*
X2493Y1073D01*
X2424Y1072D02*
X2432Y1072D01*
X2454Y1072D02*
X2462Y1072D01*
X2485Y1072D02*
X2493Y1072D01*
X2424Y1071D02*
X2432Y1071D01*
X2454Y1071D02*
X2462Y1071D01*
X2485Y1071D02*
X2493Y1071D01*
X2424Y1070D02*
X2432Y1070D01*
X2454Y1070D02*
X2462Y1070D01*
X2485Y1070D02*
X2493Y1070D01*
X2424Y1069D02*
X2432Y1069D01*
X2454Y1069D02*
X2462Y1069D01*
X2485Y1069D02*
X2493Y1069D01*
X2424Y1068D02*
X2432Y1068D01*
X2454Y1068D02*
X2462Y1068D01*
X2485Y1068D02*
X2493Y1068D01*
X2424Y1067D02*
X2432Y1067D01*
X2454Y1067D02*
X2462Y1067D01*
X2485Y1067D02*
X2493Y1067D01*
X2424Y1066D02*
X2432Y1066D01*
X2454Y1066D02*
X2462Y1066D01*
X2485Y1066D02*
X2493Y1066D01*
X2424Y1065D02*
X2432Y1065D01*
X2454Y1065D02*
X2462Y1065D01*
X2485Y1065D02*
X2493Y1065D01*
X2424Y1064D02*
X2432Y1064D01*
X2454Y1064D02*
X2462Y1064D01*
X2485Y1064D02*
X2493Y1064D01*
X2424Y1063D02*
X2432Y1063D01*
X2454Y1063D02*
X2462Y1063D01*
X2485Y1063D02*
X2493Y1063D01*
X2424Y1062D02*
X2432Y1062D01*
X2454Y1062D02*
X2462Y1062D01*
X2485Y1062D02*
X2493Y1062D01*
X2424Y1061D02*
X2432Y1061D01*
X2454Y1061D02*
X2462Y1061D01*
X2485Y1061D02*
X2493Y1061D01*
X2424Y1060D02*
X2432Y1060D01*
X2454Y1060D02*
X2462Y1060D01*
X2485Y1060D02*
X2493Y1060D01*
X2424Y1059D02*
X2432Y1059D01*
X2454Y1059D02*
X2462Y1059D01*
X2485Y1059D02*
X2493Y1059D01*
X2424Y1058D02*
X2432Y1058D01*
X2454Y1058D02*
X2462Y1058D01*
X2485Y1058D02*
X2493Y1058D01*
X2424Y1057D02*
X2432Y1057D01*
X2454Y1057D02*
X2462Y1057D01*
X2485Y1057D02*
X2493Y1057D01*
X2424Y1056D02*
X2432Y1056D01*
X2454Y1056D02*
X2462Y1056D01*
X2485Y1056D02*
X2493Y1056D01*
X2424Y1055D02*
X2432Y1055D01*
X2454Y1055D02*
X2462Y1055D01*
X2485Y1055D02*
X2493Y1055D01*
X2424Y1054D02*
X2432Y1054D01*
X2454Y1054D02*
X2462Y1054D01*
X2485Y1054D02*
X2493Y1054D01*
X2424Y1053D02*
X2432Y1053D01*
X2454Y1053D02*
X2462Y1053D01*
X2485Y1053D02*
X2493Y1053D01*
X2424Y1052D02*
X2432Y1052D01*
X2454Y1052D02*
X2462Y1052D01*
X2485Y1052D02*
X2493Y1052D01*
X2424Y1051D02*
X2432Y1051D01*
X2454Y1051D02*
X2493Y1051D01*
X2424Y1050D02*
X2432Y1050D01*
X2454Y1050D02*
X2493Y1050D01*
X2424Y1049D02*
X2432Y1049D01*
X2455Y1049D02*
X2492Y1049D01*
X2424Y1048D02*
X2432Y1048D01*
X2455Y1048D02*
X2492Y1048D01*
X2424Y1047D02*
X2432Y1047D01*
X2456Y1047D02*
X2491Y1047D01*
X2424Y1046D02*
X2431Y1046D01*
X2456Y1046D02*
X2491Y1046D01*
X2424Y1045D02*
X2431Y1045D01*
X2457Y1045D02*
X2490Y1045D01*
X2425Y1044D02*
X2430Y1044D01*
X2459Y1044D02*
X2488Y1044D01*
X2426Y1043D02*
X2429Y1043D01*
X2461Y1043D02*
X2486Y1043D01*
X2433Y1022D02*
X2483Y1022D01*
X2429Y1021D02*
X2488Y1021D01*
X2427Y1020D02*
X2489Y1020D01*
X2426Y1019D02*
X2490Y1019D01*
X2425Y1018D02*
X2491Y1018D01*
X2425Y1017D02*
X2492Y1017D01*
X2424Y1016D02*
X2492Y1016D01*
X2424Y1015D02*
X2492Y1015D01*
X2424Y1014D02*
X2493Y1014D01*
X2424Y1013D02*
X2493Y1013D01*
X2424Y1012D02*
X2432Y1012D01*
X2485Y1012D02*
X2493Y1012D01*
X2424Y1011D02*
X2432Y1011D01*
X2485Y1011D02*
X2493Y1011D01*
X2424Y1010D02*
X2432Y1010D01*
X2485Y1010D02*
X2493Y1010D01*
X2424Y1009D02*
X2432Y1009D01*
X2485Y1009D02*
X2493Y1009D01*
X2424Y1008D02*
X2432Y1008D01*
X2485Y1008D02*
X2493Y1008D01*
X2424Y1007D02*
X2432Y1007D01*
X2485Y1007D02*
X2493Y1007D01*
X2424Y1006D02*
X2432Y1006D01*
X2485Y1006D02*
X2493Y1006D01*
X2424Y1005D02*
X2432Y1005D01*
X2485Y1005D02*
X2493Y1005D01*
X2424Y1004D02*
X2432Y1004D01*
X2485Y1004D02*
X2493Y1004D01*
X2424Y1003D02*
X2432Y1003D01*
X2485Y1003D02*
X2493Y1003D01*
X2424Y1002D02*
X2432Y1002D01*
X2485Y1002D02*
X2493Y1002D01*
X2424Y1001D02*
X2432Y1001D01*
X2485Y1001D02*
X2493Y1001D01*
X2424Y1000D02*
X2432Y1000D01*
X2485Y1000D02*
X2493Y1000D01*
X2424Y999D02*
X2432Y999D01*
X2485Y999D02*
X2493Y999D01*
X2424Y998D02*
X2432Y998D01*
X2485Y998D02*
X2493Y998D01*
X2424Y997D02*
X2432Y997D01*
X2485Y997D02*
X2493Y997D01*
X2424Y996D02*
X2432Y996D01*
X2485Y996D02*
X2493Y996D01*
X2424Y995D02*
X2432Y995D01*
X2485Y995D02*
X2493Y995D01*
X2424Y994D02*
X2432Y994D01*
X2485Y994D02*
X2493Y994D01*
X2424Y993D02*
X2432Y993D01*
X2485Y993D02*
X2493Y993D01*
X2424Y992D02*
X2432Y992D01*
X2485Y992D02*
X2493Y992D01*
X2424Y991D02*
X2432Y991D01*
X2485Y991D02*
X2493Y991D01*
X2424Y990D02*
X2432Y990D01*
X2485Y990D02*
X2493Y990D01*
X2424Y989D02*
X2432Y989D01*
X2485Y989D02*
X2493Y989D01*
X2424Y988D02*
X2432Y988D01*
X2485Y988D02*
X2493Y988D01*
X2424Y987D02*
X2432Y987D01*
X2485Y987D02*
X2493Y987D01*
X2424Y986D02*
X2493Y986D01*
X2424Y985D02*
X2493Y985D01*
X2424Y984D02*
X2492Y984D01*
X2424Y983D02*
X2492Y983D01*
X2425Y982D02*
X2492Y982D01*
X2425Y981D02*
X2491Y981D01*
X2426Y980D02*
X2490Y980D01*
X2427Y979D02*
X2489Y979D01*
X2429Y978D02*
X2487Y978D01*
X2426Y956D02*
X2429Y956D01*
X2487Y956D02*
X2490Y956D01*
X2425Y955D02*
X2431Y955D01*
X2486Y955D02*
X2492Y955D01*
X2424Y954D02*
X2431Y954D01*
X2485Y954D02*
X2492Y954D01*
X2424Y953D02*
X2432Y953D01*
X2485Y953D02*
X2493Y953D01*
X2424Y952D02*
X2432Y952D01*
X2485Y952D02*
X2493Y952D01*
X2424Y951D02*
X2432Y951D01*
X2485Y951D02*
X2493Y951D01*
X2424Y950D02*
X2432Y950D01*
X2485Y950D02*
X2493Y950D01*
X2424Y949D02*
X2432Y949D01*
X2485Y949D02*
X2493Y949D01*
X2424Y948D02*
X2432Y948D01*
X2485Y948D02*
X2493Y948D01*
X2424Y947D02*
X2432Y947D01*
X2485Y947D02*
X2493Y947D01*
X2424Y946D02*
X2432Y946D01*
X2485Y946D02*
X2493Y946D01*
X2424Y945D02*
X2432Y945D01*
X2485Y945D02*
X2493Y945D01*
X2424Y944D02*
X2432Y944D01*
X2485Y944D02*
X2493Y944D01*
X2424Y943D02*
X2432Y943D01*
X2485Y943D02*
X2493Y943D01*
X2424Y942D02*
X2432Y942D01*
X2485Y942D02*
X2493Y942D01*
X2424Y941D02*
X2432Y941D01*
X2485Y941D02*
X2493Y941D01*
X2424Y940D02*
X2432Y940D01*
X2485Y940D02*
X2493Y940D01*
X2424Y939D02*
X2432Y939D01*
X2484Y939D02*
X2493Y939D01*
X2424Y938D02*
X2493Y938D01*
X2424Y937D02*
X2493Y937D01*
X2424Y936D02*
X2493Y936D01*
X2424Y935D02*
X2493Y935D01*
X2424Y934D02*
X2493Y934D01*
X2424Y933D02*
X2493Y933D01*
X2424Y932D02*
X2493Y932D01*
X2424Y931D02*
X2493Y931D01*
X2424Y930D02*
X2493Y930D01*
X2424Y929D02*
X2432Y929D01*
X2424Y928D02*
X2432Y928D01*
X2424Y927D02*
X2432Y927D01*
X2424Y926D02*
X2432Y926D01*
X2424Y925D02*
X2432Y925D01*
X2424Y924D02*
X2432Y924D01*
X2424Y923D02*
X2432Y923D01*
X2424Y922D02*
X2432Y922D01*
X2424Y921D02*
X2432Y921D01*
X2424Y920D02*
X2453Y920D01*
X2424Y919D02*
X2454Y919D01*
X2424Y918D02*
X2454Y918D01*
X2424Y917D02*
X2455Y917D01*
X2424Y916D02*
X2455Y916D01*
X2424Y915D02*
X2454Y915D01*
X2424Y914D02*
X2454Y914D01*
X2425Y913D02*
X2453Y913D01*
X2427Y912D02*
X2451Y912D01*
X2447Y889D02*
X2488Y889D01*
X2447Y888D02*
X2491Y888D01*
X2447Y887D02*
X2492Y887D01*
X2447Y886D02*
X2492Y886D01*
X2447Y885D02*
X2493Y885D01*
X2447Y884D02*
X2493Y884D01*
X2447Y883D02*
X2492Y883D01*
X2447Y882D02*
X2492Y882D01*
X2447Y881D02*
X2491Y881D01*
X2447Y880D02*
X2488Y880D01*
X2447Y879D02*
X2455Y879D01*
X2447Y878D02*
X2455Y878D01*
X2447Y877D02*
X2455Y877D01*
X2447Y876D02*
X2455Y876D01*
X2447Y875D02*
X2455Y875D01*
X2447Y874D02*
X2455Y874D01*
X2447Y873D02*
X2455Y873D01*
X2447Y872D02*
X2455Y872D01*
X2447Y871D02*
X2455Y871D01*
X2447Y870D02*
X2455Y870D01*
X2447Y869D02*
X2455Y869D01*
X2447Y868D02*
X2455Y868D01*
X2447Y867D02*
X2455Y867D01*
X2447Y866D02*
X2455Y866D01*
X2447Y865D02*
X2455Y865D01*
X2447Y864D02*
X2455Y864D01*
X2447Y863D02*
X2455Y863D01*
X2427Y862D02*
X2482Y862D01*
X2425Y861D02*
X2484Y861D01*
X2424Y860D02*
X2484Y860D01*
X2424Y859D02*
X2485Y859D01*
X2424Y858D02*
X2485Y858D01*
X2424Y857D02*
X2485Y857D01*
X2424Y856D02*
X2485Y856D01*
X2425Y855D02*
X2484Y855D01*
X2426Y854D02*
X2483Y854D01*
X2446Y853D02*
X2455Y853D01*
X2447Y852D02*
X2454Y852D01*
X2447Y851D02*
X2454Y851D01*
X2448Y850D02*
X2453Y850D01*
X2449Y849D02*
X2452Y849D01*
X894Y768D02*
X905Y768D01*
X994Y768D02*
X1005Y768D01*
X1094Y768D02*
X1105Y768D01*
X1394Y768D02*
X1405Y768D01*
X1494Y768D02*
X1505Y768D01*
X1594Y768D02*
X1605Y768D01*
X1894Y768D02*
X1905Y768D01*
X1994Y768D02*
X2005Y768D01*
X2094Y768D02*
X2105Y768D01*
X890Y767D02*
X909Y767D01*
X990Y767D02*
X1009Y767D01*
X1090Y767D02*
X1109Y767D01*
X1390Y767D02*
X1409Y767D01*
X1490Y767D02*
X1509Y767D01*
X1590Y767D02*
X1609Y767D01*
X1890Y767D02*
X1909Y767D01*
X1990Y767D02*
X2009Y767D01*
X2090Y767D02*
X2109Y767D01*
X888Y766D02*
X912Y766D01*
X988Y766D02*
X1012Y766D01*
X1088Y766D02*
X1112Y766D01*
X1388Y766D02*
X1411Y766D01*
X1488Y766D02*
X1511Y766D01*
X1588Y766D02*
X1611Y766D01*
X1888Y766D02*
X1911Y766D01*
X1988Y766D02*
X2011Y766D01*
X2088Y766D02*
X2111Y766D01*
X886Y765D02*
X914Y765D01*
X986Y765D02*
X1014Y765D01*
X1086Y765D02*
X1114Y765D01*
X1386Y765D02*
X1413Y765D01*
X1486Y765D02*
X1513Y765D01*
X1586Y765D02*
X1613Y765D01*
X1886Y765D02*
X1913Y765D01*
X1986Y765D02*
X2013Y765D01*
X2086Y765D02*
X2113Y765D01*
X884Y764D02*
X915Y764D01*
X984Y764D02*
X1015Y764D01*
X1084Y764D02*
X1115Y764D01*
X1384Y764D02*
X1415Y764D01*
X1484Y764D02*
X1515Y764D01*
X1584Y764D02*
X1615Y764D01*
X1884Y764D02*
X1915Y764D01*
X1984Y764D02*
X2015Y764D01*
X2084Y764D02*
X2115Y764D01*
X883Y763D02*
X917Y763D01*
X983Y763D02*
X1017Y763D01*
X1083Y763D02*
X1117Y763D01*
X1383Y763D02*
X1417Y763D01*
X1483Y763D02*
X1517Y763D01*
X1583Y763D02*
X1617Y763D01*
X1882Y763D02*
X1916Y763D01*
X1982Y763D02*
X2016Y763D01*
X2082Y763D02*
X2116Y763D01*
X881Y762D02*
X918Y762D01*
X981Y762D02*
X1018Y762D01*
X1081Y762D02*
X1118Y762D01*
X1381Y762D02*
X1418Y762D01*
X1481Y762D02*
X1518Y762D01*
X1581Y762D02*
X1618Y762D01*
X1881Y762D02*
X1918Y762D01*
X1981Y762D02*
X2018Y762D01*
X2081Y762D02*
X2118Y762D01*
X880Y761D02*
X919Y761D01*
X980Y761D02*
X1019Y761D01*
X1080Y761D02*
X1119Y761D01*
X1380Y761D02*
X1419Y761D01*
X1480Y761D02*
X1519Y761D01*
X1580Y761D02*
X1619Y761D01*
X1880Y761D02*
X1919Y761D01*
X1980Y761D02*
X2019Y761D01*
X2080Y761D02*
X2119Y761D01*
X879Y760D02*
X920Y760D01*
X979Y760D02*
X1020Y760D01*
X1079Y760D02*
X1120Y760D01*
X1379Y760D02*
X1420Y760D01*
X1479Y760D02*
X1520Y760D01*
X1579Y760D02*
X1620Y760D01*
X1879Y760D02*
X1920Y760D01*
X1979Y760D02*
X2020Y760D01*
X2079Y760D02*
X2120Y760D01*
X878Y759D02*
X921Y759D01*
X978Y759D02*
X1021Y759D01*
X1078Y759D02*
X1121Y759D01*
X1378Y759D02*
X1421Y759D01*
X1478Y759D02*
X1521Y759D01*
X1578Y759D02*
X1621Y759D01*
X1878Y759D02*
X1921Y759D01*
X1978Y759D02*
X2021Y759D01*
X2078Y759D02*
X2121Y759D01*
X877Y758D02*
X922Y758D01*
X977Y758D02*
X1022Y758D01*
X1077Y758D02*
X1122Y758D01*
X1377Y758D02*
X1422Y758D01*
X1477Y758D02*
X1522Y758D01*
X1577Y758D02*
X1622Y758D01*
X1877Y758D02*
X1922Y758D01*
X1977Y758D02*
X2022Y758D01*
X2077Y758D02*
X2122Y758D01*
X877Y757D02*
X923Y757D01*
X977Y757D02*
X1023Y757D01*
X1077Y757D02*
X1123Y757D01*
X1376Y757D02*
X1423Y757D01*
X1476Y757D02*
X1523Y757D01*
X1576Y757D02*
X1623Y757D01*
X1876Y757D02*
X1923Y757D01*
X1976Y757D02*
X2023Y757D01*
X2076Y757D02*
X2123Y757D01*
X876Y756D02*
X924Y756D01*
X976Y756D02*
X1024Y756D01*
X1076Y756D02*
X1124Y756D01*
X1376Y756D02*
X1424Y756D01*
X1476Y756D02*
X1524Y756D01*
X1576Y756D02*
X1623Y756D01*
X1875Y756D02*
X1923Y756D01*
X1975Y756D02*
X2023Y756D01*
X2075Y756D02*
X2123Y756D01*
X875Y755D02*
X924Y755D01*
X975Y755D02*
X1024Y755D01*
X1075Y755D02*
X1124Y755D01*
X1375Y755D02*
X1424Y755D01*
X1475Y755D02*
X1524Y755D01*
X1575Y755D02*
X1624Y755D01*
X1875Y755D02*
X1924Y755D01*
X1975Y755D02*
X2024Y755D01*
X2075Y755D02*
X2124Y755D01*
X875Y754D02*
X925Y754D01*
X974Y754D02*
X1025Y754D01*
X1074Y754D02*
X1125Y754D01*
X1374Y754D02*
X1425Y754D01*
X1474Y754D02*
X1525Y754D01*
X1574Y754D02*
X1625Y754D01*
X1874Y754D02*
X1925Y754D01*
X1974Y754D02*
X2025Y754D01*
X2074Y754D02*
X2125Y754D01*
X874Y753D02*
X926Y753D01*
X974Y753D02*
X1026Y753D01*
X1074Y753D02*
X1126Y753D01*
X1374Y753D02*
X1425Y753D01*
X1474Y753D02*
X1525Y753D01*
X1574Y753D02*
X1625Y753D01*
X1874Y753D02*
X1925Y753D01*
X1974Y753D02*
X2025Y753D01*
X2074Y753D02*
X2125Y753D01*
X873Y752D02*
X926Y752D01*
X973Y752D02*
X1026Y752D01*
X1073Y752D02*
X1126Y752D01*
X1373Y752D02*
X1426Y752D01*
X1473Y752D02*
X1526Y752D01*
X1573Y752D02*
X1626Y752D01*
X1873Y752D02*
X1926Y752D01*
X1973Y752D02*
X2026Y752D01*
X2073Y752D02*
X2126Y752D01*
X873Y751D02*
X927Y751D01*
X973Y751D02*
X1027Y751D01*
X1073Y751D02*
X1127Y751D01*
X1373Y751D02*
X1426Y751D01*
X1473Y751D02*
X1526Y751D01*
X1573Y751D02*
X1626Y751D01*
X1873Y751D02*
X1926Y751D01*
X1973Y751D02*
X2026Y751D01*
X2073Y751D02*
X2126Y751D01*
X873Y750D02*
X927Y750D01*
X972Y750D02*
X1027Y750D01*
X1072Y750D02*
X1127Y750D01*
X1372Y750D02*
X1427Y750D01*
X1472Y750D02*
X1527Y750D01*
X1572Y750D02*
X1627Y750D01*
X1872Y750D02*
X1927Y750D01*
X1972Y750D02*
X2027Y750D01*
X2072Y750D02*
X2127Y750D01*
X872Y749D02*
X927Y749D01*
X972Y749D02*
X1027Y749D01*
X1072Y749D02*
X1127Y749D01*
X1372Y749D02*
X1427Y749D01*
X1472Y749D02*
X1527Y749D01*
X1572Y749D02*
X1627Y749D01*
X1872Y749D02*
X1927Y749D01*
X1972Y749D02*
X2027Y749D01*
X2072Y749D02*
X2127Y749D01*
X872Y748D02*
X928Y748D01*
X972Y748D02*
X1028Y748D01*
X1072Y748D02*
X1128Y748D01*
X1372Y748D02*
X1428Y748D01*
X1472Y748D02*
X1528Y748D01*
X1572Y748D02*
X1628Y748D01*
X1871Y748D02*
X1927Y748D01*
X1971Y748D02*
X2027Y748D01*
X2071Y748D02*
X2127Y748D01*
X871Y747D02*
X928Y747D01*
X971Y747D02*
X1028Y747D01*
X1071Y747D02*
X1128Y747D01*
X1371Y747D02*
X1428Y747D01*
X1471Y747D02*
X1528Y747D01*
X1571Y747D02*
X1628Y747D01*
X1871Y747D02*
X1928Y747D01*
X1971Y747D02*
X2028Y747D01*
X2071Y747D02*
X2128Y747D01*
X871Y746D02*
X928Y746D01*
X971Y746D02*
X1028Y746D01*
X1071Y746D02*
X1128Y746D01*
X1371Y746D02*
X1428Y746D01*
X1471Y746D02*
X1528Y746D01*
X1571Y746D02*
X1628Y746D01*
X1871Y746D02*
X1928Y746D01*
X1971Y746D02*
X2028Y746D01*
X2071Y746D02*
X2128Y746D01*
X871Y745D02*
X929Y745D01*
X971Y745D02*
X1029Y745D01*
X1071Y745D02*
X1129Y745D01*
X1371Y745D02*
X1428Y745D01*
X1471Y745D02*
X1528Y745D01*
X1571Y745D02*
X1628Y745D01*
X1871Y745D02*
X1928Y745D01*
X1971Y745D02*
X2028Y745D01*
X2071Y745D02*
X2128Y745D01*
X871Y744D02*
X929Y744D01*
X971Y744D02*
X1029Y744D01*
X1071Y744D02*
X1129Y744D01*
X1371Y744D02*
X1429Y744D01*
X1471Y744D02*
X1529Y744D01*
X1571Y744D02*
X1629Y744D01*
X1870Y744D02*
X1928Y744D01*
X1970Y744D02*
X2028Y744D01*
X2070Y744D02*
X2128Y744D01*
X871Y743D02*
X929Y743D01*
X971Y743D02*
X1029Y743D01*
X1071Y743D02*
X1129Y743D01*
X1370Y743D02*
X1429Y743D01*
X1470Y743D02*
X1529Y743D01*
X1570Y743D02*
X1629Y743D01*
X1870Y743D02*
X1929Y743D01*
X1970Y743D02*
X2029Y743D01*
X2070Y743D02*
X2129Y743D01*
X870Y742D02*
X929Y742D01*
X970Y742D02*
X1029Y742D01*
X1070Y742D02*
X1129Y742D01*
X1370Y742D02*
X1429Y742D01*
X1470Y742D02*
X1529Y742D01*
X1570Y742D02*
X1629Y742D01*
X1870Y742D02*
X1929Y742D01*
X1970Y742D02*
X2029Y742D01*
X2070Y742D02*
X2129Y742D01*
X870Y741D02*
X929Y741D01*
X970Y741D02*
X1029Y741D01*
X1070Y741D02*
X1129Y741D01*
X1370Y741D02*
X1429Y741D01*
X1470Y741D02*
X1529Y741D01*
X1570Y741D02*
X1629Y741D01*
X1870Y741D02*
X1929Y741D01*
X1970Y741D02*
X2029Y741D01*
X2070Y741D02*
X2129Y741D01*
X870Y740D02*
X929Y740D01*
X970Y740D02*
X1029Y740D01*
X1070Y740D02*
X1129Y740D01*
X1370Y740D02*
X1429Y740D01*
X1470Y740D02*
X1529Y740D01*
X1570Y740D02*
X1629Y740D01*
X1870Y740D02*
X1929Y740D01*
X1970Y740D02*
X2029Y740D01*
X2070Y740D02*
X2129Y740D01*
X870Y739D02*
X929Y739D01*
X970Y739D02*
X1029Y739D01*
X1070Y739D02*
X1129Y739D01*
X1370Y739D02*
X1429Y739D01*
X1470Y739D02*
X1529Y739D01*
X1570Y739D02*
X1629Y739D01*
X1870Y739D02*
X1929Y739D01*
X1970Y739D02*
X2029Y739D01*
X2070Y739D02*
X2129Y739D01*
X870Y738D02*
X929Y738D01*
X970Y738D02*
X1029Y738D01*
X1070Y738D02*
X1129Y738D01*
X1370Y738D02*
X1429Y738D01*
X1470Y738D02*
X1529Y738D01*
X1570Y738D02*
X1629Y738D01*
X1870Y738D02*
X1929Y738D01*
X1970Y738D02*
X2029Y738D01*
X2070Y738D02*
X2129Y738D01*
X870Y737D02*
X929Y737D01*
X970Y737D02*
X1029Y737D01*
X1070Y737D02*
X1129Y737D01*
X1370Y737D02*
X1429Y737D01*
X1470Y737D02*
X1529Y737D01*
X1570Y737D02*
X1629Y737D01*
X1870Y737D02*
X1929Y737D01*
X1970Y737D02*
X2029Y737D01*
X2070Y737D02*
X2129Y737D01*
X870Y736D02*
X929Y736D01*
X970Y736D02*
X1029Y736D01*
X1070Y736D02*
X1129Y736D01*
X1370Y736D02*
X1429Y736D01*
X1470Y736D02*
X1529Y736D01*
X1570Y736D02*
X1629Y736D01*
X1870Y736D02*
X1929Y736D01*
X1970Y736D02*
X2029Y736D01*
X2070Y736D02*
X2129Y736D01*
X870Y735D02*
X929Y735D01*
X970Y735D02*
X1029Y735D01*
X1070Y735D02*
X1129Y735D01*
X1370Y735D02*
X1429Y735D01*
X1470Y735D02*
X1529Y735D01*
X1570Y735D02*
X1629Y735D01*
X1870Y735D02*
X1929Y735D01*
X1970Y735D02*
X2029Y735D01*
X2070Y735D02*
X2129Y735D01*
X870Y734D02*
X929Y734D01*
X970Y734D02*
X1029Y734D01*
X1070Y734D02*
X1129Y734D01*
X1370Y734D02*
X1429Y734D01*
X1470Y734D02*
X1529Y734D01*
X1570Y734D02*
X1629Y734D01*
X1870Y734D02*
X1929Y734D01*
X1970Y734D02*
X2029Y734D01*
X2070Y734D02*
X2129Y734D01*
X870Y733D02*
X929Y733D01*
X970Y733D02*
X1029Y733D01*
X1070Y733D02*
X1129Y733D01*
X1370Y733D02*
X1429Y733D01*
X1470Y733D02*
X1529Y733D01*
X1570Y733D02*
X1629Y733D01*
X1870Y733D02*
X1929Y733D01*
X1970Y733D02*
X2029Y733D01*
X2070Y733D02*
X2129Y733D01*
X870Y732D02*
X929Y732D01*
X970Y732D02*
X1029Y732D01*
X1070Y732D02*
X1129Y732D01*
X1370Y732D02*
X1429Y732D01*
X1470Y732D02*
X1529Y732D01*
X1570Y732D02*
X1629Y732D01*
X1870Y732D02*
X1929Y732D01*
X1970Y732D02*
X2029Y732D01*
X2070Y732D02*
X2129Y732D01*
X870Y731D02*
X929Y731D01*
X970Y731D02*
X1029Y731D01*
X1070Y731D02*
X1129Y731D01*
X1370Y731D02*
X1429Y731D01*
X1470Y731D02*
X1529Y731D01*
X1570Y731D02*
X1629Y731D01*
X1870Y731D02*
X1929Y731D01*
X1970Y731D02*
X2029Y731D01*
X2070Y731D02*
X2129Y731D01*
X870Y730D02*
X929Y730D01*
X970Y730D02*
X1029Y730D01*
X1070Y730D02*
X1129Y730D01*
X1370Y730D02*
X1429Y730D01*
X1470Y730D02*
X1529Y730D01*
X1570Y730D02*
X1629Y730D01*
X1870Y730D02*
X1929Y730D01*
X1970Y730D02*
X2029Y730D01*
X2070Y730D02*
X2129Y730D01*
X870Y729D02*
X929Y729D01*
X970Y729D02*
X1029Y729D01*
X1070Y729D02*
X1129Y729D01*
X1370Y729D02*
X1429Y729D01*
X1470Y729D02*
X1529Y729D01*
X1570Y729D02*
X1629Y729D01*
X1870Y729D02*
X1929Y729D01*
X1970Y729D02*
X2029Y729D01*
X2070Y729D02*
X2129Y729D01*
X870Y728D02*
X894Y728D01*
X905Y728D02*
X929Y728D01*
X970Y728D02*
X994Y728D01*
X1005Y728D02*
X1029Y728D01*
X1070Y728D02*
X1094Y728D01*
X1105Y728D02*
X1129Y728D01*
X1370Y728D02*
X1394Y728D01*
X1405Y728D02*
X1429Y728D01*
X1470Y728D02*
X1494Y728D01*
X1505Y728D02*
X1529Y728D01*
X1570Y728D02*
X1594Y728D01*
X1605Y728D02*
X1629Y728D01*
X1870Y728D02*
X1894Y728D01*
X1905Y728D02*
X1929Y728D01*
X1970Y728D02*
X1994Y728D01*
X2005Y728D02*
X2029Y728D01*
X2070Y728D02*
X2094Y728D01*
X2105Y728D02*
X2129Y728D01*
X870Y727D02*
X891Y727D01*
X908Y727D02*
X929Y727D01*
X970Y727D02*
X991Y727D01*
X1008Y727D02*
X1029Y727D01*
X1070Y727D02*
X1091Y727D01*
X1108Y727D02*
X1129Y727D01*
X1370Y727D02*
X1391Y727D01*
X1408Y727D02*
X1429Y727D01*
X1470Y727D02*
X1491Y727D01*
X1508Y727D02*
X1529Y727D01*
X1570Y727D02*
X1591Y727D01*
X1608Y727D02*
X1629Y727D01*
X1870Y727D02*
X1891Y727D01*
X1908Y727D02*
X1929Y727D01*
X1970Y727D02*
X1991Y727D01*
X2008Y727D02*
X2029Y727D01*
X2070Y727D02*
X2091Y727D01*
X2108Y727D02*
X2129Y727D01*
X870Y726D02*
X889Y726D01*
X910Y726D02*
X929Y726D01*
X970Y726D02*
X989Y726D01*
X1010Y726D02*
X1029Y726D01*
X1070Y726D02*
X1089Y726D01*
X1110Y726D02*
X1129Y726D01*
X1370Y726D02*
X1389Y726D01*
X1410Y726D02*
X1429Y726D01*
X1470Y726D02*
X1489Y726D01*
X1510Y726D02*
X1529Y726D01*
X1570Y726D02*
X1589Y726D01*
X1610Y726D02*
X1629Y726D01*
X1870Y726D02*
X1889Y726D01*
X1910Y726D02*
X1929Y726D01*
X1970Y726D02*
X1989Y726D01*
X2010Y726D02*
X2029Y726D01*
X2070Y726D02*
X2089Y726D01*
X2110Y726D02*
X2129Y726D01*
X870Y725D02*
X888Y725D01*
X912Y725D02*
X929Y725D01*
X970Y725D02*
X988Y725D01*
X1012Y725D02*
X1029Y725D01*
X1070Y725D02*
X1088Y725D01*
X1112Y725D02*
X1129Y725D01*
X1370Y725D02*
X1388Y725D01*
X1412Y725D02*
X1429Y725D01*
X1470Y725D02*
X1488Y725D01*
X1512Y725D02*
X1529Y725D01*
X1570Y725D02*
X1588Y725D01*
X1612Y725D02*
X1629Y725D01*
X1870Y725D02*
X1887Y725D01*
X1911Y725D02*
X1929Y725D01*
X1970Y725D02*
X1987Y725D01*
X2011Y725D02*
X2029Y725D01*
X2070Y725D02*
X2087Y725D01*
X2111Y725D02*
X2129Y725D01*
X870Y724D02*
X887Y724D01*
X913Y724D02*
X929Y724D01*
X970Y724D02*
X987Y724D01*
X1013Y724D02*
X1029Y724D01*
X1070Y724D02*
X1087Y724D01*
X1113Y724D02*
X1129Y724D01*
X1370Y724D02*
X1386Y724D01*
X1413Y724D02*
X1429Y724D01*
X1470Y724D02*
X1486Y724D01*
X1513Y724D02*
X1529Y724D01*
X1570Y724D02*
X1586Y724D01*
X1613Y724D02*
X1629Y724D01*
X1870Y724D02*
X1886Y724D01*
X1913Y724D02*
X1929Y724D01*
X1970Y724D02*
X1986Y724D01*
X2013Y724D02*
X2029Y724D01*
X2070Y724D02*
X2086Y724D01*
X2113Y724D02*
X2129Y724D01*
X870Y723D02*
X885Y723D01*
X914Y723D02*
X929Y723D01*
X970Y723D02*
X985Y723D01*
X1014Y723D02*
X1029Y723D01*
X1070Y723D02*
X1085Y723D01*
X1114Y723D02*
X1129Y723D01*
X1370Y723D02*
X1385Y723D01*
X1414Y723D02*
X1429Y723D01*
X1470Y723D02*
X1485Y723D01*
X1514Y723D02*
X1529Y723D01*
X1570Y723D02*
X1585Y723D01*
X1614Y723D02*
X1629Y723D01*
X1870Y723D02*
X1885Y723D01*
X1914Y723D02*
X1929Y723D01*
X1970Y723D02*
X1985Y723D01*
X2014Y723D02*
X2029Y723D01*
X2070Y723D02*
X2085Y723D01*
X2114Y723D02*
X2129Y723D01*
X870Y722D02*
X884Y722D01*
X915Y722D02*
X929Y722D01*
X970Y722D02*
X984Y722D01*
X1015Y722D02*
X1029Y722D01*
X1070Y722D02*
X1084Y722D01*
X1115Y722D02*
X1129Y722D01*
X1370Y722D02*
X1384Y722D01*
X1415Y722D02*
X1429Y722D01*
X1470Y722D02*
X1484Y722D01*
X1515Y722D02*
X1529Y722D01*
X1570Y722D02*
X1584Y722D01*
X1615Y722D02*
X1629Y722D01*
X1870Y722D02*
X1884Y722D01*
X1915Y722D02*
X1929Y722D01*
X1970Y722D02*
X1984Y722D01*
X2015Y722D02*
X2029Y722D01*
X2070Y722D02*
X2084Y722D01*
X2115Y722D02*
X2129Y722D01*
X870Y721D02*
X884Y721D01*
X916Y721D02*
X929Y721D01*
X970Y721D02*
X984Y721D01*
X1016Y721D02*
X1029Y721D01*
X1070Y721D02*
X1084Y721D01*
X1116Y721D02*
X1129Y721D01*
X1370Y721D02*
X1383Y721D01*
X1416Y721D02*
X1429Y721D01*
X1470Y721D02*
X1483Y721D01*
X1516Y721D02*
X1529Y721D01*
X1570Y721D02*
X1583Y721D01*
X1616Y721D02*
X1629Y721D01*
X1870Y721D02*
X1883Y721D01*
X1916Y721D02*
X1929Y721D01*
X1970Y721D02*
X1983Y721D01*
X2016Y721D02*
X2029Y721D01*
X2070Y721D02*
X2083Y721D01*
X2115Y721D02*
X2129Y721D01*
X870Y720D02*
X883Y720D01*
X917Y720D02*
X929Y720D01*
X970Y720D02*
X983Y720D01*
X1017Y720D02*
X1029Y720D01*
X1070Y720D02*
X1083Y720D01*
X1117Y720D02*
X1129Y720D01*
X1370Y720D02*
X1383Y720D01*
X1417Y720D02*
X1429Y720D01*
X1470Y720D02*
X1483Y720D01*
X1517Y720D02*
X1529Y720D01*
X1570Y720D02*
X1583Y720D01*
X1616Y720D02*
X1629Y720D01*
X1870Y720D02*
X1883Y720D01*
X1916Y720D02*
X1929Y720D01*
X1970Y720D02*
X1982Y720D01*
X2016Y720D02*
X2029Y720D01*
X2070Y720D02*
X2082Y720D01*
X2116Y720D02*
X2129Y720D01*
X870Y719D02*
X882Y719D01*
X917Y719D02*
X929Y719D01*
X970Y719D02*
X982Y719D01*
X1017Y719D02*
X1029Y719D01*
X1070Y719D02*
X1082Y719D01*
X1117Y719D02*
X1129Y719D01*
X1370Y719D02*
X1382Y719D01*
X1417Y719D02*
X1429Y719D01*
X1470Y719D02*
X1482Y719D01*
X1517Y719D02*
X1529Y719D01*
X1570Y719D02*
X1582Y719D01*
X1617Y719D02*
X1629Y719D01*
X1870Y719D02*
X1882Y719D01*
X1917Y719D02*
X1929Y719D01*
X1970Y719D02*
X1982Y719D01*
X2017Y719D02*
X2029Y719D01*
X2070Y719D02*
X2082Y719D01*
X2117Y719D02*
X2129Y719D01*
X870Y718D02*
X882Y718D01*
X918Y718D02*
X929Y718D01*
X970Y718D02*
X982Y718D01*
X1018Y718D02*
X1029Y718D01*
X1070Y718D02*
X1082Y718D01*
X1118Y718D02*
X1129Y718D01*
X1370Y718D02*
X1382Y718D01*
X1418Y718D02*
X1429Y718D01*
X1470Y718D02*
X1481Y718D01*
X1518Y718D02*
X1529Y718D01*
X1570Y718D02*
X1581Y718D01*
X1618Y718D02*
X1629Y718D01*
X1870Y718D02*
X1881Y718D01*
X1918Y718D02*
X1929Y718D01*
X1970Y718D02*
X1981Y718D01*
X2017Y718D02*
X2029Y718D01*
X2070Y718D02*
X2081Y718D01*
X2117Y718D02*
X2129Y718D01*
X870Y717D02*
X881Y717D01*
X918Y717D02*
X929Y717D01*
X970Y717D02*
X981Y717D01*
X1018Y717D02*
X1029Y717D01*
X1070Y717D02*
X1081Y717D01*
X1118Y717D02*
X1129Y717D01*
X1370Y717D02*
X1381Y717D01*
X1418Y717D02*
X1429Y717D01*
X1470Y717D02*
X1481Y717D01*
X1518Y717D02*
X1529Y717D01*
X1570Y717D02*
X1581Y717D01*
X1618Y717D02*
X1629Y717D01*
X1870Y717D02*
X1881Y717D01*
X1918Y717D02*
X1929Y717D01*
X1970Y717D02*
X1981Y717D01*
X2018Y717D02*
X2029Y717D01*
X2070Y717D02*
X2081Y717D01*
X2118Y717D02*
X2129Y717D01*
X870Y716D02*
X881Y716D01*
X919Y716D02*
X929Y716D01*
X970Y716D02*
X981Y716D01*
X1019Y716D02*
X1029Y716D01*
X1070Y716D02*
X1081Y716D01*
X1119Y716D02*
X1129Y716D01*
X1370Y716D02*
X1381Y716D01*
X1419Y716D02*
X1429Y716D01*
X1470Y716D02*
X1481Y716D01*
X1519Y716D02*
X1529Y716D01*
X1570Y716D02*
X1580Y716D01*
X1619Y716D02*
X1629Y716D01*
X1870Y716D02*
X1880Y716D01*
X1918Y716D02*
X1929Y716D01*
X1970Y716D02*
X1980Y716D01*
X2018Y716D02*
X2029Y716D01*
X2070Y716D02*
X2080Y716D01*
X2118Y716D02*
X2129Y716D01*
X870Y715D02*
X880Y715D01*
X919Y715D02*
X929Y715D01*
X970Y715D02*
X980Y715D01*
X1019Y715D02*
X1029Y715D01*
X1070Y715D02*
X1080Y715D01*
X1119Y715D02*
X1129Y715D01*
X1370Y715D02*
X1380Y715D01*
X1419Y715D02*
X1429Y715D01*
X1470Y715D02*
X1480Y715D01*
X1519Y715D02*
X1529Y715D01*
X1570Y715D02*
X1580Y715D01*
X1619Y715D02*
X1629Y715D01*
X1870Y715D02*
X1880Y715D01*
X1919Y715D02*
X1929Y715D01*
X1970Y715D02*
X1980Y715D01*
X2019Y715D02*
X2029Y715D01*
X2070Y715D02*
X2080Y715D01*
X2119Y715D02*
X2129Y715D01*
X870Y714D02*
X880Y714D01*
X919Y714D02*
X929Y714D01*
X970Y714D02*
X980Y714D01*
X1019Y714D02*
X1029Y714D01*
X1070Y714D02*
X1080Y714D01*
X1119Y714D02*
X1129Y714D01*
X1370Y714D02*
X1380Y714D01*
X1419Y714D02*
X1429Y714D01*
X1470Y714D02*
X1480Y714D01*
X1519Y714D02*
X1529Y714D01*
X1570Y714D02*
X1580Y714D01*
X1619Y714D02*
X1629Y714D01*
X1870Y714D02*
X1880Y714D01*
X1919Y714D02*
X1929Y714D01*
X1970Y714D02*
X1980Y714D01*
X2019Y714D02*
X2029Y714D01*
X2070Y714D02*
X2080Y714D01*
X2119Y714D02*
X2129Y714D01*
X870Y713D02*
X880Y713D01*
X920Y713D02*
X929Y713D01*
X970Y713D02*
X980Y713D01*
X1020Y713D02*
X1029Y713D01*
X1070Y713D02*
X1080Y713D01*
X1120Y713D02*
X1129Y713D01*
X1370Y713D02*
X1380Y713D01*
X1420Y713D02*
X1429Y713D01*
X1470Y713D02*
X1480Y713D01*
X1520Y713D02*
X1529Y713D01*
X1570Y713D02*
X1580Y713D01*
X1620Y713D02*
X1629Y713D01*
X1870Y713D02*
X1879Y713D01*
X1919Y713D02*
X1929Y713D01*
X1970Y713D02*
X1979Y713D01*
X2019Y713D02*
X2029Y713D01*
X2070Y713D02*
X2079Y713D01*
X2119Y713D02*
X2129Y713D01*
X870Y712D02*
X880Y712D01*
X920Y712D02*
X929Y712D01*
X970Y712D02*
X980Y712D01*
X1020Y712D02*
X1029Y712D01*
X1070Y712D02*
X1080Y712D01*
X1120Y712D02*
X1129Y712D01*
X1370Y712D02*
X1379Y712D01*
X1420Y712D02*
X1429Y712D01*
X1470Y712D02*
X1479Y712D01*
X1520Y712D02*
X1529Y712D01*
X1570Y712D02*
X1579Y712D01*
X1620Y712D02*
X1629Y712D01*
X1870Y712D02*
X1879Y712D01*
X1920Y712D02*
X1929Y712D01*
X1970Y712D02*
X1979Y712D01*
X2020Y712D02*
X2029Y712D01*
X2070Y712D02*
X2079Y712D01*
X2120Y712D02*
X2129Y712D01*
X870Y711D02*
X880Y711D01*
X920Y711D02*
X929Y711D01*
X970Y711D02*
X979Y711D01*
X1020Y711D02*
X1029Y711D01*
X1070Y711D02*
X1079Y711D01*
X1120Y711D02*
X1129Y711D01*
X1370Y711D02*
X1379Y711D01*
X1420Y711D02*
X1429Y711D01*
X1470Y711D02*
X1479Y711D01*
X1520Y711D02*
X1529Y711D01*
X1570Y711D02*
X1579Y711D01*
X1620Y711D02*
X1629Y711D01*
X1870Y711D02*
X1879Y711D01*
X1920Y711D02*
X1929Y711D01*
X1970Y711D02*
X1979Y711D01*
X2020Y711D02*
X2029Y711D01*
X2070Y711D02*
X2079Y711D01*
X2120Y711D02*
X2129Y711D01*
X870Y710D02*
X879Y710D01*
X920Y710D02*
X929Y710D01*
X970Y710D02*
X979Y710D01*
X1020Y710D02*
X1029Y710D01*
X1070Y710D02*
X1079Y710D01*
X1120Y710D02*
X1129Y710D01*
X1370Y710D02*
X1379Y710D01*
X1420Y710D02*
X1429Y710D01*
X1470Y710D02*
X1479Y710D01*
X1520Y710D02*
X1529Y710D01*
X1570Y710D02*
X1579Y710D01*
X1620Y710D02*
X1629Y710D01*
X1870Y710D02*
X1879Y710D01*
X1920Y710D02*
X1929Y710D01*
X1970Y710D02*
X1979Y710D01*
X2020Y710D02*
X2029Y710D01*
X2070Y710D02*
X2079Y710D01*
X2120Y710D02*
X2129Y710D01*
X870Y709D02*
X879Y709D01*
X920Y709D02*
X929Y709D01*
X970Y709D02*
X979Y709D01*
X1020Y709D02*
X1029Y709D01*
X1070Y709D02*
X1079Y709D01*
X1120Y709D02*
X1129Y709D01*
X1370Y709D02*
X1379Y709D01*
X1420Y709D02*
X1429Y709D01*
X1470Y709D02*
X1479Y709D01*
X1520Y709D02*
X1529Y709D01*
X1570Y709D02*
X1579Y709D01*
X1620Y709D02*
X1629Y709D01*
X1870Y709D02*
X1879Y709D01*
X1920Y709D02*
X1929Y709D01*
X1970Y709D02*
X1979Y709D01*
X2020Y709D02*
X2029Y709D01*
X2070Y709D02*
X2079Y709D01*
X2120Y709D02*
X2129Y709D01*
X870Y708D02*
X879Y708D01*
X920Y708D02*
X929Y708D01*
X970Y708D02*
X979Y708D01*
X1020Y708D02*
X1029Y708D01*
X1070Y708D02*
X1079Y708D01*
X1120Y708D02*
X1129Y708D01*
X1370Y708D02*
X1379Y708D01*
X1420Y708D02*
X1429Y708D01*
X1470Y708D02*
X1479Y708D01*
X1520Y708D02*
X1529Y708D01*
X1570Y708D02*
X1579Y708D01*
X1620Y708D02*
X1629Y708D01*
X1870Y708D02*
X1879Y708D01*
X1920Y708D02*
X1929Y708D01*
X1970Y708D02*
X1979Y708D01*
X2020Y708D02*
X2029Y708D01*
X2070Y708D02*
X2079Y708D01*
X2120Y708D02*
X2129Y708D01*
X870Y707D02*
X879Y707D01*
X920Y707D02*
X929Y707D01*
X970Y707D02*
X979Y707D01*
X1020Y707D02*
X1029Y707D01*
X1070Y707D02*
X1079Y707D01*
X1120Y707D02*
X1129Y707D01*
X1370Y707D02*
X1379Y707D01*
X1420Y707D02*
X1429Y707D01*
X1470Y707D02*
X1479Y707D01*
X1520Y707D02*
X1529Y707D01*
X1570Y707D02*
X1579Y707D01*
X1620Y707D02*
X1629Y707D01*
X1870Y707D02*
X1879Y707D01*
X1920Y707D02*
X1929Y707D01*
X1970Y707D02*
X1979Y707D01*
X2020Y707D02*
X2029Y707D01*
X2070Y707D02*
X2079Y707D01*
X2120Y707D02*
X2129Y707D01*
X870Y706D02*
X880Y706D01*
X920Y706D02*
X929Y706D01*
X970Y706D02*
X980Y706D01*
X1020Y706D02*
X1029Y706D01*
X1070Y706D02*
X1079Y706D01*
X1120Y706D02*
X1129Y706D01*
X1370Y706D02*
X1379Y706D01*
X1420Y706D02*
X1429Y706D01*
X1470Y706D02*
X1479Y706D01*
X1520Y706D02*
X1529Y706D01*
X1570Y706D02*
X1579Y706D01*
X1620Y706D02*
X1629Y706D01*
X1870Y706D02*
X1879Y706D01*
X1920Y706D02*
X1929Y706D01*
X1970Y706D02*
X1979Y706D01*
X2020Y706D02*
X2029Y706D01*
X2070Y706D02*
X2079Y706D01*
X2120Y706D02*
X2129Y706D01*
X870Y705D02*
X880Y705D01*
X920Y705D02*
X929Y705D01*
X970Y705D02*
X980Y705D01*
X1020Y705D02*
X1029Y705D01*
X1070Y705D02*
X1080Y705D01*
X1120Y705D02*
X1129Y705D01*
X1370Y705D02*
X1379Y705D01*
X1420Y705D02*
X1429Y705D01*
X1470Y705D02*
X1479Y705D01*
X1520Y705D02*
X1529Y705D01*
X1570Y705D02*
X1579Y705D01*
X1620Y705D02*
X1629Y705D01*
X1870Y705D02*
X1879Y705D01*
X1920Y705D02*
X1929Y705D01*
X1970Y705D02*
X1979Y705D01*
X2020Y705D02*
X2029Y705D01*
X2070Y705D02*
X2079Y705D01*
X2119Y705D02*
X2129Y705D01*
X870Y704D02*
X880Y704D01*
X920Y704D02*
X929Y704D01*
X970Y704D02*
X980Y704D01*
X1020Y704D02*
X1029Y704D01*
X1070Y704D02*
X1080Y704D01*
X1120Y704D02*
X1129Y704D01*
X1370Y704D02*
X1380Y704D01*
X1419Y704D02*
X1429Y704D01*
X1470Y704D02*
X1480Y704D01*
X1519Y704D02*
X1529Y704D01*
X1570Y704D02*
X1580Y704D01*
X1619Y704D02*
X1629Y704D01*
X1870Y704D02*
X1880Y704D01*
X1919Y704D02*
X1929Y704D01*
X1970Y704D02*
X1980Y704D01*
X2019Y704D02*
X2029Y704D01*
X2070Y704D02*
X2079Y704D01*
X2119Y704D02*
X2129Y704D01*
X870Y703D02*
X880Y703D01*
X919Y703D02*
X929Y703D01*
X970Y703D02*
X980Y703D01*
X1019Y703D02*
X1029Y703D01*
X1070Y703D02*
X1080Y703D01*
X1119Y703D02*
X1129Y703D01*
X1370Y703D02*
X1380Y703D01*
X1419Y703D02*
X1429Y703D01*
X1470Y703D02*
X1480Y703D01*
X1519Y703D02*
X1529Y703D01*
X1570Y703D02*
X1580Y703D01*
X1619Y703D02*
X1629Y703D01*
X1870Y703D02*
X1880Y703D01*
X1919Y703D02*
X1929Y703D01*
X1970Y703D02*
X1980Y703D01*
X2019Y703D02*
X2029Y703D01*
X2070Y703D02*
X2080Y703D01*
X2119Y703D02*
X2129Y703D01*
X870Y702D02*
X881Y702D01*
X919Y702D02*
X929Y702D01*
X970Y702D02*
X980Y702D01*
X1019Y702D02*
X1029Y702D01*
X1070Y702D02*
X1080Y702D01*
X1119Y702D02*
X1129Y702D01*
X1370Y702D02*
X1380Y702D01*
X1419Y702D02*
X1429Y702D01*
X1470Y702D02*
X1480Y702D01*
X1519Y702D02*
X1529Y702D01*
X1570Y702D02*
X1580Y702D01*
X1619Y702D02*
X1629Y702D01*
X1870Y702D02*
X1880Y702D01*
X1919Y702D02*
X1929Y702D01*
X1970Y702D02*
X1980Y702D01*
X2019Y702D02*
X2029Y702D01*
X2070Y702D02*
X2080Y702D01*
X2119Y702D02*
X2129Y702D01*
X870Y701D02*
X881Y701D01*
X919Y701D02*
X929Y701D01*
X970Y701D02*
X981Y701D01*
X1019Y701D02*
X1029Y701D01*
X1070Y701D02*
X1081Y701D01*
X1119Y701D02*
X1129Y701D01*
X1370Y701D02*
X1381Y701D01*
X1419Y701D02*
X1429Y701D01*
X1470Y701D02*
X1481Y701D01*
X1519Y701D02*
X1529Y701D01*
X1570Y701D02*
X1581Y701D01*
X1618Y701D02*
X1629Y701D01*
X1870Y701D02*
X1881Y701D01*
X1918Y701D02*
X1929Y701D01*
X1970Y701D02*
X1980Y701D01*
X2018Y701D02*
X2029Y701D01*
X2070Y701D02*
X2080Y701D01*
X2118Y701D02*
X2129Y701D01*
X870Y700D02*
X881Y700D01*
X918Y700D02*
X929Y700D01*
X970Y700D02*
X981Y700D01*
X1018Y700D02*
X1029Y700D01*
X1070Y700D02*
X1081Y700D01*
X1118Y700D02*
X1129Y700D01*
X1370Y700D02*
X1381Y700D01*
X1418Y700D02*
X1429Y700D01*
X1470Y700D02*
X1481Y700D01*
X1518Y700D02*
X1529Y700D01*
X1570Y700D02*
X1581Y700D01*
X1618Y700D02*
X1629Y700D01*
X1870Y700D02*
X1881Y700D01*
X1918Y700D02*
X1929Y700D01*
X1970Y700D02*
X1981Y700D01*
X2018Y700D02*
X2029Y700D01*
X2070Y700D02*
X2081Y700D01*
X2118Y700D02*
X2129Y700D01*
X870Y699D02*
X882Y699D01*
X918Y699D02*
X929Y699D01*
X970Y699D02*
X982Y699D01*
X1018Y699D02*
X1029Y699D01*
X1070Y699D02*
X1082Y699D01*
X1118Y699D02*
X1129Y699D01*
X1370Y699D02*
X1382Y699D01*
X1418Y699D02*
X1429Y699D01*
X1470Y699D02*
X1482Y699D01*
X1517Y699D02*
X1529Y699D01*
X1570Y699D02*
X1582Y699D01*
X1617Y699D02*
X1629Y699D01*
X1870Y699D02*
X1882Y699D01*
X1917Y699D02*
X1929Y699D01*
X1970Y699D02*
X1982Y699D01*
X2017Y699D02*
X2029Y699D01*
X2070Y699D02*
X2081Y699D01*
X2117Y699D02*
X2129Y699D01*
X870Y698D02*
X882Y698D01*
X917Y698D02*
X929Y698D01*
X970Y698D02*
X982Y698D01*
X1017Y698D02*
X1029Y698D01*
X1070Y698D02*
X1082Y698D01*
X1117Y698D02*
X1129Y698D01*
X1370Y698D02*
X1382Y698D01*
X1417Y698D02*
X1429Y698D01*
X1470Y698D02*
X1482Y698D01*
X1517Y698D02*
X1529Y698D01*
X1570Y698D02*
X1582Y698D01*
X1617Y698D02*
X1629Y698D01*
X1870Y698D02*
X1882Y698D01*
X1917Y698D02*
X1929Y698D01*
X1970Y698D02*
X1982Y698D01*
X2017Y698D02*
X2029Y698D01*
X2070Y698D02*
X2082Y698D01*
X2117Y698D02*
X2129Y698D01*
X870Y697D02*
X883Y697D01*
X916Y697D02*
X929Y697D01*
X970Y697D02*
X983Y697D01*
X1016Y697D02*
X1029Y697D01*
X1070Y697D02*
X1083Y697D01*
X1116Y697D02*
X1129Y697D01*
X1370Y697D02*
X1383Y697D01*
X1416Y697D02*
X1429Y697D01*
X1470Y697D02*
X1483Y697D01*
X1516Y697D02*
X1529Y697D01*
X1570Y697D02*
X1583Y697D01*
X1616Y697D02*
X1629Y697D01*
X1870Y697D02*
X1883Y697D01*
X1916Y697D02*
X1929Y697D01*
X1970Y697D02*
X1983Y697D01*
X2016Y697D02*
X2029Y697D01*
X2070Y697D02*
X2083Y697D01*
X2116Y697D02*
X2129Y697D01*
X870Y696D02*
X884Y696D01*
X916Y696D02*
X929Y696D01*
X970Y696D02*
X984Y696D01*
X1016Y696D02*
X1029Y696D01*
X1070Y696D02*
X1084Y696D01*
X1116Y696D02*
X1129Y696D01*
X1370Y696D02*
X1384Y696D01*
X1415Y696D02*
X1429Y696D01*
X1470Y696D02*
X1484Y696D01*
X1515Y696D02*
X1529Y696D01*
X1570Y696D02*
X1584Y696D01*
X1615Y696D02*
X1629Y696D01*
X1870Y696D02*
X1884Y696D01*
X1915Y696D02*
X1929Y696D01*
X1970Y696D02*
X1984Y696D01*
X2015Y696D02*
X2029Y696D01*
X2070Y696D02*
X2084Y696D01*
X2115Y696D02*
X2129Y696D01*
X870Y695D02*
X885Y695D01*
X915Y695D02*
X929Y695D01*
X970Y695D02*
X985Y695D01*
X1015Y695D02*
X1029Y695D01*
X1070Y695D02*
X1085Y695D01*
X1115Y695D02*
X1129Y695D01*
X1370Y695D02*
X1385Y695D01*
X1415Y695D02*
X1429Y695D01*
X1470Y695D02*
X1485Y695D01*
X1515Y695D02*
X1529Y695D01*
X1570Y695D02*
X1585Y695D01*
X1615Y695D02*
X1629Y695D01*
X1870Y695D02*
X1884Y695D01*
X1914Y695D02*
X1929Y695D01*
X1970Y695D02*
X1984Y695D01*
X2014Y695D02*
X2029Y695D01*
X2070Y695D02*
X2084Y695D01*
X2114Y695D02*
X2129Y695D01*
X870Y694D02*
X886Y694D01*
X914Y694D02*
X929Y694D01*
X970Y694D02*
X986Y694D01*
X1014Y694D02*
X1029Y694D01*
X1070Y694D02*
X1086Y694D01*
X1114Y694D02*
X1129Y694D01*
X1370Y694D02*
X1386Y694D01*
X1414Y694D02*
X1429Y694D01*
X1470Y694D02*
X1486Y694D01*
X1514Y694D02*
X1529Y694D01*
X1570Y694D02*
X1586Y694D01*
X1614Y694D02*
X1629Y694D01*
X1870Y694D02*
X1885Y694D01*
X1913Y694D02*
X1929Y694D01*
X1970Y694D02*
X1985Y694D01*
X2013Y694D02*
X2029Y694D01*
X2070Y694D02*
X2085Y694D01*
X2113Y694D02*
X2129Y694D01*
X870Y693D02*
X887Y693D01*
X913Y693D02*
X929Y693D01*
X970Y693D02*
X987Y693D01*
X1013Y693D02*
X1029Y693D01*
X1070Y693D02*
X1087Y693D01*
X1112Y693D02*
X1129Y693D01*
X1370Y693D02*
X1387Y693D01*
X1412Y693D02*
X1429Y693D01*
X1470Y693D02*
X1487Y693D01*
X1512Y693D02*
X1529Y693D01*
X1570Y693D02*
X1587Y693D01*
X1612Y693D02*
X1629Y693D01*
X1870Y693D02*
X1887Y693D01*
X1912Y693D02*
X1929Y693D01*
X1970Y693D02*
X1987Y693D01*
X2012Y693D02*
X2029Y693D01*
X2070Y693D02*
X2087Y693D01*
X2112Y693D02*
X2129Y693D01*
X870Y692D02*
X888Y692D01*
X911Y692D02*
X929Y692D01*
X970Y692D02*
X988Y692D01*
X1011Y692D02*
X1029Y692D01*
X1070Y692D02*
X1088Y692D01*
X1111Y692D02*
X1129Y692D01*
X1370Y692D02*
X1388Y692D01*
X1411Y692D02*
X1429Y692D01*
X1470Y692D02*
X1488Y692D01*
X1511Y692D02*
X1529Y692D01*
X1570Y692D02*
X1588Y692D01*
X1611Y692D02*
X1629Y692D01*
X1870Y692D02*
X1888Y692D01*
X1911Y692D02*
X1929Y692D01*
X1970Y692D02*
X1988Y692D01*
X2011Y692D02*
X2029Y692D01*
X2070Y692D02*
X2088Y692D01*
X2111Y692D02*
X2129Y692D01*
X870Y691D02*
X890Y691D01*
X909Y691D02*
X929Y691D01*
X970Y691D02*
X990Y691D01*
X1009Y691D02*
X1029Y691D01*
X1070Y691D02*
X1090Y691D01*
X1109Y691D02*
X1129Y691D01*
X1370Y691D02*
X1390Y691D01*
X1409Y691D02*
X1429Y691D01*
X1470Y691D02*
X1490Y691D01*
X1509Y691D02*
X1529Y691D01*
X1570Y691D02*
X1590Y691D01*
X1609Y691D02*
X1629Y691D01*
X1870Y691D02*
X1890Y691D01*
X1909Y691D02*
X1929Y691D01*
X1970Y691D02*
X1990Y691D01*
X2009Y691D02*
X2029Y691D01*
X2070Y691D02*
X2090Y691D01*
X2109Y691D02*
X2129Y691D01*
X870Y690D02*
X892Y690D01*
X907Y690D02*
X929Y690D01*
X970Y690D02*
X992Y690D01*
X1007Y690D02*
X1029Y690D01*
X1070Y690D02*
X1092Y690D01*
X1107Y690D02*
X1129Y690D01*
X1370Y690D02*
X1392Y690D01*
X1407Y690D02*
X1429Y690D01*
X1470Y690D02*
X1492Y690D01*
X1507Y690D02*
X1529Y690D01*
X1570Y690D02*
X1592Y690D01*
X1607Y690D02*
X1629Y690D01*
X1870Y690D02*
X1892Y690D01*
X1907Y690D02*
X1929Y690D01*
X1970Y690D02*
X1992Y690D01*
X2007Y690D02*
X2029Y690D01*
X2070Y690D02*
X2092Y690D01*
X2107Y690D02*
X2129Y690D01*
X870Y689D02*
X896Y689D01*
X903Y689D02*
X929Y689D01*
X970Y689D02*
X996Y689D01*
X1003Y689D02*
X1029Y689D01*
X1070Y689D02*
X1096Y689D01*
X1103Y689D02*
X1129Y689D01*
X1370Y689D02*
X1396Y689D01*
X1403Y689D02*
X1429Y689D01*
X1470Y689D02*
X1496Y689D01*
X1503Y689D02*
X1529Y689D01*
X1570Y689D02*
X1596Y689D01*
X1603Y689D02*
X1629Y689D01*
X1870Y689D02*
X1896Y689D01*
X1903Y689D02*
X1929Y689D01*
X1970Y689D02*
X1996Y689D01*
X2003Y689D02*
X2029Y689D01*
X2070Y689D02*
X2096Y689D01*
X2103Y689D02*
X2129Y689D01*
X870Y688D02*
X929Y688D01*
X970Y688D02*
X1029Y688D01*
X1070Y688D02*
X1129Y688D01*
X1370Y688D02*
X1429Y688D01*
X1470Y688D02*
X1529Y688D01*
X1570Y688D02*
X1629Y688D01*
X1870Y688D02*
X1929Y688D01*
X1970Y688D02*
X2029Y688D01*
X2070Y688D02*
X2129Y688D01*
X870Y687D02*
X929Y687D01*
X970Y687D02*
X1029Y687D01*
X1070Y687D02*
X1129Y687D01*
X1370Y687D02*
X1429Y687D01*
X1470Y687D02*
X1529Y687D01*
X1570Y687D02*
X1629Y687D01*
X1870Y687D02*
X1929Y687D01*
X1970Y687D02*
X2029Y687D01*
X2070Y687D02*
X2129Y687D01*
X870Y686D02*
X929Y686D01*
X970Y686D02*
X1029Y686D01*
X1070Y686D02*
X1129Y686D01*
X1370Y686D02*
X1429Y686D01*
X1470Y686D02*
X1529Y686D01*
X1570Y686D02*
X1629Y686D01*
X1870Y686D02*
X1929Y686D01*
X1970Y686D02*
X2029Y686D01*
X2070Y686D02*
X2129Y686D01*
X870Y685D02*
X929Y685D01*
X970Y685D02*
X1029Y685D01*
X1070Y685D02*
X1129Y685D01*
X1370Y685D02*
X1429Y685D01*
X1470Y685D02*
X1529Y685D01*
X1570Y685D02*
X1629Y685D01*
X1870Y685D02*
X1929Y685D01*
X1970Y685D02*
X2029Y685D01*
X2070Y685D02*
X2129Y685D01*
X870Y684D02*
X929Y684D01*
X970Y684D02*
X1029Y684D01*
X1070Y684D02*
X1129Y684D01*
X1370Y684D02*
X1429Y684D01*
X1470Y684D02*
X1529Y684D01*
X1570Y684D02*
X1629Y684D01*
X1870Y684D02*
X1929Y684D01*
X1970Y684D02*
X2029Y684D01*
X2070Y684D02*
X2129Y684D01*
X870Y683D02*
X929Y683D01*
X970Y683D02*
X1029Y683D01*
X1070Y683D02*
X1129Y683D01*
X1370Y683D02*
X1429Y683D01*
X1470Y683D02*
X1529Y683D01*
X1570Y683D02*
X1629Y683D01*
X1870Y683D02*
X1929Y683D01*
X1970Y683D02*
X2029Y683D01*
X2070Y683D02*
X2129Y683D01*
X870Y682D02*
X929Y682D01*
X970Y682D02*
X1029Y682D01*
X1070Y682D02*
X1129Y682D01*
X1370Y682D02*
X1429Y682D01*
X1470Y682D02*
X1529Y682D01*
X1570Y682D02*
X1629Y682D01*
X1870Y682D02*
X1929Y682D01*
X1970Y682D02*
X2029Y682D01*
X2070Y682D02*
X2129Y682D01*
X870Y681D02*
X929Y681D01*
X970Y681D02*
X1029Y681D01*
X1070Y681D02*
X1129Y681D01*
X1370Y681D02*
X1429Y681D01*
X1470Y681D02*
X1529Y681D01*
X1570Y681D02*
X1629Y681D01*
X1870Y681D02*
X1929Y681D01*
X1970Y681D02*
X2029Y681D01*
X2070Y681D02*
X2129Y681D01*
X870Y680D02*
X929Y680D01*
X970Y680D02*
X1029Y680D01*
X1070Y680D02*
X1129Y680D01*
X1370Y680D02*
X1429Y680D01*
X1470Y680D02*
X1529Y680D01*
X1570Y680D02*
X1629Y680D01*
X1870Y680D02*
X1929Y680D01*
X1970Y680D02*
X2029Y680D01*
X2070Y680D02*
X2129Y680D01*
X870Y679D02*
X929Y679D01*
X970Y679D02*
X1029Y679D01*
X1070Y679D02*
X1129Y679D01*
X1370Y679D02*
X1429Y679D01*
X1470Y679D02*
X1529Y679D01*
X1570Y679D02*
X1629Y679D01*
X1870Y679D02*
X1929Y679D01*
X1970Y679D02*
X2029Y679D01*
X2070Y679D02*
X2129Y679D01*
X870Y678D02*
X929Y678D01*
X970Y678D02*
X1029Y678D01*
X1070Y678D02*
X1129Y678D01*
X1370Y678D02*
X1429Y678D01*
X1470Y678D02*
X1529Y678D01*
X1570Y678D02*
X1629Y678D01*
X1870Y678D02*
X1929Y678D01*
X1970Y678D02*
X2029Y678D01*
X2070Y678D02*
X2129Y678D01*
X870Y677D02*
X929Y677D01*
X970Y677D02*
X1029Y677D01*
X1070Y677D02*
X1129Y677D01*
X1370Y677D02*
X1429Y677D01*
X1470Y677D02*
X1529Y677D01*
X1570Y677D02*
X1629Y677D01*
X1870Y677D02*
X1929Y677D01*
X1970Y677D02*
X2029Y677D01*
X2070Y677D02*
X2129Y677D01*
X870Y676D02*
X929Y676D01*
X970Y676D02*
X1029Y676D01*
X1070Y676D02*
X1129Y676D01*
X1370Y676D02*
X1429Y676D01*
X1470Y676D02*
X1529Y676D01*
X1570Y676D02*
X1629Y676D01*
X1870Y676D02*
X1929Y676D01*
X1970Y676D02*
X2029Y676D01*
X2070Y676D02*
X2129Y676D01*
X871Y675D02*
X929Y675D01*
X970Y675D02*
X1029Y675D01*
X1070Y675D02*
X1129Y675D01*
X1370Y675D02*
X1429Y675D01*
X1470Y675D02*
X1529Y675D01*
X1570Y675D02*
X1629Y675D01*
X1870Y675D02*
X1929Y675D01*
X1970Y675D02*
X2029Y675D01*
X2070Y675D02*
X2129Y675D01*
X871Y674D02*
X929Y674D01*
X971Y674D02*
X1029Y674D01*
X1071Y674D02*
X1129Y674D01*
X1371Y674D02*
X1429Y674D01*
X1470Y674D02*
X1529Y674D01*
X1570Y674D02*
X1629Y674D01*
X1870Y674D02*
X1929Y674D01*
X1970Y674D02*
X2029Y674D01*
X2070Y674D02*
X2128Y674D01*
X871Y673D02*
X929Y673D01*
X971Y673D02*
X1029Y673D01*
X1071Y673D02*
X1129Y673D01*
X1371Y673D02*
X1429Y673D01*
X1471Y673D02*
X1529Y673D01*
X1571Y673D02*
X1628Y673D01*
X1871Y673D02*
X1928Y673D01*
X1970Y673D02*
X2028Y673D01*
X2070Y673D02*
X2128Y673D01*
X871Y672D02*
X928Y672D01*
X971Y672D02*
X1028Y672D01*
X1071Y672D02*
X1128Y672D01*
X1371Y672D02*
X1428Y672D01*
X1471Y672D02*
X1528Y672D01*
X1571Y672D02*
X1628Y672D01*
X1871Y672D02*
X1928Y672D01*
X1971Y672D02*
X2028Y672D01*
X2071Y672D02*
X2128Y672D01*
X871Y671D02*
X928Y671D01*
X971Y671D02*
X1028Y671D01*
X1071Y671D02*
X1128Y671D01*
X1371Y671D02*
X1428Y671D01*
X1471Y671D02*
X1528Y671D01*
X1571Y671D02*
X1628Y671D01*
X1871Y671D02*
X1928Y671D01*
X1971Y671D02*
X2028Y671D01*
X2071Y671D02*
X2128Y671D01*
X872Y670D02*
X928Y670D01*
X972Y670D02*
X1028Y670D01*
X1072Y670D02*
X1128Y670D01*
X1371Y670D02*
X1428Y670D01*
X1471Y670D02*
X1528Y670D01*
X1571Y670D02*
X1628Y670D01*
X1871Y670D02*
X1928Y670D01*
X1971Y670D02*
X2028Y670D01*
X2071Y670D02*
X2128Y670D01*
X872Y669D02*
X928Y669D01*
X972Y669D02*
X1028Y669D01*
X1072Y669D02*
X1128Y669D01*
X1372Y669D02*
X1427Y669D01*
X1472Y669D02*
X1527Y669D01*
X1572Y669D02*
X1627Y669D01*
X1872Y669D02*
X1927Y669D01*
X1972Y669D02*
X2027Y669D01*
X2072Y669D02*
X2127Y669D01*
X872Y668D02*
X927Y668D01*
X972Y668D02*
X1027Y668D01*
X1072Y668D02*
X1127Y668D01*
X1372Y668D02*
X1427Y668D01*
X1472Y668D02*
X1527Y668D01*
X1572Y668D02*
X1627Y668D01*
X1872Y668D02*
X1927Y668D01*
X1972Y668D02*
X2027Y668D01*
X2072Y668D02*
X2127Y668D01*
X873Y667D02*
X927Y667D01*
X973Y667D02*
X1027Y667D01*
X1073Y667D02*
X1127Y667D01*
X1372Y667D02*
X1427Y667D01*
X1472Y667D02*
X1527Y667D01*
X1572Y667D02*
X1627Y667D01*
X1872Y667D02*
X1927Y667D01*
X1972Y667D02*
X2027Y667D01*
X2072Y667D02*
X2127Y667D01*
X873Y666D02*
X926Y666D01*
X973Y666D02*
X1026Y666D01*
X1073Y666D02*
X1126Y666D01*
X1373Y666D02*
X1426Y666D01*
X1473Y666D02*
X1526Y666D01*
X1573Y666D02*
X1626Y666D01*
X1873Y666D02*
X1926Y666D01*
X1973Y666D02*
X2026Y666D01*
X2073Y666D02*
X2126Y666D01*
X874Y665D02*
X926Y665D01*
X974Y665D02*
X1026Y665D01*
X1074Y665D02*
X1126Y665D01*
X1373Y665D02*
X1426Y665D01*
X1473Y665D02*
X1526Y665D01*
X1573Y665D02*
X1626Y665D01*
X1873Y665D02*
X1926Y665D01*
X1973Y665D02*
X2026Y665D01*
X2073Y665D02*
X2126Y665D01*
X874Y664D02*
X925Y664D01*
X974Y664D02*
X1025Y664D01*
X1074Y664D02*
X1125Y664D01*
X1374Y664D02*
X1425Y664D01*
X1474Y664D02*
X1525Y664D01*
X1574Y664D02*
X1625Y664D01*
X1874Y664D02*
X1925Y664D01*
X1974Y664D02*
X2025Y664D01*
X2074Y664D02*
X2125Y664D01*
X875Y663D02*
X925Y663D01*
X975Y663D02*
X1025Y663D01*
X1075Y663D02*
X1125Y663D01*
X1375Y663D02*
X1425Y663D01*
X1475Y663D02*
X1525Y663D01*
X1575Y663D02*
X1625Y663D01*
X1874Y663D02*
X1924Y663D01*
X1974Y663D02*
X2024Y663D01*
X2074Y663D02*
X2124Y663D01*
X875Y662D02*
X924Y662D01*
X975Y662D02*
X1024Y662D01*
X1075Y662D02*
X1124Y662D01*
X1375Y662D02*
X1424Y662D01*
X1475Y662D02*
X1524Y662D01*
X1575Y662D02*
X1624Y662D01*
X1875Y662D02*
X1924Y662D01*
X1975Y662D02*
X2024Y662D01*
X2075Y662D02*
X2124Y662D01*
X876Y661D02*
X923Y661D01*
X976Y661D02*
X1023Y661D01*
X1076Y661D02*
X1123Y661D01*
X1376Y661D02*
X1423Y661D01*
X1476Y661D02*
X1523Y661D01*
X1576Y661D02*
X1623Y661D01*
X1876Y661D02*
X1923Y661D01*
X1976Y661D02*
X2023Y661D01*
X2076Y661D02*
X2123Y661D01*
X877Y660D02*
X923Y660D01*
X977Y660D02*
X1023Y660D01*
X1077Y660D02*
X1123Y660D01*
X1377Y660D02*
X1423Y660D01*
X1477Y660D02*
X1523Y660D01*
X1577Y660D02*
X1622Y660D01*
X1876Y660D02*
X1922Y660D01*
X1976Y660D02*
X2022Y660D01*
X2076Y660D02*
X2122Y660D01*
X878Y659D02*
X922Y659D01*
X978Y659D02*
X1022Y659D01*
X1078Y659D02*
X1122Y659D01*
X1378Y659D02*
X1422Y659D01*
X1477Y659D02*
X1522Y659D01*
X1577Y659D02*
X1622Y659D01*
X1877Y659D02*
X1922Y659D01*
X1977Y659D02*
X2022Y659D01*
X2077Y659D02*
X2121Y659D01*
X879Y658D02*
X921Y658D01*
X979Y658D02*
X1021Y658D01*
X1079Y658D02*
X1121Y658D01*
X1378Y658D02*
X1421Y658D01*
X1478Y658D02*
X1521Y658D01*
X1578Y658D02*
X1621Y658D01*
X1878Y658D02*
X1921Y658D01*
X1978Y658D02*
X2021Y658D01*
X2078Y658D02*
X2121Y658D01*
X880Y657D02*
X920Y657D01*
X980Y657D02*
X1020Y657D01*
X1080Y657D02*
X1120Y657D01*
X1379Y657D02*
X1420Y657D01*
X1479Y657D02*
X1520Y657D01*
X1579Y657D02*
X1620Y657D01*
X1879Y657D02*
X1920Y657D01*
X1979Y657D02*
X2020Y657D01*
X2079Y657D02*
X2120Y657D01*
X881Y656D02*
X919Y656D01*
X981Y656D02*
X1019Y656D01*
X1081Y656D02*
X1119Y656D01*
X1381Y656D02*
X1419Y656D01*
X1480Y656D02*
X1519Y656D01*
X1580Y656D02*
X1619Y656D01*
X1880Y656D02*
X1919Y656D01*
X1980Y656D02*
X2018Y656D01*
X2080Y656D02*
X2118Y656D01*
X882Y655D02*
X918Y655D01*
X982Y655D02*
X1018Y655D01*
X1082Y655D02*
X1118Y655D01*
X1382Y655D02*
X1417Y655D01*
X1482Y655D02*
X1517Y655D01*
X1582Y655D02*
X1617Y655D01*
X1882Y655D02*
X1917Y655D01*
X1982Y655D02*
X2017Y655D01*
X2082Y655D02*
X2117Y655D01*
X883Y654D02*
X916Y654D01*
X983Y654D02*
X1016Y654D01*
X1083Y654D02*
X1116Y654D01*
X1383Y654D02*
X1416Y654D01*
X1483Y654D02*
X1516Y654D01*
X1583Y654D02*
X1616Y654D01*
X1883Y654D02*
X1916Y654D01*
X1983Y654D02*
X2016Y654D01*
X2083Y654D02*
X2116Y654D01*
X885Y653D02*
X915Y653D01*
X985Y653D02*
X1015Y653D01*
X1085Y653D02*
X1115Y653D01*
X1385Y653D02*
X1415Y653D01*
X1485Y653D02*
X1515Y653D01*
X1585Y653D02*
X1614Y653D01*
X1885Y653D02*
X1914Y653D01*
X1984Y653D02*
X2014Y653D01*
X2084Y653D02*
X2114Y653D01*
X887Y652D02*
X913Y652D01*
X987Y652D02*
X1013Y652D01*
X1087Y652D02*
X1113Y652D01*
X1386Y652D02*
X1413Y652D01*
X1486Y652D02*
X1513Y652D01*
X1586Y652D02*
X1613Y652D01*
X1886Y652D02*
X1913Y652D01*
X1986Y652D02*
X2013Y652D01*
X2086Y652D02*
X2113Y652D01*
X889Y651D02*
X911Y651D01*
X989Y651D02*
X1011Y651D01*
X1089Y651D02*
X1111Y651D01*
X1389Y651D02*
X1411Y651D01*
X1489Y651D02*
X1511Y651D01*
X1589Y651D02*
X1611Y651D01*
X1888Y651D02*
X1910Y651D01*
X1988Y651D02*
X2010Y651D01*
X2088Y651D02*
X2110Y651D01*
X891Y650D02*
X908Y650D01*
X991Y650D02*
X1008Y650D01*
X1091Y650D02*
X1108Y650D01*
X1391Y650D02*
X1408Y650D01*
X1491Y650D02*
X1508Y650D01*
X1591Y650D02*
X1608Y650D01*
X1891Y650D02*
X1908Y650D01*
X1991Y650D02*
X2008Y650D01*
X2091Y650D02*
X2108Y650D01*
X896Y649D02*
X903Y649D01*
X996Y649D02*
X1003Y649D01*
X1096Y649D02*
X1103Y649D01*
X1396Y649D02*
X1403Y649D01*
X1496Y649D02*
X1503Y649D01*
X1596Y649D02*
X1603Y649D01*
X1896Y649D02*
X1903Y649D01*
X1996Y649D02*
X2003Y649D01*
X2096Y649D02*
X2103Y649D01*
D02*
G04 End of Copper1*
M02*