; NON-PLATED HOLES START AT T1
; THROUGH (PLATED) HOLES START AT T100
M48
INCH
T100C0.038000
T101C0.017778
T102C0.036000
T103C0.045118
T104C0.031496
%
T100
X007005Y002073
X011005Y002073
X021005Y002073
X003005Y002073
X019005Y002073
X013005Y002073
X023005Y002073
X005005Y002073
X015005Y002073
T101
X002005Y014406
X002005Y017073
X002005Y016184
X002005Y015295
T102
X021005Y011573
X009005Y017573
X012005Y017573
X008005Y017573
X015005Y011573
X011005Y017573
X009005Y011573
X012005Y011573
X008005Y011573
X011005Y011573
X017005Y017573
X020005Y017573
X016005Y017573
X014005Y017573
X017005Y011573
X013005Y017573
X020005Y011573
X016005Y011573
X007005Y017573
X014005Y011573
X010005Y017573
X013005Y011573
X007005Y011573
X019005Y017573
X010005Y011573
X018005Y017573
X021005Y017573
X019005Y011573
X015005Y017573
X018005Y011573
T103
X010005Y007073
X011005Y007073
X009005Y007073
X020005Y007073
X021005Y007073
X019005Y007073
X014005Y007073
X015005Y007073
X016005Y007073
T104
X002005Y009073
X002014Y011079
T00
M30
